<svg width="41" height="38" viewBox="0 0 41 38" fill="none"
  xmlns="http://www.w3.org/2000/svg">
  <g clip-path="url(#clip0)">
    <path d="M38.8688 2.35434C39.1713 1.76441 38.858 0.876478 37.9241 0.855283C27.5022 0.614016 14.0171 1.35704 3.59571 0.989784C3.26671 0.978201 3.01819 1.08095 2.8426 1.242C2.48592 1.37564 2.20792 1.66978 2.20792 2.13104C2.20312 13.5265 1.67942 25.1978 3.41549 36.5147C3.47119 36.8767 3.682 37.0888 3.94818 37.1836C4.1242 37.3865 4.39467 37.5245 4.76454 37.5225C6.76181 37.5129 9.63233 37.3981 11.63 37.3881C12.0569 37.3862 12.3525 37.1993 12.5213 36.942C12.8091 36.7883 13.0178 36.5127 13.0178 36.1122V24.6961C13.0178 24.6456 13.0089 24.6009 13.0026 24.5541C13.0093 24.5116 13.0178 24.4688 13.0178 24.4272C13.0178 23.8231 12.5141 23.4922 11.9225 23.4198C11.1118 23.3205 9.86063 23.2949 9.04556 23.2881C9.00143 23.0504 8.95198 22.411 8.90613 22.1738C9.65033 22.0073 10.8507 21.9489 11.6301 21.9424C11.7551 21.9417 11.864 21.9205 11.9665 21.8908C12.5422 21.9237 13.1021 21.6096 13.0179 20.935C12.6114 17.6896 12.6 14.8525 12.8671 11.5971C14.3364 8.34678 18.2055 7.19103 21.7825 7.60352V9.18475C15.3652 9.40301 14.1345 15.1933 15.5403 20.2627C15.5756 20.3896 15.6326 20.4941 15.6994 20.5857C15.777 21.0194 16.1245 21.4051 16.7427 21.4051H19.4453V23.0203C18.5515 23.4453 17.6093 23.3256 16.5974 23.4556C16.5854 23.4573 16.5756 23.4624 16.5641 23.4644C15.9944 23.4388 15.437 23.7564 15.5012 24.4271C15.7745 27.2879 15.9366 32.9755 16.0854 35.844C16.1112 36.3429 16.4539 36.6482 16.8604 36.7626C16.9936 36.8191 17.1487 36.8515 17.3269 36.8515C24.3877 36.8563 30.5742 36.9715 37.6321 36.717C38.0416 36.7022 38.3284 36.5189 38.5008 36.2713C38.7932 36.1176 39.0098 35.8412 39.0195 35.4406C39.2945 24.4267 38.8837 13.4138 38.8737 2.3998C38.8745 2.38396 38.8697 2.37041 38.8688 2.35434ZM36.8418 34.7257C30.3473 34.935 24.7267 34.8506 18.2296 34.8386C18.1076 32.0506 17.9681 27.5754 17.7683 25.3039C18.9435 25.0822 20.066 25.063 21.0939 24.4913C21.4455 24.2956 21.5969 24.0087 21.6112 23.7175C21.6278 23.6459 21.6365 23.5691 21.6365 23.487V20.3978C21.6365 19.7452 21.0834 19.421 20.5333 19.4239C20.4452 19.4039 20.3521 19.3902 20.2487 19.3902H17.5646C16.5776 15.4821 17.1351 11.0027 22.586 11.1969C23.1421 11.2167 23.4751 10.9159 23.5935 10.5423C23.8189 10.3805 23.9738 10.1304 23.9738 9.78666V6.69738C23.9738 6.04142 23.4155 5.71774 22.8624 5.72428C17.7848 4.93445 12.7197 6.57454 10.7197 11.1307C10.6252 11.3457 10.6176 11.5374 10.6681 11.7029C10.4359 14.5951 10.427 17.0731 10.7187 19.9564C9.73311 20.0128 8.30916 20.162 7.39443 20.5005C6.88024 20.6906 6.51885 21.1019 6.60652 21.6196C6.60566 21.7036 6.61046 21.7885 6.62872 21.8737C6.79146 22.6324 6.92875 23.7979 7.06689 24.5601C7.15284 25.0342 7.71468 25.32 8.20898 25.2943C8.22946 25.2951 8.24772 25.2995 8.26948 25.2995C8.97657 25.2995 10.1211 25.3046 10.8257 25.3431V35.386C9.32862 35.4112 6.95634 35.4731 5.45955 35.4964C3.88528 24.8169 4.36373 13.7846 4.39509 3.02637C14.2948 3.32012 26.9387 2.69252 36.6852 2.84814C36.7056 13.4745 37.079 24.1 36.8418 34.7257Z" fill="black"/>
  </g>
  <defs>
    <clipPath id="clip0">
      <rect width="39.9335" height="36.7165" fill="white" transform="translate(0.655273 0.80603)"/>
    </clipPath>
  </defs>
</svg>
