<svg width="141" height="141" viewBox="0 0 141 141" fill="none" xmlns="http://www.w3.org/2000/svg">
<g clip-path="url(#clip0)">
<path d="M119.448 24.6806C119.337 24.1664 119.095 23.7879 118.778 23.529C118.566 23.2755 118.291 23.057 117.932 22.9031C98.9331 14.7634 74.3619 13.9126 61.7951 32.576C42.1719 21.5667 20.6141 33.3861 7.31228 49.2061C7.06118 49.5051 6.91517 49.8238 6.8382 50.1461C6.67276 50.5196 6.62547 50.9657 6.75803 51.4759C11.9237 71.3707 16.0636 91.5071 20.7873 111.508C20.8703 111.858 21.0145 112.142 21.2003 112.37C21.2036 113.892 22.6613 115.357 24.2382 114.266C39.7081 103.566 58.6424 97.5101 76.7369 104.526C77.2923 105.283 78.2298 105.703 79.0841 105.279C80.0368 105.272 80.685 104.475 80.8386 103.55C93.8393 89.141 113.472 86.0262 132.103 88.6177C134.003 88.8824 134.644 86.9176 133.963 85.5578C134.024 85.2705 134.027 84.9517 133.944 84.6023C129.157 64.6158 123.79 44.7711 119.448 24.6806ZM77.9243 100.408C59.8166 93.3868 40.464 98.6783 24.5939 108.914C20.0877 89.7068 16.0726 70.3861 11.1391 51.2806C23.3885 37.1342 43.1079 25.8059 61.1557 37.167C61.786 37.5637 62.407 37.5811 62.937 37.3781C63.5013 37.3219 64.0481 37.0258 64.4329 36.3878C75.4334 18.1196 98.1422 19.358 115.448 26.4782C119.642 45.7595 124.755 64.8192 129.375 84.0004C110.596 82.0023 90.932 85.9882 77.9243 100.408Z" fill="black"/>
<path d="M133.795 91.5432C114.436 88.6318 89.0792 91.8292 79.758 110.306C63.118 98.0034 39.0345 106.561 23.0579 117.874C20.2363 119.871 23.937 123.465 26.7324 121.486C41.1907 111.248 64.3669 102.709 78.7094 116.311C79.508 117.069 80.4763 117.176 81.3282 116.91C82.2103 116.763 83.0258 116.232 83.3972 115.196C90.0813 96.5931 114.621 93.7879 132.14 96.4227C135.527 96.9326 137.212 92.0562 133.795 91.5432Z" fill="black"/>
<path d="M22.3699 67.4997C22.9935 68.328 24.1806 68.7083 25.1005 67.7401C27.4721 65.2478 30.1464 63.2064 33.2813 61.7699C34.3073 61.3002 34.4609 60.3415 34.1198 59.5433C34.1194 59.3893 34.1069 59.2274 34.0662 59.0565L31.5818 48.608C31.2901 47.3814 30.1692 47.0255 29.2286 47.2911C29.056 47.2877 28.8788 47.3001 28.6848 47.3487C24.92 48.3123 21.5401 50.1655 19.0188 53.1603C18.524 53.7465 18.4509 54.4252 18.6283 55.0192C18.6072 55.1973 18.6007 55.3829 18.63 55.584C19.1633 59.1314 19.9779 62.6182 20.807 66.1053C21.019 66.9967 21.6685 67.43 22.3699 67.4997ZM22.3814 55.0851C24.0708 53.3521 26.0599 52.1589 28.3489 51.3978L30.1754 59.0793C27.9538 60.2499 25.9205 61.7391 24.0743 63.4399C23.4282 60.6713 22.8204 57.8964 22.3814 55.0851Z" fill="black"/>
<path d="M39.4015 49.2758C43.5667 46.6442 48.0445 46.0258 52.7453 47.5303C55.0798 48.2777 56.1731 44.648 53.849 43.9044C48.2488 42.1122 42.552 42.8097 37.5756 45.9546C35.522 47.2516 37.3289 50.5861 39.4015 49.2758Z" fill="black"/>
<path d="M40.994 57.3388C45.3184 55.299 49.737 54.9624 54.2499 56.5883C56.5567 57.4189 57.6424 53.7865 55.3536 52.9623C49.8823 50.9916 44.3805 51.5573 39.1682 54.0173C36.9575 55.0602 38.7911 58.3796 40.994 57.3388Z" fill="black"/>
<path d="M59.9741 64.2017C46.013 60.2108 32.1856 66.3307 22.655 76.6467C21.0053 78.4324 23.6091 81.1898 25.2726 79.3878C33.8739 70.0791 46.1674 64.196 58.8701 67.8277C61.2241 68.5008 62.3235 64.8726 59.9741 64.2017Z" fill="black"/>
<path d="M62.0202 72.8061C48.0593 68.8155 34.2318 74.9354 24.7012 85.2514C23.0518 87.0373 25.6556 89.7944 27.319 87.9922C35.9203 78.6835 48.2138 72.8002 60.9165 76.4319C63.2703 77.1053 64.3698 73.4775 62.0202 72.8061Z" fill="black"/>
<path d="M64.0661 81.4107C50.1051 77.4199 36.2776 83.5398 26.7471 93.856C25.0974 95.6419 27.7012 98.3991 29.3647 96.5971C37.9659 87.2884 50.2594 81.4051 62.9622 85.0368C65.3161 85.7096 66.4157 82.0824 64.0661 81.4107Z" fill="black"/>
<path d="M77.2276 64.9976C86.158 55.2602 99.7107 53.8462 111.911 57.2846C114.27 57.9496 115.048 54.2388 112.71 53.5791C99.1914 49.7684 84.2047 51.7817 74.3902 62.4839C72.737 64.2851 75.5727 66.8015 77.2276 64.9976Z" fill="black"/>
<path d="M79.9821 73.4028C88.9123 63.6647 102.465 62.2513 114.666 65.69C117.025 66.3554 117.802 62.6435 115.463 61.9848C101.944 58.1744 86.958 60.1871 77.1436 70.8895C75.4927 72.6898 78.3273 75.2067 79.9821 73.4028Z" fill="black"/>
<path d="M73.1358 47.7888C82.0662 38.0513 95.6189 36.6373 107.819 40.0757C110.178 40.7407 110.956 37.0301 108.618 36.3702C95.0997 32.5595 80.1128 34.5726 70.2985 45.275C68.6452 47.076 71.481 49.5926 73.1358 47.7888Z" fill="black"/>
<path d="M73.0525 53.679C71.4009 55.4809 74.2352 57.9966 75.8901 56.1927C84.8203 46.4546 98.3732 45.0413 110.574 48.4792C112.932 49.1446 113.71 45.4334 111.371 44.7745C97.8539 40.9645 82.8672 42.9778 73.0525 53.679Z" fill="black"/>
<path d="M118.219 70.3874C104.701 66.5778 89.7133 68.5907 79.9 79.2933C78.2485 81.0954 81.0839 83.6106 82.7373 81.8061C91.6678 72.0691 105.222 70.6548 117.421 74.093C119.78 74.7595 120.558 71.0476 118.219 70.3874Z" fill="black"/>
</g>
<defs>
<clipPath id="clip0">
<rect width="117" height="117" fill="white" transform="translate(0 27.0656) rotate(-13.3754)"/>
</clipPath>
</defs>
</svg>
