<svg width="23" height="30" viewBox="0 0 23 30" fill="none"
  xmlns="http://www.w3.org/2000/svg">
  <path d="M4.06214 14.8931C3.75085 15.5119 3.66111 16.0747 3.91013 16.4182C3.70876 16.538 3.61172 16.7656 3.59884 17.0369C3.59325 17.6436 3.81265 17.9824 4.75123 18.1928C5.60094 18.389 7.87612 18.5999 8.71981 18.6432C9.02079 18.6608 9.17493 18.8373 9.15131 18.9854C9.13843 19.2568 9.02035 19.9974 8.99201 20.1752C8.91171 20.6788 8.77904 20.7488 8.0882 20.6994C7.36773 20.6453 6.11872 20.4766 5.15653 20.4143C4.19433 20.352 3.91009 20.6105 3.57046 21.407C3.27934 22.0897 2.82378 23.2322 2.66662 24.0274C2.35103 25.4352 3.00666 26.0866 4.45489 26.5301C5.46817 26.8436 7.14268 27.2017 8.65961 27.5954C9.41098 27.8367 10.0615 27.7581 10.2779 26.9724C10.4398 26.1476 9.97261 25.6478 8.77341 25.5478C8.14654 25.4782 7.77686 25.5104 7.27795 25.4005C6.42824 25.2043 5.98858 25.1038 5.18267 24.8234C4.77735 24.698 4.70737 24.5654 4.83146 23.9776C4.8787 23.6813 5.1887 22.8801 5.4124 22.4297C6.42441 22.5607 7.98384 22.6878 8.85244 22.7655C9.92842 22.8763 10.4235 22.4388 10.6966 21.2976C10.8786 20.5367 11.1161 19.2379 11.1238 18.2367C11.1363 17.2058 10.6562 16.9773 9.60989 16.8713C8.19858 16.7678 6.70312 16.6205 5.55244 16.4067C5.66021 16.3023 5.7478 16.134 5.80577 15.961C6.41032 14.265 7.09688 13.0074 7.91869 12.0448C9.33472 12.1187 11.591 12.448 12.7713 12.6666C13.5072 12.8143 13.9847 12.6777 14.1775 12.0402C14.3312 11.4571 13.9933 11.0994 13.2668 10.8925C12.3626 10.6572 10.9358 10.4601 9.85985 10.3493C8.27551 10.1878 3.84966 9.93789 1.50707 9.95934C0.658651 9.94559 0.243025 10.4565 0.300126 10.8606C0.367959 11.3878 0.66679 11.8 1.39198 11.8245L5.76674 11.8232C5.1214 12.6317 4.5615 13.6665 4.06214 14.8931ZM6.76209 3.29356C6.06652 3.27381 5.55 3.46487 5.46026 4.02776C5.35162 4.70915 5.9407 5.01572 6.72514 5.04965C7.53921 5.0883 9.64737 5.39403 10.7375 5.41594C10.6963 5.86505 10.643 6.00845 10.5816 6.39359C10.4623 6.95176 10.2373 7.21968 9.56663 7.23427C8.43741 7.26689 5.93939 6.92938 4.7638 6.6812C4.23526 6.56655 4.15455 6.31065 4.16614 5.85682C4.16787 4.7027 4.41477 3.34463 4.82525 2.10378C5.05239 1.44128 4.87679 1.01836 4.20484 0.850474C3.62649 0.66713 3.04728 1.06085 2.85449 1.69845C2.17908 3.8388 2.09105 5.34371 2.04552 6.58199C1.98583 7.90914 2.61054 8.37329 3.93898 8.61546C5.50443 8.89542 8.69329 9.28231 10.0003 9.27803C11.6129 9.26173 12.1127 8.79459 12.4141 7.4756C12.7439 5.97885 12.8083 4.62207 12.9316 2.5152C12.9501 1.63716 12.6808 1.22969 12.0493 1.18975C11.4177 1.14981 11.0566 1.69982 11.0463 2.33613C11.0501 2.88357 11.0171 3.09095 10.9475 3.71782C9.14632 3.58255 7.52635 3.26352 6.76209 3.29356ZM16.615 7.99345C16.2655 10.1858 15.9465 11.8057 15.6064 13.9388C14.6004 13.9607 11.427 13.6674 10.1732 13.5283C9.41843 13.4991 9.13419 13.7575 9.03973 14.3501C8.94999 14.9129 9.28317 15.3002 9.99419 15.4136C10.883 15.5553 14.1938 15.749 15.2152 15.8207C15.1976 16.1217 15.1955 16.5162 15.159 16.9357C15.1177 17.3848 15.4509 17.7721 15.9545 17.8524C16.6359 17.9611 16.9438 17.5545 17.0726 16.937C17.8099 13.0749 18.1903 11.0698 18.6343 8.28501C18.7807 7.36661 18.566 6.99821 17.8254 6.88013C17.144 6.77149 16.8207 7.0845 16.615 7.99345ZM13.3376 18.8326C12.6515 18.7536 12.0366 18.9898 11.9529 19.7055C11.8928 20.2731 12.271 20.7587 12.7996 20.8734C13.3874 20.9975 13.8944 20.8657 14.3779 20.882C15.9172 20.9451 15.5724 21.0117 16.851 21.1851C17.1769 21.2371 17.2812 21.3449 17.2151 21.7596C17.0073 23.0632 16.2284 26.6148 15.9162 27.8106C15.7531 28.4529 15.9394 28.9991 16.6457 29.142C17.352 29.285 17.8033 28.9317 17.9913 28.3237C18.3816 27.0189 19.2881 22.6673 19.5053 21.3045C19.7037 20.0602 19.2318 19.5901 18.0764 19.4059C15.9434 19.0658 15.1838 19.0662 13.3376 18.8326ZM20.672 7.69852C20.3461 9.74271 20.1005 11.2832 19.739 13.1699C19.4011 14.9083 19.1988 15.6052 18.9438 17.205C18.8257 17.9456 19.0854 18.4123 19.7372 18.5163C20.3594 18.6154 20.7312 18.1887 20.8647 17.5416C21.3091 15.5163 22.1172 11.2098 22.6132 8.09914C22.7265 7.38812 22.3826 6.8776 21.7901 6.78314C21.1383 6.67922 20.7665 7.10601 20.672 7.69852Z" fill="black"/>
</svg>
