<svg width="57" height="24" viewBox="0 0 57 24" fill="none" xmlns="http://www.w3.org/2000/svg">
<path d="M14.8495 21.68C15.0735 22.352 15.6815 23.024 16.5775 22.736C17.3455 22.416 17.4735 21.648 17.1855 20.848L14.6255 12.24C13.5375 8.496 12.6095 5.392 11.7135 2.224C11.4895 1.296 11.1695 0.719999 10.1455 0.719999C9.1855 0.719999 8.9295 1.232 8.5135 2.224C6.7535 6.448 3.9375 13.424 1.3455 19.376C1.1535 19.92 0.8015 20.496 0.5455 21.04C0.0335 22.256 0.1935 23.312 1.2815 23.472C2.3055 23.632 2.8495 22.96 3.0095 22.128C3.1695 21.456 3.1695 20.848 3.4575 20.176C4.2255 18.352 5.0255 16.528 5.7615 14.704C7.7135 14.8 11.2015 14.992 12.9615 15.024L14.8495 21.68ZM9.9855 3.984C10.5615 6.32 11.3615 9.2 12.3535 12.816C10.7855 12.784 8.3855 12.688 6.6255 12.624C7.8095 9.712 8.9295 6.864 9.9855 3.984ZM20.9685 2.448C20.9685 3.024 21.0965 3.728 21.0965 4.656C21.0965 6.672 21.0325 9.424 20.9685 12.272C20.9045 14.768 20.5525 18.32 20.5525 20.944C20.5525 21.968 21.0645 22.512 22.1205 22.608C22.8245 22.672 25.3205 22.576 27.4645 22.608C31.5925 22.704 32.3925 22.896 35.5285 23.216C36.2965 23.312 37.0005 23.056 37.1605 22.288C37.3525 21.36 36.4885 20.816 35.4645 20.72C34.6965 20.656 33.8005 20.752 33.1605 20.688C30.0245 20.464 26.3765 20.304 23.1445 20.432C23.2085 18.096 23.4645 14.544 23.5285 12.048C23.5925 9.328 23.5925 6.928 23.5925 4.528C23.5925 3.888 23.6245 3.312 23.6245 2.768C23.6245 1.648 23.2405 0.815998 22.2805 0.815998C21.3525 0.815998 20.9685 1.424 20.9685 2.448ZM39.8435 2.448C39.8435 3.024 39.9715 3.728 39.9715 4.656C39.9715 6.672 39.9075 9.424 39.8435 12.272C39.7795 14.768 39.4275 18.32 39.4275 20.944C39.4275 21.968 39.9395 22.512 40.9955 22.608C41.6995 22.672 44.1955 22.576 46.3395 22.608C50.4675 22.704 51.2675 22.896 54.4035 23.216C55.1715 23.312 55.8755 23.056 56.0355 22.288C56.2275 21.36 55.3635 20.816 54.3395 20.72C53.5715 20.656 52.6755 20.752 52.0355 20.688C48.8995 20.464 45.2515 20.304 42.0195 20.432C42.0835 18.096 42.3395 14.544 42.4035 12.048C42.4675 9.328 42.4675 6.928 42.4675 4.528C42.4675 3.888 42.4995 3.312 42.4995 2.768C42.4995 1.648 42.1155 0.815998 41.1555 0.815998C40.2275 0.815998 39.8435 1.424 39.8435 2.448Z" fill="black"/>
</svg>
