<svg width="19" height="19" viewBox="0 0 19 19" fill="none"
  xmlns="http://www.w3.org/2000/svg">
  <g clip-path="url(#clip0)">
    <path d="M0.00530177 9.04613C-0.209638 15.6919 6.14852 19.4613 12.2152 17.8851C16.4733 16.7787 18.6253 12.1448 18.3318 8.044C18.004 3.4723 14.5456 0.287202 9.97817 0.357998C4.81327 0.240877 0.178627 3.68619 0.00530177 9.04613ZM9.97817 2.13778C13.5235 2.08262 15.9331 4.23816 16.5136 7.69093C17.0435 10.8423 15.5566 14.3288 12.6943 15.8128C10.8159 16.7865 8.33436 16.5214 6.38413 15.9676C3.3933 15.1182 2.00146 12.4526 1.79431 9.52011C1.46761 4.89515 5.75063 2.04166 9.97817 2.13778Z" fill="#010002"/>
  </g>
  <defs>
    <clipPath id="clip0">
      <rect width="18.3583" height="18.3583" fill="white" transform="translate(0 0.119385)"/>
    </clipPath>
  </defs>
</svg>
