<svg width="19" height="19" viewBox="0 0 19 19" fill="none"
  xmlns="http://www.w3.org/2000/svg">
  <g clip-path="url(#clip0)">
    <path d="M18.7214 1.69994C18.7148 1.66846 18.702 1.6366 18.6805 1.60513C17.7373 0.218675 15.372 0.293592 13.9009 0.276504C13.7531 0.274766 13.681 0.427787 13.713 0.545183C13.5817 0.580904 13.4579 0.628886 13.3516 0.702742C11.8393 1.75255 11.1185 3.95682 10.4045 5.56388C9.72086 7.10249 8.94794 8.59476 8.28304 10.1422C8.00046 10.7999 7.24463 12.1278 7.12578 13.1374C5.8099 10.7273 4.58873 8.27829 3.41302 5.79394C3.35114 5.66313 3.2098 5.6471 3.09791 5.6974C2.80615 5.52739 2.42867 5.65994 2.11954 5.73785C1.69823 5.84415 1.25866 5.96927 0.865252 6.15685C0.801244 6.18736 0.764943 6.2308 0.741966 6.27772C0.600337 6.21719 0.406189 6.33835 0.455619 6.52004C1.51479 10.4158 4.45067 13.6958 5.95916 17.4392C6.0139 17.5751 6.12733 17.64 6.24492 17.6551C6.27292 17.7123 6.321 17.7585 6.39524 17.7752C6.95027 17.9 7.50578 17.9661 8.07258 18.0115C8.56814 18.0512 9.14662 18.1517 9.62693 18.0043C9.79259 17.9535 9.85959 17.7982 9.83469 17.6583C9.87379 17.651 9.91511 17.628 9.95816 17.5805C10.008 17.526 9.95749 17.4559 9.89126 17.4655C10.2872 17.4085 10.6493 15.6638 10.7602 15.3609C11.1152 14.3918 11.5051 13.4351 11.8949 12.4796C12.1204 11.9268 12.3734 11.3798 12.6448 10.838C12.7508 10.6489 12.8491 10.4539 12.9444 10.2565C14.4915 7.34945 16.6128 4.6222 18.7076 2.19964C18.8498 2.03542 18.823 1.83741 18.7214 1.69994ZM2.79727 6.42756C2.77487 6.38556 2.75392 6.3425 2.7322 6.30002C2.83772 6.27444 2.94093 6.24374 3.03168 6.19421C3.04906 6.24297 3.06904 6.29066 3.08661 6.33922C2.98621 6.32435 2.87586 6.35814 2.79727 6.42756ZM4.41022 9.6686C4.39052 9.64109 4.37276 9.61242 4.35278 9.5849C4.34949 9.58036 4.34495 9.57892 4.34148 9.57467C4.29186 9.37251 4.23789 9.17199 4.17755 8.97388C4.17851 8.97224 4.17938 8.9706 4.18035 8.96896C4.2794 9.18241 4.37903 9.39548 4.48176 9.6073C4.45511 9.62371 4.43252 9.64621 4.41022 9.6686ZM8.70378 17.3583C8.75485 17.286 8.76731 17.1899 8.74722 17.1012C8.81046 17.0559 8.87051 17.0061 8.92921 16.9545C8.9183 16.9998 8.90478 17.0439 8.89407 17.0893C8.8681 17.1996 8.89773 17.2864 8.9517 17.35C8.86906 17.3512 8.78642 17.3546 8.70378 17.3583ZM10.7699 13.2903C10.7014 13.4642 10.6226 13.6478 10.5391 13.8375C10.5442 13.7972 10.5491 13.7566 10.5534 13.7158C10.6551 13.4465 10.765 13.1793 10.8748 12.9122C10.8981 12.8953 10.9224 12.8795 10.9453 12.8624C10.8865 13.005 10.8265 13.1469 10.7699 13.2903ZM12.6981 9.27722C12.3562 9.88254 12.0307 10.4963 11.7267 11.1201C11.6317 11.2568 11.5321 11.389 11.4275 11.5163C11.8431 10.7172 12.2976 9.93844 12.7475 9.1578C12.7313 9.19776 12.7146 9.23744 12.6981 9.27722ZM15.0635 2.10561C15.0873 2.064 15.1112 2.02239 15.1371 1.98126C15.2445 1.84716 15.3487 1.70669 15.4488 1.55387C15.4599 1.55377 15.4708 1.55261 15.4819 1.55271C15.5468 1.57057 15.6115 1.58852 15.6765 1.6088C15.6112 1.61517 15.5449 1.63824 15.4846 1.6982C15.3434 1.83819 15.2038 1.97306 15.0635 2.10561Z" fill="#2AC1BC"/>
  </g>
  <defs>
    <clipPath id="clip0">
      <rect width="18.3583" height="18.3583" fill="white" transform="translate(0.447754)"/>
    </clipPath>
  </defs>
</svg>
