<svg width="89" height="92" viewBox="0 0 89 92" fill="none" xmlns="http://www.w3.org/2000/svg">
<path d="M17.0339 20.4316C15.2874 20.2139 12.9555 19.8426 11.7497 19.4908C10.5787 19.1836 9.87932 19.6205 9.78038 20.4143C9.67154 21.2876 9.93961 21.7241 11.2743 22.0114C13.3087 22.5068 19.4958 23.3182 21.5003 23.4068C21.9021 23.4166 22.1156 23.6447 22.0908 23.8432C22.0761 24.2848 21.9078 25.3118 21.8633 25.6691C21.8188 26.3488 21.5956 26.5225 20.643 26.4038C19.0156 26.201 15.091 25.6715 13.0567 25.4986C11.7022 25.3701 11.1616 25.8267 10.7849 26.9084C10.4926 27.9604 10.2945 28.9031 10.1015 30.4511C9.84427 32.5151 10.7078 33.3483 13.1937 33.7791C15.4413 34.1802 23.0722 35.0506 25.1959 35.4765C26.2577 35.6895 27.2102 35.4857 27.3884 34.3793C27.5666 33.2728 26.8272 32.7373 25.1998 32.5344C24.7235 32.4751 23.4533 32.3168 22.7736 32.2723C19.618 32.0403 16.3583 31.6743 13.6045 31.1296C13.0141 31.0157 12.9843 30.9313 13.0881 30.0978C13.1673 29.4627 13.3258 28.8375 13.4695 28.3314L22.4401 29.4494C23.8393 29.5432 23.983 29.0371 24.4882 26.6009C24.7011 25.539 24.9041 24.2341 24.8738 22.8598C24.8088 21.4409 24.2083 21.0839 22.7646 21.0249C20.522 20.9066 19.2567 20.7086 17.0339 20.4316ZM14.2504 6.21819C13.1738 6.12431 12.0972 6.35293 12.0034 7.42958C11.9045 8.54593 12.9019 8.9524 13.7007 9.01165C16.375 9.22403 21.5003 9.82252 23.9117 10.2037C23.7137 11.4689 23.5702 12.62 23.5358 13.5428C23.4866 14.5847 23.9829 15.1303 24.9058 15.1647C25.8633 15.2437 26.3543 14.5391 26.4433 13.8246C26.6012 11.2644 27.4525 5.72723 27.829 4.00053C28.1906 2.39291 27.4758 1.33639 25.516 1.21306C23.194 1.0849 14.2981 0.661419 11.9562 0.36954C10.6463 0.206285 10.1503 0.628183 10.0117 1.41709C9.85821 2.32508 10.3694 2.75158 11.4361 2.92484C14.4032 3.37526 21.9298 3.78931 24.9562 3.76342C24.8227 4.83512 24.6247 6.10035 24.382 7.40032C22.1443 6.91987 16.0912 6.32668 14.2504 6.21819ZM18.1965 11.1037C17.3827 10.8411 16.7578 11.3275 16.5299 12.1859C16.2276 13.3172 16.2825 14.1706 16.3129 15.8674L13.847 15.6003C12.8497 15.5163 10.9445 15.2789 9.5552 15.1057C8.32472 14.9524 7.3821 15.0767 7.25843 16.0691C7.1298 17.1011 7.90387 17.3588 9.17404 17.5171C10.1267 17.6358 10.7717 17.6356 12.796 17.8879C18.8293 18.6399 21.5433 18.8572 26.227 19.441C27.7751 19.6339 28.3504 19.2219 28.4742 18.5521C28.6079 17.8028 28.1264 17.1382 26.5784 16.9452C23.3633 16.5445 20.1134 16.0992 18.878 15.9855C18.8626 14.4921 18.7829 13.8373 19.0356 12.7804C19.2189 11.9567 18.9309 11.3565 18.1965 11.1037ZM35.5188 5.56358C34.3726 5.38042 33.5889 5.84708 33.485 6.68063C33.3762 7.55387 33.8924 8.26317 35.237 8.47106C38.3232 8.93632 42.2874 9.14823 44.8376 9.38546C45.1552 9.42504 45.3735 9.6135 45.3885 9.81691C45.3739 10.581 44.8988 14.069 44.7455 15.2995C44.6812 15.8155 44.3984 15.8205 43.4507 15.6621C42.2648 15.474 37.7894 14.8356 36.559 14.6822C35.2491 14.519 34.6093 15.1245 34.2674 16.2509C33.4148 18.5632 32.6075 22.4532 32.2414 25.3905C31.9891 27.4148 32.9123 28.4167 35.3634 28.8028C36.5889 28.9958 41.9177 29.5794 43.1085 29.7278C43.5451 29.7822 44.1604 30.0201 45.0733 30.1339C46.145 30.2675 46.9437 30.0042 47.1318 28.8184C47.3547 27.6772 46.5656 27.2161 44.8837 27.1274C43.2861 27.0089 37.5703 26.2965 36.5432 26.1282C35.9528 26.0143 35.5806 25.7663 35.6845 24.9328C36.0209 22.2337 36.5112 19.9165 37.3043 17.758C39.7206 18.0995 41.9732 18.4609 44.0372 18.7181C44.6326 18.7923 45.0594 18.9261 45.4166 18.9707C46.6868 19.129 47.5548 18.6325 47.8665 16.1319C48.1386 13.9488 48.7077 10.0291 48.6775 8.65476C48.6075 7.27552 48.012 6.87882 46.5781 6.74042C43.3531 6.41909 37.4588 5.84569 35.5188 5.56358ZM57.1571 10.4775C57.1967 10.16 57.276 9.84736 57.3799 9.01381C57.5332 7.78333 56.7838 7.00466 56.0693 6.91561C55.1961 6.80678 54.3231 7.34292 54.1697 8.5734C53.7592 12.1904 53.2594 15.8769 52.715 19.5981C52.4083 22.0591 52.1759 24.2471 51.8593 26.7875L51.2755 31.4713C51.1469 32.5033 51.1871 33.7982 52.6557 33.9812C53.648 34.1049 54.2877 33.1769 54.4907 31.872C54.7777 29.8923 54.8618 29.2175 55.2576 26.0421C55.4851 24.2162 55.8462 20.9961 56.0737 19.1702C57.7855 19.3433 59.1449 19.4321 60.8517 19.6448C61.9631 19.7833 62.6625 19.3465 62.7465 18.3492C62.7858 17.3867 62.2747 16.9602 61.2427 16.8316C59.9725 16.6733 58.1367 16.5251 56.4151 16.4314C56.7862 13.777 56.9249 12.988 57.1571 10.4775ZM64.3628 30.8451C63.3557 30.8405 62.7356 31.2872 62.7062 32.1703C62.7015 32.855 63.312 33.4551 64.4431 33.4349C65.2518 33.4147 67.1522 33.6919 68.2636 33.8304C70.6451 34.1272 73.0614 34.4687 74.3316 34.627L78.4994 35.1465C79.452 35.2652 80.0722 35.4634 81.1241 35.4333C82.0568 35.3883 82.7165 34.9465 82.8998 34.1228C83.0285 33.4133 82.6512 32.8826 81.4753 32.6151C80.8501 32.4565 80.1952 32.5362 79.5007 32.6108C77.6252 32.4577 75.8539 32.116 74.0578 31.9728C74.2704 29.9435 74.4285 28.0283 74.7801 26.1776C76.8094 26.3902 78.8635 26.7268 80.0394 26.9943C81.3692 27.3213 82.0836 27.0879 82.2663 24.6518C82.5922 20.4196 82.9433 17.2789 84.0333 13.0613L84.4148 11.6174C84.598 10.4713 83.7195 9.75715 82.9555 9.74254C82.3155 9.70307 81.5813 10.0953 81.4675 11.0082C81.3734 11.4399 81.4728 11.936 81.3192 12.5215C80.8188 14.2731 80.5462 15.1662 80.2491 16.9028C76.9298 16.3682 72.5586 15.8637 69.6264 15.7804C69.8887 13.9991 69.9976 13.1259 70.1954 11.5382C70.2696 10.9428 70.3785 10.0696 70.3881 9.34518C70.3929 8.66051 70.0602 8.09503 69.1523 7.94156C68.1301 7.73354 67.4407 8.4135 67.3866 9.49511C67.3423 10.4973 67.2731 11.3755 67.1593 12.2884C66.8577 15.0322 66.2737 19.071 65.4763 22.8816C65.08 24.7671 65.8494 25.7095 67.5015 25.7138C68.5881 25.7283 70.4239 25.8765 71.6245 25.9456L71.4365 27.4539C71.2733 28.7637 71.1297 29.5924 71.0064 31.5521C70.6095 31.5027 70.0091 31.4682 69.3343 31.3841C68.2229 31.2455 65.246 30.8745 64.3628 30.8451ZM79.5421 23.5464C79.5224 24.0276 79.3389 24.2063 78.4755 24.0181C76.0393 23.5129 71.9807 23.0877 68.6764 23.0789C68.3936 23.084 68.3935 22.7615 68.4827 22.3695L69.2106 18.4696C72.3016 18.5727 76.7571 19.0474 79.878 19.5573C79.7098 20.9068 79.6259 22.2266 79.5421 23.5464ZM4.15018 50.7106C2.93454 50.4382 2.24009 50.8353 2.05681 51.659C1.85869 52.6017 2.27564 53.1374 3.63521 53.5487C4.2604 53.7072 6.09134 54.2176 7.94207 54.5692C9.82754 54.9654 11.6732 55.0342 12.8938 55.267C13.251 55.3115 13.4149 55.6141 13.4298 55.8175C13.3706 56.6163 12.7812 59.4048 12.4988 60.6998C12.3899 61.2506 12.0674 61.2507 11.0552 60.9633C9.72044 60.676 7.42308 60.0269 6.08837 59.7396C4.67426 59.4425 3.95508 60.0381 3.44448 61.224C2.40845 63.715 0.659331 69.9869 0.462027 73.187C0.353655 75.3502 1.34632 76.4414 4.06028 76.6587C5.3751 76.7823 10.8327 76.9788 12.1525 77.0626C12.6337 77.0823 13.3979 77.4194 14.3555 77.4984C15.5165 77.5625 16.3102 77.339 16.4735 76.0291C16.5871 74.7937 15.7535 74.3673 13.9376 74.3828C13.3323 74.388 12.1763 74.2842 10.9359 74.2103C8.6933 74.092 5.4386 74.0088 4.72412 73.9198C4.04935 73.8357 3.59777 73.5779 3.66691 72.6997C3.83453 69.7377 5.09307 65.138 6.17386 62.9347C7.51847 63.1426 9.81583 63.7918 11.1456 64.1187C11.7262 64.312 12.1926 64.4508 12.6292 64.5052C13.9639 64.7925 14.9015 64.3853 15.4314 61.7506C15.887 59.3888 16.417 57.0766 16.5206 55.2756C16.6341 53.7177 15.9244 52.944 14.3862 52.6716C12.5355 52.32 10.7246 52.2959 8.64065 51.8749C6.6361 51.4638 5.00858 50.9385 4.15018 50.7106ZM24.6848 62.8636C24.8525 60.2241 25.0802 58.7207 24.9509 57.8178C24.8265 56.8751 24.2358 56.1163 23.1741 56.2258C22.1124 56.3353 21.7207 56.8911 21.6118 57.7644C21.5772 58.0422 21.6567 58.3746 21.7313 58.7467C21.95 59.9026 21.8063 60.4087 21.6532 62.2842L21.2579 66.7496C19.5163 66.4922 17.2935 66.2152 16.1424 66.0717C15.4279 65.9827 14.6092 65.7597 13.8948 65.6707C12.6246 65.5123 11.8806 65.9839 11.7519 67.016C11.6332 67.9686 11.9857 68.6978 13.2559 68.8561C14.0101 68.9501 14.789 68.8456 15.5034 68.9347C16.7687 69.1327 19.1105 69.4246 20.9712 69.6968C20.8079 71.0066 20.6794 72.3611 20.4865 73.9092C20.3628 74.9015 20.0802 75.5515 20.006 76.1469C19.8774 77.1789 20.4383 77.8535 21.4306 77.9772C22.6214 78.1256 23.1719 77.5895 23.3599 76.0812C24.0376 70.6433 24.3541 67.7804 24.6848 62.8636ZM31.7474 56.3269C31.7519 54.9972 31.2754 54.2929 30.4021 54.1841C29.4892 54.0703 28.5716 54.6412 28.5671 55.9708C28.5281 57.9008 28.286 60.8132 27.9992 63.4379C27.7371 65.8641 27.4801 68.5731 27.1436 70.9498C26.9556 72.4581 26.7185 75.3308 26.4114 76.8243C26.233 77.2858 25.9158 78.2137 25.8118 78.7247C25.6337 80.1537 26.3037 80.9225 27.4151 81.061C28.725 81.2242 29.4937 80.2317 29.6915 78.644C29.9091 76.575 29.9729 74.769 30.1857 73.0622C30.4033 71.3157 30.8039 67.7781 31.0809 65.2328C31.3527 62.4047 31.7183 58.1775 31.7474 56.3269ZM35.0935 65.5314C34.707 67.015 34.494 67.7543 34.3258 69.1039C33.3957 76.5661 37.6192 80.1964 42.8485 80.2838C49.3182 80.4452 52.8295 76.5294 54.1913 69.4837C54.8944 65.4598 53.9902 62.0417 52.3126 60.3009C52.1383 58.4652 49.5778 57.3399 47.4492 56.9537C42.5222 56.0574 37.1944 58.0538 35.0935 65.5314ZM37.9665 66.4135C39.5967 60.7718 43.4611 59.1977 47.0981 60.0944C47.5447 60.3919 48.3338 60.853 48.701 61.1406C51.0086 62.6778 51.853 65.2823 51.0309 69.6138C49.9167 75.3198 47.0051 77.3352 43.0211 77.2821C39.5183 77.2486 36.6894 74.7193 37.3276 69.5989C37.476 68.4081 37.5849 67.8574 37.9665 66.4135ZM57.8981 85.0215C58.7514 84.9666 59.5302 84.5396 59.6837 83.6316C59.7877 83.1206 59.703 82.1829 59.6978 81.5776C60.0639 78.6403 60.4697 75.708 60.8358 72.7707C61.4492 67.8488 61.8894 63.9936 62.2796 59.2455C62.3587 58.2879 61.8275 57.3752 60.736 57.4004C59.8033 57.4454 59.2926 58.3088 59.1837 59.1821C58.5806 65.3146 58.1009 69.4873 57.3489 75.5206C57.0175 78.18 56.7503 80.3234 56.4685 82.9084C56.3251 84.382 57.0894 85.0416 57.8981 85.0215ZM69.8418 74.1754C67.9415 73.8982 66.3835 73.4622 65.7385 73.4624C64.9745 73.4478 64.4884 73.7903 64.3348 74.3758C64.1713 75.0407 64.4344 75.5169 65.149 75.9284C65.9082 76.3052 66.8658 76.3842 68.3692 76.6119C73.7923 77.4088 81.8995 78.3386 86.4046 78.7388C87.2034 78.7981 87.8979 78.4009 87.9918 77.6468C88.1007 76.7735 87.6689 76.3569 86.6766 76.2332C85.4015 76.1146 82.6924 75.8576 80.2315 75.5509C80.4542 74.0872 80.781 72.1124 80.9492 70.7629C81.0432 70.0087 80.7353 69.2448 79.862 69.1359C79.0682 69.037 78.4383 69.5631 78.2996 70.352C78.0025 71.7661 77.7403 73.8699 77.5324 75.2145L73.96 74.7692L74.2758 69.9715C74.3301 69.2124 73.9181 68.637 73.0399 68.5678C72.2014 68.5036 71.6459 69.0794 71.5867 69.8782C71.4631 71.193 71.3943 73.0386 71.3055 74.3981C70.8292 74.3387 70.3182 74.2347 69.8418 74.1754ZM71.703 62.1532C69.962 63.5083 68.0575 65.2058 66.7331 66.1291C65.5526 66.8688 64.8137 67.9457 65.1365 68.913C65.5289 69.9697 66.8933 70.0188 67.7663 69.4826C68.9915 68.7082 69.8195 67.2393 70.8413 66.4799L73.7577 64.1023L73.981 64.2511C77.8568 66.7899 80.5116 68.1285 84.4616 70.072C85.3349 70.5033 86.0939 70.2351 86.4112 69.6297C86.7831 68.9102 86.4703 68.1859 85.6366 67.7596C81.6816 65.5333 79.5528 64.5021 76.074 62.3352L78.9707 60.1165C79.6006 59.5903 79.9227 58.6227 79.3867 58.0722C78.8209 57.4374 77.7343 57.4229 77.0201 57.9788C75.3783 59.185 73.0819 61.1158 71.703 62.1532ZM67.6961 81.3652C67.6272 82.8884 67.0524 84.9128 66.7853 87.0562C66.5478 88.9615 67.3717 89.7897 69.0041 89.9529L80.2668 91.1148C80.9019 91.1939 81.2939 91.2831 82.0084 91.3721C83.1198 91.5106 83.9431 90.7264 83.9428 89.759C83.9226 88.9503 83.2229 88.4197 82.0718 88.2762C81.5161 88.2069 80.9455 88.2567 80.2708 88.1726C77.0507 87.8116 73.8654 87.4952 70.4717 87.2335C69.9507 87.2089 69.901 86.9608 70.0149 86.3704C70.3021 84.7132 70.5744 83.1751 70.7525 81.7461C70.8465 80.9919 70.4989 80.2231 69.5562 80.0249C68.4944 79.812 67.7305 80.4424 67.6961 81.3652Z" fill="black"/>
</svg>
