<svg width="150" height="33" viewBox="0 0 150 33" fill="none"
  xmlns="http://www.w3.org/2000/svg">
  <path d="M1.005 2.885C0.6 2.945 0.345 3.155 0.39 3.47C0.435 3.815 0.705 4.04 1.095 4.01C1.335 3.995 1.53 3.89 1.695 3.8C2.49 3.71 3.78 3.575 4.485 3.545C3.66 4.535 1.89 6.485 0.87 7.625C0.54 7.985 0.48 8.3 0.72 8.51C0.975 8.735 1.335 8.645 1.605 8.33C1.92 7.955 2.775 6.965 3.21 6.515C3.21 6.53 3.315 6.62 3.45 6.74V6.725C5.025 8.225 5.43 8.525 5.73 8.525C6.075 8.525 6.285 8.27 6.285 8C6.285 7.61 6.285 7.835 5.19 6.77C4.41 6.005 4.17 5.78 3.99 5.675C4.485 5.105 4.965 4.52 5.37 4.04C5.7 3.65 5.82 3.275 5.805 3.035C5.775 2.6 5.4 2.6 4.815 2.615C3.69 2.63 2.07 2.72 1.005 2.885ZM3.555 13.025C4.455 12.98 7.47 12.815 8.865 12.92C9.03 12.965 9.24 13.04 9.39 13.04C9.705 13.04 9.99 12.83 10.02 12.53C10.05 12.215 9.855 11.915 9.45 11.855C9.225 11.825 9.03 11.855 8.805 11.84C7.515 11.75 5.085 11.945 4.29 11.96C3.72 11.975 3.72 11.96 3.765 11.45C3.735 10.925 3.72 10.325 3.675 9.665C3.645 9.17 3.345 8.9 2.925 8.975C2.52 9.065 2.37 9.35 2.475 9.815C2.535 9.995 2.61 10.22 2.61 10.475C2.61 10.97 2.625 11.3 2.595 11.915C2.565 12.815 2.685 13.085 3.555 13.025ZM8.475 8.03C8.52 8.405 8.73 8.585 9.015 8.585C9.27 8.585 9.51 8.45 9.51 8.105C9.51 7.505 9.435 5.96 9.435 5.33C9.435 4.175 9.465 2.585 9.51 1.61C9.525 1.235 9.285 1.01 8.985 1.01C8.685 1.01 8.475 1.205 8.445 1.55C8.31 2.99 8.34 6.695 8.475 8.03ZM2.67 0.724999C2.265 0.694999 1.92 0.74 1.59 0.784999C1.245 0.83 1.05 1.01 1.065 1.235C1.095 1.415 1.155 1.625 1.32 1.73C1.53 1.88 1.875 1.76 2.19 1.73C2.655 1.67 4.92 1.67 5.49 1.61C5.895 1.565 6.135 1.445 6.15 1.07C6.165 0.694999 5.82 0.545 5.46 0.574999C5.04 0.62 3.15 0.724999 2.67 0.724999ZM18.7427 8.945C18.9077 8.99 19.1627 9.005 19.2977 9.02C19.8077 9.035 20.0777 8.84 20.0927 8.45C20.1077 8.18 19.8527 7.88 19.5227 7.865C19.2227 7.835 18.9827 7.865 18.7277 7.895C18.2927 7.94 16.8527 7.94 16.0727 7.925C14.4827 7.91 13.3577 7.88 12.6377 7.835C12.3977 7.82 12.0827 7.73 11.9177 7.73C11.5877 7.7 11.3327 7.94 11.3177 8.24C11.3027 8.66 11.6927 8.855 12.1727 8.885C12.8327 8.915 14.0927 8.93 15.1877 8.945C15.2027 9.65 15.2027 11.15 15.2327 11.45C15.2477 11.645 15.0977 12.005 15.0677 12.275C15.0377 12.755 15.2927 13.1 15.6977 13.16C15.8027 13.175 15.9077 13.145 16.0427 13.055C16.1927 12.935 16.2977 12.86 16.3577 12.41C16.3727 12.065 16.4027 11.615 16.4027 11.165C16.4027 10.88 16.3877 9.245 16.3577 8.96C17.0927 8.975 17.9627 8.99 18.7427 8.945ZM14.0627 1.58C13.8377 1.595 13.6577 1.565 13.4777 1.58C13.2377 1.49 12.8627 1.52 12.6377 1.64C12.4127 1.745 12.3077 2.15 12.4427 2.375C12.5627 2.585 12.7727 2.705 13.1177 2.675C13.7177 2.615 14.8877 2.51 15.4577 2.51C15.8627 2.51 17.2577 2.525 17.5427 2.54V2.525C17.7077 3.44 17.7077 5.27 17.5127 6.575C17.4527 6.965 17.6927 7.22 18.0377 7.265C18.3527 7.295 18.6077 7.04 18.6527 6.74C18.6527 6.71 18.7427 6.275 18.8027 5.795C18.9677 4.685 18.7277 1.97 18.5927 1.715C18.5027 1.565 18.2027 1.49 17.8277 1.475C16.3727 1.43 14.6477 1.535 14.0627 1.58ZM24.6959 8.345C24.0359 8.345 23.1509 8.315 22.6859 8.24C22.2359 8.18 21.9959 8.375 21.9959 8.675C21.9959 9.005 22.1159 9.155 22.6259 9.2C23.4059 9.29 25.7459 9.305 26.4959 9.245C26.6459 9.23 26.7359 9.305 26.7359 9.38C26.7509 9.545 26.7359 9.935 26.7359 10.07C26.7509 10.325 26.6759 10.4 26.3159 10.4C25.7009 10.4 24.2159 10.385 23.4509 10.415C22.9409 10.43 22.7609 10.625 22.6709 11.045C22.6109 11.45 22.5809 11.81 22.5809 12.395C22.5809 13.175 22.9409 13.445 23.8859 13.49C24.7409 13.535 27.6209 13.505 28.4309 13.565C28.8359 13.595 29.1809 13.475 29.1959 13.055C29.2109 12.635 28.9109 12.47 28.2959 12.47C28.1159 12.47 27.6359 12.47 27.3809 12.485C26.1959 12.545 24.9659 12.56 23.9159 12.485C23.6909 12.47 23.6759 12.44 23.6759 12.125C23.6759 11.885 23.7059 11.645 23.7359 11.45H27.1259C27.6509 11.42 27.6809 11.225 27.7559 10.295C27.7859 9.89 27.8009 9.395 27.7259 8.885C27.6359 8.36 27.3959 8.255 26.8559 8.3C26.0159 8.36 25.5359 8.345 24.6959 8.345ZM23.1209 0.769999C22.7309 0.769999 22.5059 1.01 22.5209 1.28C22.5809 1.58 22.7759 1.775 23.2259 1.775C23.9459 1.805 24.5609 1.745 25.1909 1.715C25.6259 1.685 26.1509 1.64 26.5709 1.595C26.6909 1.595 26.7359 1.64 26.7509 1.745C26.8109 1.925 26.8259 2.165 26.8259 2.435C26.8259 2.645 26.7359 2.72 26.5409 2.72C25.4459 2.75 24.4859 2.765 23.5409 2.78C23.0909 2.795 22.8809 2.93 22.8059 3.32C22.6859 3.815 22.6109 4.505 22.5959 5.06C22.5809 5.75 22.8359 5.975 23.4809 6.005C23.8709 6.02 24.4709 6.035 24.9809 6.035C25.8359 6.035 26.8259 6.02 27.3359 6.08C27.4559 6.095 27.7259 6.17 28.0259 6.17C28.3859 6.17 28.6709 6.08 28.7009 5.69C28.7159 5.345 28.4759 5.18 27.9209 5.135C27.5309 5.075 27.1409 5.075 26.5409 5.075C25.8509 5.075 25.7009 5.06 24.7559 5.06C24.5009 5.06 24.1559 5.045 23.9459 5.03C23.6759 5.015 23.6459 4.94 23.6609 4.67C23.6759 4.43 23.7209 4.04 23.7959 3.815C24.8609 3.785 25.6109 3.77 26.6909 3.77C26.9009 3.77 27.0659 3.77 27.1859 3.755C27.6509 3.725 27.8159 3.53 27.8309 3.095C27.8759 2.48 27.8459 1.445 27.7559 1.01C27.6509 0.574999 27.4259 0.53 26.9909 0.545C26.8109 0.559999 26.4059 0.574999 26.0609 0.62C24.8759 0.694999 24.0659 0.755 23.1209 0.769999ZM25.8659 6.575C25.1459 6.56 22.8059 6.56 22.0859 6.605C21.6659 6.635 21.3959 6.755 21.3959 7.1C21.3809 7.475 21.8009 7.64 22.0859 7.64C22.3409 7.64 22.5959 7.55 22.8209 7.535C23.5709 7.46 25.3109 7.49 26.5859 7.52C27.7559 7.55 29.2709 7.67 29.6459 7.67C30.0359 7.685 30.2309 7.565 30.2309 7.265C30.2309 6.965 29.9909 6.785 29.6909 6.74C28.9409 6.695 26.7509 6.59 25.8659 6.575ZM37.267 4.79C36.727 5.015 36.247 5.39 36.247 6.2C36.247 7.205 37.132 7.76 38.257 8.18C39.322 8.585 39.682 8.885 39.682 9.365C39.682 9.98 39.172 10.385 38.182 10.385C37.762 10.385 37.462 10.28 37.192 10.16C36.922 10.01 36.757 9.875 36.607 9.515C36.487 9.275 36.247 9.125 36.022 9.245C35.767 9.395 35.752 9.635 35.812 9.875C36.007 10.91 37.252 11.36 38.212 11.36C39.637 11.36 40.822 10.64 40.822 9.47C40.822 8.3 39.817 7.73 38.842 7.325C37.822 6.89 37.402 6.635 37.402 6.275C37.402 5.945 37.627 5.735 37.897 5.645C38.092 5.585 38.452 5.57 38.692 5.585C38.962 5.615 39.142 5.75 39.307 5.81C39.592 5.87 39.967 5.84 40.072 5.525C40.147 5.24 40.057 5.03 39.817 4.895C39.517 4.67 38.977 4.58 38.617 4.565C38.137 4.55 37.672 4.625 37.267 4.79ZM43.8084 1.79C43.7484 2.21 43.7034 2.54 43.6884 2.915C43.6734 3.29 43.6134 3.59 43.6134 4.175C42.7584 4.145 41.8434 4.16 41.2584 4.16C40.8534 4.16 40.5984 4.31 40.5984 4.655C40.5984 4.955 40.8684 5.15 41.2134 5.15C41.9634 5.15 42.7884 5.15 43.5534 5.165C43.5084 6.74 43.5384 8.42 43.5684 9.875C43.5834 10.355 43.6134 10.835 43.7934 11.075C44.0484 11.45 44.3784 11.435 44.6934 11.045C45.0384 10.655 44.9034 10.22 44.7084 10.07C44.6784 8.495 44.6334 6.65 44.6784 5.12C45.1584 5.105 45.7734 5.09 46.2834 5.06C46.7184 5.03 46.9284 4.925 46.9284 4.61C46.9284 4.25 46.6434 4.1 46.2234 4.13C45.7734 4.145 45.2184 4.13 44.7534 4.13C44.7684 3.71 44.7984 3.35 44.8284 3.035C44.8884 2.54 44.9184 2.36 44.9334 1.91C44.9484 1.52 44.7834 1.25 44.4084 1.235C44.0634 1.22 43.8384 1.445 43.8084 1.79ZM50.1136 10.385C49.3036 10.385 48.7636 9.515 48.7636 8.24C48.7636 7.505 48.9436 6.485 49.2436 6.365C49.3486 6.335 49.4836 6.17 49.5136 6.05C49.5586 5.84 49.9636 5.6 50.4586 5.6C51.0586 5.6 51.6286 5.975 51.9436 6.44C52.2136 6.89 52.3486 7.415 52.3486 7.895C52.3486 9.2 51.3286 10.385 50.1136 10.385ZM53.2936 8.87C53.4736 8.255 53.4736 7.61 53.3686 7.025C53.2336 6.23 52.9036 5.69 52.4236 5.255C51.9286 4.775 51.1186 4.505 50.3836 4.505C49.5886 4.505 48.8836 4.85 48.5686 5.465C47.8336 6.125 47.6086 6.98 47.6086 8.225C47.6086 8.675 47.6686 9.32 47.9386 9.965C48.3736 11.03 49.3936 11.555 50.5036 11.345C52.0486 11.06 52.9636 10.025 53.2936 8.87ZM59.1513 6.455C59.4513 6.365 59.6763 6.38 59.8713 6.245C60.0663 6.125 60.2013 5.915 60.2163 5.735C60.2313 5.42 60.0213 5.21 59.7213 5.21C59.5113 5.21 59.2713 5.315 59.0013 5.405C58.5513 5.57 57.9063 5.84 57.3513 6.35C56.9013 6.755 56.5113 7.325 56.2263 7.925C56.2563 7.01 56.1813 6.14 56.1813 5.495C56.1813 5.345 56.1963 5.225 56.1813 5.105C56.1513 4.76 55.9413 4.55 55.6263 4.55C55.3263 4.55 55.1463 4.79 55.1013 5.135C55.0863 5.285 55.0863 5.54 55.1013 5.75C55.1463 6.56 55.2663 7.835 55.2963 9.11C55.3113 9.695 55.3263 10.07 55.3113 10.805C55.2963 11.18 55.4913 11.42 55.8813 11.42C56.2113 11.42 56.4663 11.195 56.4663 10.805C56.4963 10.145 56.5713 9.14 56.9163 8.555C57.4563 7.64 58.2513 6.725 59.1513 6.455ZM66.1444 6.755C66.1444 7.37 65.4244 7.76 64.0744 7.76C63.3394 7.76 62.6794 7.535 62.1694 7.1C62.5144 6.11 63.2944 5.57 64.4344 5.57C65.4844 5.57 66.1444 6.065 66.1444 6.755ZM61.3444 6.365C61.1044 6.845 60.9094 7.49 60.9094 8.12C60.9094 10.265 62.2894 11.39 64.3744 11.39C65.1094 11.39 65.7094 11.3 66.1594 11.075C66.4144 10.94 66.4744 10.655 66.3844 10.46C66.2644 10.205 65.9944 10.16 65.7244 10.265C65.3944 10.385 64.8544 10.445 64.3894 10.445C63.7144 10.445 63.1294 10.265 62.6944 9.905C62.2744 9.545 61.9444 8.9 61.9594 8.18C62.4244 8.585 63.2044 8.795 63.9994 8.795C64.7644 8.795 65.5444 8.705 66.1444 8.345C66.8194 7.97 67.1494 7.49 67.1494 6.71C67.1494 5.465 66.0094 4.535 64.3894 4.535C63.0094 4.535 61.8544 5.36 61.3444 6.365ZM68.364 11.675C68.424 12.26 68.919 12.62 69.504 12.605C70.029 12.605 70.449 12.05 70.449 11.54C70.449 11.015 69.879 10.595 69.399 10.595C68.769 10.595 68.304 11.105 68.364 11.675ZM78.3205 9.875C78.1705 9.53 77.9005 8.735 77.6905 8.09C77.4955 7.505 77.3155 6.995 77.0905 6.41C76.9105 5.93 76.7605 5.63 76.6105 5.33C76.4605 5.06 76.0705 4.94 75.7855 5.03C75.6055 5.09 75.4555 5.345 75.4105 5.495C75.2155 6.335 75.1405 6.95 74.8705 7.985C74.7805 8.435 74.6305 9.035 74.5255 9.44C74.3755 8.885 74.2555 8.27 74.1355 7.85C73.8955 7.01 73.7155 6.29 73.4455 5.495C73.3855 5.345 73.4155 5.18 73.4005 4.985C73.3705 4.73 73.2805 4.505 73.1455 4.355C72.9505 4.1 72.5605 4.025 72.3205 4.22C72.0955 4.385 72.0355 4.73 72.2155 5.06C72.3505 5.345 72.4105 5.645 72.5005 5.93C72.6655 6.59 72.8455 7.13 73.0105 7.76C73.3555 8.765 73.5955 9.68 73.8205 10.595C73.8655 10.745 73.9705 10.955 74.0755 11.015C74.2555 11.18 74.5255 11.15 74.7505 11.015C75.0505 10.82 75.1705 10.49 75.2155 10.28C75.2605 9.965 75.3505 9.755 75.4255 9.5C75.7405 8.6 75.9505 7.67 76.1605 6.74C76.4005 7.445 76.6555 8.12 76.8955 8.75C77.1505 9.56 77.4505 10.19 77.8405 10.94C77.9455 11.165 78.0655 11.36 78.3805 11.375C78.6655 11.36 78.6955 11.345 78.9505 10.985C79.0705 10.82 79.1605 10.595 79.1905 10.475C79.3255 9.92 79.3855 9.35 79.5205 8.855C79.5955 8.555 79.6555 8.225 79.7155 7.925C79.8355 7.28 79.9705 6.935 80.1055 6.32C80.1655 6.02 80.3905 5.615 80.4655 5.375C80.5255 5.165 80.5405 4.955 80.4205 4.805C80.2555 4.625 80.0005 4.58 79.7755 4.685C79.5205 4.79 79.2355 5.12 79.2505 5.36C79.2655 5.615 79.1455 5.975 79.0555 6.365C78.7555 7.52 78.5305 8.765 78.3205 9.875ZM84.1566 10.385C83.3466 10.385 82.8066 9.515 82.8066 8.24C82.8066 7.505 82.9866 6.485 83.2866 6.365C83.3916 6.335 83.5266 6.17 83.5566 6.05C83.6016 5.84 84.0066 5.6 84.5016 5.6C85.1016 5.6 85.6716 5.975 85.9866 6.44C86.2566 6.89 86.3916 7.415 86.3916 7.895C86.3916 9.2 85.3716 10.385 84.1566 10.385ZM87.3366 8.87C87.5166 8.255 87.5166 7.61 87.4116 7.025C87.2766 6.23 86.9466 5.69 86.4666 5.255C85.9716 4.775 85.1616 4.505 84.4266 4.505C83.6316 4.505 82.9266 4.85 82.6116 5.465C81.8766 6.125 81.6516 6.98 81.6516 8.225C81.6516 8.675 81.7116 9.32 81.9816 9.965C82.4166 11.03 83.4366 11.555 84.5466 11.345C86.0916 11.06 87.0066 10.025 87.3366 8.87ZM91.3343 10.385C90.5243 10.385 89.9843 9.515 89.9843 8.24C89.9843 7.505 90.1643 6.485 90.4643 6.365C90.5693 6.335 90.7043 6.17 90.7343 6.05C90.7793 5.84 91.1843 5.6 91.6793 5.6C92.2793 5.6 92.8493 5.975 93.1643 6.44C93.4343 6.89 93.5693 7.415 93.5693 7.895C93.5693 9.2 92.5493 10.385 91.3343 10.385ZM94.5143 8.87C94.6943 8.255 94.6943 7.61 94.5893 7.025C94.4543 6.23 94.1243 5.69 93.6443 5.255C93.1493 4.775 92.3393 4.505 91.6043 4.505C90.8093 4.505 90.1043 4.85 89.7893 5.465C89.0543 6.125 88.8293 6.98 88.8293 8.225C88.8293 8.675 88.8893 9.32 89.1593 9.965C89.5943 11.03 90.6143 11.555 91.7243 11.345C93.2693 11.06 94.1843 10.025 94.5143 8.87ZM101.861 9.875C101.711 9.53 101.441 8.735 101.231 8.09C101.036 7.505 100.856 6.995 100.631 6.41C100.451 5.93 100.301 5.63 100.151 5.33C100.001 5.06 99.6105 4.94 99.3255 5.03C99.1455 5.09 98.9955 5.345 98.9505 5.495C98.7555 6.335 98.6805 6.95 98.4105 7.985C98.3205 8.435 98.1705 9.035 98.0655 9.44C97.9155 8.885 97.7955 8.27 97.6755 7.85C97.4355 7.01 97.2555 6.29 96.9855 5.495C96.9255 5.345 96.9555 5.18 96.9405 4.985C96.9105 4.73 96.8205 4.505 96.6855 4.355C96.4905 4.1 96.1005 4.025 95.8605 4.22C95.6355 4.385 95.5755 4.73 95.7555 5.06C95.8905 5.345 95.9505 5.645 96.0405 5.93C96.2055 6.59 96.3855 7.13 96.5505 7.76C96.8955 8.765 97.1355 9.68 97.3605 10.595C97.4055 10.745 97.5105 10.955 97.6155 11.015C97.7955 11.18 98.0655 11.15 98.2905 11.015C98.5905 10.82 98.7105 10.49 98.7555 10.28C98.8005 9.965 98.8905 9.755 98.9655 9.5C99.2805 8.6 99.4905 7.67 99.7005 6.74C99.9405 7.445 100.196 8.12 100.436 8.75C100.691 9.56 100.991 10.19 101.381 10.94C101.486 11.165 101.606 11.36 101.921 11.375C102.206 11.36 102.236 11.345 102.491 10.985C102.611 10.82 102.701 10.595 102.731 10.475C102.866 9.92 102.926 9.35 103.061 8.855C103.136 8.555 103.196 8.225 103.256 7.925C103.376 7.28 103.511 6.935 103.646 6.32C103.706 6.02 103.931 5.615 104.006 5.375C104.066 5.165 104.081 4.955 103.961 4.805C103.796 4.625 103.541 4.58 103.316 4.685C103.061 4.79 102.776 5.12 102.791 5.36C102.806 5.615 102.686 5.975 102.596 6.365C102.296 7.52 102.071 8.765 101.861 9.875ZM109.377 9.23C109.377 9.905 108.882 10.25 108.402 10.43C107.952 10.58 107.472 10.67 107.052 10.655C106.722 10.64 106.512 10.535 106.362 10.4C106.242 10.25 106.167 10.025 106.167 9.815C106.167 9.53 106.317 9.275 106.482 9.11C106.917 8.675 107.577 8.36 108.327 8.375C108.927 8.39 109.377 8.63 109.377 9.23ZM107.562 4.28C106.827 4.25 106.092 4.415 105.627 4.76C105.372 4.94 105.222 5.255 105.387 5.495C105.552 5.75 105.822 5.705 106.032 5.555C106.437 5.3 106.842 5.225 107.232 5.225C107.847 5.225 108.432 5.39 108.822 5.765C109.227 6.17 109.557 7.19 109.557 7.82C109.212 7.52 108.792 7.43 108.237 7.43C107.187 7.475 106.332 7.88 105.747 8.48C105.432 8.795 105.192 9.32 105.192 9.815C105.192 10.28 105.312 10.67 105.537 10.955C105.822 11.345 106.422 11.57 107.007 11.57C107.562 11.57 108.102 11.495 108.567 11.315C109.077 11.135 109.542 10.865 109.857 10.46C109.962 10.82 110.352 11.315 110.847 11.615C111.072 11.75 111.372 11.78 111.567 11.57C111.732 11.36 111.762 11.09 111.552 10.91C111.447 10.805 111.327 10.79 111.252 10.73C111.012 10.52 110.847 10.355 110.727 10.085C110.547 9.815 110.562 9.635 110.607 9.365C110.727 7.76 110.592 6.185 109.617 5.12C109.077 4.535 108.447 4.31 107.562 4.28ZM112.397 11.675C112.457 12.26 112.952 12.62 113.537 12.605C114.062 12.605 114.482 12.05 114.482 11.54C114.482 11.015 113.912 10.595 113.432 10.595C112.802 10.595 112.337 11.105 112.397 11.675ZM116.939 1.655C116.909 2.78 116.924 4.355 116.939 6.095C116.939 7.595 116.954 8.885 116.954 9.695C116.954 9.785 116.939 10.175 116.939 10.28C116.849 10.475 116.879 10.865 117.029 11.15C117.179 11.36 117.389 11.42 117.554 11.42C117.824 11.435 118.004 11.285 118.049 11.045C118.094 10.76 118.079 10.565 118.079 9.89C118.079 9.215 118.049 8.33 118.049 7.325C118.034 6.35 118.034 4.85 118.034 4.04C118.034 3.23 118.049 2.555 118.079 1.865C118.094 1.43 117.929 1.22 117.584 1.175C117.239 1.13 116.954 1.31 116.939 1.655ZM120.737 5.21C120.677 6.515 120.647 9.02 120.782 10.865C120.797 11.21 121.082 11.42 121.397 11.42C121.802 11.435 121.952 11.18 121.967 10.94C121.967 10.805 121.937 10.655 121.877 10.475C121.847 10.34 121.802 10.13 121.802 9.53C121.832 8.33 121.787 5.69 121.817 5.495C121.847 5.375 121.877 5.285 121.877 5.21C121.892 4.805 121.787 4.445 121.427 4.43C120.992 4.43 120.782 4.715 120.737 5.21ZM120.212 2.885C120.662 3.245 121.427 3.08 121.727 2.675C121.922 2.375 121.847 2.15 121.727 1.88C121.457 1.325 120.677 0.919999 120.182 1.325C120.017 1.49 119.882 1.7 119.912 2.135C119.942 2.51 120.017 2.735 120.212 2.885ZM124.214 6.35C124.214 6.71 124.274 7.205 124.319 7.91C124.409 8.975 124.394 9.905 124.394 10.895C124.409 11.105 124.454 11.225 124.604 11.39C124.769 11.555 125.039 11.51 125.279 11.36C125.654 11.135 125.744 10.85 125.744 10.535C125.744 10.04 125.684 8.96 125.699 8.48C126.314 7.1 127.499 6.215 128.399 5.84C128.579 5.78 128.849 5.72 128.999 5.72C129.539 5.72 129.764 6.185 129.869 6.98C130.034 8.105 129.899 9.56 129.974 10.595C130.019 11.165 130.154 11.495 130.679 11.495C131.114 11.495 131.249 11.225 131.234 10.82C131.219 10.61 131.144 10.175 131.129 9.8C131.114 8.9 131.129 7.91 131.009 7.085C130.874 6.02 130.514 4.985 129.779 4.685C129.419 4.505 128.819 4.55 128.459 4.64C127.424 4.91 126.014 5.885 125.444 7.085C125.474 6.545 125.399 6.05 125.369 5.57C125.354 5.42 125.324 5.285 125.294 5.135C125.249 4.925 125.189 4.64 125.039 4.52C124.859 4.385 124.574 4.4 124.319 4.625C124.154 4.745 124.094 4.97 124.079 5.135C124.064 5.255 124.094 5.48 124.139 5.66C124.184 5.87 124.214 6.095 124.214 6.35ZM133.162 1.745C133.162 2.51 133.162 3.185 133.102 3.995C132.967 5.9 133.087 9.005 133.327 10.55C133.432 11.255 133.552 11.51 134.002 11.51C134.392 11.51 134.587 11.225 134.587 10.775C134.587 10.28 134.407 9.725 134.302 8.78C134.617 9.23 134.932 9.53 135.292 9.845C135.727 10.25 136.117 10.58 136.552 10.88C136.822 11.075 137.632 11.54 137.902 11.57C138.217 11.63 138.427 11.63 138.562 11.42C138.712 11.195 138.652 10.895 138.412 10.76L137.872 10.43C137.392 10.145 137.047 9.92 136.672 9.59C136.267 9.26 135.982 9.065 135.637 8.66C135.142 8.12 135.142 7.925 135.682 7.58C136.462 7.055 137.557 6.305 138.307 5.81C138.652 5.6 138.772 5.285 138.622 5C138.502 4.745 138.142 4.64 137.812 4.82C137.587 4.94 137.212 5.375 137.017 5.495C136.222 6.035 135.412 6.515 134.662 7.115C134.527 7.235 134.347 7.325 134.197 7.43C134.137 5.855 134.212 3.98 134.332 1.865C134.362 1.4 134.257 1.1 133.837 1.04C133.417 0.979999 133.162 1.31 133.162 1.745ZM140.093 10.475C139.718 10.445 139.418 10.64 139.418 10.91C139.418 11.255 139.643 11.45 140.093 11.45C141.533 11.45 143.243 11.465 146.813 11.465C147.173 11.465 147.413 11.54 147.803 11.555C148.148 11.57 148.403 11.375 148.433 11.06C148.448 10.79 148.298 10.565 147.803 10.49C147.623 10.46 147.443 10.46 147.023 10.475C145.943 10.475 145.193 10.445 144.443 10.445C144.323 9.845 144.323 9.38 144.323 8.795V8.33C144.908 8.33 145.508 8.315 145.913 8.345C146.273 8.36 146.753 8.435 147.128 8.435C147.518 8.435 147.728 8.285 147.773 7.985C147.833 7.685 147.653 7.4 147.338 7.325C147.008 7.25 146.423 7.295 146.108 7.295C145.433 7.28 144.698 7.28 144.083 7.28C143.198 7.28 142.778 7.295 141.758 7.325C141.473 7.355 141.383 7.265 141.383 6.935C141.383 6.575 141.398 5.99 141.428 5.6C141.998 5.57 142.493 5.555 143.153 5.555C143.888 5.555 144.263 5.57 144.968 5.66C145.208 5.675 145.373 5.69 145.523 5.69C146.033 5.69 146.048 5.435 146.153 4.565C146.213 4.145 146.243 3.41 146.243 2.885C146.243 2.705 146.243 2.525 146.228 2.39C146.168 1.85 145.943 1.76 145.418 1.775C144.938 1.79 144.428 1.805 143.918 1.805C142.898 1.805 142.223 1.76 141.218 1.64C141.053 1.625 140.873 1.61 140.693 1.55C140.243 1.445 139.988 1.715 139.988 2.015C139.988 2.315 140.243 2.66 140.708 2.705C142.118 2.855 142.673 2.885 143.978 2.885H144.833C144.983 2.885 145.073 2.96 145.073 3.035C145.073 3.29 145.058 3.875 145.013 4.19C144.968 4.535 144.968 4.52 144.593 4.505C144.023 4.475 143.633 4.445 142.808 4.445C142.163 4.445 141.533 4.475 141.068 4.475C140.588 4.49 140.363 4.73 140.288 5.12C140.243 5.42 140.243 6.935 140.243 7.595C140.243 8.24 140.513 8.405 141.173 8.405C141.728 8.405 142.523 8.405 143.078 8.36V8.93C143.078 9.425 143.108 9.74 143.228 10.475C142.658 10.49 142.208 10.505 141.743 10.505C141.323 10.505 140.678 10.52 140.093 10.475ZM1.56 22.485C1.23 22.515 0.99 22.71 0.99 23.01C0.99 23.295 1.23 23.55 1.71 23.505C2.925 23.415 4.095 23.265 5.28 23.265C3.975 24.12 2.55 25.155 1.26 26.265C0.855 26.58 0.57 26.88 0.885 27.315H0.87C1.185 27.63 1.74 27.435 1.95 27.225C2.895 26.37 3.72 25.755 4.545 25.14C4.56 25.23 4.62 25.305 4.68 25.365C5.25 26.025 6.09 26.76 6.795 27.255C7.02 27.435 7.26 27.45 7.485 27.27C7.665 27.12 7.65 26.835 7.5 26.61C7.215 26.22 6.03 25.23 5.355 24.69L5.235 24.615C5.67 24.285 6.12 23.94 6.585 23.535C6.99 23.16 7.26 23.055 7.035 22.635C6.915 22.38 6.525 22.29 6 22.29C3.885 22.29 2.745 22.38 1.56 22.485ZM3.465 27.465C3.465 27.675 3.57 27.915 3.645 28.05C3.84 28.47 3.84 28.83 3.885 29.085C3.12 29.13 1.8 29.16 1.29 29.175C0.915 29.19 0.675 29.37 0.675 29.655C0.675 29.895 0.975 30.225 1.575 30.225C3.135 30.225 5.82 29.835 7.86 29.835C8.235 29.895 8.58 29.97 8.88 29.97C9.165 29.97 9.42 29.745 9.42 29.46C9.42 29.01 9.015 28.83 8.25 28.83C7.44 28.83 5.73 28.995 5.085 29.025C5.04 28.515 4.995 27.99 4.815 27.555C4.695 27.195 4.425 26.91 4.065 26.91C3.735 26.91 3.465 27.15 3.465 27.465ZM1.335 21.105C2.355 21.525 4.545 21.6 5.97 21.555C6.45 21.54 6.705 21.315 6.705 20.94C6.705 20.685 6.48 20.445 6.075 20.445C5.865 20.445 5.19 20.505 4.71 20.505C3.615 20.505 2.715 20.385 1.725 20.175C1.515 20.13 1.155 20.19 1.005 20.415C0.87 20.655 1.005 20.97 1.335 21.105ZM18.1645 28.545C18.1645 28.365 18.1345 28.065 18.1495 27.915C18.2395 27.3 18.2395 26.28 18.2395 25.275H18.3295C18.6895 25.275 18.8995 25.245 19.2895 25.2C19.3195 25.905 19.2895 26.805 19.2895 27.735C19.2895 28.725 19.2745 29.16 19.2295 29.94C19.1995 30.405 19.4545 30.615 19.7845 30.615C20.1595 30.615 20.3245 30.315 20.3245 29.97C20.3545 28.035 20.3095 24.93 20.3095 22.74C20.3095 22.32 20.3395 21.765 20.3545 21.42C20.3695 21.075 20.1745 20.79 19.7995 20.79C19.4695 20.79 19.3045 21.06 19.2895 21.405C19.2445 22.425 19.2445 23.085 19.2745 24.18C18.9295 24.21 18.5695 24.24 18.2245 24.24C18.2095 23.64 18.1945 23.1 18.1945 22.725C18.1945 22.47 18.1795 22.26 18.1645 22.05C18.1345 21.675 17.9545 21.495 17.6245 21.495C17.2495 21.495 17.0845 21.75 17.0995 22.035C17.1145 22.29 17.1445 22.62 17.1445 22.935C17.1595 23.97 17.2045 26.715 17.0845 27.84C17.0695 28.05 17.0245 28.2 17.0395 28.455C17.0545 28.86 17.2345 29.055 17.6245 29.04C17.9845 29.01 18.1495 28.815 18.1645 28.545ZM14.1895 22.17C14.3695 22.23 14.5645 22.275 14.7595 22.26C15.1045 22.23 15.3295 22.005 15.2995 21.66C15.2695 21.33 14.9545 21.105 14.4895 21.15C13.1695 21.3 12.1795 21.315 11.1895 21.33C10.7695 21.345 10.4545 21.48 10.4095 21.765C10.3645 22.005 10.4395 22.215 10.6795 22.305C10.6495 23.685 10.6645 25.215 10.6645 25.605C10.6645 26.205 10.6945 27.255 10.7545 27.945C10.8145 28.725 11.0995 28.905 11.9695 28.89C12.9145 28.875 13.9495 28.83 15.1945 28.815C15.3595 28.86 15.5245 28.905 15.7495 28.89C16.0795 28.86 16.2595 28.635 16.2295 28.305C16.1995 28.035 15.9745 27.825 15.5995 27.825C15.4345 27.825 15.2995 27.84 15.1045 27.87C13.8295 27.9 13.2895 27.945 12.3445 27.945C11.9995 27.945 11.8795 27.84 11.8495 27.225C11.7895 25.965 11.8045 23.88 11.8345 22.32C12.6295 22.29 13.6195 22.23 14.1895 22.17ZM22.2745 26.955C22.2445 27.15 22.2295 27.36 22.2295 27.57C22.2295 29.145 23.4145 30.09 25.0795 30.03C26.8945 29.985 28.8445 29.325 28.9645 26.775C29.0095 25.725 28.4095 24.825 27.4945 24.405C27.0445 24.195 26.5045 24.03 26.0245 24.06C25.7245 24.075 25.3795 24.195 25.3795 24.375C23.7745 24.645 22.5145 25.65 22.2745 26.955ZM32.3995 29.415C32.2945 29.625 32.2045 29.865 32.2045 30.12C32.2645 30.465 32.5495 30.675 32.9395 30.69C33.4495 30.735 33.4495 30.375 33.4945 30.015C33.5245 29.745 33.5095 29.475 33.4945 29.205C33.5695 27.09 33.6295 25.32 33.5845 21.6C33.5845 21.195 33.3895 21.015 33.0445 21.015C32.6695 21.015 32.4145 21.24 32.4295 21.645C32.4445 22.38 32.4595 23.475 32.4595 24.375C32.2045 24.36 31.9195 24.345 31.6345 24.345C31.3495 24.345 31.0945 24.36 30.8245 24.39C30.8845 23.445 30.9445 22.395 30.8995 21.87C30.8545 21.405 30.6145 21.24 30.3295 21.24C30.0745 21.225 29.7595 21.33 29.7895 21.825C29.8645 23.385 29.6695 24.57 29.6245 25.68C29.5795 26.61 29.5945 27.705 29.5345 28.335L29.4595 29.145C29.4145 29.505 29.4595 29.85 29.9695 29.85C30.3595 29.88 30.6595 29.685 30.7345 29.34C30.7645 29.085 30.7045 28.815 30.5995 28.62C30.5995 27.75 30.6445 26.835 30.7045 25.965C30.7045 25.83 30.7195 25.62 30.7345 25.425C31.3195 25.365 31.8595 25.335 32.4445 25.395C32.4295 26.835 32.3995 28.11 32.3995 29.415ZM23.3395 27.195C23.4895 26.475 24.1045 25.755 25.2745 25.485C25.6345 25.41 26.4895 25.605 26.6995 25.305C27.3445 25.44 27.9295 26.055 27.8995 26.73C27.8245 28.515 26.4145 28.965 25.1395 29.025C23.9245 29.07 23.0995 28.335 23.3395 27.195ZM22.1695 23.19C23.5945 23.22 25.3045 23.19 26.6695 23.565C26.8345 23.595 27.0145 23.595 27.1945 23.61C27.5395 23.625 27.7645 23.34 27.7945 23.115C27.8095 22.755 27.5095 22.53 27.0145 22.47C25.4995 22.275 23.6995 22.125 22.1995 22.215C21.8395 22.185 21.6595 22.365 21.6445 22.635C21.6445 22.905 21.8245 23.175 22.1695 23.19ZM22.7545 21.12H23.6395C24.3595 21.12 25.4245 21.135 25.9945 21.18C26.2345 21.3 26.4895 21.405 26.6545 21.405C27.0595 21.42 27.3145 21.225 27.3595 20.82C27.3895 20.49 27.2245 20.19 26.7895 20.16C26.8045 20.175 26.3395 20.19 26.0845 20.175C25.9495 20.175 25.7395 20.145 25.6195 20.145C24.8545 20.1 23.8945 20.145 23.1445 20.145C23.0095 20.145 22.8895 20.085 22.7695 20.085C22.3795 20.085 22.1995 20.28 22.1995 20.565C22.1995 20.835 22.4095 21.105 22.7545 21.12ZM38.7417 20.94C38.4417 20.715 38.0967 20.85 37.9167 21.255C37.6317 21.9 37.3917 22.59 36.7617 24.42C35.9817 26.67 35.1867 28.74 34.9317 29.865C34.8417 30.3 34.9017 30.63 35.2317 30.81C35.5617 30.96 35.9367 30.855 36.1017 30.195C36.4017 28.905 37.0167 27.21 37.5267 25.77C38.3067 26.835 39.0867 27.765 39.7617 29.145C39.8967 29.4 39.7467 29.685 39.9867 30.03C40.1817 30.315 40.5567 30.525 40.7817 30.48C41.2467 30.375 41.2917 29.835 41.0667 29.31C40.1967 27.375 39.0117 25.95 37.9617 24.495C38.3217 23.355 38.5467 22.71 38.8917 21.84C39.0417 21.48 38.9967 21.15 38.7417 20.94ZM40.7817 25.695C41.1117 25.725 41.4267 25.74 41.7867 25.74C42.2817 25.74 42.7917 25.725 43.2267 25.68C43.2417 27.225 43.1817 28.725 43.2417 30.21C43.2717 30.675 43.3917 31.035 43.7817 31.035C44.3367 31.035 44.4117 30.555 44.4117 30.21V28.785C44.4117 27.87 44.4267 26.79 44.4267 25.875V21.315C44.4267 20.865 44.0817 20.655 43.7967 20.655C43.4967 20.655 43.2717 20.895 43.2717 21.33C43.3017 21.765 43.3167 22.155 43.3167 22.905L43.2867 24.525H43.1067C42.7317 24.54 42.3567 24.585 41.9517 24.585C41.5917 24.585 41.1717 24.54 40.8117 24.51C40.3917 24.51 40.1667 24.69 40.1667 25.08C40.1667 25.44 40.3617 25.68 40.7817 25.695ZM51.1764 21.72C51.1314 21.885 51.1314 22.05 51.1314 22.245C51.1464 23.625 52.0164 24.825 53.7714 25.035C54.1764 25.08 54.6414 25.095 54.9864 25.05C56.3814 24.885 57.5064 24.39 58.0164 22.98C58.2114 22.44 58.2414 21.84 58.0914 21.3C57.7764 20.115 56.7114 19.08 54.9714 19.32C54.7764 19.35 54.5364 19.365 54.4014 19.44C54.2814 19.365 54.1914 19.29 53.9814 19.29C52.5264 19.29 51.4914 20.355 51.1764 21.72ZM52.2714 21.96C52.4064 21.12 52.9464 20.4 53.9964 20.295C54.1014 20.445 54.2814 20.565 54.4764 20.595C54.7764 20.64 55.0464 20.49 55.3764 20.445C56.5464 20.295 57.1164 21.21 57.1164 22.11C57.1164 22.305 57.1014 22.485 57.0264 22.71C56.7114 23.64 55.8264 24.135 54.9414 24.135C54.6414 24.135 54.2514 24.12 53.8764 24.06C52.5714 23.88 52.0914 22.86 52.2714 21.96ZM53.1864 25.935L50.7114 25.89C50.1264 25.875 49.9014 26.1 49.9014 26.37C49.9014 26.64 50.2164 26.955 50.7114 26.955C52.0164 26.955 53.6214 26.955 54.9264 26.94C55.8264 26.925 56.8914 26.925 57.2964 26.925C57.5664 26.925 57.9114 27.015 58.2264 27C58.6764 26.97 58.9314 26.79 58.9314 26.385C58.9314 25.89 58.4364 25.8 58.1364 25.8C57.8514 25.815 57.7614 25.86 57.4764 25.86C57.2214 25.875 53.5164 25.935 53.1864 25.935ZM51.6264 30.9C51.6264 31.62 51.9114 31.86 52.6164 31.8C52.6914 31.8 52.8264 31.725 52.9164 31.725C54.1914 31.665 55.3764 31.77 56.5614 31.83C57.4314 31.875 57.6264 31.545 57.7014 30.9C57.7764 30.3 57.9264 29.34 58.0014 28.86C58.1064 28.155 57.8664 27.915 57.1464 27.93C55.7664 27.945 53.8464 27.975 52.4214 27.96C51.9264 27.96 51.5364 28.02 51.5364 28.485C51.5364 29.07 51.6264 29.85 51.6714 30.42C51.6714 30.585 51.6264 30.75 51.6264 30.9ZM56.6664 28.845C56.9364 28.83 56.9514 28.905 56.9214 29.13C56.8914 29.37 56.7564 30.555 56.6964 30.84C55.4364 30.765 53.9064 30.69 52.8414 30.75C52.8114 30.615 52.6914 30.495 52.6314 30.405C52.5414 30.03 52.6014 29.175 52.5414 28.89C53.5614 28.905 55.8564 28.875 56.6664 28.845ZM61.8192 30.885C62.0142 31.89 62.9742 32.82 64.5192 32.82C66.7842 32.82 68.5842 31.695 68.3742 29.595C68.2992 28.62 67.6842 27.63 66.6642 27.495C66.4542 27.42 66.2592 27.345 66.0192 27.315C65.7792 27.3 65.4642 27.405 65.3592 27.51C63.4092 27.465 61.4142 28.725 61.8192 30.885ZM63.1992 20.16C62.7792 21.87 61.8642 24.195 61.0392 25.86C60.7542 26.445 59.9592 26.82 60.2892 27.24C60.6042 27.615 61.0092 27.675 61.4892 27.24C61.7742 27 61.8342 26.685 61.8942 26.445C62.2842 25.605 62.5392 25.14 62.8542 24.42L64.5792 26.235C64.8342 26.505 65.0292 26.625 65.2692 26.595C65.6592 26.55 66.0492 26.025 65.6292 25.635C64.8642 25.005 63.9642 23.985 63.3342 23.235C63.7092 22.155 63.9642 21.195 64.1742 20.445C64.3392 19.845 64.1742 19.545 63.7992 19.5C63.4242 19.455 63.3042 19.725 63.1992 20.16ZM67.2792 29.76C67.3692 31.275 65.6742 31.83 64.3692 31.77C63.5742 31.725 63.0792 31.305 62.9592 30.69C62.7042 29.235 64.4592 28.38 65.5392 28.62C65.7642 28.665 66.2892 28.635 66.3942 28.5C66.9942 28.635 67.2492 29.22 67.2792 29.76ZM65.4792 23.43C66.0492 23.385 66.3492 23.37 67.1292 23.385C67.1292 23.925 67.0542 25.26 67.0242 25.86C66.9942 26.325 67.2042 26.685 67.5942 26.685C68.0292 26.685 68.2242 26.4 68.2242 26.115C68.2242 25.965 68.1792 25.755 68.1792 25.53C68.2092 24.015 68.2992 20.91 68.2242 20.055C68.1792 19.68 67.9242 19.53 67.6392 19.545C67.3242 19.56 67.1592 19.77 67.1592 20.145C67.1592 20.745 67.1592 21.735 67.1442 22.38C66.4242 22.35 65.9442 22.35 65.3442 22.395C65.0892 22.41 64.9092 22.665 64.8942 22.905C64.8792 23.16 65.1042 23.46 65.4792 23.43ZM77.9718 21.78C77.9718 21.36 77.6868 21.12 77.4318 21.12C77.1318 21.12 76.8618 21.345 76.8768 21.765C76.9368 23.955 76.7568 26.73 76.7568 27.885C76.7568 28.14 76.6668 28.395 76.6668 28.695C76.6668 29.055 76.8018 29.49 77.2968 29.49C77.6568 29.49 77.8068 29.145 77.8068 28.695C77.8068 27.78 77.8518 26.13 77.9118 24.735C78.2718 24.735 78.7368 24.75 79.0368 24.765C78.9618 26.655 78.8568 28.545 78.8718 30.435C78.8868 30.99 79.1418 31.23 79.4418 31.2C79.6968 31.14 79.9218 30.915 79.9218 30.54C79.8618 27.195 80.3718 23.805 80.1318 20.505C80.1018 20.145 79.8918 19.83 79.5018 19.905C79.1418 19.98 79.0818 20.325 79.0818 20.64C79.1118 21.66 79.1118 22.68 79.0818 23.685C78.8118 23.685 78.3318 23.7 77.9418 23.73C77.9568 23.145 77.9718 22.335 77.9718 21.78ZM74.6118 23.895C74.9268 23.46 75.1068 23.13 75.0918 22.875C75.0768 22.38 74.7618 22.32 74.2068 22.335C73.1268 22.365 71.2818 22.47 70.2768 22.635C69.8868 22.71 69.6468 22.935 69.6918 23.28C69.7368 23.655 69.9918 23.91 70.3518 23.865C70.5918 23.85 70.8018 23.73 70.9518 23.64C71.7168 23.535 73.0218 23.46 73.6818 23.415C72.8568 24.51 71.0718 26.745 70.0968 27.975C69.7818 28.38 69.6768 28.77 69.9168 28.98C70.1718 29.205 70.5468 29.145 70.8018 28.8C71.4168 27.99 72.0768 27.165 72.7218 26.355C73.1418 26.94 73.6068 27.57 74.0268 28.095C74.1918 28.41 74.3718 28.785 74.5518 28.935C74.7918 29.145 75.0918 29.235 75.4068 28.98C75.7218 28.755 75.6318 28.32 75.4218 28.065C75.3768 27.99 75.1368 27.75 75.0018 27.585L74.5668 26.985C74.1768 26.43 73.7118 25.815 73.4268 25.44C73.8318 24.93 74.2218 24.42 74.6118 23.895ZM71.5668 20.07C71.1768 20.04 70.8318 20.025 70.5168 20.07C70.0818 20.13 69.9018 20.46 70.0068 20.82C70.0668 21 70.2618 21.12 70.4418 21.165C70.6968 21.21 70.9218 21.135 71.1468 21.135C71.7618 21.12 72.8268 21.165 73.5318 21.405C73.8918 21.525 74.2068 21.48 74.3568 21.165C74.5068 20.85 74.2668 20.565 73.9518 20.445C73.3218 20.22 72.2568 20.07 71.5668 20.07ZM86.5234 27.465C86.3734 27.405 86.2684 27.39 86.0884 27.42C84.7684 27.6 83.7184 28.71 83.7484 29.775C83.7934 31.365 85.4584 31.89 86.7184 31.965C87.9034 32.025 89.3884 31.8 90.1984 30.96C90.5734 30.57 90.7384 30.06 90.7534 29.55C90.7984 28.305 90.0934 27.66 88.8784 27.345C88.2634 27.18 86.8684 27.06 86.5234 27.465ZM87.9034 26.625C88.1584 26.625 88.4284 26.445 88.4434 26.1C88.4584 25.725 88.0834 25.545 87.6484 25.53C86.3134 25.47 85.0834 25.59 83.8534 25.71C83.3734 25.755 83.2084 25.65 83.1784 25.185C83.1484 24.825 83.1484 24.39 83.1934 23.94C84.0634 23.85 85.4134 23.835 86.1334 23.865C86.5534 23.88 86.8534 23.79 86.8834 23.46C86.9134 23.1 86.6434 22.89 86.2384 22.86C85.3084 22.785 84.2734 22.815 83.3284 22.905C83.4334 22.245 83.6134 21.63 83.8234 21.195H84.4684C85.4134 21.195 86.2234 21.33 86.5384 21.33C86.7484 21.33 86.9284 21.285 87.0484 21.15C87.1984 20.955 87.1984 20.76 87.0934 20.565C86.9884 20.385 86.8534 20.31 86.4934 20.25C86.1484 20.205 85.0084 20.175 84.0934 20.145C82.8634 20.1 82.5634 20.055 82.3834 20.025C82.2934 20.01 82.2034 19.995 82.0534 19.995C81.6784 19.995 81.4834 20.13 81.4834 20.52C81.4834 20.745 81.7234 20.97 82.1134 21.075C82.2184 21.105 82.3534 21.12 82.4884 21.12C82.5484 21.12 82.5784 21.135 82.5784 21.18C82.5784 21.21 82.5784 21.255 82.5634 21.3V21.285L82.5184 21.45C82.0684 22.995 81.9484 24.435 82.1134 25.845C82.2034 26.64 82.6234 26.88 83.4784 26.775C84.5134 26.655 85.8334 26.505 87.1234 26.52C87.3034 26.52 87.6184 26.625 87.9034 26.625ZM89.3434 30.21C88.8934 30.855 87.7384 30.99 86.7784 30.99C85.8184 30.99 84.9484 30.51 84.9034 29.85C84.8734 29.175 85.3684 28.8 85.9984 28.47C86.2384 28.35 86.5084 28.275 86.7934 28.245C86.9884 28.305 87.2884 28.23 87.6484 28.23C87.9634 28.23 88.2934 28.26 88.5634 28.35C89.5084 28.665 89.9734 29.295 89.3434 30.21ZM89.3584 25.53C89.4034 25.905 89.6134 26.085 89.8984 26.085C90.1534 26.085 90.3934 25.95 90.3934 25.605C90.3934 25.005 90.3184 24.36 90.3184 23.73C90.3184 22.575 90.3484 21.585 90.3934 20.61C90.4084 20.235 90.1684 20.01 89.8684 20.01C89.5684 20.01 89.3584 20.205 89.3284 20.55C89.1934 21.99 89.2234 24.195 89.3584 25.53ZM93.5599 21.435C93.2299 23.205 94.7749 24.345 96.3049 24.57C97.8499 24.84 99.8299 24.66 100.595 22.74C100.7 22.425 100.73 22.155 100.745 21.855C100.82 20.625 99.5899 19.485 97.7449 19.26C97.6249 19.095 97.3849 18.945 97.1599 18.945C95.7349 18.945 93.8299 19.65 93.5599 21.435ZM94.6849 21.615C94.8649 20.49 96.0949 20.055 97.1299 20.055C97.2649 20.22 97.4749 20.355 97.6849 20.385C99.0949 20.595 99.6199 21.255 99.6199 22.005C99.6199 22.185 99.5899 22.32 99.5149 22.53C98.9449 23.76 97.3849 23.835 96.3349 23.565C95.3449 23.34 94.5199 22.605 94.6849 21.615ZM95.4949 26.46C95.8549 26.46 99.7399 26.52 100.01 26.535C100.31 26.535 100.415 26.58 100.715 26.595C101.03 26.61 101.54 26.505 101.54 25.98C101.54 25.56 101.285 25.365 100.805 25.335C100.475 25.32 100.115 25.425 99.8299 25.425C99.3949 25.425 98.2849 25.425 97.3249 25.41C95.9599 25.38 94.2649 25.38 92.8999 25.38C92.3749 25.38 92.0449 25.725 92.0449 26.01C92.0449 26.28 92.2849 26.52 92.8999 26.505L95.4949 26.46ZM93.6649 27.72C93.2149 27.855 93.0049 28.095 93.0949 28.38C93.1999 28.71 93.4099 28.83 93.9199 28.695C94.9099 28.425 97.9849 28.41 98.7499 28.455C98.8849 28.47 98.9899 28.515 98.9899 28.59C99.0049 28.755 99.0049 29.175 99.0049 29.295C99.0049 29.55 98.9149 29.7 98.6149 29.64C98.3299 29.58 97.8499 29.58 97.5049 29.565C96.8899 29.535 96.1849 29.535 95.6899 29.55C94.5049 29.565 93.9199 30.09 93.8149 30.72C93.7699 30.975 93.7249 31.26 93.7249 31.545C93.7249 32.325 94.0849 32.61 95.0449 32.655C95.8999 32.7 99.6499 32.67 100.475 32.73C100.88 32.76 101.18 32.64 101.195 32.22C101.21 31.785 100.955 31.59 100.325 31.59C100.145 31.59 99.8299 31.665 99.5749 31.725C98.3749 31.77 96.1249 31.725 95.0599 31.65C94.8349 31.635 94.8199 31.59 94.8199 31.275C94.8199 30.81 95.0149 30.585 95.6599 30.585C96.7399 30.585 97.4899 30.585 98.0149 30.6C98.7049 30.615 98.9899 30.66 99.0649 30.66C99.6349 30.675 99.9499 30.3 100.01 29.715C100.055 29.31 100.07 28.68 99.9949 28.155C99.9049 27.54 99.5449 27.465 98.9449 27.45C97.7299 27.405 94.6549 27.42 93.6649 27.72ZM107.646 26.955C107.616 27.15 107.601 27.36 107.601 27.57C107.601 29.145 108.786 30.09 110.451 30.03C112.266 29.985 114.216 29.325 114.336 26.775C114.381 25.725 113.781 24.825 112.866 24.405C112.416 24.195 111.876 24.03 111.396 24.06C111.096 24.075 110.751 24.195 110.751 24.375C109.146 24.645 107.886 25.65 107.646 26.955ZM117.771 29.415C117.666 29.625 117.576 29.865 117.576 30.12C117.636 30.465 117.921 30.675 118.311 30.69C118.821 30.735 118.821 30.375 118.866 30.015C118.896 29.745 118.881 29.475 118.866 29.205C118.941 27.09 119.001 25.32 118.956 21.6C118.956 21.195 118.761 21.015 118.416 21.015C118.041 21.015 117.786 21.24 117.801 21.645C117.816 22.38 117.831 23.475 117.831 24.375C117.576 24.36 117.291 24.345 117.006 24.345C116.721 24.345 116.466 24.36 116.196 24.39C116.256 23.445 116.316 22.395 116.271 21.87C116.226 21.405 115.986 21.24 115.701 21.24C115.446 21.225 115.131 21.33 115.161 21.825C115.236 23.385 115.041 24.57 114.996 25.68C114.951 26.61 114.966 27.705 114.906 28.335L114.831 29.145C114.786 29.505 114.831 29.85 115.341 29.85C115.731 29.88 116.031 29.685 116.106 29.34C116.136 29.085 116.076 28.815 115.971 28.62C115.971 27.75 116.016 26.835 116.076 25.965C116.076 25.83 116.091 25.62 116.106 25.425C116.691 25.365 117.231 25.335 117.816 25.395C117.801 26.835 117.771 28.11 117.771 29.415ZM108.711 27.195C108.861 26.475 109.476 25.755 110.646 25.485C111.006 25.41 111.861 25.605 112.071 25.305C112.716 25.44 113.301 26.055 113.271 26.73C113.196 28.515 111.786 28.965 110.511 29.025C109.296 29.07 108.471 28.335 108.711 27.195ZM107.541 23.19C108.966 23.22 110.676 23.19 112.041 23.565C112.206 23.595 112.386 23.595 112.566 23.61C112.911 23.625 113.136 23.34 113.166 23.115C113.181 22.755 112.881 22.53 112.386 22.47C110.871 22.275 109.071 22.125 107.571 22.215C107.211 22.185 107.031 22.365 107.016 22.635C107.016 22.905 107.196 23.175 107.541 23.19ZM108.126 21.12H109.011C109.731 21.12 110.796 21.135 111.366 21.18C111.606 21.3 111.861 21.405 112.026 21.405C112.431 21.42 112.686 21.225 112.731 20.82C112.761 20.49 112.596 20.19 112.161 20.16C112.176 20.175 111.711 20.19 111.456 20.175C111.321 20.175 111.111 20.145 110.991 20.145C110.226 20.1 109.266 20.145 108.516 20.145C108.381 20.145 108.261 20.085 108.141 20.085C107.751 20.085 107.571 20.28 107.571 20.565C107.571 20.835 107.781 21.105 108.126 21.12ZM121.998 28.335C121.623 28.35 121.353 28.47 121.353 28.845C121.353 29.265 121.833 29.37 122.253 29.37C123.723 29.31 125.178 29.355 126.633 29.295C127.008 29.265 127.293 29.22 127.293 28.86C127.293 28.575 127.158 28.335 126.708 28.32C126.093 28.305 125.463 28.275 124.833 28.275C124.818 27.735 124.743 26.985 124.713 26.535C125.133 26.505 125.538 26.46 125.868 26.4C126.948 26.22 127.413 25.755 127.413 24.765C127.413 23.745 127.278 22.365 127.188 21.405C127.158 21.06 126.888 20.85 126.558 20.85C126.228 20.85 126.108 21.12 126.123 21.48C126.153 21.93 126.213 22.41 126.273 22.89C125.103 22.755 122.778 22.83 121.908 22.92C121.698 22.95 121.533 22.98 121.413 23.04C121.383 22.62 121.368 22.2 121.368 21.78C121.368 21.285 121.173 21.045 120.858 21.045C120.528 21.045 120.258 21.225 120.258 21.705C120.258 22.725 120.378 23.79 120.483 24.72C120.588 25.665 120.708 25.98 120.993 26.235C121.308 26.52 121.683 26.61 123.078 26.61H123.618C123.693 27.09 123.723 27.765 123.768 28.29C123.198 28.29 122.598 28.305 121.998 28.335ZM129.888 21.57C129.858 21.24 129.753 20.895 129.423 20.895C129.168 20.895 128.928 21.03 128.913 21.345C128.838 22.695 128.823 25.65 128.883 26.97C128.898 27.48 128.928 27.84 128.958 28.08C129.003 28.5 129.183 28.695 129.558 28.575C129.918 28.47 130.053 28.245 130.053 27.915C130.053 27.645 129.963 27.345 129.948 26.64C129.933 26.205 129.918 25.8 129.918 25.41C130.383 25.425 131.043 25.44 131.568 25.41C132.573 25.38 132.648 25.32 132.648 24.9C132.648 24.72 132.438 24.48 131.943 24.45C131.193 24.435 130.458 24.405 129.888 24.405C129.858 23.355 129.858 22.5 129.888 21.57ZM121.938 23.955C122.643 23.88 125.163 23.895 125.523 23.895C125.868 23.895 126.123 23.94 126.393 23.94C126.408 24.165 126.423 24.375 126.423 24.585C126.423 25.095 126.393 25.275 125.703 25.41C124.668 25.605 123.333 25.59 122.388 25.515C121.653 25.485 121.758 25.335 121.653 24.735C121.593 24.48 121.548 24.225 121.503 23.97C121.608 23.985 121.758 23.985 121.938 23.955ZM133.926 29.475C133.626 29.475 133.446 29.535 133.341 29.67C133.176 29.895 133.236 30.285 133.626 30.33C134.226 30.39 134.841 30.39 135.411 30.39C137.451 30.39 139.041 30.45 140.796 30.48C141.156 30.48 141.366 30.315 141.381 30.06C141.381 29.775 141.186 29.61 140.691 29.565C139.911 29.49 139.161 29.475 138.531 29.475C138.606 28.455 138.666 27.585 138.726 26.985C138.756 26.775 138.771 26.505 138.786 26.28C138.786 26.22 138.801 26.16 138.801 26.1C139.611 25.635 140.331 25.005 140.721 24.225C140.961 23.745 141.036 23.295 141.036 22.83C141.036 21.81 140.511 20.94 139.626 20.385C139.461 19.98 138.381 19.815 137.571 19.815C136.806 19.815 135.981 20.01 135.246 20.475C133.821 21.36 133.476 22.455 133.476 23.88C133.476 24.045 133.476 24.255 133.491 24.42C133.701 25.965 134.481 26.715 135.636 26.865C135.531 27.045 135.486 27.21 135.486 27.465C135.486 27.675 135.501 28.74 135.501 29.46C134.976 29.46 134.466 29.46 133.926 29.475ZM135.921 21.375C136.446 21.015 137.061 20.85 137.601 20.865C138.171 20.88 138.861 21.045 139.101 21.33C139.476 21.78 139.956 22.35 139.866 23.1C139.701 24.51 138.321 25.335 137.046 25.65C136.776 25.695 136.446 25.725 136.221 25.725C135.381 25.725 134.721 25.275 134.631 24.27C134.616 24.15 134.616 23.97 134.616 23.85C134.616 22.65 134.916 21.99 135.921 21.375ZM136.566 27.3C136.551 27.135 136.536 26.985 136.461 26.88C136.581 26.88 136.671 26.865 136.791 26.85C137.076 26.805 137.391 26.715 137.721 26.595C137.646 26.775 137.601 27.045 137.586 27.27C137.541 27.84 137.481 28.56 137.436 29.475C137.136 29.475 136.851 29.46 136.566 29.46C136.581 28.68 136.581 27.51 136.566 27.3ZM144.17 19.905C144.17 20.685 144.095 21.99 144.005 22.845C143.9 23.895 143.825 26.76 143.9 28.02C143.93 28.47 144.125 28.74 144.53 28.74C144.89 28.71 144.98 28.365 144.98 28.005C144.98 26.685 145.055 23.91 145.13 22.995C145.205 22.11 145.295 20.835 145.265 19.8C145.25 19.5 144.995 19.29 144.725 19.29C144.395 19.29 144.17 19.515 144.17 19.905ZM143.45 30.675C143.51 31.26 144.005 31.62 144.59 31.605C145.115 31.605 145.535 31.05 145.535 30.54C145.535 30.015 144.965 29.595 144.485 29.595C143.855 29.595 143.39 30.105 143.45 30.675ZM148.565 19.905C148.565 20.685 148.49 21.99 148.4 22.845C148.295 23.895 148.22 26.76 148.295 28.02C148.325 28.47 148.52 28.74 148.925 28.74C149.285 28.71 149.375 28.365 149.375 28.005C149.375 26.685 149.45 23.91 149.525 22.995C149.6 22.11 149.69 20.835 149.66 19.8C149.645 19.5 149.39 19.29 149.12 19.29C148.79 19.29 148.565 19.515 148.565 19.905ZM147.845 30.675C147.905 31.26 148.4 31.62 148.985 31.605C149.51 31.605 149.93 31.05 149.93 30.54C149.93 30.015 149.36 29.595 148.88 29.595C148.25 29.595 147.785 30.105 147.845 30.675Z" fill="black"/>
</svg>
