<svg width="92" height="64" viewBox="0 0 92 64" fill="none"
  xmlns="http://www.w3.org/2000/svg">
  <path d="M5.46017 20.2157C5.30264 20.1799 5.19659 20.1814 5.02347 20.2391C3.74771 20.6229 2.88374 21.8831 3.07952 22.9304C3.37201 24.4939 5.09853 24.7527 6.3548 24.6302C7.53466 24.5046 8.96637 24.0507 9.63541 23.0946C9.94498 22.6509 10.0284 22.1214 9.96365 21.6153C9.81387 20.3785 9.01688 19.8514 7.76761 19.7298C7.1344 19.6628 5.73776 19.7619 5.46017 20.2157ZM3.5322 14.0662C3.65851 13.7122 3.51579 13.3854 3.20075 13.3137C2.91767 13.2521 2.59796 13.4393 2.4615 13.8253C1.83539 15.5339 1.17733 17.8094 0.429554 19.3246C0.19875 19.7863 0.306381 20.1793 0.665878 20.244C0.995741 20.3134 1.2905 20.1605 1.46906 19.7527C1.79577 19.0329 2.14197 18.0519 2.4905 17.0857C3.08162 17.4631 3.94489 18.0253 4.43775 18.3575C4.53289 18.4791 4.77465 18.7598 4.8924 18.8324C5.19888 19.0421 5.57397 19.0132 5.79542 18.7808C6.00206 18.5508 5.92874 18.1827 5.67451 17.9192C5.51075 17.7476 5.28537 17.5706 4.91729 17.3554C4.41898 17.0848 3.53854 16.5101 2.84449 16.0579L3.5322 14.0662ZM8.67387 22.4872C8.33001 23.1945 7.21021 23.508 6.26196 23.6578C5.31372 23.8075 4.37949 23.4691 4.23208 22.8242C4.09714 22.1622 4.52758 21.7146 5.09838 21.2903C5.31672 21.1343 5.57171 21.0181 5.84854 20.944C6.05052 20.9729 6.33514 20.852 6.69074 20.7958C7.00188 20.7467 7.33252 20.7249 7.61325 20.7716C8.59582 20.9353 9.15342 21.4851 8.67387 22.4872ZM10.4281 15.422C10.7931 15.4251 10.9436 15.128 10.9061 14.8909C10.871 14.6687 10.6979 14.4379 10.4538 14.4308C9.84714 14.4356 9.12504 14.6711 8.4973 14.831C8.3569 13.942 8.27733 13.4382 8.16346 12.9095C8.09248 12.5563 7.82968 12.4307 7.54817 12.4752C7.26665 12.5197 7.01322 12.7419 7.06471 13.0679C7.30106 14.5643 7.83379 17.4566 8.00462 18.5382C8.0444 18.7901 8.28927 18.9944 8.68931 18.9312C9.00046 18.8821 9.16888 18.5062 9.10804 18.121C9.07528 17.9136 8.97701 17.5798 8.94892 17.402C8.87404 16.9279 8.70946 15.982 8.67436 15.7597C9.05724 15.6841 10.0531 15.4509 10.4281 15.422ZM13.3493 19.3949C13.3501 19.5922 13.368 19.802 13.4008 20.0094C13.6465 21.5651 14.9644 22.3137 16.5997 21.9947C18.3854 21.6671 20.1735 20.7772 19.9145 18.1758C19.7694 16.6801 18.3953 15.8645 16.8022 16.1617C14.8706 16.5275 13.3874 17.8096 13.3493 19.3949ZM14.4535 19.4635C14.5151 18.6034 15.3674 17.5576 16.8669 17.2448C17.855 17.0584 18.6746 17.5364 18.8134 18.3193C18.9047 20.0513 17.7202 20.7243 16.4827 20.9653C15.3192 21.1946 14.4193 20.5927 14.4535 19.4635ZM22.6781 16.8281C22.6523 16.6652 22.6344 16.4554 22.6118 16.216L23.5897 16.0615C23.7846 16.0459 24.4069 15.9477 24.6291 15.9126C24.9995 15.8541 25.1079 15.5788 25.0705 15.3417C25.0354 15.1195 24.8849 14.8395 24.4677 14.8902C24.2088 14.8856 23.6138 14.9644 23.3619 15.0041L22.4877 15.1422C22.3871 14.2166 22.2599 13.2192 22.1952 12.7131C22.1375 12.2514 21.8154 12.1353 21.5339 12.1797C21.2797 12.2047 21.0294 12.3505 21.0918 12.8418L21.4686 16.0928C21.584 17.0161 21.9459 19.1154 21.985 19.747L22.0372 20.5588C22.049 20.9214 22.1472 21.2552 22.651 21.1756C23.0409 21.1444 23.3068 20.905 23.3271 20.5525C23.3169 20.2959 23.2498 20.0636 23.143 19.8678C23.0073 19.0085 22.7545 17.6969 22.6781 16.8281ZM12.1966 15.7501C13.7492 15.5808 14.9563 15.4357 15.9287 15.3429L18.0615 15.0972C18.3157 15.0722 18.5692 15.1385 18.7836 15.1502C18.9661 15.1517 19.1462 15.1384 19.3092 15.1127C19.6547 15.0885 19.8278 14.7423 19.8075 14.5177C19.7661 14.1598 19.4152 13.957 18.9239 14.0194C18.6869 14.0569 17.3269 14.1957 16.4605 14.287C15.1302 14.4212 13.3405 14.6279 12.0491 14.8167C11.6912 14.858 11.5415 15.0639 11.5836 15.3306C11.6257 15.5973 11.8386 15.7915 12.1966 15.7501ZM12.7057 13.5892L13.5799 13.4512C14.6022 13.2897 15.9208 13.0814 16.2655 13.1485C16.7038 13.2311 17.2341 13.2233 17.1981 12.5152C17.1825 12.3203 16.9782 11.9881 16.5415 12.0115C16.5587 12.024 16.0947 12.0669 15.8405 12.0919C15.7071 12.1129 15.495 12.1161 15.3765 12.1348C14.4805 12.2307 13.3077 12.4008 12.552 12.5201C12.1668 12.581 12.0264 12.8461 12.0709 13.1276C12.113 13.3943 12.3626 13.6282 12.7057 13.5892ZM29.5779 18.4263C29.2371 18.4801 28.1976 18.6291 26.8119 18.8935C26.4142 18.9715 26.2863 19.2195 26.3331 19.5158C26.3776 19.7974 26.5835 19.9471 27.0576 19.8722C27.2947 19.8347 28.54 19.5469 29.4586 19.4019C29.8142 19.3457 29.9764 19.4112 30.2876 19.362C30.6728 19.3012 30.8662 19.1795 31.7552 19.0391C32.2589 18.9596 33.0341 18.8675 33.4637 18.7997C33.9823 18.7178 34.1211 18.6351 34.0766 18.3536C34.0345 18.0869 33.5526 17.92 32.9334 17.9419C32.3439 17.9591 31.3465 18.0862 30.6649 18.1939C30.5066 17.6722 30.2344 16.9103 30.105 16.4752C30.1525 16.1032 29.7376 15.5917 29.3376 15.6549C28.9968 15.7087 28.7605 15.9434 28.8331 16.4027C28.8542 16.5361 29.0195 17.1022 29.1458 17.3252C29.3385 17.8719 29.3845 17.9709 29.5779 18.4263ZM33.4002 10.6093C33.8729 13.6022 34.213 15.3708 34.6131 17.6159C34.7028 18.0876 35.0717 18.2116 35.3532 18.1671C35.6199 18.125 35.8616 17.8287 35.7891 17.3694C35.5012 15.547 35.2891 14.6845 35.1978 14.1067C35.8006 13.9811 36.4089 13.7939 36.9773 13.6434C37.2815 13.5498 37.46 13.4305 37.4062 13.0897C37.3688 12.8526 37.3228 12.7536 36.911 12.7427C36.2326 12.7739 35.558 12.926 34.9506 13.022C34.8788 12.4714 34.8367 11.9162 34.6666 11.0319C34.605 10.7379 34.6378 10.3683 34.605 10.1608C34.5605 9.87933 34.2244 9.67426 33.9429 9.71872C33.5577 9.77956 33.33 10.1648 33.4002 10.6093ZM30.0875 9.8265C29.0753 9.956 28.3025 10.0629 27.295 10.222C26.5838 10.3343 26.3359 10.2064 25.758 10.2977C25.4617 10.3445 25.3268 10.548 25.3666 10.7999C25.411 11.0814 25.5288 11.1539 25.7183 11.1999C25.8438 11.2257 26.2751 11.2639 26.7835 11.2139C27.4549 11.1383 29.0278 10.905 29.5487 10.8379C28.3947 12.5692 27.193 14.0953 26.2067 15.8305C26.0187 16.179 26.0148 16.3467 26.0702 16.505C26.1763 16.792 26.4204 16.799 26.6278 16.7662C26.8204 16.7358 27.392 16.2203 27.3311 15.8351C27.3194 15.761 28.8236 13.7467 28.9577 13.6344C29.3874 13.855 30.9214 14.7214 31.6528 15.1221C31.8665 15.2251 32.2174 15.1393 32.3773 14.9014C32.5371 14.6636 32.311 14.2893 32.1121 14.184C31.4789 13.8284 30.2787 13.1524 29.5082 12.697C29.9426 12.0817 30.5079 11.4306 30.7683 10.6757C30.9508 10.1002 30.6825 9.74771 30.0875 9.8265ZM43.4876 7.75566C42.9051 7.52876 42.1463 7.43599 41.361 7.56002C40.6054 7.67936 39.8162 7.97105 39.1331 8.5497C37.8512 9.66333 37.6516 10.8034 37.8739 12.211C37.9067 12.4184 37.9371 12.611 37.9948 12.7841C38.5181 14.463 39.5959 15.0369 40.9886 14.817C41.196 14.7842 41.4432 14.7148 41.6904 14.6454C43.0083 14.2398 44.7207 12.9671 45.1776 11.4371C45.3523 10.9084 45.3561 10.4522 45.2836 9.99286C45.1221 8.97053 44.4483 8.1658 43.4876 7.75566ZM39.9036 9.29361C40.398 8.86625 40.9548 8.64164 41.4882 8.55739C42.0808 8.46379 42.6548 8.54018 43.1484 8.78113C43.7309 9.00803 44.1965 9.64823 44.2145 10.4351C44.2933 11.8956 42.9474 12.989 41.7223 13.5014C41.4252 13.6394 41.1632 13.7112 40.8817 13.7557C40.0372 13.889 39.3447 13.5428 39.0577 12.4948C39.0241 12.3786 38.9984 12.2156 38.9773 12.0823C38.7831 10.8525 38.9546 10.1117 39.9036 9.29361ZM43.2144 18.7175C43.1831 18.3276 43.0232 16.8343 42.9764 16.5379C43.601 16.4545 44.5774 16.4825 45.1069 16.5659C45.4812 16.6283 45.8079 16.4856 45.8282 16.1331C45.8477 15.8718 45.6621 15.6582 45.2339 15.5436C44.6803 15.4032 43.8123 15.3885 43.0544 15.493C42.2075 15.6115 41.4121 15.7675 40.7305 15.8752C40.212 15.9571 39.7355 16.0172 39.2169 16.0991C38.8761 16.1529 38.6328 16.3432 38.65 16.6442C38.6719 16.9748 38.969 17.1253 39.3269 17.084C40.2229 16.988 40.9715 16.8242 41.8605 16.6838C41.8995 17.0269 42.0025 18.5444 42.0563 18.8852C42.1172 19.2704 42.3519 19.5067 42.7223 19.4482C43.0779 19.392 43.2409 19.0778 43.2144 18.7175ZM48.2233 16.1345C47.8482 16.1633 47.5823 16.4027 47.6244 16.6694C47.6782 17.0102 47.9309 17.1677 48.3754 17.0975C49.7977 16.8729 51.4891 16.6209 55.0154 16.064C55.371 16.0078 55.6198 16.0445 56.0073 15.9984C56.3505 15.9594 56.5719 15.727 56.5524 15.4112C56.5251 15.1422 56.3418 14.9433 55.8412 14.9465C55.6587 14.9449 55.4809 14.973 55.0684 15.0533C54.0016 15.2218 53.2561 15.3092 52.5153 15.4262C52.3032 14.8523 52.2306 14.393 52.1394 13.8151L52.0668 13.3558C52.6447 13.2645 53.235 13.1561 53.6397 13.1226C53.9976 13.0812 54.4835 13.0804 54.8539 13.0219C55.2391 12.9611 55.4231 12.7802 55.4208 12.4768C55.4332 12.1711 55.211 11.9177 54.8881 11.8928C54.5505 11.8702 53.9797 12.0059 53.6685 12.055C52.9994 12.1455 52.2734 12.2602 51.666 12.3561C50.7918 12.4942 50.3793 12.5745 49.3765 12.7633C49.0996 12.8374 48.9967 12.7625 48.9452 12.4365C48.889 12.081 48.8126 11.5008 48.7814 11.1109C49.3397 10.9923 49.8263 10.9003 50.4782 10.7973C51.2042 10.6827 51.577 10.639 52.2874 10.6179C52.5268 10.5953 52.6921 10.5843 52.8403 10.5609C53.344 10.4814 53.3191 10.2271 53.2871 9.35142C53.2808 8.9272 53.1958 8.19652 53.1139 7.67795C53.0858 7.50015 53.0577 7.32236 53.0218 7.19135C52.8783 6.66732 52.642 6.61352 52.1258 6.71024C51.654 6.79994 51.1526 6.89432 50.6489 6.97389C49.6413 7.13301 48.9676 7.19387 47.9562 7.23212C47.7909 7.24305 47.6107 7.25631 47.4236 7.22513C46.9627 7.19161 46.7529 7.49809 46.7997 7.79442C46.8465 8.09074 47.1522 8.39174 47.6186 8.36364C49.0347 8.29184 49.5876 8.23489 50.8766 8.0313L51.7211 7.89792C51.8693 7.87452 51.9699 7.93456 51.9816 8.00864C52.0214 8.26052 52.0978 8.84069 52.1025 9.15886C52.1119 9.50665 52.1096 9.49184 51.7368 9.53552C51.1691 9.59481 50.7792 9.62602 49.9643 9.75473C49.3272 9.85535 48.7096 9.98327 48.2503 10.0558C47.7785 10.1455 47.5937 10.4177 47.5805 10.8146C47.5828 11.1179 47.8192 12.6144 47.9221 13.2663C48.0227 13.9034 48.3152 14.0243 48.9671 13.9213C49.5153 13.8347 50.3006 13.7107 50.8418 13.5797L50.9307 14.1427C51.0079 14.6316 51.0867 14.9381 51.3199 15.6454C50.7592 15.7491 50.317 15.8341 49.8577 15.9067C49.4429 15.9722 48.8081 16.0876 48.2233 16.1345ZM65.2839 11.1013C64.632 11.2042 63.7531 11.3127 63.2821 11.3111C62.8283 11.3221 62.6216 11.5521 62.6684 11.8484C62.7199 12.1744 62.8618 12.3038 63.3726 12.2687C64.1571 12.2359 66.4708 11.8857 67.2023 11.7094C67.3481 11.6712 67.4487 11.7313 67.4604 11.8053C67.5009 11.966 67.547 12.3535 67.568 12.4869C67.6226 12.7364 67.5602 12.8222 67.2047 12.8784C66.5972 12.9743 65.128 13.1912 64.3771 13.3402C63.8757 13.4345 63.7283 13.6552 63.7049 14.0841C63.7088 14.4935 63.7353 14.8538 63.8266 15.4316C63.9483 16.2021 64.346 16.4126 65.2865 16.3096C66.138 16.2207 68.9781 15.7418 69.7875 15.6747C70.1922 15.6411 70.5143 15.4688 70.4636 15.0516C70.4129 14.6344 70.0908 14.5182 69.4833 14.6141C69.3055 14.6422 68.8314 14.7171 68.5819 14.7717C67.4208 15.0158 66.2082 15.2225 65.1593 15.3123C64.9347 15.3325 64.9152 15.3053 64.8661 14.9941C64.8286 14.7571 64.8208 14.5153 64.82 14.318L68.1685 13.7892C68.6824 13.6776 68.6816 13.4803 68.6106 12.55C68.5771 12.1453 68.5147 11.654 68.361 11.162C68.1902 10.6574 67.9368 10.5912 67.4104 10.7198C67.1188 10.7963 66.8692 10.8509 66.647 10.886C66.601 10.4984 66.5549 10.1108 66.4816 9.74278C67.2154 9.58133 67.8775 9.44639 68.5325 9.26701C68.7002 9.2709 68.9544 9.24593 69.0877 9.22487C69.5892 9.13049 69.8106 8.8981 69.7498 8.51287C69.7076 8.24618 69.4035 8.05124 69.0776 8.10272C68.7812 8.14952 68.5488 8.2166 68.304 8.30083C67.9008 8.44043 67.0828 8.64556 65.5809 8.94351C64.0197 9.25083 63.2048 9.37953 62.496 9.50667C62.2589 9.54411 61.926 9.55115 61.763 9.57689C61.437 9.62837 61.221 9.79916 61.2678 10.0955C61.3333 10.5103 61.7615 10.625 62.2356 10.5501C62.9912 10.4307 64.2756 10.1975 65.3922 9.9604L65.5654 11.0568L65.2839 11.1013ZM68.4014 7.28317C68.9052 7.2036 69.0377 6.98525 69.0057 6.68658C68.9667 6.34347 68.7211 6.23041 68.3187 6.27877C67.188 6.42699 64.376 7.08371 63.2734 7.40972C62.9567 6.36635 62.8155 5.5686 62.6018 4.60009C62.5114 4.21954 62.2758 4.07451 61.9249 4.1603C61.5717 4.23128 61.468 4.53619 61.5124 4.8177C61.7355 5.84548 61.9921 6.98946 62.2128 7.7139C62.4 8.32214 62.7829 8.53501 63.5167 8.37356C64.3815 8.17623 67.5124 7.42357 68.4014 7.28317ZM77.6118 7.60524C78.1007 7.52802 78.4072 7.44924 78.652 7.36501C78.7066 7.61455 78.9009 8.84431 78.9711 9.2888C79.1208 10.237 79.3151 11.4668 79.4765 12.2006C79.5592 12.6279 79.7464 12.9476 80.1316 12.8868C80.665 12.8026 80.654 12.3487 80.6026 12.0227L80.2024 9.48915C80.069 8.64462 79.9411 7.73849 79.8077 6.89395C79.5971 5.56048 79.3584 4.04922 79.1189 2.91772C79.0238 2.50754 78.7368 2.32508 78.4109 2.37656C78.1145 2.42336 77.833 2.75635 77.9336 3.10493C78.0818 3.65859 78.2386 4.65128 78.3486 5.34765L78.5171 6.41443C78.2972 6.46434 78.0009 6.51115 77.6453 6.56731C77.3045 6.62113 76.7266 6.71239 76.3812 6.73658L76.3071 6.74828C76.3055 6.64223 76.3016 6.52136 76.2782 6.37319C76.1636 5.64719 75.9756 4.26459 75.8266 3.80217C75.7244 3.34754 75.4609 3.31324 74.9891 3.40294C73.2376 3.7555 71.5439 3.99263 70.8779 4.0067C70.4639 3.98098 70.2993 4.1892 70.2845 4.48007C70.297 4.75145 70.4631 4.93781 70.924 4.97133C71.4293 4.99782 73.2439 4.75678 74.5977 4.48222C74.7014 4.46584 74.8121 4.49391 74.8363 4.55083C74.8956 4.83001 75.0656 6.00284 75.1358 6.44733C75.1592 6.59549 75.0578 6.62669 74.7295 6.66335C73.9965 6.73357 72.7083 6.84592 71.9651 6.94811C71.516 6.98868 71.2875 7.17662 71.2937 7.60084C71.3304 8.5062 71.5434 10.143 71.7431 11.3112C71.8655 11.9904 72.2578 12.2625 73.0898 12.1463C74.3368 11.9645 75.5696 11.6939 76.5732 11.4139C76.7487 11.371 76.9631 11.3827 77.2696 11.3039C77.633 11.201 77.8786 11.0255 77.7835 10.6153C77.693 10.2348 77.3733 10.1334 76.8414 10.3237C75.6795 10.6591 74.4615 10.9274 73.291 11.1122C73.0812 11.1302 72.9042 11.067 72.8597 10.7855C72.717 9.88173 72.5376 8.64963 72.5687 7.88541C73.2971 7.78557 74.5136 7.69973 75.2739 7.61002C75.4837 7.59208 75.6466 7.56634 75.7652 7.54762L75.8985 7.52655C76.003 7.70747 76.2268 7.77842 76.4959 7.75111L77.6118 7.60524ZM84.3679 1.78498C84.0365 1.60953 83.7168 1.7967 83.6022 2.22482C83.4213 2.90639 83.2919 3.62538 82.9551 5.53126C82.5357 7.87539 82.0733 10.0441 81.9969 11.1951C81.9759 11.6388 82.0867 11.9554 82.4407 12.0817C82.7901 12.1784 83.1441 12.0162 83.2041 11.3385C83.2992 10.0175 83.6422 8.24732 83.9213 6.74538C84.8579 7.67566 85.7735 8.47259 86.6555 9.73039C86.8286 9.9612 86.7249 10.2661 87.0158 10.5695C87.2529 10.8205 87.656 10.9695 87.8713 10.8899C88.3142 10.7137 88.2744 10.1733 87.9702 9.68978C86.809 7.9142 85.4162 6.69151 84.1521 5.41813C84.3298 4.23593 84.4515 3.56372 84.6565 2.65055C84.7485 2.27156 84.6526 1.95262 84.3679 1.78498ZM87.1248 6.1635C87.4554 6.14165 87.7689 6.10733 88.1245 6.05117C88.6134 5.97394 89.1148 5.87956 89.5375 5.76725C89.7933 7.291 89.9681 8.78199 90.259 10.2394C90.3612 10.6941 90.5359 11.0309 90.9211 10.9701C91.4693 10.8835 91.4685 10.3977 91.4147 10.0569L91.1924 8.64937C91.0496 7.74557 90.896 6.67645 90.7532 5.77266L90.0418 1.26849C89.9716 0.824 89.5981 0.670393 89.3166 0.714855C89.0203 0.761656 88.8355 1.03382 88.9033 1.46349C89.0008 1.88849 89.0765 2.27137 89.1935 3.01219L89.4166 4.61703L89.2388 4.64512C88.8707 4.71843 88.5073 4.82138 88.1073 4.88457C87.7517 4.94073 87.3298 4.9618 86.9695 4.98833C86.5547 5.05385 86.3605 5.26675 86.4214 5.65198C86.4775 6.00757 86.7076 6.21421 87.1248 6.1635ZM11.7415 37.4873L11.6971 37.2057C12.218 37.1387 12.8106 37.0451 13.2848 36.9702C13.2988 37.0591 13.33 37.1604 13.3417 37.2345C13.596 38.6522 13.7972 39.9264 13.8854 40.5807C13.9205 40.8029 13.9439 41.2396 14.0203 41.5313C14.0991 41.8377 14.4032 42.0327 14.8158 41.9523C15.169 41.8814 15.2719 41.6677 15.2797 41.3324C15.307 41.0243 15.0941 40.5416 15.0683 40.3787C14.8679 39.0132 14.0855 34.4443 13.7954 33.1842C13.7361 32.905 13.6963 32.6531 13.5754 32.3685C13.4327 32.0418 13.1434 31.8445 12.7948 31.9451C12.4439 32.0309 12.3355 32.3062 12.419 32.6423C12.4954 32.9339 12.6303 33.3074 12.6966 33.631C12.8222 34.2338 12.9681 35.0612 13.0921 35.8465C12.618 35.9214 12.0526 35.9955 11.5489 36.075C11.4084 34.8975 11.3016 33.8362 11.2321 33.3005C11.1791 32.8685 10.8679 32.6291 10.485 32.7047C10.1295 32.7609 9.93452 33.065 10 33.4799C10.3004 35.5737 10.458 38.2063 11.1872 40.9005C11.3401 41.4838 11.6099 41.6538 12.0076 41.5758C12.3016 41.5142 12.5597 41.3216 12.47 40.8498C12.4396 40.6572 12.3133 40.4341 12.2041 39.9351C12.0902 39.4064 11.9061 38.7217 11.7415 37.4873ZM8.05303 37.6902C8.31422 36.5555 8.53096 35.4279 8.68143 34.8423C8.92391 33.8776 8.61275 33.3497 7.77367 33.4215C6.46827 33.5214 5.16443 33.7273 3.81693 34.1375C3.56973 34.2069 3.3701 34.1929 3.15254 34.2576C2.74938 34.3973 2.6137 34.692 2.71666 35.0554C2.81961 35.4188 3.18144 35.4983 3.60176 35.3712C4.89233 34.9851 6.00901 34.748 6.96194 34.6279C7.49767 34.5585 7.48987 34.6053 7.37839 35.2455C7.30042 35.7134 7.17178 36.3411 7.04158 36.8628C6.76241 36.9221 6.51287 36.9767 6.33507 37.0048C5.52251 37.1483 4.94468 37.2396 4.6117 37.2466C4.18982 37.2677 3.91455 37.4478 3.94108 37.8081C3.96761 38.1684 4.19299 38.3454 4.61486 38.3243C4.87142 38.3142 5.50073 38.2603 6.37021 38.0926C6.48874 38.0739 6.66654 38.0458 6.79755 38.0099C6.56754 38.9574 6.31962 40.2722 6.1013 41.0052C5.85725 41.5753 5.84869 42.0019 6.22457 42.1703C6.63242 42.3488 7.08314 42.1258 7.2999 41.5752C7.4309 41.2508 7.40359 40.9818 7.39344 40.7252C7.63671 39.9579 7.77391 38.9036 8.05303 37.6902ZM23.5366 37.1126C22.6991 37.2904 20.3753 37.6726 19.0715 37.8785C18.6714 37.9417 18.3439 37.8871 17.9758 37.9605C17.6967 38.0197 17.4869 38.3262 17.5166 38.6101C17.5556 38.9532 17.8768 39.1606 18.1802 39.1582C18.4664 39.1434 18.7853 39.0475 19.0668 39.003C20.267 38.8135 22.2477 38.4703 22.9861 38.3385C23.5024 38.2417 23.5492 38.2495 23.5796 38.7307C23.6124 39.2266 23.7949 40.6708 23.8464 41.2853C23.8893 41.7493 24.1857 41.991 24.5685 41.9154C24.9662 41.8374 25.151 41.5652 25.0364 41.1278C24.9935 40.9523 24.896 40.5273 24.8734 40.2879C24.8281 39.8091 24.683 38.602 24.6658 38.0124C24.6385 37.1663 24.3297 36.9418 23.5366 37.1126ZM15.6189 30.922C15.1799 30.9306 14.9928 31.1879 15.0396 31.4842C15.0887 31.7954 15.24 31.9841 15.7235 31.9685C16.476 31.9256 17.8562 31.7227 18.5729 31.5488C18.6891 31.5153 18.8045 31.573 18.8162 31.6471C18.8778 31.941 18.9691 32.5189 19.0089 32.7708C19.0463 33.0078 18.9987 33.0913 18.6431 33.1474C18.0653 33.2387 17.3073 33.3432 16.586 33.4875C16.1142 33.5772 15.945 33.7558 15.9513 34.18C15.9505 34.5598 16.1198 35.8239 16.2064 36.3721C16.321 37.0981 16.7039 37.3109 17.6147 37.2126C18.4218 37.1307 20.291 36.8507 21.0709 36.7883C21.4608 36.7571 21.7462 36.5449 21.7001 36.1574C21.6494 35.7402 21.3398 35.6068 20.7472 35.7004C20.5842 35.7262 19.7124 35.8791 19.4605 35.9188C19.0456 35.9844 18.1442 36.1419 17.5718 36.1716C17.3449 36.1771 17.3254 36.1498 17.2786 35.8534C17.2341 35.5719 17.1366 34.8584 17.1109 34.4069C17.6567 34.3055 18.2221 34.2314 19.037 34.1027C19.2444 34.0699 19.4246 34.0567 19.5431 34.0379C20.057 33.9264 20.248 33.7899 20.1926 33.0546C20.1614 32.6647 19.9383 31.3483 19.787 30.8711C19.6357 30.3939 19.3846 30.3424 18.8707 30.4539C17.6106 30.7441 16.5859 30.8907 15.6189 30.922ZM23.4953 35.889C23.5982 36.2524 23.8633 36.3928 24.1449 36.3483C24.3967 36.3085 24.6424 36.1331 24.5885 35.7923C24.4949 35.1996 24.2734 34.2779 24.1752 33.6556C23.995 32.5148 23.8234 31.2359 23.7157 30.2658C23.672 29.8931 23.3702 29.7129 23.0739 29.7597C22.7776 29.8065 22.5709 30.0366 22.5951 30.382C22.6864 31.8255 23.1536 34.5914 23.4953 35.889ZM25.7203 31.6196C25.7585 32.054 25.7476 32.4657 25.7749 33.0233C25.8186 34.2617 25.8437 35.3815 26.0309 36.5668C26.2578 38.004 27.1578 38.3174 28.6246 38.0857C29.0246 38.0225 30.4478 37.7067 31.159 37.5943C31.5738 37.5288 31.8452 37.5163 31.9341 37.5023C31.8896 37.5093 32.1782 37.5093 32.2671 37.4953C32.6523 37.4344 32.7833 37.11 32.7529 36.9174C32.6967 36.5618 32.4565 36.3871 31.9083 36.4737C30.5179 36.7085 29.1493 36.9854 28.2136 37.118C27.5741 37.2038 27.2622 37.0557 27.1889 36.3991C27.1265 35.9078 27.0703 35.2637 27.0313 34.632L27.2239 34.6016C27.5943 34.5431 28.0099 34.3863 28.5784 34.2358C29.3395 34.0548 29.5321 34.0244 30.0655 33.9402C30.4655 33.877 30.5958 33.6438 30.549 33.3475C30.4998 33.0364 30.3111 32.8991 29.9656 32.9233C29.3215 32.9795 29.0026 33.0754 28.385 33.2033C27.9155 33.3078 27.411 33.4786 26.9517 33.5512C26.9291 33.3118 26.9236 33.0849 26.9228 32.8876C26.897 32.4361 26.9009 31.9799 26.8635 31.4543C27.8562 31.2975 28.9627 31.0924 29.5554 30.9988C29.8517 30.9519 30.0466 30.9363 30.3297 30.9979C30.5832 31.0642 30.7508 31.0681 30.9731 31.033C31.3731 30.9698 31.4916 30.6626 31.4355 30.307C31.4121 30.1588 31.2881 29.9506 30.9457 29.8984C30.6845 29.8789 30.3367 29.8883 29.9959 29.9421C28.9588 30.1059 28.3708 30.2291 27.6892 30.3368C27.0225 30.4421 26.1905 30.5583 25.6423 30.6449C25.3015 30.6987 25.1221 30.9093 25.1666 31.1908C25.2251 31.5612 25.4091 31.6688 25.7203 31.6196ZM34.3164 37.779C34.3726 38.1346 34.6331 38.5339 35.1072 38.459C35.4776 38.4005 35.6016 38.0316 35.5462 37.5848C35.4557 36.9157 35.32 36.0564 35.1491 34.9748C34.983 33.9228 34.7927 32.8139 34.4955 30.9322C34.4276 30.5026 34.2981 29.4904 34.2326 29.0755C34.1671 28.6607 33.7982 28.5367 33.5463 28.5765C33.25 28.6233 33.0184 28.8876 33.0691 29.3048C33.1869 30.243 33.3913 31.4407 33.5933 32.6237C33.2081 32.6845 32.7909 32.7353 32.4797 32.7844C32.2427 32.8218 31.9393 32.8242 31.7023 32.8616C31.2726 32.9295 31.0706 33.1892 31.1291 33.5596C31.1783 33.8707 31.3686 34.114 31.7982 34.0462C32.0649 34.004 32.3098 33.9198 32.5469 33.8824L33.7618 33.6905L34.2813 36.9797C34.2891 37.2214 34.272 37.4975 34.3164 37.779ZM39.7461 34.5525C39.0941 34.6554 38.2153 34.7638 37.7443 34.7623C37.2904 34.7732 37.0838 35.0033 37.1306 35.2996C37.1821 35.6256 37.324 35.755 37.8348 35.7199C38.6193 35.6871 40.933 35.3369 41.6644 35.1606C41.8103 35.1224 41.9109 35.1824 41.9226 35.2565C41.9631 35.4172 42.0091 35.8047 42.0302 35.9381C42.0848 36.1876 42.0224 36.2734 41.6668 36.3296C41.0594 36.4255 39.5902 36.6424 38.8392 36.7913C38.3378 36.8857 38.1904 37.1064 38.1671 37.5353C38.171 37.9447 38.1975 38.305 38.2888 38.8828C38.4105 39.6533 38.8082 39.8638 39.7486 39.7608C40.6002 39.6719 43.4402 39.193 44.2497 39.1259C44.6544 39.0923 44.9765 38.92 44.9258 38.5028C44.875 38.0856 44.553 37.9694 43.9455 38.0653C43.7677 38.0934 43.2936 38.1683 43.0441 38.2229C41.8829 38.467 40.6703 38.6737 39.6215 38.7634C39.3969 38.7837 39.3774 38.7564 39.3283 38.4453C39.2908 38.2082 39.283 37.9665 39.2822 37.7692L42.6307 37.2403C43.1446 37.1288 43.1438 36.9315 43.0728 36.0012C43.0393 35.5965 42.9769 35.1052 42.8232 34.6131C42.6524 34.1086 42.399 34.0423 41.8726 34.171C41.0522 34.3613 40.5758 34.4214 39.7461 34.5525ZM37.0086 27.3159C36.6234 27.3768 36.4386 27.6489 36.4955 27.9133C36.6016 28.2002 36.8246 28.3624 37.2691 28.2922C37.985 28.2095 38.5831 28.0543 39.2007 27.9264C39.6257 27.8289 40.1372 27.7026 40.5451 27.5926C40.6636 27.5739 40.7151 27.6113 40.7463 27.7127C40.8336 27.8811 40.8859 28.1158 40.928 28.3825C40.9608 28.59 40.8836 28.6781 40.6909 28.7085C39.614 28.909 38.6681 29.0735 37.737 29.2358C37.2949 29.3208 37.1085 29.4869 37.0953 29.8838C37.054 30.3915 37.0875 31.0847 37.1593 31.6353C37.2521 32.3192 37.5391 32.5016 38.1809 32.4307C38.5685 32.3846 39.1634 32.3058 39.6672 32.2263C40.5117 32.0929 41.4873 31.9236 42.0004 31.9033C42.1213 31.8994 42.3997 31.9314 42.696 31.8846C43.0516 31.8284 43.319 31.6951 43.2878 31.3052C43.2488 30.962 42.986 30.8365 42.4308 30.8786C42.0362 30.8802 41.651 30.9411 41.0583 31.0347C40.3768 31.1423 40.2263 31.1509 39.2928 31.2983C39.041 31.3381 38.6979 31.3771 38.4881 31.395C38.2191 31.4224 38.1777 31.3529 38.1504 31.0839C38.1278 30.8445 38.1114 30.4523 38.1504 30.2183C39.1977 30.0225 39.9361 29.8907 41.0029 29.7222C41.2103 29.6895 41.3733 29.6637 41.4895 29.6302C41.9441 29.528 42.0767 29.3097 42.0236 28.8777C41.9722 28.2632 41.7811 27.2455 41.6243 26.8299C41.4527 26.4166 41.2235 26.4072 40.7961 26.4899C40.6207 26.5328 40.223 26.6108 39.8892 26.7091C38.7304 26.968 37.9397 27.1537 37.0086 27.3159ZM40.6256 32.6216C39.9121 32.7191 37.6007 33.0842 36.8966 33.2409C36.4864 33.3361 36.2384 33.4967 36.2922 33.8375C36.3359 34.2103 36.7765 34.3077 37.058 34.2633C37.3099 34.2235 37.5478 34.0948 37.7677 34.0449C38.4968 33.8538 40.2201 33.612 41.4842 33.4427C42.6446 33.2898 44.1597 33.172 44.5302 33.1135C44.9177 33.0675 45.0916 32.9185 45.0448 32.6222C44.998 32.3259 44.7329 32.1855 44.4295 32.1879C43.6817 32.2604 41.5021 32.4983 40.6256 32.6216ZM8.48289 59.5457C8.42362 59.5551 8.36202 59.5496 8.25128 59.5215C7.94871 59.4327 7.71633 59.4997 7.58377 59.7181C7.47616 59.9021 7.42548 60.062 7.45356 60.2398C7.46994 60.3435 7.5183 60.4574 7.60096 60.5962L7.59862 60.5813C7.64464 60.6804 7.94882 62.0294 7.99797 62.3406C8.03541 62.5776 8.02761 62.6244 7.99018 62.6759L8.005 62.6736C7.92234 62.8233 7.89116 63.0104 7.9169 63.1734C7.94966 63.3808 8.19844 63.706 8.67256 63.6311C8.73183 63.6218 8.80357 63.5953 8.90494 63.5641L8.90728 63.5789C9.27847 63.4291 14.1601 62.7037 14.727 62.4471L14.8089 62.3886C15.2533 62.3184 15.2447 61.5909 15.1527 61.1043C15.0201 60.457 14.8048 59.671 14.5709 59.0549C14.3946 58.612 14.1864 58.4475 13.7552 58.4093C13.5407 58.3976 13.3013 58.4202 13.0198 58.4647C12.4864 58.5489 12.0591 58.6316 11.6762 58.7073C11.6356 58.2581 11.5802 57.8113 11.4975 57.3839C12.2313 57.2225 12.8934 57.0875 13.5484 56.9082C13.7161 56.912 13.9703 56.8871 14.1037 56.866C14.6051 56.7716 14.8265 56.5392 14.7657 56.154C14.7236 55.8873 14.4194 55.6924 14.0935 55.7439C13.7971 55.7907 13.5648 55.8577 13.3199 55.942C12.9168 56.0816 12.0987 56.2867 10.5968 56.5847C9.03566 56.892 8.22076 57.0207 7.51191 57.1478C7.27485 57.1853 6.94187 57.1923 6.77889 57.218C6.45293 57.2695 6.23693 57.4403 6.28373 57.7366C6.34926 58.1515 6.77738 58.2661 7.2515 58.1912C8.00714 58.0719 9.29148 57.8387 10.4082 57.6015L10.6211 58.9498C9.87717 59.1433 9.18939 59.4037 8.48289 59.5457ZM6.24067 53.8103C6.25628 54.0052 6.27188 54.2002 6.30464 54.4076C6.54333 55.9189 7.81212 56.6448 9.40292 56.3328C11.1442 56.0123 12.8684 55.1021 12.621 52.5748C12.4681 51.1259 11.1502 50.3773 9.60153 50.6675C7.72921 51.0239 6.28583 52.2694 6.24067 53.8103ZM7.33007 53.8812C7.37917 53.0382 8.226 52.0541 9.6663 51.7506C10.6075 51.5564 11.3952 52.0243 11.527 52.7628C11.6237 54.4331 10.479 55.0695 9.30072 55.3011C8.16923 55.5406 7.32076 54.9761 7.33007 53.8812ZM14.1031 60.9967C14.1577 61.2462 14.2029 61.4365 14.2029 61.4365C14.1405 61.5223 12.4483 61.8655 9.15911 62.385L9.15443 62.3553C9.12323 62.254 9.04836 62.0684 8.98285 61.942L9.00001 61.9545C8.81439 61.4523 8.83543 61.0086 8.75586 60.5049C9.11146 60.4487 9.67759 60.2834 10.1868 60.1422C10.6367 60.0104 11.7488 59.7436 12.6229 59.6056C13.0081 59.5447 13.5735 59.4706 13.6499 59.4737C13.8324 60.0524 13.972 60.4555 14.1031 60.9967ZM15.2864 51.1667C15.3651 51.4732 15.6506 51.5496 15.9913 51.4958C16.8312 51.3328 18.5343 50.8664 19.1566 50.7681C18.5647 51.9246 17.3226 53.8671 16.4032 55.5461C16.2878 55.7769 16.2535 56.0405 16.2988 56.2308C16.3799 56.5521 16.6497 56.7221 16.8993 56.6675C17.2525 56.5965 17.4529 56.2307 17.4778 55.9079C17.4817 55.7402 17.5519 55.6077 17.6572 55.4088C18.0478 54.7093 18.3356 54.2235 18.7356 53.5832C19.3353 54.1111 20.1869 54.8878 20.5674 55.3744C20.7577 55.6177 20.9215 55.7892 21.1414 55.7393C21.4182 55.6652 21.5734 55.3977 21.5188 55.1482C21.4759 54.9727 21.4112 54.7552 21.2037 54.4994C20.7421 53.9801 19.839 53.166 19.2635 52.695C19.4943 52.2333 20.0674 51.2468 20.451 50.5029C20.5438 50.3212 20.5501 50.1683 20.529 50.035C20.4791 49.8151 20.2857 49.6482 19.8958 49.6794C18.9405 49.7847 16.6962 50.3822 15.7573 50.5912C15.4064 50.677 15.2271 50.8876 15.2864 51.1667ZM23.6921 54.486C23.7951 54.8494 24.0306 54.9945 24.3121 54.95C24.564 54.9102 24.78 54.7394 24.7261 54.3986C24.6325 53.806 24.4578 53.1806 24.3595 52.5583C24.1794 51.4174 24.0545 50.4349 23.9469 49.4648C23.9032 49.0921 23.631 48.9072 23.3347 48.9541C23.0384 49.0009 22.8614 49.2262 22.8856 49.5717C22.9769 51.0151 23.3505 53.1884 23.6921 54.486ZM24.0197 56.2718C23.1822 56.4496 20.8584 56.8318 19.5545 57.0378C19.1545 57.1009 18.827 57.0464 18.4589 57.1197C18.1797 57.179 17.97 57.4854 17.9996 57.7693C18.0386 58.1124 18.3599 58.3198 18.6633 58.3175C18.9495 58.3026 19.2684 58.2067 19.5499 58.1622C20.75 57.9727 22.7307 57.6295 23.4692 57.4977C23.9854 57.401 24.0322 57.4088 24.0627 57.8899C24.0954 58.3859 24.278 59.8301 24.3295 60.4445C24.3724 60.9085 24.6687 61.1503 25.0516 61.0746C25.4493 60.9966 25.6341 60.7244 25.5195 60.287C25.4766 60.1115 25.3791 59.6865 25.3564 59.4471C25.3112 58.9683 25.1661 57.7612 25.1489 57.1716C25.1216 56.3255 24.8128 56.101 24.0197 56.2718ZM35.1197 54.4579C35.2695 55.4062 35.303 55.8109 35.4037 56.7365L35.4271 57.1732C35.4286 57.2793 35.4302 57.3853 35.4466 57.489C35.5261 57.9928 35.7437 58.2166 36.1438 58.1534C36.6475 58.0738 36.6904 57.6722 36.6319 57.3018C36.3792 55.7017 36.1717 54.2918 35.9345 52.598C35.6685 50.8177 35.5008 49.6597 35.2528 48.0892C35.1873 47.6743 34.997 47.431 34.5821 47.4965C34.2117 47.555 34.0487 47.8693 34.1096 48.2545L34.4466 50.3881C33.864 50.4497 33.2051 50.5082 32.8573 50.5176C32.6054 50.5574 32.3146 50.5426 32.0627 50.5824C31.9441 50.6011 31.8404 50.6175 31.7539 50.6463C31.1846 49.734 30.2238 49.0353 29.0775 48.9886C28.555 48.9496 27.9288 49.2155 27.5881 49.5579C27.4859 49.6803 27.3268 49.8269 27.2146 49.9814C27.0001 49.9697 26.7334 50.0118 26.565 50.3877C26.2414 51.031 26.034 51.9294 25.9857 52.9696C25.9233 53.344 25.9553 53.6426 25.9818 54.0029C26.2697 56.4024 27.9713 58.1382 29.7758 57.6406C31.3307 57.1976 32.1074 56.0574 32.31 54.5524L32.3989 54.5384C32.9472 54.4518 34.0911 54.1952 35.0378 53.9393L35.1197 54.4579ZM28.3476 50.425C28.5441 50.2269 28.8358 50.1505 29.1415 50.163C29.802 50.2105 30.5467 50.7914 30.8517 51.4722C30.9897 51.7693 31.0435 52.1101 31.088 52.3916C31.1161 52.5694 31.1488 52.7768 31.1691 53.0014C31.4359 54.6905 30.8027 56.0661 29.5761 56.4724C28.4906 56.8109 27.3318 55.6272 27.1305 53.7759C27.1102 53.5513 27.0954 53.2651 27.1024 53.0211C27.1523 52.3754 27.2333 51.8311 27.4072 51.3936C27.6108 51.5285 27.9851 51.3023 28.024 51.0684C28.0552 50.8812 28.2088 50.5077 28.3476 50.425ZM32.3022 52.5795C32.2585 52.2067 32.214 51.9252 32.1618 51.6905C32.3988 51.653 32.6289 51.5712 32.8534 51.5509C33.2605 51.5321 33.9935 51.4619 34.608 51.4104C34.6876 51.9142 34.7968 52.4133 34.8717 52.8874C33.9991 53.1315 33.107 53.3483 32.3708 53.495C32.3537 53.194 32.3365 52.8929 32.3022 52.5795ZM38.3337 55.7878C37.9703 55.8907 37.7933 56.1161 37.8744 56.4374C37.9439 56.6846 38.2262 56.8374 38.6316 56.7126C38.921 56.6214 39.6345 56.5239 40.0493 56.4584C40.9383 56.3179 41.8445 56.19 42.3186 56.1151L43.8743 55.8694C44.2299 55.8133 44.474 55.8203 44.8498 55.7002C45.1812 55.5871 45.3731 55.3594 45.3536 55.0435C45.3263 54.7745 45.1352 54.6225 44.6837 54.6482C44.4419 54.656 44.2142 54.7527 43.9717 54.8518C43.28 54.9914 42.6063 55.0522 41.9442 55.1872C41.8101 54.4339 41.6681 53.7274 41.6026 53.024C42.3559 52.8898 43.131 52.7978 43.5825 52.772C44.0956 52.7517 44.3288 52.5934 44.1416 51.6966C43.8195 50.1378 43.6198 48.9697 43.5745 47.3367L43.562 46.7768C43.5089 46.3448 43.1182 46.1787 42.8414 46.2528C42.6067 46.3051 42.3829 46.5227 42.4367 46.8634C42.4476 47.0288 42.535 47.1972 42.5404 47.4241C42.542 48.1072 42.5366 48.4574 42.6099 49.114C41.3583 49.2661 39.7309 49.5383 38.6657 49.8128C38.5752 49.1438 38.5237 48.8178 38.4301 48.2252C38.395 48.0029 38.3435 47.677 38.2717 47.4149C38.2023 47.1677 38.0237 46.9985 37.6806 47.0375C37.2907 47.0687 37.1129 47.3854 37.2058 47.7807C37.2939 48.1464 37.3602 48.4701 37.414 48.8108C37.5903 49.8308 37.7994 51.3468 37.9078 52.8027C37.9609 53.5232 38.336 53.7829 38.9317 53.6129C39.3248 53.5052 40.0016 53.368 40.4414 53.2681L40.5304 53.8311C40.6076 54.3201 40.6419 54.6336 40.801 55.3525C40.6529 55.3759 40.433 55.4259 40.1811 55.4656C39.7662 55.5312 38.655 55.7067 38.3337 55.7878ZM43.0452 51.5813C43.0881 51.7567 43.0405 51.8402 42.7099 51.862C41.7795 51.933 40.273 52.2013 39.0814 52.5414C38.98 52.5726 38.9465 52.4564 38.9379 52.3059L38.7952 50.825C39.9196 50.5411 41.5744 50.2494 42.7519 50.109C42.8315 50.6128 42.9383 51.097 43.0452 51.5813ZM49.0505 46.4567C49.1152 46.0972 48.9896 45.7829 48.613 45.7057C48.3127 45.6317 48.0047 45.8929 47.9182 46.2103C47.5268 48.1552 46.7783 52.0699 46.5983 54.3914C46.5531 54.7782 46.7161 55.0409 47.021 55.1446C47.3236 55.2335 47.6823 55.1009 47.7267 54.5169C47.8023 53.4571 48.0198 51.9497 48.2911 50.4946C49.2028 51.4592 50.3328 52.8448 51.1953 53.7868C51.4199 54.0551 51.8137 54.1447 52.0624 53.8928C52.3408 53.6363 52.3689 53.237 52.11 52.9438C51.0993 51.7367 49.6527 50.1732 48.5523 49.0714C48.7511 48.0225 48.939 47.0969 49.0505 46.4567ZM54.5436 49.7956C54.3229 48.2056 54.1918 46.5102 54.0818 45.8139C54.0358 45.4263 53.7394 45.1846 53.3862 45.2556C53.0454 45.3094 52.8629 45.5964 52.909 45.9839C53.0088 46.7123 53.0884 47.5046 53.175 48.3413C52.5176 48.5059 51.7963 48.6502 51.2387 48.6775C50.802 48.7009 50.5626 49.012 50.6094 49.3084C50.6726 49.7084 50.9744 49.8885 51.4189 49.8183C51.7301 49.7692 51.8119 49.7107 52.1083 49.6639C52.4639 49.6077 52.9232 49.5352 53.3209 49.4572C53.4714 50.6027 53.6781 51.8153 54.008 53.0388C54.1414 53.5948 54.3941 53.7524 54.7645 53.6939C55.0436 53.6346 55.3018 53.442 55.2316 52.9975C55.2011 52.8048 55.0623 52.599 54.9601 52.1444C54.8658 51.6429 54.6989 50.9708 54.5436 49.7956ZM56.1595 51.1805C56.31 52.0375 56.4091 52.5685 56.4925 53.4817C56.5425 53.9901 56.8341 54.2022 57.2342 54.139C57.6342 54.0758 57.7707 53.6898 57.7122 53.3194C57.6053 52.5466 57.4664 51.7637 57.3401 50.9636C57.014 48.9954 56.6443 46.6544 56.4064 44.7634C56.365 44.4054 56.1233 44.1247 55.6936 44.1926C55.3084 44.2534 55.1477 44.5825 55.2039 44.9381C55.4878 46.9282 55.8045 49.1257 56.1595 51.1805ZM59.6642 52.7985C59.3679 52.8453 59.1994 52.9327 59.1168 53.0824C58.9889 53.3304 59.109 53.7062 59.5013 53.6898C60.1033 53.6555 60.7107 53.5596 61.2738 53.4706C63.2888 53.1524 64.8687 52.9636 66.6069 52.7194C66.9625 52.6633 67.1442 52.4675 67.1192 52.2133C67.0747 51.9318 66.8564 51.7993 66.3604 51.832C65.5783 51.8796 64.8351 51.9818 64.2128 52.0801C64.1278 51.0609 64.0513 50.1922 64.017 49.5902C64.0139 49.3781 63.9865 49.109 63.9663 48.8844C63.9569 48.8252 63.9624 48.7636 63.953 48.7043C64.6805 48.1186 65.2934 47.384 65.557 46.5527C65.7192 46.0412 65.723 45.585 65.6505 45.1257C65.4914 44.1182 64.8371 43.3407 63.8763 42.9306C63.6502 42.5563 62.5576 42.5618 61.7576 42.6881C61.0019 42.8075 60.2174 43.1288 59.564 43.7028C58.2945 44.7992 58.1246 45.9347 58.3469 47.3422C58.3726 47.5052 58.4054 47.7126 58.4459 47.8733C58.8944 49.3666 59.7818 49.9857 60.9461 49.9537C60.8705 50.1479 60.8518 50.3179 60.8915 50.5697C60.9243 50.7772 61.1053 51.8268 61.2176 52.538C60.699 52.6199 60.1953 52.6994 59.6642 52.7985ZM60.3711 44.4864C60.8335 44.049 61.4153 43.79 61.951 43.7206C62.5164 43.6465 63.2237 43.7018 63.5052 43.9459C63.9458 44.3319 64.5088 44.82 64.5369 45.5749C64.5939 46.9934 63.3595 48.0236 62.1493 48.5336C61.8896 48.6202 61.5683 48.7013 61.3461 48.7364C60.5164 48.8674 59.7942 48.5259 59.5486 47.5473C59.515 47.4311 59.4869 47.2533 59.4682 47.1347C59.281 45.9494 59.4744 45.2507 60.3711 44.4864ZM61.9326 50.2383C61.892 50.0776 61.8538 49.9318 61.7633 49.8398C61.8819 49.8211 61.9684 49.7922 62.0846 49.7587C62.3591 49.6698 62.6562 49.5317 62.9634 49.3617C62.9174 49.5512 62.9151 49.8249 62.9354 50.0495C62.9799 50.6196 63.0329 51.3401 63.1312 52.2509C62.8349 52.2977 62.5511 52.3274 62.2695 52.3718C62.1627 51.599 61.9801 50.4434 61.9326 50.2383ZM70.2538 45.7198C69.0787 45.875 68.557 46.6104 68.3777 47.6866C68.3364 47.9057 68.3091 48.2137 68.3707 48.5077C68.4159 48.698 68.554 48.9951 68.8846 48.9732C69.2176 48.9662 69.4165 48.7829 69.5053 48.4804C69.5638 48.2737 69.5537 48.0171 69.531 47.7777C69.4835 47.2841 69.6628 46.785 70.2281 46.7109C70.8676 46.6251 71.2045 47.0275 71.7137 47.4634C72.3797 48.0264 72.9194 48.3664 73.7678 48.3538C74.7519 48.3351 75.428 47.712 75.7672 46.6865C75.8404 46.4775 75.9465 46.1874 75.9761 45.8942C76.019 45.4926 76.0151 45.0832 75.5425 44.9756C75.2126 44.9062 74.8383 45.1324 74.783 45.5512C74.7331 45.9083 74.6809 46.2506 74.5967 46.5829C74.4844 47.0258 74.206 47.2824 73.7444 47.3401C73.0729 47.4158 72.8093 47.0929 72.1652 46.572C71.5577 46.0909 71.1327 45.6114 70.2538 45.7198Z" fill="black"/>
</svg>
