<svg width="111" height="66" viewBox="0 0 111 66" fill="none"
  xmlns="http://www.w3.org/2000/svg">
  <path d="M7.22955 8.46792C9.68958 8.82043 12.457 7.29116 12.8528 4.5336C13.1776 2.17171 11.1963 0.311884 9.52294 0.161206C8.98613 0.0992441 8.42034 -0.105407 7.53338 0.206515C5.47563 0.868387 4.12733 2.20752 3.94834 4.50055C3.77403 6.73375 5.20508 8.18953 7.22955 8.46792ZM7.8416 1.65489C8.24632 1.86703 8.71144 1.5623 9.26819 1.62582C10.7175 1.8192 11.6164 3.1532 11.3464 4.55644C11.0608 6.15908 9.06855 7.2674 7.58088 7.05097C6.07795 6.77317 5.36412 5.89495 5.46529 4.5989C5.5898 3.00375 6.52346 2.09364 7.8416 1.65489ZM16.3648 3.74451C16.3726 3.64482 16.4066 3.46692 16.4592 3.04975C16.5059 2.45157 16.1918 2.10608 15.8345 2.05812C15.4372 2.00706 15.0565 2.25819 14.9899 2.85482C14.5284 6.7106 14.2806 8.85782 14.0099 13.6112C13.9691 14.3904 14.1022 14.7418 14.6804 14.7869C15.139 14.8227 15.4063 14.4825 15.4256 13.7217C15.4819 12.7431 15.5983 11.5084 15.6998 9.95158C15.7966 8.45457 16.0784 6.12945 16.3648 3.74451ZM4.27433 10.6044C4.5136 10.6231 5.07657 10.6069 5.2959 10.624C6.09192 10.7062 6.55052 10.742 7.36959 10.7859C7.26531 12.1218 7.11707 12.9929 6.66789 14.1214C6.46947 14.6074 6.57013 15.1168 7.03934 15.2738C7.56681 15.4554 7.95684 15.0846 8.14904 14.6783C8.54434 13.7262 8.9125 12.3507 8.9448 10.9088C9.81902 11.0172 11.2793 11.071 12.0846 11.0335C12.5878 11.0126 12.9731 10.7017 12.9124 10.1954C12.8668 9.75051 12.4774 9.59975 12.0802 9.54868C11.5449 9.46678 11.1106 9.63349 10.5445 9.6896C9.2653 9.62987 6.13794 9.34564 4.51974 9.25945C4.0197 9.24047 3.67421 9.55454 3.68918 9.87668C3.68733 10.1574 3.87554 10.5733 4.27433 10.6044ZM29.8859 5.06072C30.0538 4.45194 29.6322 4.19837 29.2733 4.17035C28.8945 4.14078 28.4985 4.33054 28.3521 4.92094C28.1534 5.66774 27.9759 6.65692 27.832 7.72898C27.2139 7.68073 26.3213 7.55087 25.5175 7.56838C25.5386 6.52686 25.4364 6.03742 25.2684 5.3623C24.8942 3.98901 23.8161 2.38024 22.5799 2.28374C22.1013 2.24639 21.6287 2.39004 21.2343 2.55986C21.0823 2.70848 20.8274 2.8892 20.6477 3.13596C20.4009 2.95621 20.042 2.9282 19.7423 3.42639C19.1202 4.20032 18.5022 5.43597 18.0758 6.78688C17.7739 7.82655 17.6912 9.1441 17.6529 10.405C17.5687 13.0263 18.8303 15.1108 21.2541 14.8988C24.04 14.6749 25.1779 12.1759 25.4254 9.00557C26.1432 9.0616 26.8243 9.07464 27.6402 9.15839C27.5396 9.93291 27.4714 10.5495 27.4279 11.1078C27.4014 11.4467 27.2538 11.7963 27.2226 12.1951C27.1853 12.6736 27.318 13.2858 27.996 13.3388C28.4945 13.3777 28.768 12.9577 28.8178 12.3196C28.9781 10.2659 29.2975 7.20143 29.8859 5.06072ZM21.6833 4.25997C21.9796 4.06242 22.4292 3.95709 22.7143 4.15989C23.3994 4.63465 23.6898 5.53999 23.9039 6.13847C24.2342 7.04693 24.1031 7.6987 23.9424 8.72932C23.5033 11.7844 22.8607 13.0783 21.2422 13.2529C19.5393 13.4811 19.0164 11.9558 19.1225 10.3391C19.1636 9.29916 19.2554 8.12273 19.465 7.23636C19.6668 6.44968 20.0204 5.77515 20.3431 5.23864C20.5438 5.49503 21.0609 5.29467 21.2024 5.02486C21.2809 4.79025 21.5344 4.36871 21.6833 4.25997ZM30.5674 16.8896C30.8865 16.9145 31.3423 16.7294 31.5207 16.2419C31.5977 16.0272 31.6363 15.7895 31.6749 15.5518C31.7724 14.8171 32.1109 12.5365 32.3057 9.78336C32.5006 7.03017 32.8914 4.59319 32.6474 3.35043C32.5268 2.8395 32.2772 2.43886 31.7494 2.51803C31.2401 2.6187 31.1812 3.11562 31.1685 3.53591C31.3511 4.79394 31.0294 7.11594 30.7763 9.84452C30.5217 12.593 30.2984 14.682 30.1393 15.6927C29.982 16.4227 30.1503 16.837 30.5674 16.8896ZM47.7831 6.97931C48.4099 7.42946 49.3973 7.88768 50.1961 8.19077C50.6055 8.34309 51.0089 8.3144 51.1797 7.9265C51.3519 7.51867 51.1223 7.11959 50.5964 6.91805C49.7991 6.59503 49.1062 6.21997 48.5376 5.79443C48.8955 5.32085 49.1659 4.94074 49.464 4.46249C49.6054 4.19268 49.5768 3.78922 49.2686 3.62474C48.9437 3.41883 48.5371 3.4874 48.2913 3.80925C47.6614 4.68288 47.0284 5.59638 46.3617 6.42702C45.6704 6.03202 44.6986 5.3744 44.2559 4.87845C44.6138 4.40487 45.2129 3.66925 45.5586 3.09442C45.7892 2.7112 45.8234 2.27253 45.5231 2.00836C45.2227 1.74418 44.6504 1.88006 44.403 2.22184C43.7731 3.09548 43.042 3.98126 42.2018 4.9789C41.5137 5.82793 40.9485 6.38564 40.2482 7.13341C39.8551 7.54406 39.7395 7.99644 40.0352 8.32043C40.3692 8.66748 40.8985 8.56837 41.2487 8.19448C42.0717 7.41617 42.683 6.78182 43.3051 6.00788C43.8291 6.49013 44.7243 7.10164 45.4923 7.54274C45.311 7.80944 45.0929 8.03315 44.8455 8.37494C44.6427 8.66002 44.6867 9.12485 44.9933 9.30927C45.3964 9.54135 45.9183 9.28117 46.2055 8.94249C46.7784 8.28508 47.2915 7.623 47.7831 6.97931ZM41.9903 10.2585C41.5731 10.2058 41.1285 9.99058 40.7497 9.96101C40.2926 9.90527 39.869 10.1932 39.8347 10.6318C39.7771 11.3696 40.7448 11.5655 41.5823 11.6309C43.8354 11.8067 46.6643 11.5461 48.7028 11.645C48.9022 11.6606 49.2165 11.7453 49.4359 11.7624C49.8745 11.7967 50.1079 11.6343 50.1405 11.2156C50.1701 10.8368 49.9863 10.6218 49.5738 10.5094C48.3547 10.1935 46.8866 10.2394 45.4202 10.2654C44.1746 10.2885 43.067 10.3425 41.9903 10.2585ZM41.5778 14.2585C41.5785 15.0208 41.338 16.0452 41.254 17.122C41.1792 18.0791 41.6098 18.4738 42.4289 18.5176L48.0811 18.8385C48.4001 18.8634 48.5979 18.8989 48.9569 18.9269C49.5152 18.9705 49.9083 18.5598 49.8858 18.0766C49.8572 17.6731 49.4954 17.4242 48.9172 17.3791C48.638 17.3573 48.3542 17.3953 48.0152 17.3689C46.3986 17.2628 44.8003 17.1781 43.0993 17.1256C42.8385 17.1253 42.808 17.0025 42.8512 16.705C42.9565 15.8707 43.0571 15.0961 43.1131 14.3783C43.1427 13.9995 42.9514 13.6234 42.4759 13.5462C41.9407 13.4643 41.5737 13.7968 41.5778 14.2585ZM62.9354 5.51403C62.5537 5.26356 61.9107 5.53435 61.8718 6.03283C61.7239 7.92707 59.4533 12.3438 58.0457 15.9853C57.8027 16.528 57.8298 16.9514 58.19 17.2202C58.6299 17.4953 59.0994 17.3915 59.3963 16.6725C59.9747 15.1729 60.756 13.3883 61.4466 11.737C62.3667 13.3134 62.9821 14.4247 64.1992 16.5659C64.507 16.9911 64.9027 17.0621 65.251 16.969C65.6438 16.8191 65.8071 16.2701 65.5285 15.7268C64.3114 13.5856 63.4327 11.9924 62.188 9.94931C62.7817 8.51115 63.1773 7.29826 63.2271 6.6602C63.4669 6.15734 63.3538 5.80748 62.9354 5.51403ZM72.3048 12.1834C72.9107 12.1304 73.1581 11.7886 73.1814 11.4895C73.2048 11.1904 72.9399 10.7284 72.4168 10.7477C71.5118 10.7774 70.6345 10.7089 69.883 10.57L70.132 7.37973C70.1445 7.22021 70.1984 7.04387 70.231 6.62515C70.2824 5.96715 69.8901 5.5955 69.5113 5.56592C69.0527 5.53013 68.6689 5.82114 68.6574 6.48225C68.6201 8.2447 68.3321 10.6496 68.1951 12.4042C68.0955 13.6804 68.0221 14.8783 67.7948 17.7894C67.7544 18.3078 67.7198 19.0073 68.4576 19.0649C69.0159 19.1084 69.2358 18.604 69.3102 17.9077C69.431 16.874 69.4637 16.4552 69.5945 14.7803C69.6847 13.6239 69.7405 13.1668 69.8077 12.0486C70.6006 12.1707 71.5378 12.2439 72.3048 12.1834ZM76.8615 20.423C76.8288 20.8417 77.0846 21.1626 77.603 21.203C77.9021 21.2264 78.2856 21.1961 78.6078 21.1812C80.1954 21.1446 81.6787 21.1601 83.915 21.2945C85.1329 21.3695 85.2173 21.3159 85.3107 20.1196C85.3761 19.2821 85.5127 17.7882 85.5859 16.8511C85.6341 16.233 85.3967 15.9336 84.84 15.8701C82.7326 15.6253 79.352 15.5019 77.7045 15.5338C77.1016 15.5469 76.8328 15.907 76.8001 16.3258C76.7329 17.4439 76.986 18.8278 77.1412 19.9232C76.9723 20.0304 76.8786 20.2036 76.8615 20.423ZM75.3569 5.2599C74.7849 5.13501 74.4671 5.35094 74.436 5.74972C74.4033 6.16845 74.5457 6.40023 75.1775 6.5298C76.1667 6.70731 78.0195 6.872 79.0028 6.86851C79.1638 6.86102 79.2956 6.97161 79.2879 7.07131C79.2767 7.47165 79.2035 8.4088 79.1771 8.74777C79.1521 9.0668 79.0646 9.16027 78.5861 9.12291C77.8084 9.06221 76.7931 8.9629 75.8129 8.92651C75.1733 8.89665 74.8985 9.07581 74.7752 9.62788C74.6565 10.1201 74.4875 11.772 74.4299 12.5097C74.3536 13.4868 74.7842 13.8815 75.9959 14.0362C77.0679 14.1801 79.5787 14.3962 80.6093 14.5568C81.1246 14.6372 81.5558 14.5104 81.6162 13.9935C81.6797 13.4367 81.3149 13.2277 80.5173 13.1655C80.298 13.1483 79.12 13.0765 78.781 13.05C78.2227 13.0064 76.9052 12.9236 76.1537 12.7847C75.8577 12.7215 75.8409 12.6801 75.872 12.2813C75.9016 11.9024 76.0087 10.7874 76.1152 10.1939C76.8545 10.2315 77.85 10.3293 78.9466 10.4149C79.2258 10.4367 79.4635 10.4753 79.623 10.4877C80.324 10.5023 80.361 10.2846 80.5526 9.11593C80.6329 8.60062 80.7665 7.1466 80.7181 6.48082C80.6698 5.81504 80.3617 5.65056 79.6591 5.65591L78.7189 5.62263C77.9381 5.60181 76.6206 5.51903 75.3569 5.2599ZM88.7698 10.4996C89.2421 10.6167 89.5294 10.278 89.5543 9.959C89.5776 9.65991 89.4246 9.30693 89.1103 9.22221C88.322 9.04032 86.9138 9.09089 86.0502 9.10372C86.1436 7.90736 86.1887 7.32912 86.2049 6.60819C86.2223 6.12809 85.9204 5.88385 85.5415 5.85428C85.1627 5.82471 84.7652 6.03441 84.7309 6.47307C84.5737 8.48695 84.3684 12.4028 84.2547 13.8584C84.2283 14.1974 84.4825 14.5382 85.0209 14.5802C85.4396 14.6129 85.7745 14.1777 85.815 13.6592C85.8368 13.3801 85.8127 12.9168 85.8314 12.6775C85.8812 12.0395 85.9687 10.6621 85.992 10.363C86.512 10.3835 88.2744 10.4208 88.7698 10.4996ZM78.3411 16.8874C80.5668 16.9006 81.7541 16.8529 83.6222 17.079C84.0394 17.1316 84.0961 17.1761 84.0649 17.5749C84.0291 18.0335 83.9345 18.9891 83.894 19.5075C83.8582 19.9661 83.8582 19.9661 83.3398 19.9256C81.3459 19.77 79.9807 19.7838 78.5157 19.7898C78.4141 18.7788 78.3399 17.9305 78.3411 16.8874ZM6.90066 47.1195C5.07403 46.8767 3.30254 46.6983 1.94229 46.3915C1.35033 46.265 0.890169 46.2492 0.722578 46.5972C0.570258 47.0066 0.635713 47.453 1.18312 47.6362C0.901323 49.9613 0.802975 51.4782 0.748501 52.1761C0.683132 53.0136 0.645484 53.7529 0.627481 54.7545C0.588952 56.2761 0.522908 56.3512 2.17476 56.5203C3.52752 56.666 5.14728 56.7322 6.92344 56.8508C7.1381 56.9278 7.35277 57.0047 7.69329 57.0112C8.13507 57.0056 8.44068 56.6884 8.43815 56.2067C8.42785 55.8248 8.11689 55.4394 7.57542 55.4373C7.35453 55.4401 7.2134 55.4491 6.92958 55.4872C5.15186 55.3885 4.1549 55.3107 2.72238 55.1588C2.22545 55.0999 2.28527 55.1046 2.29237 54.2425C2.36388 52.0414 2.58683 50.2132 2.79947 48.0031C4.05409 48.1211 4.94202 48.3107 6.24868 48.5331C6.47862 48.6714 6.67023 48.7867 6.94782 48.8284C7.38338 48.9025 7.78713 48.6131 7.8628 48.1576C7.94003 47.6821 7.55555 47.2108 6.90066 47.1195ZM7.40416 52.2342C7.91636 52.3545 8.6725 52.4335 9.05135 52.4631C9.62959 52.5083 10.2278 52.5549 10.8322 52.5219C10.7833 53.6615 10.7896 53.5818 10.6759 55.0373C10.5577 56.5527 10.52 57.2921 10.3652 58.5037C10.2709 59.1984 10.5052 59.5377 11.0635 59.5813C11.6019 59.6233 11.857 59.1818 11.8975 58.6634C12.1724 55.6557 12.374 52.3012 12.6371 48.9314C12.69 48.2535 12.7781 47.6385 12.8416 47.0818C12.9005 46.5848 12.7045 46.2686 12.1462 46.225C11.5879 46.1815 11.3284 46.422 11.268 46.9389C11.0836 48.5293 11.0152 49.4067 10.9227 51.1046C9.96098 51.0897 8.30913 50.9207 7.51622 50.7986C6.96103 50.7151 6.58812 50.8666 6.55232 51.3252C6.5103 51.8636 6.81376 52.0878 7.40416 52.2342ZM22.0481 48.7232C20.3333 48.5893 18.6951 48.5016 17.353 48.4771C17.4392 48.1428 17.5168 47.4066 17.5572 46.8881C17.6319 45.9311 17.3453 45.7482 16.9864 45.7202C16.7671 45.7031 16.5599 45.7872 16.4047 45.9757L16.4063 45.9557C16.2328 46.1228 16.2066 46.201 16.163 46.7593C16.0167 48.6336 15.8586 50.1458 15.7546 51.221C15.6861 52.0983 15.9896 52.3226 16.3821 52.4335C18.348 52.9481 20.0155 52.9177 21.8745 53.0027C22.6936 53.0465 23.1126 52.8184 23.2029 51.662C23.3025 50.3858 23.4039 48.829 23.4989 47.6127C23.5378 47.1142 23.5275 46.7323 23.4879 46.4684C23.3782 45.8179 23.0056 45.7086 22.7065 45.6852C22.1681 45.6432 21.9943 46.071 21.9554 46.5694C21.9227 46.9882 22.0081 47.4362 22.0907 47.6633L22.0481 48.7232ZM18.895 56.2206C18.0177 56.1521 16.8444 56.0204 16.2341 55.8724C15.6421 55.746 15.3028 55.9803 15.2717 56.3791C15.2375 56.8177 15.3814 57.0296 16.0547 57.1423C17.0822 57.3429 20.1912 57.6056 21.1944 57.6037C21.3953 57.5993 21.5072 57.7083 21.4994 57.808C21.5022 58.0289 21.4418 58.5458 21.4278 58.7252C21.4213 59.0658 21.3138 59.1577 20.8353 59.1203C20.0177 59.0565 18.0453 58.8825 17.0253 58.843C16.3458 58.81 16.0863 59.0506 15.9231 59.5995C15.8013 60.1317 15.7241 60.6071 15.6634 61.3847C15.5824 62.4216 16.033 62.8178 17.2845 62.9757C18.4163 63.1242 22.2478 63.3832 23.3183 63.547C23.8536 63.6289 24.3246 63.5052 24.3881 62.9484C24.4517 62.3917 24.07 62.1412 23.2525 62.0774C23.0132 62.0587 22.3751 62.0089 22.0346 62.0024C20.4532 61.9592 18.8166 61.8515 17.4286 61.6429C17.1311 61.5996 17.1143 61.5582 17.1469 61.1394C17.1719 60.8204 17.2366 60.5045 17.2967 60.2484L21.803 60.6001C22.504 60.6147 22.5641 60.3586 22.7603 59.1302C22.8422 58.5949 22.9135 57.9385 22.8668 57.2528C22.8016 56.5455 22.4935 56.3811 21.771 56.3849C20.6481 56.3775 20.0116 56.3077 18.895 56.2206ZM16.1766 53.7816C15.7594 53.729 15.3148 53.5137 14.936 53.4842C14.4789 53.4284 14.0552 53.7163 14.021 54.155C13.9634 54.8927 14.9311 55.0886 15.7686 55.154C18.0217 55.3299 20.8506 55.0692 22.889 55.1682C23.0884 55.1837 23.4028 55.2685 23.6221 55.2856C24.0608 55.3198 24.2941 55.1575 24.3268 54.7388C24.3564 54.3599 24.1726 54.145 23.7601 54.0325C22.5409 53.7167 21.0729 53.7626 19.6065 53.7885C18.3609 53.8117 17.2533 53.8657 16.1766 53.7816ZM21.8791 51.6589C20.8024 51.5749 17.9632 51.4536 17.0217 51.1795L17.1384 49.684C18.7812 49.712 20.4898 49.9256 21.9715 49.961C21.9665 50.2816 21.9071 51.3 21.8791 51.6589ZM28.3736 46.7695C27.892 46.772 27.4393 46.9173 27.4418 47.3989C27.4369 47.7195 27.6238 47.8946 27.8584 47.9731L27.8569 47.993C27.7501 48.8473 27.6651 50.7063 27.6642 51.4886C27.6877 52.4734 28.2426 52.8177 29.218 52.9139C30.1935 53.0101 31.1522 53.0648 32.2949 53.0738L32.2887 53.1536C32.2604 53.7732 32.2336 54.373 32.1854 54.9911C30.8893 54.8899 28.0595 54.649 27.5243 54.5671C27.0074 54.5067 26.7432 54.807 26.7168 55.146C26.6887 55.5049 26.9047 55.8227 27.4231 55.8631L33.1058 56.3067C33.7837 56.3596 34.9418 56.43 35.5599 56.4782C36.0185 56.514 36.6749 56.5853 37.1273 56.7009C37.6763 56.8641 37.9956 56.6282 38.1065 56.2356C38.2174 55.8431 38.0183 55.5668 37.2101 55.3833C36.8543 55.3154 36.0169 55.25 35.6779 55.2236L33.664 55.0664C33.6369 54.643 33.7004 54.0862 33.7209 53.5663C33.7991 53.5924 33.8789 53.5987 33.9587 53.6049C34.7731 53.7086 37.4468 53.6364 38.2306 53.6174C38.7123 53.6148 38.935 53.3313 38.9615 52.9923C38.9633 52.7116 38.7412 52.4736 38.2028 52.4316C37.5034 52.3971 35.9326 52.4751 34.8128 52.4278C34.4125 52.4166 34.3006 52.3076 34.3442 51.7493C34.3772 51.0698 34.4864 49.4132 34.5577 48.7568L36.0977 48.8168C36.6775 48.842 37.61 48.975 37.8309 48.9722C38.1929 48.9603 38.4892 48.7628 38.5172 48.4039C38.5468 48.025 38.2816 47.8238 37.8629 47.7911L34.7923 47.5514C34.3337 47.5156 33.9641 47.3664 33.5654 47.3353C33.1865 47.3057 32.7338 47.4509 32.6949 47.9494C32.6669 48.3083 32.8922 48.5064 33.2249 48.6126C33.1091 49.3258 32.9677 50.8795 32.9513 51.8612C31.8929 51.7986 30.7087 51.8065 29.6367 51.6627C29.1996 51.6085 29.1538 51.4243 29.1512 50.9427C29.1602 49.7999 29.2813 48.5054 29.3402 48.0085C30.1041 47.9879 30.825 48.004 31.5843 48.0432C32.003 48.0759 32.3728 47.9644 32.3871 47.5241C32.4198 47.1054 32.1546 46.9042 31.6761 46.8668C30.7421 46.7538 29.2388 46.7367 28.3736 46.7695ZM27.5912 59.106C27.5081 59.4005 27.5997 59.7687 27.8972 59.812C28.2745 59.8615 28.6505 59.6702 28.8624 59.5262C28.4278 59.9537 28.3547 60.8909 28.4584 61.3604C28.799 62.6508 29.9839 63.4053 31.4747 63.5818C33.8182 63.8851 37.2963 63.2739 37.3111 61.0283C37.2892 58.7396 34.6334 57.8101 32.5199 57.6452C31.3434 57.5533 29.8415 57.7771 28.5984 58.2819C28.0398 58.4991 27.699 58.7534 27.5912 59.106ZM29.9956 61.1995C29.7357 60.4169 29.9313 59.71 30.55 59.2367C31.0703 58.9965 32.0168 58.95 32.595 58.9951C33.8113 59.09 35.8324 59.6691 35.7696 60.9882C35.7195 61.887 34.0698 62.4604 32.0513 62.363C31.1509 62.3328 30.2923 62.0251 29.9956 61.1995ZM45.5075 56.1313C45.4157 57.3077 45.6155 58.3464 45.6856 58.733C45.7542 59.1396 45.8991 59.853 46.0446 60.0449C44.6872 59.959 43.0322 59.8299 41.7361 59.7287C41.2576 59.6913 40.8417 59.8795 40.8106 60.2783C40.7748 60.7369 41.0505 61.0594 41.8481 61.1216C43.7024 61.2664 46.0033 61.3457 47.738 61.4811C48.9543 61.576 49.893 61.6292 50.4513 61.6728C51.0495 61.7195 51.4685 61.4914 51.4308 60.9468C51.3883 60.4621 50.7964 60.3356 50.1583 60.2858C49.6598 60.2469 48.0432 60.1408 47.6843 60.1128C47.5048 60.0987 47.1444 60.0907 47.0247 60.0813C47.212 59.9956 47.3656 59.8271 47.3412 59.6246C47.2683 59.0171 47.077 58.641 47.0062 57.492C46.9579 56.8263 46.9519 56.6452 46.9724 56.1253C46.9914 55.6252 46.7188 55.2629 46.2786 55.2486C45.7601 55.2081 45.5402 55.7126 45.5075 56.1313ZM45.1744 49.6056C43.6621 49.4474 42.8246 49.382 42.3261 49.3431C42.0732 49.2431 41.7956 49.2014 41.6959 49.1936C41.1376 49.15 40.9317 49.475 40.9036 49.8339C40.8601 50.3922 41.1666 50.5766 41.8446 50.6295C42.4627 50.6778 43.403 50.7111 44.2803 50.7795C44.6791 50.8107 44.7909 50.9197 44.7246 51.2556C44.4515 52.6987 43.9621 54.0848 43.0703 56.0012C42.7644 56.5792 42.7837 57.1023 43.2283 57.3175C43.8477 57.6066 44.2193 57.2143 44.4838 56.6532C45.328 54.8334 46.0955 52.9674 46.3649 50.8018C47.0029 50.8516 47.9937 51.0092 48.6071 51.1173C49.3586 51.2562 49.4381 51.5232 49.4877 52.4298C49.5647 53.499 49.5339 54.9209 49.4763 55.6587C49.4499 55.9977 49.368 56.5329 49.2786 56.9071C49.183 57.361 49.4341 57.7417 49.8482 57.8342C50.322 57.9314 50.7043 57.6603 50.7953 57.2662C50.8924 56.7923 50.85 56.3076 50.8827 55.8888C50.9577 54.671 50.9984 52.6079 50.9379 51.8409C50.8518 50.6305 50.3617 49.9704 49.1716 49.7972C47.8235 49.5917 47.0306 49.4696 45.9538 49.3856C45.5152 49.3513 45.1946 49.3464 45.1744 49.6056ZM54.8316 49.3162C54.3484 49.3387 54.0198 49.6942 54.0516 50.0578C54.0665 50.3799 54.2887 50.6179 54.709 50.6307C55.3087 50.6574 58.2675 50.7881 59.4224 50.8983C59.9608 50.9403 59.9393 50.9587 59.6857 51.3802L58.7914 52.815C57.6931 52.7493 55.8556 52.646 55.173 52.6529C54.6515 52.6523 54.2876 52.9449 54.2733 53.3851C54.2574 53.8453 54.4718 54.183 54.912 54.1973C55.2725 54.2054 55.7205 54.12 55.9996 54.1417C56.4782 54.1791 57.1577 54.2121 57.8556 54.2666C57.33 55.0882 56.7846 55.9082 56.3145 56.5335C56.1117 56.8186 55.7634 56.9118 55.5989 57.2199C55.4313 57.5679 55.4584 57.9913 55.742 58.214C56.1373 58.5458 56.6741 58.6078 57.0044 58.2323C57.1595 58.0438 57.2978 57.8139 57.3916 57.6407C58.8679 55.6897 60.2466 53.1894 61.551 51.3854C62.0918 50.6252 61.9148 49.8089 60.9592 49.7143C59.766 49.581 56.1155 49.3161 54.8316 49.3162ZM64.0679 59.7466C62.9267 59.7177 60.5923 59.5556 58.8376 59.4186C58.2992 59.3766 57.8914 59.2043 57.3914 59.1853C57.011 59.1757 56.644 59.5082 56.5945 59.8855C56.5387 60.3425 56.8911 60.711 57.2852 60.802C57.661 60.8714 58.1043 60.8459 58.4832 60.8754C60.0982 61.0015 61.9757 61.1079 62.9742 61.1658C63.6736 61.2003 63.7319 61.225 63.6223 61.8583C63.5111 62.5117 63.3314 64.0423 63.2078 64.8552C63.1197 65.4702 63.4291 65.8755 63.949 65.896C64.489 65.9181 64.8129 65.6224 64.7998 65.0196C64.7986 64.7787 64.8038 64.1974 64.8487 63.8799C64.9383 63.245 65.0931 62.0333 65.2535 61.2635C65.4802 60.1578 65.1493 59.7709 64.0679 59.7466ZM64.1653 57.7281C64.1862 58.2312 64.4467 58.4923 64.8256 58.5219C65.1645 58.5483 65.4976 58.3938 65.5334 57.9352C65.5956 57.1376 65.5628 56.2724 65.6282 55.435C65.7481 53.8996 65.8907 52.5868 66.0516 51.2954C66.1105 50.7984 65.8148 50.4744 65.416 50.4433C65.0172 50.4122 64.7178 50.6496 64.6422 51.1051C64.3133 53.0053 64.1244 55.9395 64.1653 57.7281ZM79.9091 61.0433C79.4091 61.0244 77.5133 60.8964 76.955 60.8529C76.3967 60.8093 75.9412 60.7336 75.1667 60.633C74.4105 60.5539 74.0545 60.7468 74.0218 61.1655C73.9891 61.5843 74.3845 61.916 75.0425 61.9674C76.9566 62.1168 81.2804 62.4944 85.1486 62.7964C85.6471 62.8353 85.9399 62.9384 86.4752 63.0203C86.9322 63.076 87.2946 62.8034 87.3656 62.4077C87.4135 62.0504 87.2191 61.7142 86.5904 61.5448C86.3327 61.5046 86.0934 61.4859 85.5551 61.4439C84.1531 61.4147 80.607 61.0978 79.9091 61.0433ZM102.652 62.8186C102.152 62.7996 100.257 62.6717 99.6983 62.6281C99.14 62.5846 98.6845 62.5089 97.91 62.4083C97.1539 62.3292 96.7978 62.5221 96.7651 62.9408C96.7324 63.3595 97.1278 63.6913 97.7858 63.7427C99.7 63.8921 104.024 64.2697 107.892 64.5717C108.39 64.6106 108.683 64.7137 109.219 64.7956C109.676 64.8513 110.038 64.5787 110.109 64.183C110.157 63.8257 109.962 63.4895 109.334 63.3201C109.076 63.2799 108.837 63.2612 108.298 63.2192C106.896 63.19 103.35 62.8731 102.652 62.8186Z" fill="black"/>
</svg>
