<svg width="36" height="63" viewBox="0 0 36 63" fill="none" xmlns="http://www.w3.org/2000/svg">
<path d="M14.694 53.5723C14.1784 53.5246 13.7992 53.0679 13.8469 52.5524L14.9702 40.4169C15.0179 39.9014 15.4746 39.5221 15.9901 39.5698C16.5057 39.6175 16.8849 40.0742 16.8372 40.5897L15.7139 52.7252C15.6661 53.2408 15.2095 53.62 14.694 53.5723Z" fill="#D2D2FC"/>
<path d="M34.5381 12.1001C34.2209 15.5272 31.6279 18.2894 28.2331 18.8189C27.6935 18.8999 27.2167 18.5178 27.1566 18.0014C26.8597 15.4625 26.4826 13.3186 26.2848 12.2776L20.4492 11.7374C19.9335 11.6897 19.5544 11.2333 19.6022 10.7175C19.9833 6.59961 23.6436 3.55962 27.7614 3.94081C31.8793 4.32199 34.9193 7.9822 34.5381 12.1001V12.1001Z" fill="#F1CC76"/>
<path d="M26.3489 3.94501C29.7386 4.92195 32.0746 8.20194 31.7377 11.8411C31.4772 14.6552 29.6815 17.02 27.168 18.0694C27.2614 18.5566 27.7215 18.896 28.2331 18.8192C31.628 18.2896 34.221 15.5274 34.5382 12.1003C34.9693 7.44261 31.0508 3.49231 26.3489 3.94501V3.94501Z" fill="#EBB15D"/>
<path d="M29.3353 27.6246C28.5907 35.669 22.8182 37.918 19.3693 39.2605C18.3742 39.6485 16.8702 40.2331 16.8372 40.5901C16.7894 41.1059 16.333 41.485 15.8172 41.4372C15.3015 41.3895 14.9224 40.9331 14.9702 40.4173C15.0032 40.0602 13.632 39.2095 12.7251 38.6454C9.58121 36.6927 4.31969 33.4223 5.06435 25.3779C5.2456 23.4199 5.68809 21.1188 6.37771 18.5382C6.46908 18.1995 6.74143 17.9399 7.08371 17.8657L10.793 17.0545C13.5545 16.4511 16.4841 16.7776 19.0415 17.9723C20.9915 18.8822 23.226 19.1546 25.3223 18.7749L28.0624 18.2754C28.5987 18.1778 29.1095 18.5585 29.1624 19.1057C29.4933 22.4221 29.5516 25.2885 29.3353 27.6246V27.6246Z" fill="#E48C9B"/>
<path d="M29.3356 27.6241C28.5909 35.6685 22.8185 37.9175 19.3695 39.2599C18.3745 39.648 16.8704 40.2325 16.8374 40.5896C16.7897 41.1054 16.3332 41.4844 15.8175 41.4367C15.3017 41.3889 14.9227 40.9325 14.9704 40.4168C14.993 40.1729 14.3603 39.6977 13.6668 39.2428C16.9516 37.8596 23.847 36.0614 24.6681 27.192C24.8797 24.9061 24.8287 22.1134 24.5164 18.8881C25.1147 18.8265 25.3218 18.7746 28.0626 18.2748C28.5989 18.1774 29.1097 18.5577 29.1626 19.1051C29.4935 22.4216 29.5518 25.288 29.3356 27.6241V27.6241Z" fill="#CC5B6F"/>
<path d="M28.3974 20.1208C25.6182 20.6263 24.3825 20.9543 22.3078 20.7622C18.9833 20.4545 18.4269 19.4095 15.842 18.868C14.2974 18.5438 12.7339 18.5497 11.1929 18.886L7.48371 19.696C6.81168 19.8502 6.19433 19.2231 6.37745 18.5391C7.65635 13.7499 9.32993 9.66812 9.39992 9.49689C9.55757 9.11605 9.94403 8.88232 10.3536 8.92023L27.1566 10.4756C27.5662 10.5136 27.9032 10.8143 27.9882 11.2176C28.3685 13.0227 28.875 16.2124 29.1623 19.1042C29.2115 19.5901 28.8787 20.0324 28.3974 20.1208V20.1208Z" fill="#EDEBFD"/>
<path d="M28.3977 20.121C25.6182 20.6263 24.3827 20.9544 22.308 20.7624C21.3209 20.671 20.5785 20.5152 19.9547 20.3256C21.0025 20.2202 22.101 19.9853 23.7302 19.6889C24.2115 19.6005 24.5443 19.1582 24.4951 18.6723C24.2074 15.7799 23.7011 12.5908 23.321 10.7856C23.2359 10.3823 22.8989 10.0816 22.4894 10.0437L27.1569 10.4758C27.5664 10.5137 27.9034 10.8144 27.9885 11.2177C28.3686 13.0229 28.8749 16.212 29.1626 19.1043C29.2118 19.5902 28.879 20.0325 28.3977 20.121Z" fill="#D2D2FC"/>
<path d="M23.3377 61.9052L4.66775 60.177C3.68629 60.0862 3.49504 58.7272 4.41376 58.3694C8.19919 56.9033 11.4168 54.7784 14.1052 51.9887C14.5214 51.5568 15.2337 51.6225 15.5638 52.1237C17.692 55.3559 20.4635 58.0365 23.9192 60.1749C24.7564 60.6952 24.3194 61.9961 23.3377 61.9052Z" fill="#EDEBFD"/>
<path d="M23.3378 61.9043L19.1371 61.5154C20.1184 61.6063 20.5555 60.3051 19.7186 59.7851C16.8901 58.0357 14.5214 55.9217 12.5879 53.4407C13.1109 52.9784 13.617 52.4945 14.1053 51.9877C14.5219 51.5555 15.2337 51.6214 15.5639 52.1227C17.6926 55.3549 20.4631 58.0358 23.9193 60.174C24.7562 60.6939 24.3192 61.9951 23.3378 61.9043V61.9043Z" fill="#D2D2FC"/>
<path d="M17.1992 26.501C16.7846 26.4626 16.4318 26.1494 16.3612 25.7194L13.1985 6.4737C12.976 5.11995 12.0336 3.99707 10.7391 3.54312L6.06731 1.90484C5.57877 1.73346 5.32159 1.19853 5.49287 0.709864C5.66425 0.221321 6.19928 -0.0357281 6.68785 0.135423L11.3596 1.7737C13.3014 2.45468 14.715 4.13913 15.0487 6.16963L18.2114 25.4153C18.3109 26.0209 17.8104 26.5576 17.1992 26.501V26.501Z" fill="#EBB19C"/>
<path d="M22.9745 25.1526C23.4901 25.2004 23.9467 24.8211 23.9945 24.3055C24.0422 23.79 23.6629 23.3334 23.1474 23.2856C22.6318 23.2379 22.1752 23.6172 22.1275 24.1327C22.0797 24.6483 22.459 25.1049 22.9745 25.1526Z" fill="#CC5B6F"/>
<path d="M19.7416 29.5608C20.2572 29.6086 20.7138 29.2293 20.7615 28.7137C20.8093 28.1982 20.43 27.7416 19.9145 27.6938C19.3989 27.6461 18.9423 28.0254 18.8945 28.5409C18.8468 29.0565 19.2261 29.5131 19.7416 29.5608Z" fill="#CC5B6F"/>
</svg>
