<svg width="119" height="119" viewBox="0 0 119 119" fill="none" xmlns="http://www.w3.org/2000/svg">
<g clip-path="url(#clip0)">
<path d="M113.021 52.3927C114.528 52.1975 115.231 51.2096 115.311 50.0853C115.346 49.8731 115.364 49.6494 115.355 49.4081C115.069 41.398 113.911 33.5176 112.116 25.7101C112.105 25.6698 112.089 25.6383 112.078 25.5997C111.935 24.1982 110.968 22.9587 109.135 23.0635C100.031 23.5802 90.0493 24.0082 79.7108 24.3866C83.2592 22.3285 86.5041 19.7171 89.3 16.1724C92.2819 12.3932 96.9417 4.18427 89.8201 1.68412C83.947 -0.376326 76.4813 3.61015 71.6092 6.50777C66.2375 9.70356 61.4205 13.9863 57.9873 19.1934C54.8868 14.4817 50.6153 10.7128 45.2018 8.39506C39.6103 6.0016 32.4492 4.78478 26.8154 7.71808C21.4095 10.5336 22.7066 16.5161 26.0491 20.3498C27.9465 22.5265 30.4952 24.3939 33.1465 25.8468C23.817 26.1254 14.8098 26.4065 6.53547 26.7177C5.05151 26.7732 4.10662 27.6639 3.70338 28.7544C3.2843 29.2388 3.01981 29.8922 3.04335 30.7364C3.25287 38.0353 3.47202 45.3332 3.69358 52.631C3.74614 54.3415 4.90991 55.3345 6.21927 55.6083C6.63204 55.8788 7.12377 56.0702 7.71233 56.1231C8.77413 56.2184 9.86624 56.2957 10.9491 56.3783C14.4728 75.5601 19.5151 94.5029 19.7691 114.122C19.7891 115.651 20.7042 116.61 21.8303 116.992C22.21 117.175 22.6538 117.285 23.1667 117.293C52.8079 117.755 81.5015 114.729 110.689 110.829C111.113 110.77 111.459 110.642 111.761 110.476C113.497 110.757 115.367 109.802 115.216 107.561C114.092 90.8953 111.467 69.407 109.183 52.8748C110.477 52.7152 111.759 52.5563 113.021 52.3927ZM86.1167 7.46928C86.5385 7.43514 86.945 7.4489 87.351 7.50811C87.1379 9.77405 84.2061 12.6281 82.8979 14.13C77.5411 20.2778 69.5274 22.5547 61.8739 24.7618C66.3258 16.2889 76.7907 8.23444 86.1167 7.46928ZM29.3145 14.1464C29.1216 13.5796 29.3506 13.3053 30.4098 12.8993C39.274 9.50744 49.1964 16.4522 53.7646 24.1589C46.7663 22.6488 39.8411 22.9554 33.6234 18.6767C32.0664 17.6072 29.9524 16.0283 29.3145 14.1464ZM9.86605 50.0336C9.6921 44.31 9.52129 38.586 9.35577 32.8618C23.8928 32.3236 40.9361 31.8711 57.974 31.3525C58.6129 31.8049 59.4527 31.9913 60.4519 31.6906C60.9688 31.5362 61.4815 31.3811 61.9951 31.2279C77.6599 30.7394 93.152 30.1883 106.518 29.4491C107.735 35.1368 108.607 40.8488 108.969 46.6511C79.4474 50.3929 39.5832 52.4754 9.86605 50.0336ZM60.0845 56.8632C65.65 56.6321 71.2064 56.315 76.6984 55.9384C76.8121 56.1058 76.9372 56.2705 77.095 56.4301C80.4409 59.8199 84.0186 62.9483 87.7189 65.9268L82.9345 65.864C82.208 65.8544 81.6142 66.0542 81.146 66.3802C80.1988 66.6032 79.3476 67.2469 78.9476 68.4189C78.1207 70.8363 77.4305 73.2831 76.8496 75.7597C70.3706 71.2852 64.6877 65.9342 59.8119 59.7039C59.9088 59.1207 60.0117 58.539 60.1031 57.9539C60.1623 57.567 60.143 57.2064 60.0845 56.8632ZM53.9512 57.0817C52.8315 64.0784 51.233 70.9471 49.2726 77.7386C47.4891 75.3457 45.686 72.9664 43.812 70.6432C42.6992 69.2629 41.2167 69.3389 40.1148 70.1184C37.9146 70.9957 35.6987 71.8226 33.4615 72.5859C34.7339 67.5868 35.5237 62.4993 35.7793 57.3268C41.7445 57.3595 47.8333 57.2688 53.9512 57.0817ZM108.754 104.827C81.1218 108.553 53.9496 110.989 25.935 111.036C25.2459 92.6611 20.7773 74.8152 17.3768 56.7983C21.3312 57.0102 25.3876 57.1599 29.5285 57.2442C29.1974 63.5699 27.9856 69.6898 26.0452 75.7464C24.8983 77.8466 26.5049 81.1971 29.487 80.3702C33.2551 79.3242 36.9354 78.0269 40.5748 76.604C42.9316 79.5991 45.2114 82.653 47.4592 85.7346C47.5366 85.8419 47.6268 85.9372 47.7116 86.0359C48.9192 87.9961 52.5663 88.2677 53.4908 85.379C55.3649 79.5181 56.9881 73.6089 58.2939 67.6208C63.6416 73.6829 69.845 78.8707 76.7524 83.1762C77.2224 83.4681 77.6835 83.6098 78.1274 83.6486C79.7069 84.2851 81.619 83.8254 81.9906 81.6892C82.5534 78.4444 83.3415 75.267 84.3219 72.134L96.6072 72.2955C98.9518 72.3263 99.9503 70.2278 99.5927 68.4519C99.5121 67.6141 99.1138 66.7907 98.2654 66.1775C93.6103 62.8043 89.1484 59.2207 84.9505 55.3173C91.1455 54.8124 97.2037 54.2301 103.012 53.589C105.123 68.9828 107.552 89.33 108.754 104.827Z" fill="black"/>
</g>
<defs>
<clipPath id="clip0">
<rect width="117" height="117" fill="white" transform="translate(1.5376) rotate(0.752983)"/>
</clipPath>
</defs>
</svg>
