<svg width="134" height="134" viewBox="0 0 134 134" fill="none" xmlns="http://www.w3.org/2000/svg">
<g clip-path="url(#clip0)">
<path d="M97.8275 50.8756C98.0903 50.4532 98.2837 49.9757 98.363 49.4339C98.8156 46.3508 99.3573 43.0149 98.9087 39.9081C98.6578 38.1729 97.3552 36.758 95.5952 36.4921C93.6755 36.2021 91.1848 37.6429 91.127 39.7879C91.0985 40.8033 91.0894 41.8279 91.0965 42.8531C83.2193 33.2993 74.9128 24.068 66.4507 15.0437C65.2691 13.7839 63.338 12.7179 61.5805 13.6524C41.6694 24.2396 30.2805 44.8448 13.6893 59.4655C10.9623 61.8678 13.3544 67.4716 17.0169 65.4524C35.623 55.1955 44.547 33.9441 62.4005 22.7296C69.7798 30.4594 76.7917 38.5633 83.6425 46.7565C89.8753 54.2108 98.5206 62.9244 101.243 72.5195C102.193 75.8666 106.646 75.1304 107.994 72.6547C111.218 66.7359 103.153 57.0099 97.8275 50.8756Z" fill="black"/>
<path d="M97.6769 74.9878C96.5743 69.7056 88.2428 70.573 89.2514 75.9954C91.6486 88.8799 89.6036 102.473 87.0589 115.331C79.5403 114.425 71.8939 114.349 64.2493 114.29C64.5858 106.734 64.1025 98.3921 58.8647 92.5141C58.1324 91.692 56.799 91.7028 56.3015 92.793C53.2462 99.4833 54.2139 106.98 53.4624 114.132C44.6085 113.873 35.8362 113.124 27.3437 110.606C27.7419 96.1129 29.7017 81.6532 27.9844 67.1773C27.6472 64.3309 23.4255 64.2827 22.9822 67.1003C20.5265 82.6982 18.9454 98.454 18.7345 114.246C18.7167 115.594 20.0092 117.234 21.2537 117.662C43.4577 125.289 67.0331 120.659 89.8315 124.431C92.242 124.829 94.2683 123.088 94.7363 120.813C97.7538 106.169 100.782 89.8541 97.6769 74.9878ZM58.136 96.4766C61.4283 101.671 61.3237 108.173 61.108 114.264C59.292 114.248 57.4769 114.221 55.6637 114.183C57.0215 108.367 56.45 102.179 58.136 96.4766Z" fill="black"/>
<path d="M92.4446 25.6185C92.876 25.44 92.7368 25.5088 93.0607 25.456C93.7933 25.3363 94.5288 25.443 95.2625 25.3498C97.3808 25.0808 98.1482 21.7514 95.9213 20.9886C92.0449 19.6608 87.2445 21.9181 87.3994 26.3664C87.4533 27.9217 88.4764 29.4909 89.785 30.2676C91.368 31.2068 92.7999 30.627 94.4242 30.3035C95.0043 30.1877 95.1122 29.2245 94.4415 29.1916C93.466 29.144 92.8606 28.4674 92.2772 27.757C92.1559 27.6087 92.0569 27.4411 91.9559 27.2783C91.866 27.1335 91.8391 27.0993 91.8367 27.1071C91.8293 27.0934 91.8281 27.0895 91.8205 27.0732C91.8032 27.038 91.7352 26.8356 91.706 26.7709C91.6942 26.6536 91.6832 26.5024 91.6737 26.4363C91.6794 26.3945 91.6857 26.3528 91.6932 26.3112C91.7118 26.2795 91.7671 26.1051 91.8051 26.0236C91.8259 26.0022 91.8526 25.9711 91.8944 25.919C91.8996 25.9135 91.8967 25.9162 91.9019 25.9107C91.996 25.8364 92.0933 25.7657 92.194 25.7018C91.7797 25.9796 92.381 25.6447 92.4446 25.6185Z" fill="black"/>
<path d="M104.525 13.1513C100.946 12.6564 99.3115 16.2328 98.8948 19.1487C98.6418 20.9144 101.108 21.6022 101.863 20.0165C102.252 19.1988 102.676 18.4848 103.302 17.8265C103.599 17.513 103.642 17.4597 103.831 17.5297C105.703 18.2245 106.005 20.756 107.96 21.3898C108.728 21.6389 109.887 21.48 110.159 20.546C111.075 17.4085 107.626 13.5802 104.525 13.1513Z" fill="black"/>
<path d="M127.273 27.0935C127.532 20.7142 121.509 16.3866 115.596 18.9743C114.096 19.6306 114.761 21.6092 116.264 21.6026C119.536 21.5889 122.796 22.9455 122.549 26.7377C122.45 28.2437 121.728 29.4061 120.481 30.2186C118.608 31.44 116.311 30.0174 114.456 31.3031C113.5 31.9662 113.406 33.2813 114.019 34.1952C115.932 37.0467 120.99 35.6145 123.398 34.1717C125.781 32.7423 127.162 29.792 127.273 27.0935Z" fill="black"/>
<path d="M115.171 36.6133C114.617 35.6933 112.924 36.3335 113.186 37.4003C113.458 38.5096 113.616 39.5519 113.101 40.6043C112.968 40.8768 112.834 41.0185 112.692 41.1334C112.645 41.1721 112.617 41.1955 112.593 41.2177C112.564 41.2289 112.536 41.2405 112.487 41.2631C112.429 41.2895 112.169 41.3564 112.124 41.3728C111.976 41.4 111.825 41.4269 111.676 41.4476C111.628 41.4542 111.477 41.4521 111.366 41.4511C111.253 41.439 111.143 41.4193 111.032 41.3981C110.982 41.3767 110.671 41.2926 110.606 41.2659C110.163 41.0835 109.735 40.8429 109.32 40.605C108.692 40.2458 108.058 40.1476 107.269 40.2438C106.369 40.3539 105.639 41.0637 105.501 41.9596C105.131 44.36 107.429 45.7181 109.382 46.2782C110.95 46.7273 112.821 46.4379 114.192 45.5833C117.573 43.4757 116.944 39.563 115.171 36.6133Z" fill="black"/>
<path d="M50.532 78.2693C50.4733 77.4278 49.7288 76.7283 48.9201 76.6074C45.321 76.0667 41.1496 75.029 37.5673 76.0148C36.6179 76.2764 36.3304 77.2985 36.5536 78.1611C34.5454 84.4501 33.8331 91.2676 34.3139 97.8391C34.3668 98.566 35.0107 99.187 35.7161 99.2854C40.331 99.9268 46.7609 100.321 49.4458 95.5535C52.2165 90.6305 50.9029 83.5947 50.532 78.2693ZM46.8524 80.2106C46.9938 81.9141 47.154 83.6424 47.2342 85.3681C46.3725 85.1952 45.5038 85.0929 44.6313 85.0289C44.4439 83.314 44.2399 81.6016 43.9807 79.901C44.9369 79.9972 45.8924 80.0856 46.8524 80.2106ZM41.9722 79.7087C42.0128 81.4391 42.0036 83.1789 41.9985 84.9168C40.6578 84.8838 39.3132 84.8564 37.9732 84.7199C38.0889 82.9692 38.1895 81.2181 38.2066 79.4594C39.4728 79.5195 40.7228 79.6079 41.9722 79.7087ZM37.5532 96.1691C37.4163 93.1226 37.6047 90.0969 37.8148 87.0732C39.2001 87.3008 40.603 87.4618 42.0114 87.5786C42.04 89.9074 42.1356 92.2294 42.4692 94.5227C42.5898 95.3534 43.1946 95.7437 43.8317 95.7903C41.9831 96.5019 39.6262 96.4082 37.5532 96.1691ZM46.8208 92.2892C46.5788 93.4338 46.0709 94.2606 45.4011 94.8702C45.4796 94.6623 45.5228 94.4308 45.4983 94.1603C45.3046 92.0307 45.1202 89.8886 44.9144 87.7472C45.7061 87.7732 46.4947 87.7818 47.2834 87.7773C47.2622 89.2974 47.1338 90.8082 46.8208 92.2892Z" fill="black"/>
<path d="M84.7702 83.6582C84.9813 83.1463 84.9653 82.5543 84.6741 82.0789C84.643 82.0233 84.6231 81.9682 84.5791 81.9264C84.4292 81.7386 84.2447 81.5714 83.9851 81.4612C80.3749 79.9262 76.3929 80.0121 72.5569 79.464C71.5353 79.3184 70.5926 80.0224 70.4256 81.0363C69.4953 86.6619 68.5429 92.284 67.6444 97.9156C67.4172 99.3361 68.6307 100.381 69.971 100.316C74.0966 100.115 78.02 100.325 82.0448 101.294C83.036 101.533 84.1439 100.655 84.2447 99.6714C84.7915 94.3314 84.6363 89.0084 84.7702 83.6582ZM82.9915 84.6176C82.5877 86.4793 82.2481 88.3531 81.9214 90.2289C81.0509 90.0145 80.1461 89.869 79.222 89.7721C79.3718 87.8413 79.4034 85.9197 79.2495 84.0002C80.4958 84.1709 81.7408 84.3634 82.9915 84.6176ZM77.0282 83.7198C76.7527 85.6724 76.4647 87.6244 76.1518 89.5707C75.1039 89.533 74.0612 89.5104 73.0467 89.4677C73.3254 87.4358 73.6077 85.4051 73.8845 83.3736C74.9363 83.4854 75.9834 83.599 77.0282 83.7198ZM72.1352 96.0906C72.3539 94.5313 72.5639 92.9706 72.7781 91.4113C73.7272 91.6627 74.6959 91.9384 75.6719 92.2026C75.4104 93.5388 75.2024 94.8781 75.4404 96.1956C74.3445 96.1261 73.2442 96.0861 72.1352 96.0906ZM78.1634 96.4714C78.69 95.3919 78.8709 94.1986 78.9814 92.9852C79.7921 93.1384 80.5991 93.2459 81.397 93.2968C81.1951 94.5164 80.9923 95.7347 80.786 96.9543C79.9158 96.7462 79.0411 96.5965 78.1634 96.4714Z" fill="black"/>
</g>
<defs>
<clipPath id="clip0">
<rect width="117" height="117" fill="white" transform="translate(17.4783) rotate(8.59142)"/>
</clipPath>
</defs>
</svg>
