<svg width="94" height="78" viewBox="0 0 94 78" fill="none" xmlns="http://www.w3.org/2000/svg">
<path d="M27.1049 6.64323L27.1143 11.6432L27.1409 11.6432L27.1674 11.6428L27.1049 6.64323ZM20.1476 6.2216L18.2825 10.8607L18.8386 11.0843L19.4318 11.1701L20.1476 6.2216ZM9.5961 6.09307L11.6529 10.6504L11.6639 10.6454L9.5961 6.09307ZM6.1355 15.4208L1.61668 17.561L1.62124 17.5706L1.62583 17.5802L6.1355 15.4208ZM15.4015 19.8995L15.498 24.8986L15.5358 24.8979L15.5736 24.8966L15.4015 19.8995ZM35.4197 18.3877L35.3668 23.3874L35.3769 23.3876L35.387 23.3876L35.4197 18.3877ZM67.6605 20.3416L67.2621 25.3257L67.3101 25.3296L67.358 25.3325L67.6605 20.3416ZM74.7155 27.5817L79.7152 27.5278L79.7147 27.486L79.7136 27.4443L74.7155 27.5817ZM74.7926 34.7394L74.7982 39.7394L79.8467 39.7338L79.7923 34.6855L74.7926 34.7394ZM24.791 39.2029L19.8451 38.4692L19.8426 38.4863L19.8402 38.5034L24.791 39.2029ZM31.846 46.4429L32.2391 41.4584L32.1938 41.4548L32.1484 41.4521L31.846 46.4429ZM73.6922 47.2758L78.6532 47.899L79.3906 42.0287L73.4795 42.2804L73.6922 47.2758ZM70.8384 63.4528L65.9492 62.4061L65.9475 62.4142L65.9458 62.4222L70.8384 63.4528ZM76.6233 71.9784L75.7041 76.8932L75.7869 76.9087L75.8702 76.9213L76.6233 71.9784ZM84.4701 66.1524L89.2552 67.6026L89.2702 67.5528L89.2843 67.5027L84.4701 66.1524ZM88.5888 40.3443L93.5797 40.6467L93.5824 40.6022L93.5843 40.5576L88.5888 40.3443ZM88.6093 17.5237L83.6316 17.9954L83.633 18.0097L83.6344 18.024L88.6093 17.5237ZM79.1016 8.60224L78.6019 13.5772L78.6349 13.5805L78.668 13.5834L79.1016 8.60224ZM27.0954 1.64324C24.5387 1.64807 22.5856 1.52225 20.8635 1.27311L19.4318 11.1701C21.7616 11.5071 24.2205 11.6487 27.1143 11.6432L27.0954 1.64324ZM22.0128 1.58252C19.8877 0.728086 17.3957 0.265079 15.0002 0.200781C12.6376 0.137367 9.92869 0.450347 7.52825 1.54071L11.6639 10.6454C12.2408 10.3834 13.3112 10.159 14.7319 10.1972C16.1197 10.2344 17.4149 10.5119 18.2825 10.8607L22.0128 1.58252ZM7.53928 1.53572C1.79642 4.12757 -1.30346 11.3953 1.61668 17.561L10.6543 13.2807C10.4788 12.9101 10.435 12.3895 10.6614 11.8017C10.8964 11.1913 11.3116 10.8045 11.6529 10.6504L7.53928 1.53572ZM1.62583 17.5802C4.35664 23.2833 10.3174 24.9986 15.498 24.8986L15.305 14.9005C11.9601 14.965 10.9379 13.8728 10.6452 13.2614L1.62583 17.5802ZM15.5736 24.8966C19.4532 24.763 22.2159 24.3124 24.9006 23.9705C27.5563 23.6324 30.5354 23.3364 35.3668 23.3874L35.4725 13.388C30.0917 13.3311 26.6459 13.6676 23.6375 14.0506C20.6582 14.43 18.5179 14.7893 15.2295 14.9025L15.5736 24.8966ZM35.387 23.3876C41.4646 23.4273 58.3925 24.6168 67.2621 25.3257L68.0589 15.3575C59.3015 14.6576 41.9728 13.4304 35.4523 13.3878L35.387 23.3876ZM67.358 25.3325C68.8179 25.421 69.6138 25.5368 70.0604 25.6528C70.4495 25.7539 70.1541 25.7508 69.7826 25.3571C69.4152 24.9678 69.427 24.6759 69.5096 25.0732C69.6042 25.5282 69.6784 26.3015 69.7173 27.719L79.7136 27.4443C79.6728 25.9617 79.5889 24.4262 79.3002 23.0377C78.9996 21.5917 78.403 19.9217 77.0554 18.4937C75.7037 17.0613 74.0562 16.3589 72.5747 15.974C71.1507 15.6041 69.5575 15.4474 67.963 15.3508L67.358 25.3325ZM69.7157 27.6356L69.7929 34.7933L79.7923 34.6855L79.7152 27.5278L69.7157 27.6356ZM74.787 29.7394C61.0276 29.7549 47.0214 29.58 33.2591 28.746L32.6542 38.7277C46.7208 39.5802 60.9652 39.7549 74.7982 39.7394L74.787 29.7394ZM33.2591 28.746C30.1067 28.555 26.8807 28.9511 24.2441 30.8024C21.4522 32.7626 20.2596 35.6754 19.8451 38.4692L29.7369 39.9366C29.8198 39.3775 29.9354 39.1068 29.9872 39.0091C30.0109 38.9644 30.0213 38.9555 30.0127 38.9654C30.0092 38.9694 30.0043 38.9745 29.9988 38.9795C29.9932 38.9845 29.9898 38.9869 29.9903 38.9866C29.9908 38.9862 29.998 38.9812 30.014 38.9725C30.0302 38.9637 30.0572 38.9503 30.0975 38.9339C30.1784 38.901 30.3157 38.855 30.5269 38.8126C30.9622 38.7252 31.6435 38.6664 32.6542 38.7277L33.2591 28.746ZM19.8402 38.5034C19.3743 41.8007 20.1 45.188 22.5904 47.765C24.9575 50.2143 28.2518 51.2343 31.5435 51.4338L32.1484 41.4521C30.3495 41.3431 29.8181 40.8539 29.7812 40.8157C29.772 40.8062 29.7625 40.8026 29.745 40.7392C29.7216 40.6545 29.6719 40.3975 29.7419 39.9024L19.8402 38.5034ZM31.4528 51.4274C40.9188 52.174 58.7966 52.9146 73.9049 52.2713L73.4795 42.2804C58.8769 42.9021 41.4183 42.1824 32.2391 41.4584L31.4528 51.4274ZM68.7312 46.6527C68.0978 51.6956 67.1213 56.931 65.9492 62.4061L75.7276 64.4995C76.9311 58.878 77.9704 53.3356 78.6532 47.899L68.7312 46.6527ZM65.9458 62.4222C65.2086 65.9221 65.8326 69.3322 67.8023 72.0611C69.7291 74.7306 72.6294 76.3181 75.7041 76.8932L77.5424 67.0636C76.5755 66.8828 76.1051 66.4778 75.9108 66.2085C75.7594 65.9988 75.5118 65.5241 75.7311 64.4834L65.9458 62.4222ZM75.8702 76.9213C82.9408 77.9986 87.7699 72.5033 89.2552 67.6026L79.685 64.7022C79.4152 65.5923 78.9139 66.2933 78.4223 66.6853C77.9861 67.0332 77.6632 67.0791 77.3764 67.0354L75.8702 76.9213ZM89.2843 67.5027C91.1359 60.9014 93.1409 47.8865 93.5797 40.6467L83.598 40.0418C83.1935 46.7165 81.2802 59.011 79.6559 64.802L89.2843 67.5027ZM93.5843 40.5576C93.987 31.1269 94.2643 23.786 93.5842 17.0234L83.6344 18.024C84.2296 23.9418 84.0031 30.5359 83.5934 40.131L93.5843 40.5576ZM93.587 17.0521C93.2677 13.682 92.2475 10.2625 89.5721 7.64417C86.917 5.04563 83.3636 3.95436 79.5352 3.62108L78.668 13.5834C81.2775 13.8106 82.2183 14.4393 82.5777 14.791C82.9169 15.123 83.4316 15.884 83.6316 17.9954L93.587 17.0521ZM79.6013 3.62727C62.2298 1.88233 34.1032 1.55528 27.0423 1.64363L27.1674 11.6428C34.0827 11.5563 61.7785 11.8873 78.6019 13.5772L79.6013 3.62727Z" fill="black"/>
</svg>
