<svg width="203" height="71" viewBox="0 0 203 71" fill="none"
  xmlns="http://www.w3.org/2000/svg">
  <g clip-path="url(#clip0)">
    <path d="M41.9245 38.4828C41.8038 37.8393 41.461 37.3406 40.93 37.0252C40.8422 36.973 40.7503 36.9345 40.6571 36.8992C40.2709 36.5839 39.8251 36.3603 39.4097 36.2773C39.2832 36.2523 39.1554 36.2391 39.0273 36.2372C38.1481 34.8794 36.8635 33.8978 35.4931 33.1518C35.4611 33.1344 35.4222 33.1161 35.3885 33.0984C35.5848 32.7621 35.344 32.414 35.0004 32.4183C34.8044 32.421 34.6216 32.5294 34.4485 32.6676C33.3996 32.2571 32.135 32.0039 31.3112 32.5997C31.3058 32.604 31.3047 32.612 31.2995 32.6161C31.0064 32.2251 30.6875 31.8841 30.3367 31.6256C30.3988 31.4656 30.4649 31.3116 30.5114 31.1244C30.8781 29.6514 31.0587 27.2703 30.8386 24.9194C30.9194 25.0144 31.0363 25.0777 31.1946 25.063C31.8568 25.0019 32.532 24.8848 33.2 24.8597C33.7131 25.4444 34.5085 25.6633 35.2489 25.4766C36.1596 25.2469 36.958 24.531 37.0771 23.4884C37.2433 22.033 35.9885 20.8685 34.9861 20.1516C34.6209 19.8907 34.2358 20.06 34.038 20.357C33.9109 20.3459 33.7802 20.3915 33.686 20.534C33.4592 20.8769 33.2335 21.2839 33.0489 21.7166C32.9608 21.6603 32.8568 21.629 32.7263 21.6664C31.9952 21.8754 31.2794 21.6848 30.545 21.5748C30.3946 21.5522 30.2913 21.6152 30.228 21.7096C29.5938 19.664 28.4862 18.0555 26.6829 17.7499C25.6645 17.5773 24.5073 17.8982 23.4624 18.1157C23.4042 17.8167 23.1247 17.6034 22.8541 17.6327C22.8272 17.5617 22.7954 17.4929 22.7726 17.4179C22.6097 16.8795 22.5218 16.317 22.3765 15.773C22.3664 15.7356 22.3347 15.7222 22.315 15.6946C22.6525 15.4805 22.9566 15.2195 23.1582 14.8735C23.6859 13.9683 23.5124 12.8718 22.9551 12.0357C22.3724 11.1616 21.2928 10.7858 20.3377 11.0144C20.0234 11.0897 19.6323 11.2507 19.3208 11.4872C18.3828 11.7269 17.6665 12.6905 17.706 13.7718C17.7509 14.9967 18.6035 15.8183 19.6338 16.1163C19.6315 16.1291 19.6248 16.1372 19.6233 16.151C19.5842 16.4896 19.5045 17.4787 19.5956 18.3376C19.2497 18.3329 18.9051 18.3302 18.5649 18.339C16.6754 18.3879 13.7509 18.605 13.2634 21.0196C13.2208 21.2307 13.2594 21.402 13.3439 21.534C13.198 22.5455 13.1187 23.8137 13.1362 25.1537C12.6311 25.2021 12.0951 25.383 11.6193 25.4796C11.5741 25.4886 11.5416 25.5111 11.5039 25.5282C11.0213 24.6819 10.215 24.03 9.36127 24.6881C9.092 24.8958 9.11429 25.3599 9.37237 25.5643C9.60304 25.7471 9.93949 25.8162 10.1425 26.0296C10.3931 26.2931 10.5067 26.6434 10.568 27.0061C10.6727 27.6255 10.6201 28.525 10.1158 28.9358C9.93298 29.0847 9.60969 28.8955 9.43824 28.8063C8.95467 28.5547 8.7872 28.2012 8.82023 27.6379C8.86357 26.8971 9.31934 26.176 9.096 25.4336C9.04592 25.2673 8.88895 25.278 8.78848 25.365C8.78632 25.3596 8.78415 25.3542 8.78199 25.3487C8.79729 25.3366 8.54548 25.4628 8.48763 25.5072C8.23118 25.7043 8.09832 26.02 7.95869 26.3142C7.64624 26.9729 7.47395 27.7897 7.59991 28.5241C7.84741 29.9688 9.7322 30.9287 10.8934 30.1459C11.434 29.7815 11.7412 29.1616 11.8876 28.4853C12.3685 28.5641 12.9622 28.5516 13.3872 28.3625C13.8013 31.0023 14.7576 33.4351 16.633 34.4024C16.132 34.5294 15.7123 34.8208 15.5591 35.5044C15.5376 35.6005 15.526 35.7046 15.508 35.8035C14.2778 35.6256 12.6665 37.5255 12.0076 38.281C10.7779 39.6911 9.69552 41.5823 9.50783 43.5532C8.41809 43.4494 7.2 43.5973 6.38049 44.347C5.05548 45.5591 5.99036 47.4675 7.04194 48.4649C7.37809 48.7838 7.93419 48.3577 7.81589 47.9256C8.42379 48.1754 8.98598 47.5057 8.59802 46.8564C8.57579 46.8193 8.5624 46.7836 8.54487 46.7494C8.59086 46.7105 8.63101 46.6679 8.61429 46.6678C9.06067 46.4176 9.5687 46.3713 10.0384 46.4105C10.4154 46.4416 10.4919 46.4668 10.7654 46.5823C11.0057 46.6837 11.0925 46.7533 11.2345 46.9591C11.1995 46.9085 11.3153 47.1958 11.2845 47.0657C11.3026 47.1422 11.3103 47.2215 11.318 47.3C11.3292 47.414 11.3266 47.2856 11.3047 47.499C11.2536 47.9974 10.9505 48.4307 11.0624 49.0009C11.0744 49.0622 11.1053 49.1117 11.129 49.1665C10.9069 49.4094 10.8662 49.7421 10.9652 50.0659C11.0075 50.2043 11.0956 50.3168 11.2078 50.3964C11.4966 50.6008 11.8618 50.6266 12.1428 50.3844C13.3356 49.3561 14.6121 47.7106 13.8156 45.9812C13.6031 45.5198 13.2871 45.1472 12.917 44.8372C13.1808 43.6838 13.783 42.7164 14.5357 41.8161C14.7832 41.5199 15.1367 41.2213 15.4934 40.9088C15.5073 40.9051 15.5194 40.8966 15.533 40.8919C15.5899 41.4038 15.6502 41.9043 15.7107 42.3675C15.9241 44.0044 16.761 44.8227 17.8496 45.2109C17.6942 45.6555 17.6695 46.201 17.6418 46.6209C17.586 47.462 17.6145 48.376 17.8102 49.195C17.8116 49.2004 17.8151 49.2041 17.8164 49.2092C16.5395 50.3993 15.7936 52.2527 17.0812 53.8039C17.1016 53.8286 17.1242 53.8416 17.1456 53.8603C17.1514 53.8668 17.154 53.8748 17.1599 53.881C17.169 53.8905 17.1781 53.8996 17.1871 53.9089C17.1948 53.9166 17.2041 53.9125 17.212 53.9188C17.2151 53.9206 17.218 53.9206 17.2211 53.9223C17.2589 53.9477 17.2976 53.9687 17.3384 53.9687C17.7459 53.9703 18.1879 54.113 18.6469 54.0847C19.5108 54.0314 20.3689 53.9245 21.226 53.8013C22.3483 53.6403 23.8917 53.7093 24.8973 53.1001C25.0476 53.0091 25.1533 52.8873 25.2168 52.7526C25.4599 52.5971 25.6398 52.3219 25.6029 51.9746C25.4591 50.6167 24.8822 49.5873 24.068 48.8968C24.0903 48.8501 24.1233 48.8127 24.1345 48.7584C24.2386 48.252 23.9965 47.5679 23.8874 47.077C23.7568 46.4901 23.6207 45.897 23.5351 45.3004C24.1961 45.2836 24.9259 45.2904 25.6909 45.2861C25.2518 46.5325 25.4221 48.1763 25.9791 49.3217C26.016 49.3976 26.0651 49.4552 26.1196 49.5029C26.0134 49.6805 25.9053 49.8573 25.828 50.0542C25.6506 50.5072 25.6497 50.9932 25.81 51.4485C25.9891 51.9566 26.2792 51.9091 26.5753 51.9898C26.5303 52.3909 26.758 52.818 27.2077 52.6832C28.5573 52.2791 29.9351 52.2933 31.3194 52.172C32.2263 52.0928 33.3405 52.086 33.7699 51.0767C33.9029 50.764 33.7609 50.4626 33.5296 50.2937C33.5776 50.1671 33.6052 50.031 33.5823 49.8802C33.4508 49.0087 33.135 48.3578 32.7047 47.8902C32.7529 47.79 32.7847 47.6751 32.7712 47.5314C32.7233 47.0315 32.5265 44.9092 31.977 43.8203C32.656 43.2383 33.1458 42.429 33.3314 41.2917C33.5283 40.0867 33.4221 38.3912 33.0399 36.7255C33.3017 36.916 33.5679 37.1008 33.8253 37.2888C34.1902 37.5558 34.552 37.8282 34.9091 38.1075C35.1484 38.2945 35.3975 38.5825 35.6871 38.6997C35.4665 39.2136 35.362 39.7765 35.4575 40.3478C35.6744 41.646 36.8526 42.3615 38.0112 42.3189C38.1422 42.3141 38.2261 42.2298 38.2861 42.1256C38.3198 42.1323 38.3542 42.1441 38.3877 42.1497C38.9691 42.2415 39.4038 41.2913 38.8421 40.9447C38.6471 40.8246 38.4511 40.7025 38.2606 40.574C38.0552 40.4353 37.9789 40.3532 37.8958 40.2442C37.8866 40.232 37.8701 40.2039 37.8555 40.1779C37.8412 40.1463 37.8294 40.1134 37.8175 40.0808C37.8416 40.1227 37.8259 40.0105 37.8118 40.0042C37.8131 39.9949 37.8137 39.9855 37.8147 39.9762C37.8198 40.0378 37.915 39.7662 37.8933 39.7659C37.96 39.6525 38.0373 39.5464 38.1206 39.4465C38.1511 39.4167 38.2234 39.3398 38.2413 39.3226C38.3093 39.2585 38.3812 39.1999 38.4537 39.1416C38.6961 38.9464 38.5729 39.0361 38.8019 38.907C38.9455 38.8254 39.0956 38.7577 39.2472 38.6958C39.2719 38.6858 39.3833 38.6489 39.4173 38.636C39.4819 38.6193 39.5467 38.6025 39.6123 38.5886C39.6544 38.5795 39.7838 38.569 39.8699 38.5603C40.036 38.8182 40.1857 39.1117 40.3701 39.3253C40.3668 39.6432 40.4448 40.0009 40.6499 40.2353C40.8246 40.4348 41.0611 40.5233 41.306 40.4128C41.9915 40.1029 42.0529 39.1666 41.9245 38.4828ZM33.906 22.9322C33.9399 22.3985 34.1035 21.8841 34.2823 21.3841C34.7185 21.7123 35.13 22.0659 35.45 22.5292C35.5421 22.6626 35.6029 22.7806 35.6804 23.006C35.6868 23.0244 35.6873 23.0241 35.6899 23.0297C35.6905 23.0403 35.6933 23.0627 35.7016 23.1116C35.7077 23.1494 35.7125 23.1873 35.7159 23.2254C35.7179 23.2422 35.7182 23.2368 35.7196 23.2459C35.7184 23.2925 35.71 23.3382 35.7029 23.3844C35.6958 23.3979 35.6663 23.5172 35.6511 23.5542C35.6458 23.5669 35.6483 23.5637 35.6469 23.5686C35.64 23.5787 35.6374 23.5811 35.6221 23.6056C35.6054 23.632 35.5392 23.712 35.5208 23.7379C35.4877 23.7698 35.455 23.8016 35.4203 23.8311C35.3953 23.852 35.3698 23.8718 35.3437 23.8911C35.334 23.8986 35.3384 23.8959 35.3324 23.9006C35.3317 23.9012 35.3322 23.9007 35.3314 23.9012C35.2734 23.9363 35.0523 24.0238 35.0175 24.0442C34.9081 24.0728 34.7963 24.0887 34.6839 24.0965C34.709 24.0756 34.2809 24.0325 34.4713 24.0875C34.4347 24.0768 34.3996 24.0611 34.3642 24.0465C34.3467 23.9796 34.3296 23.9109 34.2894 23.8602C34.2389 23.7966 34.1825 23.7396 34.1242 23.6843C34.0768 23.6391 34.0157 23.6339 33.9594 23.6136C33.9276 23.5452 33.9612 23.6511 33.9301 23.485C33.8894 23.2696 33.895 23.1062 33.906 22.9322ZM30.4543 22.3406C31.2146 22.5393 31.9393 22.7425 32.7252 22.7696C32.6603 23.1268 32.6524 23.4847 32.7098 23.8311C32.1671 23.9529 31.6108 24.0339 31.0728 24.1483C30.927 24.1793 30.8322 24.2644 30.7769 24.3694C30.6915 23.6688 30.5755 22.9753 30.4082 22.3183C30.4245 22.3249 30.4365 22.336 30.4543 22.3406ZM13.2271 27.0669C13.1183 27.0828 13.0116 27.1288 12.9213 27.2163C12.6883 27.4424 12.3321 27.491 11.9918 27.4832C11.9921 27.2034 11.974 26.9285 11.9336 26.6748C11.9289 26.6455 11.9167 26.6125 11.9108 26.5825C12.3207 26.5516 12.7735 26.5523 13.1923 26.4819C13.2053 26.6776 13.2092 26.8709 13.2271 27.0669ZM12.0151 44.2534C11.5075 44.0012 10.963 43.8237 10.4414 43.7049C10.5945 43.0685 10.8598 42.4649 11.1645 41.8803C11.3755 41.9286 11.5785 42.0057 11.7737 42.1326C12.0318 42.3008 12.2401 42.5296 12.4962 42.6868C12.2685 43.1851 12.101 43.7092 12.0151 44.2534ZM13.3633 41.2516C13.2246 41.4342 13.0983 41.6255 12.9756 41.8189C12.7136 41.5751 12.3645 41.4043 12.0652 41.2482C11.918 41.1715 11.7601 41.1404 11.6042 41.1003C11.9708 40.5123 12.3718 39.9508 12.7781 39.4311C13.2246 39.532 13.6556 39.6764 14.0511 39.9314C14.1388 39.9878 14.2188 40.0607 14.2979 40.1357C13.9727 40.4945 13.6581 40.8646 13.3633 41.2516ZM15.3759 39.0052C15.2594 39.1179 15.1514 39.2332 15.0407 39.3492C14.9113 39.2688 14.7777 39.1949 14.6476 39.1232C14.2696 38.9152 13.8506 38.791 13.4266 38.7124C13.8165 38.3099 14.2271 37.9312 14.6741 37.603C14.8788 37.4526 15.1186 37.3589 15.3497 37.2558C15.3262 37.8254 15.3443 38.4148 15.3759 39.0052ZM18.9658 13.8373C18.8929 13.448 19.0068 13.1135 19.1937 12.8115C19.4335 12.8814 19.7362 12.8481 19.9611 12.7269C20.7051 12.326 21.5615 12.1991 22.0204 13.1365C22.5075 14.1309 21.5592 14.6615 20.7738 14.8035C20.0618 14.9324 19.1301 14.7153 18.9658 13.8373ZM21.7111 15.9938C21.7189 16.7619 21.7784 17.571 21.9173 18.3252C21.5296 18.3475 21.1394 18.3553 20.7478 18.3528C20.728 18.2419 20.7158 18.1285 20.6992 18.0309C20.6015 17.4587 20.5709 16.8664 20.5997 16.2866C20.6008 16.2667 20.5934 16.2516 20.5928 16.2326C20.9675 16.2205 21.3473 16.1277 21.7111 15.9938ZM14.5123 21.5885C14.5173 21.5826 14.5243 21.58 14.5293 21.5739C16.6083 19.063 22.2938 20.1939 25.2515 19.6691C29.6698 18.8849 29.4127 27.6168 28.9213 30.6714C28.5782 32.8025 20.0242 33.1374 18.3425 33.1439C14.4058 33.1586 14.5152 24.9564 14.5123 21.5885ZM21.0034 52.1211C20.042 52.2755 18.677 52.3233 17.7065 52.8114C17.5589 51.2182 18.7737 50.1344 20.1734 49.6249C22.0491 48.9423 23.2177 50.0159 23.8945 51.6222C22.9349 51.6415 21.8674 51.9825 21.0034 52.1211ZM22.6 47.2902C22.6785 47.5541 22.7519 47.8714 22.8459 48.178C21.8494 47.8003 20.697 47.7747 19.5718 48.1369C19.2722 48.2333 18.9701 48.3789 18.676 48.5566C18.677 48.0395 18.6855 47.5241 18.7391 47.0042C18.7908 46.5051 19.0261 45.9839 19.102 45.4822C20.1048 45.5836 21.19 45.4838 22.1579 45.3898C22.1592 45.4231 22.1489 45.45 22.1542 45.4851C22.2476 46.1014 22.4231 46.6964 22.6 47.2902ZM27.0161 51.3956C26.995 51.2842 26.9689 51.1654 26.9563 51.0998C26.9195 50.9042 27.0549 50.6766 27.1463 50.5239C27.4979 49.9366 28.1097 49.4749 28.6684 49.1435C30.0069 48.3504 31.6951 48.1474 32.0284 50.115C32.0362 50.1618 32.0528 50.2101 32.068 50.2584C30.3638 50.4184 28.4806 50.5983 27.0161 51.3956ZM26.9037 48.5311C26.7937 47.5294 26.7926 46.6274 27.0494 45.6015C27.0805 45.4766 27.0819 45.3609 27.0675 45.2525C28.3555 45.1933 29.6425 45.0281 30.7189 44.5789C30.7678 44.711 30.8198 44.8388 30.8636 44.9534C31.1286 45.6489 31.3286 46.382 31.4936 47.1178C30.4585 46.7958 29.201 47.0232 28.0719 47.6673C27.6585 47.9032 27.2621 48.1957 26.9037 48.5311ZM24.7623 43.3829C22.669 43.4392 20.2443 44.3061 18.1893 43.6353C17.2895 43.3414 16.8524 41.2719 16.8232 39.2025C16.8302 39.1752 16.8449 39.1496 16.8503 39.1215C16.8697 39.0224 16.8558 38.9317 16.8238 38.8502C16.8396 36.986 17.1835 35.2039 17.8281 34.8155C17.8386 34.8092 17.8427 34.7951 17.8522 34.7872C17.9502 34.8018 18.0386 34.8339 18.1408 34.8419C20.8592 35.0626 23.6762 34.2376 26.357 33.8477C27.4493 33.6885 28.4677 33.5355 29.2481 33.022C30.8159 34.5249 31.4121 37.4813 31.682 39.5778C32.2337 43.8637 27.3041 43.3144 24.7623 43.3829ZM32.5567 35.0842C32.3859 34.6063 32.1991 34.1412 31.9794 33.7144C32.468 33.8341 32.9603 33.9107 33.4531 34.0204C33.2598 34.4528 33.1483 34.9262 33.1277 35.403C33.1194 35.3978 33.1109 35.3929 33.1024 35.3877C32.9259 35.2795 32.7418 35.1758 32.5567 35.0842ZM34.6706 36.3184C34.5753 36.2665 34.486 36.2172 34.4123 36.1731C34.161 36.0223 33.9097 35.8713 33.6584 35.7207C33.6903 35.6786 33.7292 35.6467 33.7438 35.5821C33.8528 35.1018 34.0364 34.6692 34.286 34.2651C34.4024 34.3076 34.5189 34.3416 34.6348 34.3946C35.0269 34.574 35.3878 34.7963 35.7347 35.0372C35.74 35.0493 35.7499 35.0588 35.756 35.0706C35.7545 35.0721 35.7508 35.0765 35.7497 35.0778C35.6261 35.2234 35.4808 35.352 35.3459 35.4856C35.0969 35.7315 34.8279 35.9909 34.6706 36.3184ZM36.5865 37.3806C36.5238 37.4443 36.4643 37.5138 36.4041 37.582C36.1846 37.2429 35.7793 36.9532 35.3724 36.7099C35.7822 36.3953 36.2202 36.0838 36.5866 35.7216C36.9074 36.0184 37.2146 36.3322 37.4948 36.6787C37.1576 36.8732 36.847 37.1161 36.5865 37.3806Z" fill="#2AC1BC"/>
    <path d="M23.4077 53.6883C23.0098 53.7487 22.6025 53.7815 22.2085 53.8132C21.8636 53.841 21.5379 53.8672 21.2401 53.9098C20.5336 54.0114 19.6011 54.1354 18.6533 54.1939C18.3859 54.2105 18.1288 54.1717 17.8802 54.1344C17.6902 54.1058 17.5107 54.0786 17.3386 54.0781C17.2759 54.0779 17.2226 54.0507 17.1781 54.0219L17.1553 54.0174L17.0658 53.9324C17.0486 53.9192 17.027 53.9025 17.0056 53.8767C16.5038 53.2723 16.2712 52.5925 16.3144 51.8564C16.3683 50.9385 16.8723 49.9638 17.7004 49.1728C17.5329 48.4437 17.4777 47.5599 17.5407 46.6127L17.5468 46.517C17.5708 46.1413 17.6002 45.6814 17.7201 45.2785C16.4931 44.8061 15.8025 43.8575 15.6102 42.3825C15.5565 41.9729 15.5036 41.5379 15.4525 41.0866L15.4401 41.0974C15.1247 41.3725 14.8269 41.6325 14.6122 41.8897C13.7722 42.8942 13.2689 43.8197 13.0329 44.7952C13.4254 45.1348 13.7119 45.5073 13.9076 45.9323C14.7887 47.8454 13.2206 49.5965 12.2073 50.4703C11.9122 50.7244 11.4921 50.7287 11.1525 50.4881C11.0145 50.3902 10.9165 50.2561 10.8688 50.1001C10.7603 49.7451 10.8109 49.4029 11.0068 49.1486C10.9896 49.1124 10.9725 49.0717 10.963 49.0234C10.8872 48.6369 10.9854 48.3159 11.0806 48.0054C11.1347 47.8284 11.1859 47.661 11.2038 47.4866C11.212 47.4065 11.2181 47.3698 11.2216 47.3513L11.2169 47.3111C11.2113 47.2549 11.2062 47.2039 11.1983 47.1554C11.1606 47.1043 11.1401 47.0303 11.1318 46.9943C11.0143 46.8294 10.939 46.7733 10.7288 46.6846C10.4689 46.5749 10.4009 46.5506 10.0311 46.52C9.50996 46.4764 9.06029 46.5523 8.69621 46.7464C8.68947 46.7563 8.6817 46.7661 8.67266 46.7757C8.67624 46.7825 8.67982 46.7893 8.68406 46.7964C8.84358 47.0633 8.87206 47.3639 8.76267 47.6217C8.6223 47.9524 8.27517 48.1422 7.93378 48.0749C7.92894 48.1738 7.89885 48.272 7.84448 48.3629C7.74385 48.5312 7.57023 48.6529 7.3915 48.6801C7.23765 48.7034 7.08973 48.6564 6.97483 48.5473C6.34761 47.9524 5.61789 46.8749 5.62604 45.7968C5.63057 45.1927 5.86229 44.6767 6.31462 44.2628C6.76713 43.8487 7.3673 43.5825 8.09776 43.4715C8.50696 43.4093 8.95061 43.3969 9.41759 43.4345C9.67698 41.1003 11.0997 39.1611 11.9334 38.2054L11.9943 38.1355C12.6328 37.402 13.9615 35.8755 15.1248 35.6987C15.2275 35.6831 15.328 35.6783 15.424 35.6843C15.4251 35.6784 15.426 35.6723 15.4268 35.6664C15.4365 35.6027 15.4464 35.5388 15.4601 35.4783C15.583 34.9302 15.8791 34.5671 16.3622 34.3747C14.4609 33.231 13.6514 30.6033 13.3078 28.5111C12.9458 28.6394 12.446 28.6734 11.965 28.6077C11.7868 29.347 11.4364 29.9097 10.9479 30.2389C10.7365 30.3816 10.4967 30.4741 10.2353 30.5138C9.03395 30.6964 7.70469 29.7389 7.49974 28.5437C7.37935 27.842 7.51366 27.011 7.86803 26.264L7.90409 26.1875C8.03665 25.9053 8.17392 25.6134 8.42846 25.4175C8.47341 25.3832 8.72557 25.2456 8.76802 25.2391L8.78541 25.2365C8.88385 25.1809 8.99686 25.1808 9.07671 25.2339C9.07001 25.1928 9.0667 25.1506 9.06703 25.1079C9.06819 24.8988 9.15374 24.7132 9.30196 24.599C9.49997 24.4465 9.70579 24.353 9.91383 24.3214C10.4912 24.2337 11.0816 24.6219 11.5432 25.3894C11.5602 25.3824 11.5794 25.3761 11.6009 25.3718C11.7685 25.3376 11.9439 25.293 12.1231 25.2473C12.4211 25.1713 12.7317 25.0933 13.0333 25.0548C13.0216 23.8109 13.0938 22.5749 13.2375 21.5583C13.1474 21.3968 13.122 21.2034 13.1639 20.9963C13.4568 19.5456 14.5997 18.6883 16.6578 18.3755C17.3355 18.2725 18.001 18.2437 18.5627 18.2292C18.8552 18.2216 19.1463 18.2224 19.4826 18.2264C19.4179 17.4778 19.4693 16.6328 19.516 16.1946C18.3755 15.8289 17.6459 14.91 17.6042 13.7762C17.5641 12.6743 18.2823 11.6504 19.2782 11.3853C19.5631 11.173 19.9491 10.9949 20.3156 10.9072C21.3526 10.6596 22.4536 11.0946 23.0384 11.9718C23.6742 12.9256 23.7533 14.06 23.2451 14.932C23.074 15.2254 22.8195 15.4851 22.4686 15.723C22.4711 15.729 22.4732 15.7354 22.4751 15.7422C22.539 15.9814 22.5924 16.2263 22.644 16.4629C22.7104 16.768 22.7792 17.0835 22.8702 17.384C22.8844 17.4307 22.9024 17.4748 22.9202 17.5187L22.9208 17.5202C23.1876 17.5274 23.4375 17.7195 23.534 17.9886C23.6561 17.9627 23.7798 17.9355 23.9045 17.9083C24.2991 17.8219 24.7072 17.7326 25.113 17.6709C25.7462 17.5747 26.25 17.5654 26.6992 17.6415C28.3263 17.9172 29.5288 19.221 30.2755 21.5181C30.3562 21.4683 30.4538 21.4499 30.5594 21.466C30.6865 21.4849 30.8129 21.5063 30.9391 21.5278C31.4484 21.6141 31.9294 21.6957 32.4191 21.6213C32.5151 21.6067 32.6096 21.5862 32.7002 21.5602C32.8089 21.5292 32.9046 21.5338 32.9999 21.5703C33.1681 21.1928 33.3754 20.8144 33.6031 20.47C33.6965 20.3285 33.8334 20.2502 33.9887 20.2455C34.2472 19.9037 34.6955 19.8116 35.0426 20.06C36.5943 21.1693 37.3128 22.3273 37.1786 23.5016C37.0644 24.5031 36.3161 25.3201 35.2727 25.5833C34.4924 25.7807 33.6834 25.5417 33.1588 24.971C32.7592 24.9886 32.35 25.0388 31.9543 25.0874C31.7031 25.1183 31.4524 25.1492 31.2038 25.1719C31.1164 25.1801 31.0349 25.1687 30.9608 25.1387C31.1342 27.2508 30.9999 29.5875 30.6104 31.1527C30.57 31.3149 30.5159 31.4531 30.4632 31.5863C30.7561 31.8132 31.0366 32.1019 31.3172 32.465C32.0298 31.9965 33.0986 32.0315 34.4327 32.5441C34.5726 32.4373 34.7776 32.3113 34.9993 32.3078C35.2128 32.3051 35.4049 32.4178 35.5006 32.6018C35.5725 32.7393 35.5807 32.8966 35.527 33.0467C35.5312 33.0489 35.5352 33.051 35.5394 33.053C37.1316 33.9199 38.2909 34.926 39.0817 36.1281C39.199 36.1327 39.3155 36.1461 39.4284 36.1685C39.854 36.2535 40.3071 36.4778 40.7065 36.8008C40.7906 36.8329 40.8871 36.8731 40.9798 36.9285C41.5377 37.2601 41.8993 37.7899 42.0251 38.4608C42.1711 39.239 42.0692 40.187 41.3458 40.5133C41.2911 40.538 41.2352 40.5547 41.179 40.5633C40.9621 40.5963 40.7478 40.5062 40.5757 40.3096C40.3833 40.0901 40.2722 39.7484 40.2679 39.3666C40.1466 39.2189 40.0401 39.0408 39.937 38.8681C39.8981 38.8032 39.8591 38.738 39.8196 38.6745L39.807 38.6758C39.7467 38.6814 39.6829 38.6875 39.6457 38.6932C39.5684 38.7094 39.5048 38.7255 39.4416 38.742C39.435 38.7452 39.3999 38.7572 39.365 38.7692C39.3302 38.7809 39.2957 38.7928 39.2836 38.7978C39.1098 38.8686 38.9718 38.9338 38.8498 39.0032C38.7863 39.039 38.7493 39.0586 38.7242 39.0718C38.6806 39.0944 38.6806 39.0944 38.6034 39.1574L38.5151 39.2288C38.4448 39.2855 38.375 39.3423 38.309 39.4045C38.3013 39.4117 38.2819 39.4319 38.2603 39.4543C38.2344 39.4813 38.2059 39.5108 38.1893 39.5268C38.1172 39.6144 38.0515 39.7055 37.9949 39.7985C37.9868 39.8505 37.9645 39.9457 37.9253 40.0138C37.9319 40.0468 37.9316 40.0772 37.9312 40.09C37.9365 40.1034 37.9417 40.1163 37.9475 40.129C37.9544 40.1404 37.9671 40.1629 37.9749 40.1735C38.0456 40.2665 38.1115 40.3426 38.315 40.48C38.4932 40.6002 38.6749 40.7142 38.8928 40.8486C39.1338 40.9972 39.2459 41.2655 39.1925 41.5665C39.1169 41.9909 38.7407 42.3159 38.3733 42.2578C38.359 42.2553 38.3445 42.2522 38.3304 42.2488C38.2462 42.3631 38.1429 42.4228 38.0149 42.4282C36.8726 42.4704 35.5926 41.7757 35.3572 40.3666C35.2701 39.8444 35.3357 39.303 35.5523 38.7555C35.3768 38.6622 35.2206 38.5214 35.0687 38.3846C34.9942 38.3175 34.9214 38.252 34.8496 38.1958C34.5095 37.9297 34.1559 37.6627 33.7685 37.3792C33.634 37.2808 33.4972 37.1837 33.3596 37.0858C33.3063 37.0477 33.2529 37.0098 33.1995 36.9717C33.5334 38.5529 33.6209 40.157 33.4325 41.31C33.2611 42.3603 32.815 43.2137 32.1064 43.8481C32.4527 44.5841 32.7097 45.8112 32.871 47.4978C32.8842 47.6357 32.8692 47.7532 32.827 47.8672C33.2721 48.3754 33.5602 49.046 33.6833 49.8617C33.7027 49.9895 33.6922 50.1186 33.6516 50.2543C33.8699 50.4494 34.0097 50.7764 33.863 51.1218C33.5317 51.901 32.8243 52.102 32.2453 52.19C32.0104 52.2257 31.7724 52.2448 31.5422 52.2631L31.3282 52.2808C30.9899 52.3104 30.6521 52.3322 30.3153 52.3537C29.6878 52.3937 29.0391 52.4353 28.4089 52.5311C27.9805 52.5962 27.5969 52.6802 27.2356 52.7884C27.0064 52.8577 26.8131 52.8071 26.6684 52.6543C26.5385 52.5173 26.4652 52.3021 26.4681 52.0761C26.4447 52.0712 26.4215 52.0667 26.3984 52.0622C26.1564 52.0151 25.8822 51.9614 25.7148 51.4868C25.542 50.9953 25.5486 50.4849 25.7343 50.0107C25.8034 49.8345 25.8956 49.6744 25.9876 49.5203C25.9478 49.475 25.9151 49.4258 25.8888 49.3721C25.3074 48.1766 25.1756 46.6011 25.5464 45.3962C25.351 45.3968 25.1578 45.3971 24.9676 45.3971C24.5065 45.3976 24.0685 45.3983 23.6547 45.407C23.7331 45.9125 23.8467 46.4216 23.9566 46.9152L23.987 47.051C24.0102 47.156 24.0397 47.2699 24.0706 47.3892C24.1881 47.8434 24.3215 48.3582 24.2344 48.7818C24.2271 48.8167 24.2147 48.8459 24.2017 48.8712C25.0509 49.6238 25.5698 50.6902 25.7047 51.9618C25.7414 52.3078 25.5885 52.6304 25.2942 52.8303C25.2178 52.9785 25.0985 53.1044 24.9478 53.1954C24.5594 53.4311 24.0698 53.5876 23.4077 53.6883ZM17.2509 53.8165C17.2564 53.8186 17.2635 53.8213 17.2712 53.8261C17.2875 53.8369 17.3198 53.8587 17.3388 53.8585C17.5249 53.8593 17.7112 53.8874 17.9081 53.9167C18.147 53.9526 18.3938 53.9899 18.6414 53.9747C19.5822 53.9166 20.5098 53.7931 21.2127 53.6921C21.5163 53.6486 21.8449 53.622 22.1926 53.594C22.5834 53.5626 22.9873 53.5301 23.3787 53.4706C24.0149 53.3739 24.4816 53.2255 24.8474 53.004C24.9725 52.9283 25.0686 52.8242 25.1259 52.7025L25.1393 52.6742L25.1648 52.6579C25.2796 52.5843 25.5426 52.3717 25.5015 51.9867C25.3695 50.7397 24.852 49.7011 24.0049 48.9828L23.9387 48.9267L23.9771 48.846C23.9861 48.8271 23.9964 48.8096 24.0068 48.7918C24.0205 48.769 24.0311 48.751 24.0347 48.734C24.1106 48.364 23.9847 47.8772 23.8734 47.448C23.8418 47.3262 23.8117 47.2095 23.7877 47.1021L23.7576 46.9664C23.6376 46.428 23.5136 45.8717 23.4338 45.3166L23.4162 45.1931L23.5321 45.19C23.9823 45.1786 24.4603 45.1781 24.9664 45.1776C25.2031 45.1774 25.4446 45.1771 25.6899 45.1758L25.8389 45.1749L25.7859 45.3249C25.3814 46.4735 25.4978 48.0959 26.0692 49.2707C26.0962 49.3263 26.1324 49.3728 26.1835 49.4172L26.2548 49.4794L26.1893 49.5887C26.0876 49.7583 25.9919 49.9185 25.9219 50.0968C25.7569 50.5176 25.7511 50.9716 25.9052 51.4092C26.0314 51.7673 26.2003 51.8003 26.4339 51.8458C26.4885 51.8566 26.5442 51.8675 26.5998 51.8826L26.6869 51.9064L26.6763 52.0024C26.6545 52.1974 26.7059 52.3873 26.8104 52.4975C26.9029 52.5947 27.027 52.6221 27.1797 52.5764C27.5495 52.4658 27.9417 52.3798 28.379 52.3133C29.0173 52.2163 29.6705 52.1745 30.3018 52.1341C30.6375 52.1128 30.9735 52.0913 31.3103 52.0617L31.5259 52.0438C31.7527 52.0257 31.9871 52.007 32.2156 51.9722C32.7433 51.892 33.3863 51.7124 33.6764 51.0298C33.7953 50.7503 33.6403 50.5069 33.4717 50.3835L33.403 50.3336L33.4344 50.2509C33.4831 50.1224 33.4981 50.0097 33.4809 49.8967C33.3603 49.0973 33.0744 48.4478 32.6316 47.9668L32.5793 47.9099L32.6134 47.8388C32.6611 47.7396 32.6787 47.6452 32.6689 47.5414C32.4619 45.3762 32.1296 44.3527 31.8866 43.8718L31.8457 43.7905L31.9126 43.7332C32.629 43.1191 33.0602 42.3138 33.2302 41.2713C33.4249 40.0804 33.3165 38.3902 32.9403 36.7504L32.8765 36.4734L33.0963 36.6332C33.2207 36.7238 33.3462 36.8129 33.4712 36.9018C33.6092 37.0001 33.7469 37.0977 33.8821 37.1967C34.2713 37.4815 34.6267 37.75 34.9684 38.0172C35.0439 38.0761 35.1202 38.1449 35.1984 38.2152C35.3654 38.3655 35.5382 38.5209 35.7223 38.5955L35.8252 38.6372L35.7792 38.7445C35.5468 39.2853 35.4722 39.8177 35.5574 40.327C35.7723 41.6131 36.9522 42.2466 38.007 42.2078C38.0853 42.2043 38.144 42.1614 38.1988 42.0662L38.2354 42.003L38.3035 42.0161C38.3211 42.0195 38.3387 42.0243 38.3564 42.0288C38.3718 42.0329 38.3872 42.0374 38.4024 42.0398C38.66 42.0808 38.9359 41.8341 38.991 41.5243C39.0126 41.4025 39.0153 41.1773 38.7907 41.0386C38.5706 40.9031 38.3869 40.788 38.2057 40.6656C37.9962 40.5247 37.9102 40.436 37.8161 40.3124C37.8054 40.2983 37.7853 40.2647 37.7675 40.2337C37.7484 40.1921 37.7362 40.1591 37.724 40.1259L37.7659 40.1015L37.6992 40.071L37.7098 39.9875L37.7124 39.9875L37.7122 39.9842L37.7766 39.9782L37.7127 39.9597L37.7235 39.8732L37.7074 39.873L37.7281 39.8377L37.8348 38.9991L37.8834 39.5829C37.9309 39.5128 37.9839 39.4428 38.0431 39.3714C38.066 39.3484 38.0925 39.3208 38.117 39.2953C38.1411 39.2701 38.1634 39.2472 38.1724 39.2387C38.2428 39.1723 38.3164 39.1118 38.3912 39.052L38.4786 38.9812C38.5648 38.9112 38.5719 38.9055 38.633 38.8733C38.6569 38.8608 38.6924 38.8421 38.753 38.808C38.8827 38.7345 39.0279 38.6656 39.2096 38.5916C39.2233 38.5857 39.2624 38.5725 39.3012 38.559C39.3336 38.5479 39.3663 38.5367 39.3818 38.5308C39.4582 38.5105 39.5242 38.4936 39.591 38.4792L39.6155 38.4748C39.6552 38.4688 39.7232 38.4622 39.7875 38.456L39.9184 38.443L39.9527 38.496C40.0052 38.5779 40.0565 38.6632 40.1074 38.7487C40.2134 38.926 40.3231 39.1093 40.4437 39.2488L40.4714 39.281L40.471 39.3248C40.4675 39.6674 40.5596 39.9712 40.7231 40.1582C40.8808 40.3381 41.0776 40.3939 41.2654 40.3096C41.8754 40.0346 41.9538 39.1959 41.8238 38.5027C41.7102 37.8973 41.3839 37.419 40.88 37.1198C40.7947 37.069 40.702 37.0314 40.6225 37.0012L40.5946 36.9853C40.2172 36.6771 39.7896 36.4636 39.3903 36.3837C39.2717 36.3602 39.1489 36.3475 39.0251 36.3455L38.9726 36.3446L38.9427 36.2983C38.1711 35.1066 37.0275 34.1089 35.4462 33.2481L35.2407 33.1417L35.3011 33.0381C35.3666 32.926 35.3738 32.8088 35.3214 32.7079C35.2621 32.5943 35.1392 32.5248 35.0008 32.5266C34.8517 32.5277 34.7022 32.5995 34.5086 32.7542L34.4646 32.7893L34.413 32.7691C33.5349 32.4256 32.7522 32.2922 32.15 32.3838C31.8554 32.4285 31.5981 32.5272 31.3848 32.6768L31.3835 32.6795L31.2814 32.7661L31.2193 32.6833C30.9091 32.2694 30.6013 31.9525 30.2783 31.7146L30.2095 31.664L30.2718 31.5048C30.3248 31.3709 30.3746 31.244 30.4119 31.0942C30.8097 29.4954 30.9371 27.0753 30.736 24.9286L30.7152 24.7061L30.7147 24.7071L30.6751 24.3815C30.5809 23.6085 30.4613 22.9425 30.3092 22.3451L30.2562 22.1364L30.444 22.2136C30.4551 22.2181 30.4653 22.2236 30.4752 22.2295L30.6294 22.2715C31.3369 22.4572 32.0049 22.6326 32.7278 22.6575L32.8479 22.6617L32.825 22.7886C32.761 23.1406 32.756 23.484 32.8099 23.8096L32.8273 23.9147L32.7304 23.9365C32.4349 24.0028 32.1322 24.0577 31.8394 24.1108C31.5886 24.1563 31.3387 24.2016 31.0923 24.2539C30.9886 24.2761 30.9121 24.3324 30.8652 24.4217L30.7462 24.6474L30.913 24.8433C30.9828 24.9252 31.0743 24.9618 31.1849 24.9514C31.4317 24.9288 31.6805 24.8981 31.9297 24.8675C32.3445 24.8165 32.7733 24.7637 33.1957 24.7479L33.2418 24.746L33.2737 24.7823C33.7476 25.3223 34.4987 25.5506 35.2249 25.3676C36.1843 25.1256 36.8712 24.3819 36.9752 23.473C37.0991 22.388 36.4106 21.3009 34.929 20.2414C34.6527 20.0437 34.3106 20.1335 34.1204 20.4193L34.0869 20.4697L34.0295 20.4647C33.9216 20.4555 33.8322 20.4998 33.7686 20.5958C33.5281 20.9597 33.3111 21.3625 33.1411 21.7605L33.0939 21.8714L32.9961 21.809C32.9154 21.7573 32.8414 21.7448 32.752 21.7706C32.6534 21.7987 32.5507 21.821 32.447 21.8367C31.9272 21.9157 31.4084 21.8278 30.9067 21.7428C30.7818 21.7216 30.6565 21.7004 30.5307 21.6816C30.4345 21.6671 30.3605 21.697 30.3104 21.7719L30.1938 21.9456L30.1305 21.7422C29.4144 19.4319 28.249 18.1244 26.6666 17.8563C26.2383 17.7837 25.7533 17.7932 25.1409 17.8863C24.7412 17.9471 24.3363 18.0357 23.9447 18.1214C23.7885 18.1556 23.6338 18.1896 23.4815 18.2214L23.3827 18.2419L23.3621 18.1358C23.3158 17.897 23.0876 17.7156 22.8643 17.7398L22.7883 17.748L22.7325 17.6041C22.712 17.5537 22.6914 17.5029 22.6753 17.4493C22.5815 17.1402 22.5117 16.8202 22.4442 16.5104C22.393 16.2763 22.3403 16.0343 22.2779 15.8008C22.2585 15.7889 22.245 15.7754 22.2336 15.7594L22.1628 15.6606L22.2625 15.5975C22.6373 15.3598 22.9017 15.103 23.0711 14.8126C23.5346 14.0175 23.458 12.9771 22.8715 12.0973C22.3337 11.2905 21.3189 10.8911 20.3591 11.1193C20.0109 11.2027 19.6445 11.373 19.3789 11.5745L19.345 11.5941C18.4323 11.8272 17.7718 12.7618 17.8085 13.7676C17.8551 15.0395 18.7957 15.7597 19.6607 16.01L19.7523 16.0365L19.7229 16.176C19.6755 16.5952 19.6138 17.5351 19.6976 18.3252L19.7107 18.4489L19.595 18.4474C19.2117 18.4421 18.8902 18.4404 18.5681 18.4487C18.0123 18.4632 17.3542 18.4915 16.687 18.5929C14.7235 18.8913 13.6363 19.6928 13.3637 21.043C13.3304 21.2082 13.3521 21.3521 13.4285 21.4713L13.4517 21.5074L13.4454 21.5505C13.2954 22.5902 13.2221 23.8692 13.239 25.1519L13.2404 25.2538L13.1461 25.2628C12.8269 25.2931 12.4928 25.3788 12.1707 25.4606C11.9886 25.5069 11.81 25.5525 11.6391 25.5871C11.62 25.5909 11.6026 25.5998 11.5808 25.6111L11.4634 25.6656L11.4177 25.585C11.2171 25.2335 10.6722 24.4276 9.94319 24.5384C9.76791 24.565 9.59252 24.6454 9.42146 24.7771C9.32698 24.8501 9.27225 24.971 9.27174 25.1088C9.27102 25.2575 9.33147 25.3947 9.43352 25.4753C9.52619 25.5489 9.64023 25.6033 9.76091 25.6612C9.92165 25.738 10.0879 25.8176 10.2144 25.9507C10.4466 26.1948 10.5911 26.5237 10.6692 26.9862C10.7815 27.6498 10.7201 28.5817 10.1783 29.0232C10.1308 29.0619 10.0746 29.0862 10.0111 29.0959C9.8134 29.1259 9.58388 29.0047 9.43198 28.9245L9.39472 28.9048C8.88435 28.6393 8.68228 28.2583 8.71894 27.6304C8.73603 27.3375 8.81459 27.0493 8.89048 26.7706C9.01279 26.3208 9.12848 25.8957 8.99949 25.4669C8.97776 25.3947 8.91012 25.4009 8.85313 25.4503L8.74732 25.5421L8.72826 25.4932C8.66391 25.5274 8.57402 25.576 8.54742 25.5962C8.33384 25.7604 8.20818 26.0278 8.08672 26.2863L8.05017 26.3638C7.71576 27.0684 7.58851 27.8484 7.70088 28.5036C7.88737 29.5921 9.10513 30.463 10.2068 30.2956C10.4399 30.2602 10.6528 30.1783 10.8399 30.0521C11.4247 29.6579 11.6786 28.9683 11.7888 28.4597L11.8102 28.3607L11.9034 28.3761C12.4288 28.4624 12.9907 28.4198 13.3487 28.2604L13.4671 28.2077L13.4884 28.3439C13.8243 30.4853 14.6502 33.2573 16.6776 34.303L16.939 34.4376L16.6572 34.5091C16.1007 34.6501 15.7835 34.9743 15.6591 35.5298C15.6467 35.5854 15.6377 35.6439 15.6288 35.7023C15.6225 35.7434 15.6161 35.7842 15.6089 35.8246L15.5903 35.9258L15.4951 35.912C15.3882 35.8965 15.2735 35.898 15.1538 35.9162C14.0617 36.0822 12.7661 37.5705 12.1435 38.2858L12.0826 38.3555C11.254 39.3058 9.8308 41.2464 9.61006 43.5641L9.59979 43.6718L9.49974 43.6623C9.01177 43.6157 8.54976 43.6248 8.12701 43.6891C7.43537 43.7942 6.87028 44.0436 6.44736 44.4303C6.04212 44.801 5.83475 45.2612 5.83066 45.7986C5.82302 46.8027 6.51517 47.8176 7.11008 48.3819C7.19879 48.4662 7.2967 48.4719 7.36301 48.4619C7.48472 48.4434 7.60355 48.3596 7.67312 48.2433C7.71195 48.1783 7.75136 48.0757 7.71858 47.9559L7.66028 47.7431L7.85287 47.8222C8.14406 47.9419 8.45935 47.8075 8.57721 47.5296C8.65832 47.3385 8.6354 47.1203 8.51292 46.9151C8.49678 46.8882 8.4844 46.8617 8.47253 46.8359L8.44227 46.7741L8.20972 46.7702L8.56798 46.5693C8.97192 46.3429 9.47136 46.2519 10.047 46.3001C10.4269 46.3314 10.5164 46.358 10.8035 46.4792C11.0624 46.5884 11.1633 46.6697 11.3172 46.8926L11.3172 46.8928C11.3172 46.8928 11.3172 46.8928 11.3172 46.893L11.2465 46.9495L11.3287 46.9344C11.3333 46.9525 11.3591 47.0164 11.3679 47.0315L11.3414 47.0495L11.384 47.0377C11.3842 47.0392 11.3846 47.0407 11.385 47.0422C11.3855 47.0445 11.386 47.0467 11.3866 47.0491C11.4042 47.1277 11.4121 47.206 11.4194 47.2815L11.4251 47.3304L11.4279 47.3521L11.4227 47.3907C11.4207 47.3999 11.4157 47.4228 11.4068 47.5103C11.3866 47.7078 11.3296 47.8939 11.2744 48.0737C11.1839 48.3697 11.0984 48.649 11.1627 48.9775C11.1685 49.0068 11.1826 49.0357 11.1988 49.0695C11.2068 49.0858 11.2147 49.1021 11.2219 49.119L11.2521 49.1882L11.2024 49.2426C11.0185 49.4438 10.9689 49.7238 11.0626 50.0307C11.0957 50.1391 11.1655 50.2333 11.2644 50.3036C11.5307 50.4923 11.8518 50.4939 12.0792 50.2975C13.0446 49.4652 14.5419 47.8038 13.7245 46.029C13.534 45.6156 13.2495 45.2537 12.8547 44.9231L12.8023 44.8793L12.8181 44.8101C13.0554 43.7726 13.5771 42.7977 14.46 41.7416C14.6854 41.4719 14.9893 41.2066 15.3112 40.9258L15.5021 40.7864L15.62 40.7458L15.6347 40.8782C15.6919 41.3927 15.7516 41.8886 15.8121 42.3514C15.9975 43.7743 16.6745 44.6752 17.8818 45.1053L17.9828 45.1413L17.9455 45.2485C17.807 45.6446 17.7754 46.1364 17.7502 46.5316L17.744 46.6278C17.6814 47.5678 17.7377 48.4412 17.9065 49.1544L17.9154 49.1799L17.9319 49.2465L17.8836 49.2913C17.0672 50.0521 16.5694 50.9919 16.518 51.8696C16.4784 52.5448 16.6935 53.1708 17.1578 53.7296C17.1641 53.7373 17.1726 53.7438 17.1844 53.7529L17.2509 53.8165ZM9.23621 25.5801C9.31027 26.0099 9.19669 26.4276 9.08623 26.833C9.01354 27.1002 8.93834 27.3763 8.92275 27.6447C8.89114 28.183 9.04837 28.4809 9.4832 28.7071L9.52155 28.7272C9.67856 28.8102 9.94286 28.9386 10.0546 28.8479C10.4928 28.4908 10.578 27.6752 10.468 27.0252C10.3979 26.6099 10.2718 26.3184 10.0715 26.1079C9.97113 26.0025 9.82865 25.9343 9.67781 25.8621C9.55254 25.8023 9.42284 25.7403 9.31221 25.6525C9.28501 25.6309 9.25951 25.6066 9.23621 25.5801ZM30.5541 22.4798C30.6723 22.9764 30.7696 23.5192 30.8498 24.1282C30.9088 24.0864 30.9771 24.0567 31.0535 24.0404C31.3014 23.9876 31.5534 23.9418 31.8062 23.896C32.0656 23.849 32.3326 23.8004 32.5943 23.7442C32.5581 23.463 32.5617 23.1713 32.6049 22.8741C31.9065 22.8348 31.2622 22.6657 30.5823 22.4872L30.5541 22.4798ZM17.6196 52.9765L17.6053 52.8219C17.4718 51.3811 18.4197 50.1471 20.141 49.5206C21.8238 48.9077 23.1678 49.631 23.9878 51.5767L24.0519 51.7288L23.897 51.7319C23.6708 51.7366 23.4249 51.7595 23.1448 51.8021C22.7555 51.8613 22.361 51.9492 21.9798 52.0344C21.6406 52.11 21.3203 52.1815 21.0192 52.23L20.9431 52.2418C20.7302 52.2741 20.4996 52.3023 20.2591 52.3315C19.9991 52.3633 19.7277 52.3961 19.4547 52.4376C18.699 52.5524 18.1735 52.6985 17.7504 52.9113L17.6196 52.9765ZM20.8655 49.5566C20.6545 49.5886 20.4326 49.6466 20.2065 49.7289C18.6443 50.2975 17.7554 51.3811 17.7987 52.6473C18.2162 52.4595 18.7263 52.326 19.4257 52.2197C19.7004 52.1779 19.9738 52.1448 20.2357 52.113C20.4742 52.0838 20.7029 52.056 20.914 52.0239L20.9886 52.0123C21.284 51.9648 21.6015 51.8941 21.9379 51.819C22.3223 51.7332 22.7199 51.6444 23.1158 51.5842C23.3414 51.5499 23.546 51.5279 23.7369 51.5178C23.0667 50.0286 22.1014 49.3687 20.8655 49.5566ZM26.9434 51.5588L26.9165 51.4176C26.9044 51.3548 26.8911 51.2896 26.8793 51.2334L26.8567 51.1218C26.8116 50.8812 26.9615 50.6304 27.0608 50.4645C27.3643 49.9575 27.8887 49.4807 28.6194 49.0474C29.1151 48.754 29.6174 48.5622 30.0729 48.4929C31.195 48.3224 31.9252 48.8914 32.1291 50.0957C32.1351 50.1316 32.1472 50.1682 32.1589 50.2051L32.2012 50.3379L32.0772 50.3683C31.4465 50.4275 30.7318 50.4944 30.042 50.5992C28.7774 50.7914 27.8307 51.0759 27.0625 51.494L26.9434 51.5588ZM30.1019 48.7102C29.6707 48.7757 29.1923 48.9588 28.7183 49.2398C28.0174 49.6553 27.5176 50.1075 27.2327 50.5834C27.1513 50.7197 27.0282 50.9251 27.0569 51.0778L27.0787 51.1853C27.0821 51.201 27.0855 51.2176 27.089 51.2346C27.8558 50.8393 28.7899 50.567 30.0137 50.381C30.6631 50.2823 31.3322 50.217 31.9335 50.1605C31.9317 50.1514 31.9299 50.1428 31.9284 50.134C31.696 48.7633 30.8069 48.603 30.1019 48.7102ZM26.8253 48.7507L26.8025 48.5441C26.6753 47.385 26.7197 46.4966 26.9509 45.5729C26.9756 45.4745 26.9805 45.375 26.9664 45.2683L26.9505 45.1481L27.063 45.143C28.6379 45.0711 29.761 44.8613 30.6821 44.4768L30.7763 44.4376L30.8138 44.5387C30.8434 44.6188 30.874 44.6973 30.9035 44.7721L30.9579 44.9121C31.1967 45.5388 31.4044 46.2521 31.5929 47.0924L31.6339 47.2761L31.4652 47.2235C30.9883 47.0753 30.4592 47.0435 29.893 47.1296C29.3044 47.2191 28.6913 47.4386 28.1198 47.7646C27.7099 47.9984 27.3235 48.2843 26.971 48.6142L26.8253 48.7507ZM27.1783 45.3573C27.1807 45.4505 27.1708 45.5404 27.1484 45.6302C26.9378 46.4706 26.8875 47.2833 26.9847 48.3143C27.3081 48.0295 27.657 47.7799 28.0242 47.5702C28.6163 47.2326 29.2523 47.0049 29.8643 46.9119C30.394 46.8314 30.8943 46.8493 31.3539 46.9651C31.1789 46.2124 30.9871 45.5666 30.7697 44.9952L30.7159 44.857C30.6983 44.8124 30.6804 44.7664 30.6625 44.7199C29.7574 45.0804 28.6681 45.2821 27.1783 45.3573ZM23.0082 48.3559L22.8123 48.2815C21.829 47.9086 20.6816 47.894 19.6014 48.2421C19.3231 48.3317 19.0287 48.4697 18.7264 48.6525L18.5739 48.7449L18.5743 48.5563C18.5754 47.9763 18.5868 47.4882 18.6378 46.9919C18.6666 46.7141 18.7497 46.4305 18.8303 46.1564C18.8977 45.927 18.9673 45.6894 19.0014 45.4642L19.0166 45.363L19.1115 45.3726C20.1327 45.4757 21.2506 45.3671 22.1486 45.2801L22.2551 45.2697L22.2598 45.3847C22.2608 45.4059 22.259 45.425 22.2566 45.4442C22.2553 45.4549 22.2543 45.463 22.2551 45.4673C22.3489 46.0869 22.5261 46.6816 22.6974 47.2567C22.733 47.3764 22.7677 47.507 22.8036 47.6426C22.8466 47.8059 22.8917 47.9763 22.9432 48.1439L23.0082 48.3559ZM20.4003 47.8291C21.1858 47.7097 21.9727 47.7711 22.6893 48.0068C22.6607 47.9044 22.6335 47.8019 22.6071 47.7024C22.5719 47.5692 22.538 47.4409 22.5031 47.3236C22.3384 46.7701 22.1515 46.1427 22.0549 45.51C21.1962 45.593 20.1569 45.6863 19.1858 45.6003C19.1466 45.8085 19.0849 46.0187 19.0249 46.2228C18.9475 46.4868 18.8674 46.76 18.8409 47.0163C18.7962 47.4495 18.7825 47.8784 18.7791 48.3715C19.0414 48.2244 19.2977 48.1101 19.5428 48.0314C19.8247 47.9408 20.113 47.8727 20.4003 47.8291ZM28.5768 43.3415C27.6234 43.4864 26.6049 43.4859 25.7062 43.4855C25.3696 43.4854 25.0522 43.4852 24.7653 43.493C24.0612 43.5121 23.332 43.6216 22.5599 43.7374C21.075 43.9604 19.5395 44.1911 18.1601 43.7405C17.1406 43.4076 16.7478 41.0887 16.7213 39.2042L16.7249 39.1739C16.7293 39.1568 16.7355 39.1398 16.742 39.1233C16.745 39.1155 16.7488 39.1081 16.7504 39.0996C16.764 39.03 16.7574 38.9626 16.73 38.893L16.7218 38.8719L16.7221 38.8489C16.7358 37.2396 17.0171 35.2019 17.7643 34.7281C17.7704 34.7196 17.7786 34.7097 17.7895 34.7003L17.8236 34.6718L17.8666 34.6784C17.9104 34.685 17.9527 34.6946 17.9946 34.7044C18.0444 34.7162 18.0945 34.7281 18.1487 34.7323C19.1984 34.8175 20.3656 34.754 21.8225 34.5326C22.5566 34.421 23.301 34.2804 24.0208 34.1443C24.728 34.0106 25.4592 33.8724 26.1678 33.7647L26.3436 33.7386C26.4749 33.7196 26.6054 33.7004 26.7344 33.6808C27.6009 33.5491 28.5045 33.3827 29.1952 32.9281L29.2597 32.8857L29.3164 32.9399C30.5385 34.1115 31.3687 36.3399 31.7835 39.5628C32.063 41.7347 31.0143 42.971 28.5768 43.3415ZM16.9259 39.2197C16.9557 41.168 17.3666 43.2515 18.219 43.5299C19.5555 43.9662 21.0683 43.7391 22.5314 43.5192C23.3094 43.4025 24.044 43.2922 24.7598 43.2727C25.0482 43.265 25.3675 43.2652 25.7059 43.2652C26.5978 43.2656 27.6089 43.2663 28.548 43.1235C30.8817 42.7688 31.8457 41.6465 31.5812 39.5922C31.1796 36.4721 30.3907 34.3079 29.2359 33.1576C28.5222 33.6023 27.6241 33.7674 26.7632 33.8983C26.6338 33.9179 26.5031 33.9371 26.3712 33.9563L26.1966 33.9822C25.4914 34.0894 24.7619 34.2273 24.0562 34.3606C23.3349 34.4969 22.5888 34.638 21.8513 34.7501C20.3794 34.9738 19.1981 35.0377 18.1337 34.9511C18.0697 34.9462 18.0106 34.9325 17.9516 34.9186C17.9299 34.9137 17.9084 34.9085 17.8866 34.9041L17.879 34.9108C17.3284 35.2428 16.9463 36.8159 16.9268 38.8292C16.9634 38.9331 16.9715 39.0389 16.9508 39.1442C16.9466 39.1659 16.9388 39.1878 16.9304 39.2088C16.9287 39.2126 16.9273 39.2162 16.9259 39.2197ZM12.0938 44.4136L11.9728 44.3534C11.5112 44.1239 10.989 43.9421 10.4207 43.8126L10.3161 43.7888L10.343 43.6774C10.4785 43.114 10.7114 42.5257 11.0759 41.8267L11.1127 41.7562L11.1861 41.7731C11.4275 41.8283 11.6372 41.9152 11.827 42.0387C11.9557 42.1227 12.0715 42.2201 12.1839 42.3145C12.3053 42.4169 12.4202 42.5136 12.5473 42.5915L12.6308 42.6428L12.5884 42.7356C12.3557 43.2454 12.1968 43.7621 12.1163 44.2722L12.0938 44.4136ZM10.5683 43.6221C11.0628 43.7415 11.5228 43.9003 11.9385 44.0956C12.0222 43.6407 12.1651 43.1819 12.3642 42.7288C12.2559 42.6545 12.1554 42.5698 12.0577 42.4874C11.9504 42.3971 11.8392 42.3034 11.7212 42.2267C11.5706 42.1286 11.4049 42.0563 11.2168 42.006C10.9057 42.6114 10.6976 43.1296 10.5683 43.6221ZM12.996 41.9825L12.9093 41.902C12.6801 41.6888 12.3721 41.5291 12.1003 41.388L12.0211 41.347C11.9085 41.2882 11.787 41.2582 11.6584 41.2265L11.4377 41.1705L11.5197 41.039C11.8641 40.4863 12.2612 39.9216 12.7002 39.3601L12.7395 39.3099L12.7993 39.3237C13.3327 39.444 13.7474 39.6073 14.104 39.8372C14.2014 39.8999 14.2866 39.9784 14.3657 40.0532L14.4463 40.1298L14.3713 40.2123C14.0168 40.6037 13.713 40.9664 13.4426 41.3213C13.297 41.5128 13.1676 41.7115 13.0603 41.8808L12.996 41.9825ZM11.7725 41.0294C11.8848 41.0581 11.9992 41.0916 12.11 41.1494L12.1888 41.1903C12.4397 41.3205 12.7203 41.4657 12.9546 41.6588C13.0509 41.5094 13.1618 41.3437 13.2847 41.182C13.5395 40.8477 13.8229 40.507 14.1494 40.1429C14.1015 40.1 14.0515 40.0594 13.9992 40.0256C13.6761 39.8174 13.299 39.6661 12.8174 39.5526C12.4334 40.0462 12.0825 40.5422 11.7725 41.0294ZM36.3925 37.7556L36.3209 37.6448C36.1464 37.3749 35.8293 37.1084 35.3234 36.8059L35.1818 36.7213L35.5465 36.4431C35.88 36.191 36.2249 35.93 36.518 35.6405L36.5848 35.5747L36.6536 35.6381C37.0161 35.9735 37.3167 36.2902 37.5724 36.6065L37.6565 36.7103L37.5437 36.7754C37.2223 36.9604 36.9159 37.1975 36.6572 37.4605C36.6063 37.5122 36.5574 37.568 36.5087 37.6236L36.3925 37.7556ZM35.563 36.7002C35.9572 36.9481 36.2324 37.1786 36.4127 37.4128C36.4468 37.3745 36.4814 37.3366 36.5166 37.3006C36.7579 37.0554 37.0387 36.832 37.3345 36.6489C37.1205 36.3942 36.875 36.1373 36.5886 35.8683C36.302 36.1409 35.978 36.3858 35.664 36.6234L35.563 36.7002ZM15.0571 39.486L14.9902 39.4444C14.8623 39.3648 14.7303 39.292 14.6017 39.2212C14.2711 39.0391 13.8813 38.9083 13.41 38.8211L13.2104 38.7839L13.3565 38.6332C13.7968 38.1785 14.2092 37.812 14.617 37.5124C14.7991 37.3783 15.0052 37.2884 15.2047 37.2014L15.4597 37.0883L15.4525 37.261C15.4324 37.7491 15.4403 38.2851 15.4785 38.9989L15.4814 39.0515L15.445 39.0868C15.3466 39.1817 15.2547 39.2787 15.1616 39.3764L15.0571 39.486ZM13.6426 38.6445C14.0474 38.7345 14.3929 38.8596 14.6942 39.0255C14.8034 39.0857 14.9149 39.1474 15.0243 39.2131C15.1055 39.1275 15.1865 39.0426 15.2713 38.9588C15.2394 38.3445 15.2299 37.8603 15.242 37.4225C15.065 37.5 14.8847 37.5818 14.7319 37.6941C14.3785 37.9537 14.0206 38.2657 13.6426 38.6445ZM34.7152 36.4655L34.625 36.4164C34.5283 36.3638 34.4379 36.3138 34.3631 36.269L33.5025 35.7529L33.5794 35.6512C33.588 35.6399 33.5969 35.6292 33.6058 35.6188C33.6286 35.5916 33.6398 35.5774 33.6447 35.5558C33.7536 35.076 33.9355 34.6337 34.2009 34.2041L34.2444 34.1339L34.3188 34.161C34.3543 34.1741 34.3897 34.1862 34.4254 34.1984C34.5086 34.227 34.5918 34.2555 34.6746 34.2935C35.0285 34.4556 35.3828 34.6625 35.7898 34.9448L35.8145 34.9619L35.8831 35.089L35.8281 35.1482C35.7328 35.2604 35.6298 35.3591 35.5302 35.4547C35.4914 35.4919 35.4526 35.5289 35.4147 35.5666L35.3885 35.5926C35.1505 35.8277 34.9048 36.0705 34.761 36.3691L34.7152 36.4655ZM33.8134 35.6878L34.4622 36.0769C34.512 36.1067 34.569 36.1389 34.6298 36.1725C34.7911 35.8846 35.0245 35.6541 35.2508 35.4303L35.2771 35.4043C35.3158 35.366 35.3553 35.3282 35.395 35.29C35.4664 35.2216 35.5392 35.1519 35.6069 35.079C35.2405 34.8289 34.9171 34.6426 34.5955 34.4956C34.5184 34.4603 34.4413 34.434 34.364 34.4076C34.3523 34.4036 34.3409 34.3995 34.3292 34.3955C34.1001 34.7817 33.9407 35.1792 33.8434 35.6078C33.836 35.6391 33.8255 35.6653 33.8134 35.6878ZM33.2222 35.5889L33.0768 35.4975L33.0995 35.401L33.0956 35.4007L33.0522 35.4828C32.8668 35.3693 32.6858 35.2687 32.5143 35.1839L32.4766 35.1652L32.4616 35.1236C32.2647 34.5734 32.0833 34.1424 31.8905 33.7675L31.7799 33.5526L32.0022 33.607C32.2787 33.6745 32.5626 33.7297 32.8369 33.7826C33.049 33.8237 33.2615 33.8649 33.4742 33.9123L33.6024 33.9408L33.546 34.0677C33.3593 34.4852 33.2504 34.9486 33.2304 35.4078L33.2222 35.5889ZM32.6372 35.0031C32.7667 35.0683 32.9006 35.1419 33.0377 35.2225C33.0719 34.8387 33.1639 34.4561 33.3069 34.1005C33.138 34.0647 32.9693 34.0319 32.8008 33.9993C32.5948 33.9593 32.3836 33.9186 32.1734 33.8717C32.3283 34.1955 32.4782 34.5614 32.6372 35.0031ZM24.3007 32.7904C21.8617 33.1611 19.1733 33.2503 18.3432 33.2537C17.5897 33.2565 16.9344 32.9648 16.3956 32.3866C14.4103 30.2566 14.4103 24.8019 14.4103 21.8716L14.4101 21.5465L14.464 21.4896C15.1284 20.6849 16.2349 20.17 17.8356 19.9267C19.1119 19.7327 20.5132 19.7301 21.8685 19.7277C23.1303 19.7256 24.3184 19.724 25.2348 19.5605L25.3218 19.5462C26.2651 19.4028 27.0591 19.681 27.6821 20.3727C28.7609 21.571 29.121 23.8084 29.233 25.4741C29.3696 27.5063 29.2047 29.5541 29.0219 30.6903C28.8707 31.6305 27.2822 32.3372 24.3007 32.7904ZM14.6147 21.6364L14.6147 21.872C14.6148 24.5641 14.6146 30.1658 16.5398 32.2312C17.0387 32.7666 17.6452 33.0366 18.3424 33.0341C19.1684 33.031 21.8442 32.9419 24.2719 32.5729C27.1151 32.1408 28.6882 31.4768 28.8209 30.6525C29.2085 28.2446 29.4043 22.6012 27.5357 20.5256C26.9608 19.8872 26.2258 19.6309 25.3508 19.7639L25.2687 19.7775C24.3361 19.9412 23.14 19.9453 21.8694 19.9477C20.5211 19.9501 19.127 19.9528 17.8648 20.1446C16.321 20.379 15.2577 20.8671 14.6147 21.6364ZM34.865 24.1871C34.8072 24.1959 34.7492 24.202 34.6909 24.206L34.3592 24.2289L34.4136 24.1833C34.4093 24.1817 34.4054 24.1803 34.4021 24.179L34.3258 24.1509L34.3256 24.148L34.28 24.1292L34.2662 24.076C34.25 24.0145 34.2363 23.9622 34.2117 23.9313C34.1617 23.8682 34.1055 23.8126 34.0567 23.7667C34.0411 23.7518 34.0175 23.7447 33.9804 23.7343C33.9624 23.7293 33.9445 23.7243 33.9269 23.7178L33.8868 23.7033L33.8727 23.673L33.8048 23.6415L33.84 23.5649C33.8381 23.5523 33.8349 23.5337 33.8298 23.5065C33.7867 23.2774 33.7929 23.1006 33.8041 22.9245C33.8403 22.3529 34.0209 21.8091 34.1871 21.3444L34.2339 21.2136L34.3408 21.2939C34.7353 21.5906 35.1852 21.9615 35.532 22.4636C35.6361 22.6143 35.7 22.7465 35.776 22.968L35.7917 23.0233C35.7923 23.0323 35.795 23.0512 35.8021 23.0919C35.8086 23.1333 35.8138 23.1739 35.8173 23.2148L35.8191 23.2255L35.8217 23.2491C35.8204 23.2926 35.8139 23.3355 35.8073 23.3787L35.7917 23.4386C35.7927 23.4385 35.7872 23.4591 35.7807 23.482C35.7694 23.5222 35.7561 23.5682 35.7468 23.5929L35.7292 23.6333L35.707 23.6667C35.6956 23.6846 35.6658 23.7231 35.6384 23.7575C35.6231 23.7771 35.6087 23.7949 35.6018 23.8048L35.5853 23.8233C35.5518 23.8555 35.5187 23.8876 35.4837 23.9174C35.4566 23.9401 35.4295 23.9611 35.4019 23.9818L35.3898 23.9918C35.3894 23.9919 35.389 23.9922 35.3886 23.9924L35.3747 24.0008C35.3296 24.0261 35.2621 24.0554 35.1739 24.0935C35.1248 24.1147 35.0814 24.1329 35.0664 24.1411L35.0419 24.1513C34.9835 24.1662 34.9244 24.178 34.865 24.1871ZM34.7043 23.9845C34.7982 23.9771 34.8922 23.9629 34.9838 23.9398C35.0076 23.928 35.0505 23.9093 35.0981 23.8889C35.158 23.8632 35.247 23.825 35.2783 23.8073C35.3122 23.7811 35.3354 23.7631 35.3582 23.7441C35.389 23.7179 35.4191 23.6887 35.4493 23.6596C35.4485 23.6593 35.4652 23.6381 35.4834 23.6149C35.505 23.5877 35.5294 23.5573 35.5383 23.5435C35.5461 23.5308 35.5511 23.5231 35.5551 23.5177C35.5563 23.5144 35.5576 23.5115 35.5586 23.5087C35.5657 23.4918 35.5761 23.4523 35.5857 23.4184C35.5944 23.3866 35.6002 23.3676 35.6046 23.354L35.6067 23.3419C35.6111 23.313 35.616 23.2843 35.6175 23.2552L35.6152 23.2396C35.6117 23.2006 35.6072 23.1653 35.6015 23.1304C35.596 23.0981 35.5929 23.076 35.591 23.0605C35.5893 23.0563 35.5873 23.051 35.585 23.0441C35.507 22.817 35.4488 22.711 35.3685 22.5948C35.0697 22.1623 34.6849 21.8282 34.3316 21.5558C34.185 21.975 34.0394 22.4511 34.0084 22.9399C33.9979 23.1065 33.9924 23.2608 34.0306 23.4635C34.0352 23.4873 34.0386 23.5074 34.0413 23.5245C34.0874 23.5375 34.1428 23.5553 34.1923 23.6024C34.2428 23.6503 34.3085 23.7151 34.3674 23.789C34.4068 23.8388 34.4288 23.896 34.445 23.9518C34.499 23.9496 34.6219 23.9497 34.7043 23.9845ZM12.3841 27.5713C12.2657 27.5893 12.1369 27.5964 11.99 27.5932L11.8899 27.5909L11.8898 27.4832C11.8901 27.1971 11.871 26.9313 11.8331 26.6934C11.8313 26.6817 11.8274 26.6694 11.8239 26.6568C11.8189 26.6394 11.8143 26.6218 11.8109 26.6053L11.7867 26.4819L11.9035 26.4733C12.0344 26.4634 12.1696 26.4566 12.3067 26.4497C12.5774 26.4363 12.8571 26.4225 13.1213 26.3823L13.2864 26.355L13.2942 26.4744C13.2995 26.5516 13.303 26.6281 13.3068 26.7048C13.3124 26.8219 13.318 26.9387 13.3288 27.0566L13.3384 27.1617L13.2411 27.1761C13.1416 27.1912 13.058 27.2321 12.9898 27.2982C12.8431 27.4407 12.6393 27.5325 12.3841 27.5713ZM12.0934 27.3738C12.4452 27.3692 12.6915 27.2916 12.853 27.1347C12.9295 27.0606 13.018 27.0085 13.1177 26.979C13.1114 26.8911 13.1072 26.8035 13.103 26.7158C13.1013 26.6796 13.0994 26.6437 13.0975 26.6076C12.8401 26.6434 12.5742 26.6565 12.3164 26.6692C12.2226 26.6739 12.1297 26.6785 12.0387 26.6841C12.0711 26.8959 12.0894 27.1275 12.0934 27.3738ZM22.0406 18.4279L21.9233 18.4347C21.554 18.4559 21.1693 18.4651 20.7477 18.4625L20.6636 18.462L20.6477 18.3731C20.6366 18.3111 20.6279 18.2484 20.6195 18.188C20.6127 18.1399 20.6063 18.0934 20.599 18.0501C20.5019 17.481 20.4678 16.8856 20.4979 16.2801C20.494 16.2658 20.4915 16.2518 20.4909 16.2363L20.4869 16.1256L20.5896 16.1223C20.9215 16.1116 21.2875 16.0331 21.6783 15.8893L21.812 15.8401L21.8136 15.9924C21.822 16.8357 21.8908 17.6132 22.0177 18.3035L22.0406 18.4279ZM20.8339 18.2431C21.1745 18.244 21.491 18.2367 21.7952 18.2216C21.687 17.5916 21.6253 16.894 21.6112 16.1446C21.2896 16.2528 20.9858 16.317 20.6996 16.3372C20.6742 16.9098 20.7077 17.4728 20.7996 18.0111C20.8073 18.0566 20.8142 18.1055 20.8213 18.156C20.8253 18.1847 20.8294 18.2138 20.8339 18.2431ZM20.7303 14.9221C19.9505 15.0406 19.0343 14.7585 18.8661 13.8589C18.7969 13.4892 18.8765 13.1264 19.109 12.7504L19.1498 12.6847L19.2206 12.7055C19.4309 12.7668 19.7183 12.7349 19.9156 12.6285C20.9068 12.0943 21.705 12.2555 22.1112 13.0854C22.2831 13.4366 22.3027 13.7621 22.1694 14.0526C21.8859 14.67 21.043 14.8665 20.7913 14.9121L20.7303 14.9221ZM19.2412 12.9358C19.0667 13.2406 19.0111 13.5217 19.066 13.8156C19.2083 14.5753 20.0135 14.8089 20.7013 14.7044L20.7567 14.6951C21.2254 14.6103 21.7946 14.3712 21.9859 13.9548C22.0886 13.7309 22.0699 13.4728 21.9302 13.1875C21.6842 12.685 21.2936 12.4706 20.7692 12.5503C20.5361 12.5857 20.2796 12.6782 20.007 12.8249C19.7866 12.9437 19.4862 12.9865 19.2412 12.9358Z" fill="#2AC1BC"/>
    <path d="M18.8096 21.3947C18.5713 21.3001 18.3702 21.3733 18.2389 21.5201C18.0103 21.3721 17.7727 21.2658 17.4439 21.2843C16.8332 21.3184 16.218 21.694 15.8305 22.1879C14.8334 23.4592 15.9691 25.7407 17.1217 26.4245C18.3105 27.1297 19.5423 26.22 20.0524 25.0448C20.6266 23.7218 20.1374 21.922 18.8096 21.3947ZM18.9164 24.4452C18.8256 24.6893 18.6733 24.8775 18.4952 25.0411C18.4738 24.9311 18.4295 24.8428 18.3725 24.7677C18.3278 24.6591 18.2896 24.5469 18.2516 24.4355C18.1803 24.2275 18.1114 24.0206 18.0808 23.8456C17.9456 23.0722 16.9507 23.1428 16.8378 23.7993C16.7356 23.5084 16.7173 23.2087 16.8917 22.9374C17.0963 22.6196 17.4125 22.5032 17.7254 22.3539C17.8296 22.3041 17.9727 22.2026 18.1142 22.1222C18.1443 22.2227 18.1917 22.3208 18.2782 22.404C18.8768 22.9806 19.2391 23.5765 18.9164 24.4452Z" fill="#2AC1BC"/>
    <path d="M18.2413 26.7622C18.2411 26.7623 18.2411 26.7623 18.2413 26.7622C17.8388 26.8234 17.4455 26.7422 17.0723 26.5206C16.2922 26.0578 15.5692 24.9282 15.3904 23.8931C15.2688 23.1881 15.3939 22.5739 15.7522 22.1168C16.1785 21.5732 16.8195 21.2095 17.4382 21.1743C17.7768 21.1553 18.0258 21.2633 18.2252 21.3843C18.3943 21.2377 18.62 21.2023 18.8446 21.2912C19.4465 21.5302 19.9216 22.0372 20.1823 22.7189C20.4732 23.4795 20.4593 24.3662 20.1445 25.0909C19.7548 25.9899 19.0076 26.6458 18.2413 26.7622ZM17.2963 21.4099C16.7907 21.4868 16.2586 21.8122 15.9084 22.2589C15.5072 22.7705 15.5145 23.4083 15.5912 23.8535C15.7598 24.8302 16.4389 25.8942 17.1706 26.3282C17.5043 26.5262 17.8547 26.5991 18.2123 26.5448C18.9121 26.4384 19.598 25.8314 19.9596 24.9982C20.2503 24.3282 20.2631 23.5077 19.9934 22.8029C19.7546 22.1789 19.3215 21.7155 18.774 21.498C18.597 21.4277 18.4295 21.4649 18.3119 21.5965L18.2554 21.6595L18.1857 21.6143C17.9928 21.4893 17.7699 21.3762 17.4487 21.3941C17.3982 21.3969 17.3473 21.4022 17.2963 21.4099ZM18.4302 25.2451L18.395 25.0635C18.3788 24.98 18.3454 24.906 18.2932 24.8373L18.279 24.8122C18.2346 24.7045 18.1966 24.5937 18.1589 24.4835C18.0812 24.2566 18.0118 24.0468 17.9804 23.8659C17.9153 23.4943 17.6202 23.3655 17.3733 23.403C17.193 23.4304 16.984 23.5543 16.9383 23.82L16.8718 24.2068L16.7424 23.8387C16.6124 23.4691 16.6344 23.1449 16.8078 22.8753C17.0045 22.5696 17.2934 22.4357 17.5728 22.306L17.6839 22.254C17.741 22.2269 17.8102 22.1829 17.8845 22.1363C17.9433 22.0993 18.005 22.0606 18.0665 22.0255L18.1743 21.9643L18.2115 22.0892C18.2412 22.1884 18.284 22.2625 18.3462 22.3224C18.8812 22.8378 19.3786 23.498 19.0113 24.4868C18.9241 24.7205 18.7813 24.9235 18.5615 25.1252L18.4302 25.2451ZM18.4604 24.7102C18.4921 24.7538 18.5189 24.799 18.5405 24.8466C18.672 24.7056 18.7625 24.5623 18.8214 24.4041C19.1231 23.5916 18.7952 23.0496 18.21 22.4857C18.1493 22.4274 18.1006 22.3588 18.0631 22.2781C18.0375 22.2938 18.0122 22.3096 17.9875 22.3254C17.9075 22.3757 17.8319 22.423 17.7667 22.4542L17.6535 22.5072C17.3889 22.63 17.139 22.7459 16.9755 23C16.8864 23.1383 16.8503 23.2939 16.8665 23.4707C16.9769 23.3191 17.1455 23.2151 17.3442 23.1849C17.695 23.1316 18.095 23.3344 18.181 23.8252C18.2096 23.9894 18.2759 24.1897 18.3472 24.3976C18.385 24.5087 18.42 24.6111 18.4604 24.7102Z" fill="#2AC1BC"/>
    <path d="M24.3217 20.2076C23.8612 20.2933 23.7893 20.8417 24.0518 21.1307C23.1822 21.6504 22.6315 22.7683 22.9617 23.8315C23.4368 25.3612 25.189 25.3776 26.3701 24.946C29.2609 23.8894 26.6016 19.7824 24.3217 20.2076ZM26.1559 23.6838C26.0503 23.7653 25.914 23.8289 25.768 23.8809C25.7466 23.6863 25.7119 23.4912 25.6864 23.2992C25.678 22.3993 24.2443 22.5608 24.3687 23.4995C24.3831 23.6083 24.3942 23.719 24.407 23.8294C24.2524 23.743 24.1216 23.6245 24.0404 23.4597C23.7087 22.7865 24.2194 22.0364 24.7029 21.6616C24.7895 21.5944 24.8327 21.5095 24.8442 21.422C25.3291 21.5611 25.7452 21.7672 26.1192 22.2316C26.486 22.6871 26.6642 23.2909 26.1559 23.6838Z" fill="#2AC1BC"/>
    <path d="M25.6028 25.2545C24.2237 25.4641 23.2002 24.945 22.8649 23.8662C22.5101 22.7233 23.1044 21.6327 23.8992 21.0997C23.7988 20.9304 23.7699 20.717 23.8274 20.525C23.8953 20.2981 24.069 20.1429 24.3041 20.099L24.3665 20.0886C25.8207 19.8676 27.3672 21.3761 27.6777 22.7725C27.9147 23.8373 27.4501 24.6673 26.4029 25.05C26.146 25.1442 25.8765 25.2129 25.6028 25.2545ZM24.3955 20.3063L24.3396 20.3157C24.1794 20.3456 24.0666 20.444 24.022 20.5927C23.9746 20.7516 24.0148 20.9325 24.1249 21.0536L24.2186 21.1567L24.1016 21.2264C23.3301 21.6875 22.7242 22.7183 23.059 23.7963C23.5054 25.2337 25.0969 25.1089 25.5741 25.0363C25.8353 24.9966 26.092 24.9312 26.3373 24.8415C27.6176 24.3735 27.6024 23.376 27.4794 22.823C27.1882 21.5153 25.7479 20.1007 24.3955 20.3063ZM25.6817 24.0275L25.6669 23.8936C25.6544 23.7789 25.6368 23.6639 25.6194 23.5495C25.6076 23.4709 25.5957 23.3923 25.5854 23.3143C25.583 23.1486 25.5351 23.0284 25.4427 22.9427C25.1501 22.6718 24.3848 22.841 24.47 23.4839C24.4803 23.5616 24.4888 23.6402 24.4976 23.7191L24.5321 24.023L24.3604 23.9269C24.1726 23.822 24.0349 23.6821 23.9503 23.5111C23.607 22.8142 24.0689 22.0176 24.6433 21.5723C24.7011 21.5275 24.7345 21.4718 24.7432 21.4063L24.7593 21.2839L24.8706 21.3156C25.2861 21.4348 25.7688 21.6284 26.1966 22.1597C26.4698 22.4988 26.6017 22.8578 26.5677 23.1708C26.5418 23.4099 26.4235 23.6127 26.2156 23.7731C26.1118 23.8535 25.976 23.9228 25.8005 23.9852L25.6817 24.0275ZM24.9479 22.6031C25.1887 22.5665 25.4177 22.6294 25.576 22.7761C25.7132 22.9032 25.7868 23.0836 25.7889 23.2981C25.7979 23.3602 25.8096 23.4373 25.8213 23.5146C25.8322 23.5866 25.8431 23.6589 25.8528 23.7312C25.9528 23.6887 26.033 23.6436 26.0969 23.5944C26.2559 23.4716 26.3462 23.3204 26.3651 23.1452C26.3919 22.8979 26.2744 22.5913 26.0428 22.3036C25.7458 21.9348 25.414 21.7141 24.9141 21.5569C24.8828 21.6318 24.8319 21.6977 24.7635 21.751C24.401 22.0322 23.8022 22.7401 24.1314 23.4083C24.1679 23.4825 24.217 23.5483 24.2798 23.6067C24.2763 23.5759 24.2725 23.5454 24.2685 23.5149C24.1957 22.9704 24.5698 22.6605 24.9479 22.6031Z" fill="#2AC1BC"/>
    <path d="M27.2709 27.5068C24.4377 27.6873 21.6181 28.2076 18.7703 28.0506C18.6232 28.0425 18.4589 28.0877 18.3732 28.2306C18.3731 28.2393 18.3728 28.248 18.3727 28.2565C18.2425 28.2014 18.1284 28.402 18.2498 28.4899C18.2638 28.5176 18.2779 28.5449 18.2919 28.5724C18.3013 28.664 18.3464 28.7362 18.3993 28.7994C17.8092 29.4268 18.4632 31.1753 18.7503 31.762C18.9274 32.1242 19.4222 31.9217 19.3386 31.5522C19.7295 31.3908 21.0286 31.2693 22.4165 31.1843C22.5276 31.4173 22.8149 31.3905 22.8861 31.1574C23.2213 31.1389 23.5535 31.123 23.877 31.1085C23.9835 31.1778 24.1119 31.1785 24.2113 31.0939C25.3222 31.0478 26.2435 31.0262 26.469 31.0281C26.7628 31.0305 26.9726 30.8756 27.0347 30.5581C27.178 29.8261 27.1237 29.1479 27.014 28.4211C27.1363 28.3961 27.2609 28.3782 27.3826 28.35C27.8835 28.2343 27.7796 27.4746 27.2709 27.5068ZM19.1717 30.9637C19.0807 30.6145 19.0137 30.26 18.993 29.89C18.976 29.5879 19.0584 29.288 19.0065 29.0054C19.2702 29.0419 19.5394 29.0563 19.8093 29.0662C19.7969 29.5773 19.9243 30.1431 20.0265 30.5986C19.6766 30.7033 19.3794 30.8233 19.1717 30.9637ZM20.5967 30.45C20.5773 30.1198 20.5545 29.7895 20.5541 29.4591C20.554 29.3263 20.5718 29.1961 20.5865 29.0655C20.9556 29.0543 21.3254 29.0305 21.6914 29.0033C21.7209 29.1656 21.7881 29.3253 21.8488 29.4864C21.9384 29.7235 22.0262 29.9613 22.1089 30.2011C21.5752 30.2669 21.0569 30.3481 20.5967 30.45ZM22.6351 29.3984C22.5989 29.2389 22.5713 29.0846 22.5314 28.9378C22.6253 28.9304 22.7224 28.9223 22.8153 28.9153C23.0793 28.8954 23.3466 28.8719 23.6122 28.8511C23.6309 28.9957 23.6657 29.1456 23.696 29.3158C23.7394 29.5577 23.7731 29.8007 23.7873 30.0437C23.4605 30.066 23.1244 30.0929 22.7868 30.1258C22.7409 29.8827 22.6899 29.6404 22.6351 29.3984ZM26.103 29.9487C25.7099 29.9531 25.1309 29.9698 24.4785 30.0037C24.4892 29.8397 24.5029 29.6769 24.5025 29.5088C24.5012 29.2676 24.52 29.0127 24.4907 28.7788C25.0238 28.7289 25.5572 28.67 26.086 28.5905C26.1262 29.0495 26.148 29.497 26.103 29.9487Z" fill="#2AC1BC"/>
    <path d="M26.5997 31.129C26.5579 31.1353 26.5139 31.1382 26.4681 31.1381C26.2431 31.1361 25.3251 31.1581 24.2457 31.2025C24.1308 31.2834 23.9802 31.2892 23.8528 31.2198C23.5586 31.2329 23.2575 31.2474 22.9535 31.2639C22.8999 31.3659 22.8073 31.436 22.699 31.4524C22.5686 31.4723 22.4425 31.4126 22.3623 31.2977C20.8424 31.3924 19.8362 31.5076 19.4498 31.6283C19.4507 31.7132 19.4287 31.7947 19.3846 31.8647C19.319 31.969 19.2118 32.0393 19.0909 32.0577C18.9119 32.0849 18.7467 31.9912 18.6596 31.8132C18.3618 31.2044 17.7354 29.5201 18.2658 28.7952C18.2337 28.745 18.2046 28.6826 18.193 28.6075L18.1702 28.5628C18.1095 28.5065 18.0833 28.4223 18.1015 28.3369C18.1241 28.2304 18.2116 28.1463 18.3088 28.1379C18.4074 28.001 18.5912 27.9307 18.7752 27.9409C20.6642 28.0451 22.576 27.8463 24.4249 27.6543C25.3549 27.5576 26.3163 27.4577 27.2645 27.3973C27.5938 27.3766 27.7765 27.6235 27.8068 27.8616C27.8369 28.0971 27.7237 28.3839 27.4041 28.4576C27.3307 28.4748 27.2562 28.4881 27.1816 28.5014C27.1647 28.5044 27.1476 28.5075 27.1307 28.5107C27.2227 29.1494 27.2796 29.8404 27.1346 30.5813C27.0739 30.891 26.884 31.0857 26.5997 31.129ZM24.1738 30.9851L24.207 30.9838C25.3028 30.9385 26.2403 30.9162 26.4695 30.918C26.7228 30.9199 26.885 30.79 26.9348 30.5353C27.0809 29.7882 27.0109 29.0859 26.9132 28.4383L26.8973 28.3328L26.9947 28.3129C27.0455 28.3025 27.0965 28.2934 27.1477 28.2843C27.219 28.2714 27.2905 28.2588 27.361 28.2425C27.5677 28.1947 27.6213 28.0233 27.6044 27.8911C27.5859 27.7453 27.4773 27.6039 27.2768 27.6166C26.3326 27.6768 25.3729 27.7765 24.4448 27.8729C22.5886 28.0658 20.6691 28.2654 18.7649 28.1603C18.7329 28.1586 18.7001 28.1598 18.6675 28.1647C18.6069 28.1739 18.5269 28.1994 18.4745 28.2673L18.4722 28.3905L18.3352 28.3587C18.3149 28.358 18.3034 28.3724 18.3004 28.386L18.3212 28.4012L18.3908 28.5388L18.3931 28.5604C18.3988 28.6146 18.4231 28.664 18.475 28.7261L18.5402 28.8041L18.471 28.8777C17.9659 29.4149 18.5017 31.0186 18.8405 31.7109C18.9073 31.8475 19.0177 31.8467 19.0622 31.8399C19.1253 31.8304 19.1827 31.7934 19.2156 31.7411C19.245 31.6942 19.2532 31.6392 19.2393 31.5781L19.218 31.484L19.3019 31.4495C19.6549 31.3037 20.7034 31.1792 22.4105 31.0745L22.477 31.0704L22.5073 31.1342C22.5484 31.2204 22.6184 31.2426 22.6701 31.2347C22.7265 31.2262 22.77 31.1854 22.789 31.123L22.8106 31.0515L22.8805 31.0475C23.216 31.029 23.5487 31.013 23.8724 30.9985L23.9032 30.9971L23.9296 31.0144C24.0021 31.0618 24.086 31.06 24.1477 31.0075L24.1738 30.9851ZM19.1101 31.1351L19.0732 30.9933C18.9682 30.5899 18.9101 30.2414 18.8908 29.8966C18.883 29.7587 18.8945 29.6242 18.9055 29.4939C18.9195 29.3288 18.9328 29.1724 18.9061 29.0266L18.8786 28.8768L19.0192 28.8963C19.2858 28.9333 19.5578 28.9471 19.8123 28.9561L19.9136 28.9598L19.911 29.069C19.8991 29.5634 20.0238 30.1199 20.124 30.5668L20.1472 30.6699L20.0535 30.7041C19.6883 30.8134 19.4097 30.9319 19.2257 31.0565L19.1101 31.1351ZM19.1234 29.1306C19.1306 29.2594 19.1196 29.3883 19.109 29.5141C19.0988 29.636 19.0879 29.7622 19.0949 29.8833C19.1111 30.1729 19.156 30.4663 19.2357 30.7973C19.4088 30.6993 19.6294 30.6085 19.9042 30.5216C19.8122 30.1094 19.7115 29.6266 19.7064 29.1721C19.5175 29.1644 19.3206 29.1528 19.1234 29.1306ZM26.1946 30.0575L26.1042 30.0583C25.6468 30.0634 25.0561 30.0835 24.4834 30.1134L24.3683 30.1194L24.3821 29.9094C24.391 29.7786 24.4003 29.6433 24.4 29.5087C24.3996 29.4375 24.4012 29.3651 24.4022 29.2921C24.4055 29.1239 24.4089 28.95 24.3891 28.7931L24.3748 28.6789L24.4812 28.6689C25.0999 28.6111 25.6051 28.5514 26.0714 28.4814L26.1772 28.4655L26.1872 28.5802C26.2231 28.9878 26.253 29.4707 26.204 29.9603L26.1946 30.0575ZM24.5884 29.8881C25.0892 29.8632 25.5962 29.8462 26.0099 29.8399C26.0407 29.4468 26.0216 29.058 25.9939 28.715C25.5803 28.775 25.1329 28.8275 24.6026 28.8785C24.6121 29.0172 24.6094 29.1591 24.6067 29.2974C24.6054 29.3683 24.604 29.4391 24.6044 29.5085C24.6046 29.638 24.5969 29.7649 24.5884 29.8881ZM23.8954 30.1464L23.7938 30.1534C23.4678 30.1756 23.1327 30.2024 22.7958 30.2354L22.7047 30.2443L22.6866 30.1476C22.6434 29.9181 22.5941 29.6815 22.5357 29.4245C22.523 29.3676 22.511 29.3115 22.4994 29.2559C22.4787 29.1574 22.4585 29.0614 22.4332 28.9686L22.3978 28.8383L22.8079 28.806C22.9572 28.7946 23.1079 28.7821 23.2585 28.7699L23.6999 28.7344L23.7132 28.8365C23.725 28.9271 23.7431 29.0196 23.7627 29.1183C23.774 29.1753 23.7853 29.2342 23.7963 29.2956C23.8456 29.571 23.8761 29.8138 23.8892 30.0374L23.8954 30.1464ZM22.8681 30.0074C23.1406 29.9817 23.4118 29.9598 23.6774 29.941C23.6623 29.757 23.6353 29.5579 23.5957 29.3363C23.5848 29.2762 23.5737 29.2186 23.5626 29.1627C23.5493 29.0955 23.5369 29.0312 23.5261 28.9682L23.2743 28.9885C23.1231 29.001 22.9723 29.0135 22.8222 29.0248L22.6616 29.0374C22.6741 29.0932 22.6864 29.1498 22.6983 29.2073C22.7098 29.2615 22.7213 29.3166 22.734 29.3724C22.7848 29.5965 22.8289 29.8053 22.8681 30.0074ZM20.5022 30.5831L20.4871 30.3309C20.4699 30.0456 20.4521 29.7508 20.4518 29.4588C20.4517 29.3384 20.4654 29.222 20.4785 29.1092L20.4956 28.958L20.5833 28.9553C20.9835 28.9431 21.3818 28.9159 21.6841 28.8935L21.7742 28.8867L21.7915 28.982C21.8145 29.1086 21.8633 29.2356 21.9149 29.3703L21.9434 29.445C22.0333 29.683 22.1215 29.9219 22.2045 30.1627L22.2498 30.2941L22.1205 30.31C21.5744 30.3772 21.0433 30.4631 20.6173 30.5574L20.5022 30.5831ZM20.677 29.1725C20.6657 29.2704 20.656 29.3642 20.656 29.459C20.6564 29.7439 20.674 30.0353 20.6909 30.317L20.6909 30.3172C21.0646 30.2391 21.509 30.1671 21.9671 30.1079C21.8984 29.9136 21.8269 29.7204 21.7539 29.5276L21.726 29.4539C21.6843 29.3452 21.6415 29.2338 21.6119 29.1192C21.3435 29.1387 21.0137 29.1604 20.677 29.1725Z" fill="#2AC1BC"/>
    <path d="M29.4627 35.1458C29.3385 34.9235 29.034 34.8354 28.8122 34.8658C28.0703 34.9684 27.3177 35.0044 26.5715 35.0507C26.2172 35.0726 25.8527 35.066 25.5019 35.1258C25.2811 35.1635 25.1226 35.2594 24.9712 35.4323C24.8996 35.514 25.0581 35.3607 25.1795 35.3555C25.1847 35.365 25.1893 35.3738 25.1947 35.383C24.947 35.4124 24.7343 35.6149 24.7717 35.9405C24.8046 36.2291 24.969 36.3911 25.1895 36.4838C24.9433 37.4473 24.8945 38.5784 25.1276 39.5444C25.204 39.861 25.3644 40.0345 25.6608 40.1112C26.3652 40.2935 27.0506 40.1416 27.7484 39.9602C28.3637 39.8003 29.2309 39.6254 29.7399 39.1905C30.2245 38.7764 30.0847 37.7427 30.0334 37.1718C29.969 36.4647 29.8039 35.7567 29.4627 35.1458ZM26.1379 38.7726C25.9664 38.3518 25.8123 37.9182 25.7367 37.4719C25.6837 37.1591 25.6362 36.8634 25.5334 36.5732C25.7915 36.6077 26.074 36.5967 26.3165 36.5834C27.0406 36.5433 27.7693 36.4983 28.4922 36.4189C28.6637 36.9129 28.7446 37.5795 28.6903 38.0761C27.9049 38.4436 26.9898 38.7359 26.1379 38.7726Z" fill="#2AC1BC"/>
    <path d="M26.904 40.2568C26.4239 40.3298 26.0213 40.3175 25.6369 40.218C25.3078 40.133 25.1144 39.9277 25.0287 39.5718C24.8087 38.6601 24.8233 37.5625 25.0681 36.5461C24.8344 36.4211 24.7008 36.2222 24.6702 35.9537C24.6436 35.7203 24.7259 35.5384 24.8566 35.421C24.8662 35.392 24.8859 35.3697 24.897 35.3569C25.067 35.1625 25.2486 35.0578 25.4856 35.0174L25.5393 35.0088C25.773 34.9732 26.0127 34.9644 26.2444 34.9556C26.3518 34.9517 26.4591 34.9476 26.5653 34.941L26.8783 34.9219C27.5106 34.8839 28.1641 34.8446 28.7989 34.7568C29.06 34.7211 29.4017 34.8237 29.5501 35.0894C29.8644 35.6524 30.0611 36.3494 30.1348 37.1614L30.1471 37.2928C30.2066 37.9151 30.2964 38.8556 29.8033 39.2767C29.3377 39.6744 28.5985 39.8594 28.0044 40.0081L27.7723 40.0669C27.4502 40.1507 27.1794 40.215 26.904 40.2568ZM25.2055 35.4921C25.0112 35.5217 24.8431 35.666 24.8729 35.9269C24.8976 36.1459 25.0101 36.29 25.2263 36.3811L25.3124 36.4171L25.2879 36.5127C25.0306 37.5188 25.0083 38.6135 25.2263 39.5165C25.2937 39.7963 25.4265 39.9373 25.6842 40.0041C26.043 40.0968 26.4213 40.1079 26.8752 40.0389C27.1423 39.9983 27.4076 39.9354 27.724 39.8531L27.9577 39.794C28.5318 39.6501 29.2465 39.4713 29.6759 39.1042C30.0815 38.7577 29.9986 37.8895 29.9438 37.3148L29.9314 37.1824C29.8605 36.4032 29.6735 35.7369 29.3747 35.2022C29.2765 35.0262 29.0181 34.9482 28.8249 34.9749C28.183 35.0636 27.5256 35.1031 26.8899 35.1415L26.5772 35.1604C26.4694 35.1672 26.3604 35.1711 26.2515 35.1752C26.0249 35.1839 25.791 35.1926 25.5678 35.2265L25.5177 35.2346C25.4275 35.2501 25.3485 35.2761 25.2756 35.316L25.3653 35.4734L25.2054 35.4926C25.2057 35.4921 25.2055 35.4921 25.2055 35.4921ZM26.6725 38.8296C26.4907 38.8572 26.3124 38.875 26.1422 38.8822L26.0725 38.8853L26.0444 38.8165C25.898 38.457 25.719 37.9814 25.636 37.4916L25.6291 37.4505C25.5796 37.1573 25.5328 36.8804 25.4379 36.6125L25.3771 36.4419L25.5455 36.4645C25.7968 36.498 26.0724 36.487 26.3109 36.4738C26.9704 36.4374 27.7365 36.3915 28.4815 36.3096L28.56 36.3012L28.5877 36.3808C28.7653 36.893 28.8471 37.5794 28.7916 38.0894L28.7848 38.1519L28.731 38.1772C28.0276 38.5062 27.3156 38.7319 26.6725 38.8296ZM26.2032 38.6591C26.9208 38.6164 27.7604 38.3842 28.5948 38.0007C28.632 37.5562 28.5651 36.9874 28.4228 36.5371C27.6983 36.6141 26.9602 36.6581 26.3218 36.6934C26.1234 36.7042 25.9001 36.7137 25.6815 36.6985C25.7492 36.9312 25.7888 37.1657 25.8302 37.4115L25.8373 37.4524C25.9109 37.8882 26.0604 38.3037 26.2032 38.6591Z" fill="#2AC1BC"/>
  </g>
  <path d="M70.5237 31.7314C70.5248 29.7314 70.447 25.3713 70.4477 24.1713C70.4479 23.6513 70.5282 23.1314 70.5284 22.6914C70.489 21.5314 69.5693 20.9708 68.8093 21.0904C68.1692 21.17 67.569 21.6896 67.6085 22.6096C67.6082 23.0496 67.728 23.5297 67.7277 24.1297L67.7251 29.1697C64.485 29.2878 62.245 29.2464 59.165 29.3245C59.2461 27.2046 59.4069 25.5647 59.5678 23.8448C59.608 23.5248 59.7282 23.2049 59.8484 22.685L60.0088 22.0451C60.1692 21.1651 59.6496 20.4048 58.7697 20.2443C57.7698 20.0037 56.9295 20.6432 56.8489 21.7231C56.8087 22.2031 56.8085 22.6431 56.8082 23.0831C56.8481 23.3231 56.8478 23.8831 56.7275 24.5231C56.2057 28.0428 56.1213 36.4427 56.3592 40.4829C56.4782 42.4029 57.0778 43.2033 58.7179 43.0443C61.918 42.7262 66.7181 42.6491 68.478 42.7702C69.838 42.851 70.2381 42.6112 70.3993 40.1713C70.5203 38.3314 70.522 35.0514 70.5237 31.7314ZM67.5597 39.4896C67.5595 39.9696 67.4394 40.1295 66.5594 40.089C63.9594 40.0074 62.8394 40.0868 59.4392 40.3647C59.1592 40.4045 59.1594 40.0845 59.1596 39.6845C59.0408 37.4045 59.0421 34.8445 59.0836 32.0445C62.0036 32.0463 64.4835 32.1278 67.7237 31.8097L67.7231 33.0097C67.7615 36.0897 67.6002 38.4896 67.5597 39.4896ZM77.3282 23.2155C77.3288 22.0155 76.5291 21.375 75.8091 21.3746C74.9691 21.3741 74.2488 21.9736 74.2882 23.1737C74.445 29.2938 73.8814 36.2934 73.8797 39.5334C73.8793 40.2534 73.6389 40.9733 73.6385 41.8133C73.638 42.8133 73.9973 44.0535 75.3973 44.0543C76.3973 44.0549 76.8378 43.0952 76.8385 41.8152C76.8398 39.2552 77.0015 35.9753 77.1636 32.0554C78.1636 32.056 79.1235 32.0966 80.5235 32.1374C80.3208 37.4573 79.998 42.7771 80.0753 48.0572C80.1144 49.6172 80.8341 50.2976 81.6741 50.2181C82.3542 50.0585 82.9945 49.4189 82.9951 48.3789C82.84 38.9788 84.2849 29.4597 83.6097 20.1793C83.5303 19.1792 82.9307 18.2989 81.8506 18.4982C80.8505 18.6976 80.65 19.6975 80.6495 20.5775C80.7281 23.4175 80.7266 26.2975 80.6451 29.1375C79.3251 29.1367 78.3651 29.1761 77.245 29.2554C77.2859 27.6155 77.3274 24.7755 77.3282 23.2155ZM99.8992 31.9491C96.2991 32.3069 94.2991 32.2657 91.0189 32.6237C90.5803 29.9435 90.5014 27.9034 90.3421 26.5433C90.2227 25.3833 90.1834 23.9432 90.1838 23.2632C92.904 22.7849 96.5841 22.6271 99.6242 22.4689C99.8624 25.9091 99.901 28.5891 99.8992 31.9491ZM100.106 19.8292C97.7455 19.9878 92.0253 20.2644 89.9052 20.5031C88.8655 19.9824 87.9854 20.1019 87.5452 20.5817C87.305 20.9015 87.2248 21.2615 87.2642 22.4615C87.3432 24.3015 87.9 30.5819 88.0994 31.702C88.2589 32.7021 88.2179 34.5021 88.6575 35.2623C88.8973 35.7025 89.2572 35.9027 89.8172 35.943C90.4572 35.9834 91.2573 35.6639 91.1376 35.0638C93.4178 34.8252 99.0579 34.5086 100.938 34.5497C102.538 34.5907 102.818 33.8709 102.699 32.1508C102.66 31.2708 102.544 22.7907 102.545 21.3907C102.545 20.1507 101.586 19.7501 100.106 19.8292ZM108.218 34.1141C108.338 35.1142 108.897 35.5945 109.657 35.595C110.337 35.5954 110.978 35.2358 110.978 34.3158C110.979 32.7158 110.78 30.9957 110.781 29.3157C110.782 26.2357 110.864 23.5957 110.985 20.9958C111.025 19.9958 110.386 19.3954 109.586 19.3949C108.786 19.3945 108.226 19.9141 108.145 20.8341C107.783 24.6739 107.86 30.5539 108.218 34.1141ZM95.4904 49.0264C97.8904 48.9079 104.331 48.4718 108.051 48.754C108.49 48.8743 109.05 49.0746 109.45 49.0749C110.29 49.0754 111.051 48.5158 111.131 47.7159C111.211 46.8759 110.692 46.0756 109.612 45.915C109.012 45.8346 108.492 45.9143 107.892 45.8739C104.452 45.6318 99.5719 46.1489 97.4518 46.1876C95.9318 46.2267 95.9318 46.1867 96.0526 44.8268C95.9733 43.4267 95.9341 41.8267 95.815 40.0666C95.7357 38.7466 94.9361 38.0261 93.816 38.2254C92.7359 38.4648 92.3355 39.2245 92.6148 40.4647C92.7746 40.9448 92.9743 41.5449 92.9739 42.2249C92.9732 43.5449 93.0128 44.425 92.9319 46.0649C92.8507 48.4649 93.1703 49.185 95.4904 49.0264Z" fill="#2AC1BC"/>
  <path d="M122.563 31.5628C125.083 31.5643 129.803 31.4871 131.923 31.3284C134.043 31.1697 134.244 30.8098 134.405 28.7699C134.525 27.65 134.488 22.1299 134.369 20.4499C134.21 18.9298 133.65 18.4894 131.57 18.6482C126.73 19.0053 124.49 18.7239 118.29 18.5602C117.53 18.5597 117.09 18.9195 116.97 19.4394C116.849 19.9993 116.889 20.5193 116.808 22.1593C116.687 24.7992 116.925 27.2394 117.324 29.4396C116.924 29.6394 116.364 30.359 116.643 31.0392C116.923 31.7194 117.723 31.9198 118.243 31.7202C119.323 31.4008 121.043 31.5618 122.563 31.5628ZM130.929 21.1278C131.569 21.0882 131.609 21.2882 131.688 22.7683C131.767 24.1283 131.766 25.4483 131.765 27.3283C131.765 28.7683 131.525 28.7682 130.045 28.8473C126.205 29.045 123.724 29.0835 120.084 29.0813C119.646 26.961 119.487 24.1609 119.608 22.041C119.649 21.241 119.889 21.0011 121.289 21.082C124.529 21.2039 126.809 21.2453 130.929 21.1278ZM134.041 35.8897C134.481 35.9699 135.161 36.0104 135.521 36.0106C136.881 35.9714 137.561 35.4518 137.562 34.4118C137.562 33.6918 136.842 33.0514 135.962 33.0508C135.162 33.0504 134.522 33.13 133.842 33.2496C132.722 33.4489 130.482 33.6475 126.402 33.8051C122.162 33.9625 119.962 33.9612 118.042 34C117.402 33.9997 116.522 33.8791 116.082 33.8789C115.202 33.8783 114.562 34.2379 114.561 35.0379C114.561 36.1579 115.641 36.6386 116.921 36.6394C118.961 36.6406 122.441 36.5627 125.481 36.4045C125.48 37.9645 125.479 39.8045 125.518 41.8445C125.517 42.8045 126.197 43.405 126.877 43.4054C127.797 43.4059 128.397 42.7263 128.518 41.9264C128.518 41.5264 128.358 41.0863 128.358 40.6863C128.399 39.2463 128.48 37.7263 128.401 36.2863C130.401 36.1675 132.201 36.0886 134.041 35.8897ZM118.717 42.5604C118.837 44.0805 118.516 46.1603 118.514 48.3203C118.513 50.2403 119.433 50.9609 121.073 50.9219L132.393 50.6887C133.033 50.6891 133.433 50.7293 134.153 50.7298C135.273 50.7304 135.994 49.8509 135.874 48.8908C135.755 48.0907 134.995 47.6503 133.835 47.6496C133.275 47.6492 132.715 47.7689 132.035 47.7685C128.795 47.8065 125.595 47.8846 122.195 48.0425C121.675 48.0822 121.595 47.8422 121.635 47.2422C121.716 45.5623 121.797 44.0023 121.797 42.5623C121.798 41.8023 121.358 41.082 120.398 41.0015C119.318 40.9208 118.638 41.6404 118.717 42.5604ZM154.005 39.3017C153.606 39.1415 153.326 39.1013 152.845 39.181C149.325 39.6589 146.524 42.6172 146.602 45.4573C146.72 49.6973 151.159 51.1 154.519 51.302C157.679 51.4639 161.639 50.8663 163.801 48.6276C164.801 47.5882 165.242 46.2285 165.283 44.8685C165.404 41.5486 163.525 39.8275 160.286 38.9855C158.646 38.5445 154.926 38.2223 154.005 39.3017ZM154.37 30.9819C154.211 28.1018 154.173 24.0618 153.935 21.4217C153.895 20.3416 153.496 19.5814 152.416 19.5808C151.696 19.5803 151.055 20.1399 151.055 20.9799C151.055 21.4599 151.174 22.22 151.254 23.0201C151.334 23.7001 151.333 24.7401 151.452 26.1402C149.932 26.4993 146.212 26.617 144.252 26.8958C144.213 24.1758 144.294 22.0159 143.936 19.4156C143.776 18.3755 143.377 17.7753 142.177 17.9346C141.256 18.054 140.976 18.9739 140.976 19.8939C140.975 21.1739 141.334 22.2541 141.334 23.3341C141.372 27.0941 141.33 30.7741 141.608 34.4142C141.687 35.6943 142.567 36.4148 143.927 36.4156C145.887 36.4168 150.767 35.4598 152.848 34.861C154.688 34.4221 154.369 32.5019 154.37 30.9819ZM161.522 46.6263C160.321 48.3455 157.241 48.7037 154.681 48.7021C152.121 48.7006 149.801 47.4192 149.682 45.6591C149.603 43.8591 150.924 42.8599 152.604 41.9809C153.244 41.6613 153.964 41.4617 154.724 41.3822C155.244 41.5425 156.044 41.3429 157.004 41.3435C157.844 41.344 158.724 41.4246 159.444 41.665C161.964 42.5065 163.203 44.1873 161.522 46.6263ZM169.891 27.7513C170.851 27.9119 171.372 27.1922 171.372 26.5522C171.372 25.9522 171.013 25.272 170.373 25.1516C168.773 24.9106 165.973 25.2289 164.253 25.3879C164.254 22.9879 164.255 21.8279 164.175 20.3878C164.136 19.4278 163.496 18.9874 162.736 18.987C161.976 18.9865 161.216 19.4661 161.215 20.3461C161.213 24.3861 161.409 32.2262 161.408 35.1462C161.407 35.8262 161.967 36.4665 163.047 36.4672C163.887 36.4677 164.487 35.548 164.488 34.508C164.488 33.948 164.369 33.028 164.369 32.548C164.37 31.268 164.331 28.5079 164.331 27.9079C165.371 27.8686 168.891 27.6707 169.891 27.7513ZM151.529 31.5802C151.569 32.1402 151.489 32.3802 151.009 32.4999C149.889 32.7792 146.008 33.4569 144.888 33.4962C144.408 33.4959 144.249 33.3358 144.209 32.8958C144.209 31.8158 144.17 30.0558 144.17 29.6558C145.331 29.4965 149.851 29.1792 151.451 29.0202L151.529 31.5802ZM192.797 40.6051C193.237 40.7254 193.917 40.7658 194.277 40.806C195.637 40.8468 196.357 40.3272 196.398 39.2873C196.438 38.5673 195.758 37.7669 194.878 37.7264C194.078 37.6459 193.438 37.7255 192.758 37.8051C191.598 37.9244 187.758 37.9221 185.678 37.8808C181.438 37.8383 178.438 37.7564 176.518 37.6353C175.879 37.5949 175.039 37.3544 174.599 37.3541C173.719 37.2736 173.038 37.9132 172.998 38.7132C172.957 39.8331 173.997 40.3538 175.277 40.4345C177.037 40.5156 180.397 40.5576 183.317 40.5994C183.356 42.4794 183.354 46.4794 183.433 47.2795C183.473 47.7995 183.073 48.7592 182.992 49.4792C182.912 50.7591 183.591 51.6796 184.671 51.8402C184.951 51.8804 185.231 51.8005 185.591 51.5608C185.991 51.241 186.272 51.0412 186.432 49.8413C186.473 48.9213 186.553 47.7213 186.554 46.5213C186.554 45.7613 186.517 41.4013 186.437 40.6413C188.397 40.6825 190.717 40.7238 192.797 40.6051ZM180.327 20.9576C179.727 20.9972 179.247 20.9169 178.767 20.9566C178.127 20.7163 177.127 20.7957 176.527 21.1153C175.927 21.3949 175.646 22.4748 176.006 23.075C176.326 23.6352 176.886 23.9555 177.806 23.8761C179.406 23.717 182.526 23.4389 184.046 23.4398C185.126 23.4405 188.846 23.4827 189.606 23.5232L189.606 23.4832C190.045 25.9234 190.042 30.8034 189.52 34.2831C189.36 35.323 189.999 36.0034 190.919 36.124C191.759 36.2045 192.44 35.5249 192.56 34.725C192.56 34.645 192.801 33.4851 192.961 32.2052C193.403 29.2455 192.767 22.0051 192.407 21.3249C192.167 20.9247 191.367 20.7242 190.367 20.6836C186.487 20.5613 181.887 20.8385 180.327 20.9576Z" fill="black"/>
  <defs>
    <clipPath id="clip0">
      <rect width="39.8344" height="42.7768" fill="white" transform="matrix(0.988646 -0.150263 0.131331 0.991339 0 13.9858)"/>
    </clipPath>
  </defs>
</svg>
