<svg width="15" height="15" viewBox="0 0 15 15" fill="none" xmlns="http://www.w3.org/2000/svg">
<g clip-path="url(#clip0)">
<path d="M11.3088 13.1852C7.87713 13.2933 4.44868 12.9599 1.01982 13.0153C1.94522 12.3875 3.31456 11.6766 3.81493 10.7365C5.05983 9.62885 5.91499 8.22008 6.77598 6.80373C7.42665 5.73322 8.37399 4.60764 8.52788 3.32043C8.7283 1.64444 7.83946 0.148028 6.13425 1.33594C6.0953 1.36308 6.06712 1.39509 6.04637 1.42933C4.9718 2.07305 4.17403 3.36689 3.46302 4.35941C2.63284 5.51843 1.74919 6.75152 1.21026 8.08128C1.16054 8.0966 1.11799 8.13316 1.10315 8.2006C0.74054 9.85209 0.217819 11.4824 0.00207333 13.1615C-0.00423221 13.2106 0.00454766 13.2513 0.0189147 13.2884C0.00223297 13.4474 0.0996895 13.6238 0.311603 13.6466C3.06473 13.9417 5.87852 14.0119 8.64617 14.0119C8.95698 14.0119 13.5644 13.7746 13.6371 13.9352C13.7569 14.1996 14.1414 14.0982 14.2148 13.8597C14.5521 12.7635 11.7514 13.1713 11.3088 13.1852ZM6.39318 1.8356C6.40251 1.83121 6.41122 1.83137 6.42063 1.82578C7.67496 1.08636 7.98481 2.04632 7.935 3.0406C7.92119 3.31708 7.85686 3.57202 7.76547 3.81578C7.11177 3.39003 6.47012 2.94657 5.81865 2.51755C6.01133 2.29263 6.20369 2.06651 6.39318 1.8356ZM5.57697 2.79923C6.20449 3.33265 6.85444 3.84651 7.55068 4.28758C7.50846 4.36683 7.46033 4.44386 7.41483 4.52176C6.70231 4.04413 5.95953 3.6729 5.28979 3.13342C5.38565 3.02216 5.48103 2.91065 5.57697 2.79923ZM1.4454 8.899C1.89262 8.95455 2.2411 9.25395 2.08067 9.75911C2.02831 9.92393 2.16775 10.0805 2.32954 10.0857C2.68352 10.0972 2.93902 10.1873 3.10887 10.4773C2.7046 10.892 2.26736 11.2514 1.81735 11.5975C1.7875 11.5581 1.74967 11.5236 1.69754 11.5045C1.61829 11.4753 1.54701 11.432 1.47972 11.3825C1.4486 11.354 1.41843 11.3243 1.38905 11.2946C1.36295 11.2683 1.33342 11.2501 1.30253 11.2372C1.29774 11.233 1.29279 11.2289 1.28792 11.2248C1.20723 11.1555 1.14593 11.0954 1.06053 11.0738C1.23716 10.3532 1.40182 9.63108 1.4454 8.899Z" fill="black"/>
<path d="M14.6119 11.5318C11.2027 11.1927 7.5483 10.8903 4.17252 11.6182C3.8135 11.6957 3.89036 12.2893 4.2596 12.2614C7.58086 12.0103 10.8067 12.1256 14.1168 12.3091C14.1586 12.3298 14.205 12.3444 14.261 12.3427C14.3779 12.338 14.4949 12.3358 14.6119 12.3361C15.1402 12.3309 15.1183 11.5822 14.6119 11.5318Z" fill="black"/>
</g>
<defs>
<clipPath id="clip0">
<rect width="15" height="15" fill="white"/>
</clipPath>
</defs>
</svg>
