<svg width="88" height="29" viewBox="0 0 88 29" fill="none"
  xmlns="http://www.w3.org/2000/svg">
  <path d="M11.819 18.41C12.9491 18.197 13.4725 17.8694 13.381 16.8436C13.3158 16.0927 12.2729 10.6925 11.9709 9.63C11.6875 8.66581 11.3047 8.25457 10.3772 8.32757C7.46717 8.54516 4.68497 9.17115 1.74931 9.92781C1.26259 10.045 0.905113 10.443 0.94393 10.9191C0.996634 11.4688 1.36693 11.6789 1.74934 11.6832C1.98542 12.9361 2.88522 16.2264 3.41435 18.8996C3.65043 20.1526 4.35258 20.5037 5.64825 19.9542C7.15578 19.314 9.092 18.9238 11.819 18.41ZM9.63557 10.1972C10.0625 10.1677 10.1932 10.3211 10.3765 11.0243C10.5877 11.8749 10.9723 14.321 11.2037 15.5494C11.449 16.8515 11.5089 16.7639 9.98567 17.0509C8.19223 17.3888 6.65835 17.7542 5.20601 18.2822C4.81538 15.939 3.73257 12.3525 3.61648 11.3313C5.33764 10.8798 7.9817 10.3308 9.63557 10.1972ZM5.29685 22.0048C4.55982 22.1436 3.71526 22.2519 2.69873 22.3926C1.70676 22.5286 1.33398 22.9804 1.40805 23.3735C1.49137 23.8157 2.15364 24.2252 3.01351 24.0632C4.463 23.79 6.21194 23.4859 8.40309 23.0985C8.92188 24.5017 9.10741 25.8914 9.22386 27.3195C9.23811 27.8002 9.6376 28.0302 10.192 28.0021C10.8201 27.9601 11.1914 27.6357 11.1448 26.983C11.0732 25.9281 10.872 24.1852 10.3439 22.7328L13.8571 22.0709C14.4959 21.9505 14.9075 21.9747 15.6046 21.8942C16.1989 21.8077 16.5717 21.3559 16.5236 20.8307C16.4602 20.3593 16.1205 20.0417 15.2575 20.0517C14.9288 20.0627 14.6094 20.1229 13.9016 20.2817C10.8876 21.0277 8.07301 21.4817 5.29685 22.0048ZM20.2186 7.87245C20.0498 8.05689 19.8166 8.30435 19.6756 8.6362C19.2594 8.58742 18.8172 8.67075 18.5551 9.30524C17.9787 10.4314 17.7252 12.0565 17.6561 13.8503C17.6398 14.4385 17.6925 14.9882 17.7544 15.5871C18.1159 17.9104 19.2848 19.9288 20.797 21.0685C21.8958 21.9045 23.1861 22.272 24.4697 21.9284C26.4964 21.343 27.5901 19.9921 28.0801 18.2716C28.5746 16.5757 28.5315 14.7267 28.226 13.1053C28.0223 12.0243 28.0137 11.0338 27.5875 10.1219C26.7736 8.36728 24.785 6.85941 22.701 6.87048C21.8133 6.88509 20.883 7.21303 20.2186 7.87245ZM21.536 9.3287C21.8244 8.96908 22.351 8.79353 22.8655 8.82379C24.0465 8.8811 25.2514 9.87519 25.8899 11.1032C26.3175 11.8876 26.2876 12.8091 26.4357 13.5952C26.6626 14.799 26.6636 16.02 26.4265 17.0568C26.0915 18.5191 25.3093 19.6332 24.1179 20.0612C23.2812 20.3461 22.344 19.963 21.5586 19.1697C20.6517 18.2721 19.8933 16.8123 19.6568 15.1524C19.612 14.7792 19.5931 14.274 19.5835 13.8179C19.5856 12.749 19.7045 11.7599 19.9772 11.047C20.3429 11.2325 20.9307 10.8419 21.0532 10.4118C21.0714 10.1031 21.3135 9.49783 21.536 9.3287ZM32.3586 6.1447C32.3458 5.53656 32.072 5.02848 31.3901 5.05519C30.7282 5.05271 30.3155 5.56294 30.3576 6.19102C30.4455 8.41315 30.5378 10.2529 30.8992 12.5761C31.324 15.3708 31.6837 17.4146 32.0754 19.2233C32.373 20.6682 33.0232 21.2834 33.7602 21.1446C34.4481 21.0149 34.718 20.557 34.6468 19.909C34.5941 19.3593 34.3495 18.8711 34.0237 18.6272C33.7723 17.4281 33.5871 16.4453 33.4312 15.4826C34.6827 15.374 36.6559 15.1802 37.221 15.0738C37.889 14.9734 38.1158 14.4218 38.0862 13.9949C38.0274 13.5481 37.6155 13.1169 37.0212 13.2034C36.427 13.2899 34.3754 13.473 33.1039 13.6108L32.8707 12.1029C32.7596 11.5133 32.6777 10.9436 32.625 10.3939C33.7843 10.2009 35.4841 9.90602 36.2703 9.75789C37.0073 9.61902 37.2957 9.2594 37.2323 8.78798C37.1874 8.41484 36.9368 8.02959 36.3824 8.05773C35.6268 8.09833 33.7013 8.41026 32.4637 8.59258C32.4184 7.81246 32.3732 7.03235 32.3586 6.1447ZM40.621 7.41172C43.5446 6.86086 45.9291 6.28438 48.4656 5.70468C47.1977 6.4015 45.3526 7.41058 44.1955 8.29006C43.8594 8.53147 43.5663 8.86652 43.3609 9.26138C41.9168 10.373 41.1242 11.9724 41.4066 13.471C41.5454 14.2081 42.2465 15.0936 43.2926 15.3798C43.8303 15.5329 44.698 15.5475 45.3859 15.4179C46.0246 15.2975 46.9643 15.0187 47.9299 14.6078L47.9576 14.7552C47.9854 14.9026 48.0378 15.0454 48.0855 15.1636C48.2735 15.8914 48.3568 16.3336 48.4448 16.8004L46.7987 17.1106C45.6195 17.3328 44.2836 17.5336 44.0778 17.5215C43.6476 17.399 43.0349 17.3873 42.5189 17.4845C42.0276 17.5771 41.7762 18.1332 41.8734 18.6491C42.003 19.337 42.9185 19.4698 43.4604 19.2405C44.1914 19.2046 46.1368 18.8634 48.913 18.3403L56.6272 16.8868C57.4579 16.7049 57.7111 16.4282 57.6185 15.9368C57.5213 15.4209 57.0481 15.2048 56.1636 15.3715L54.7878 15.6307C54.3211 15.7186 53.7361 15.8543 52.9499 16.0024C51.4758 16.2802 50.7388 16.419 50.3657 16.4639C50.2272 16.1339 50.2026 16.1385 50.1285 15.7454L49.8372 14.6046C49.7678 14.2361 49.6923 13.9705 49.6215 13.7294C50.6743 12.9714 51.5427 12.0445 51.8372 11.582C52.0825 11.1288 52.1939 10.37 52.1106 9.9278C51.9115 8.87138 51.6164 8.51996 50.8573 8.00156C50.1857 7.54297 48.9862 7.38739 48.0309 7.31299C49.3294 6.50864 50.7034 5.96991 51.6793 5.07371C51.9172 4.85082 52.0229 4.60193 51.9766 4.35626C51.9165 4.03687 51.606 3.73922 50.9825 3.80581C47.6442 4.18043 44.4383 4.988 41.2199 5.59441C40.9219 5.49792 40.4472 5.40927 39.9559 5.50185C39.3171 5.62221 38.9045 6.13244 38.954 6.53015C39.0437 7.27644 39.5892 7.60614 40.621 7.41172ZM48.6052 9.011C49.3885 9.11781 50.1491 9.50875 50.2741 10.1721C50.4916 11.3268 48.5547 12.6584 47.6429 13.0846C47.0949 13.4168 46.2535 13.6771 45.4474 13.8545C44.2974 14.0966 43.3834 13.8363 43.2538 13.1484C43.1612 12.6571 43.3157 11.992 43.7789 11.345C44.2899 10.8163 44.741 10.3751 44.7901 10.3658C45.0112 10.3242 45.3121 10.1657 45.4178 9.91685C45.7215 9.50347 46.2157 9.15595 46.8791 9.03097C47.6652 8.88284 47.9985 8.89636 48.6052 9.011ZM41.6247 3.15222C43.5873 3.03684 45.218 2.78045 46.9701 2.62839C47.1959 2.6113 47.3372 2.68643 47.5031 2.75692C47.8304 2.87335 48.1437 2.91607 48.4385 2.86052C48.8562 2.78183 49.1876 2.51585 49.2563 2.07042C49.3632 1.2871 48.6564 0.911474 47.9745 0.938188C45.5512 1.03863 43.7393 1.27828 41.7521 1.3983C41.1486 1.43569 40.5821 1.66963 40.5704 2.2824C40.5601 2.7677 40.9475 3.20351 41.6247 3.15222ZM62.156 5.13488C60.2059 5.45144 59.3731 6.70227 59.1275 8.50391C59.0694 8.87101 59.0392 9.38551 59.1563 9.87223C59.2411 10.187 59.4857 10.6751 60.0354 10.6224C60.5898 10.5943 60.912 10.2792 61.0452 9.77073C61.1324 9.42357 61.1029 8.99667 61.0534 8.59895C60.9497 7.77896 61.2239 6.93867 62.1621 6.78733C63.2231 6.61285 63.8042 7.26656 64.6741 7.96762C65.8113 8.87269 66.7271 9.41246 68.1399 9.34977C69.7785 9.26999 70.874 8.19861 71.3885 6.47352C71.5003 6.12173 71.6627 5.63322 71.6976 5.14329C71.7492 4.47213 71.7225 3.79028 70.9299 3.63434C70.3769 3.53501 69.7645 3.93024 69.693 4.6306C69.6275 5.22806 69.5573 5.80096 69.4334 6.35854C69.2682 7.10198 68.8171 7.54314 68.0509 7.66207C66.9361 7.82125 66.481 7.29643 65.3822 6.46043C64.3465 5.68887 63.6148 4.9109 62.156 5.13488ZM78.2306 2.1061C76.2805 2.42266 75.4477 3.6735 75.202 5.47514C75.144 5.84223 75.1137 6.35673 75.2309 6.84345C75.3156 7.1582 75.5602 7.64635 76.11 7.59365C76.6644 7.56551 76.9866 7.2504 77.1198 6.74195C77.207 6.3948 77.1774 5.96789 77.1279 5.57017C77.0243 4.75018 77.2985 3.90989 78.2367 3.75855C79.2977 3.58407 79.8788 4.23778 80.7486 4.93884C81.8859 5.84391 82.8017 6.38368 84.2145 6.32099C85.8531 6.24121 86.9486 5.16983 87.4631 3.44474C87.5749 3.09295 87.7372 2.60444 87.7721 2.11451C87.8237 1.44335 87.797 0.761506 87.0045 0.605565C86.4515 0.506234 85.8391 0.901463 85.7675 1.60182C85.702 2.19928 85.6319 2.77218 85.508 3.32976C85.3428 4.0732 84.8917 4.51436 84.1255 4.6333C83.0106 4.79247 82.5556 4.26765 81.4568 3.43165C80.421 2.66009 79.6893 1.88212 78.2306 2.1061Z" fill="black"/>
</svg>
