<svg width="160" height="75" viewBox="0 0 160 75" fill="none"
  xmlns="http://www.w3.org/2000/svg">
  <path d="M14.1093 8.41167C14.3048 7.17706 14.6816 4.47777 14.7989 3.737C14.8498 3.416 14.95 3.10282 14.993 2.83121C15.0817 2.11122 14.5685 1.67559 14.0876 1.67538C13.6847 1.6622 13.2635 1.92455 13.1983 2.49638C13.1553 2.768 13.1824 3.07603 13.1238 3.44642L12.6311 6.55765C10.6193 6.31501 9.24041 6.07135 7.33128 5.81965C7.58791 4.51878 7.84699 3.52203 8.1139 2.4759C8.16987 2.28227 8.27523 2.09647 8.40014 1.7872L8.56147 1.40776C8.74626 0.880169 8.49956 0.360183 7.97196 0.17539C7.37812 -0.0705174 6.79702 0.242447 6.64206 0.901318C6.57044 1.19372 6.52743 1.46533 6.48442 1.73695C6.48565 1.88901 6.43091 2.2347 6.29427 2.61805C5.62918 4.74014 4.75866 9.91771 4.51189 12.4351C4.39828 13.6321 4.69046 14.1846 5.71849 14.2461C7.72515 14.3614 10.6961 14.7812 11.7708 15.0273C12.6025 15.2097 12.8729 15.1006 13.2102 13.61C13.4641 12.4859 13.7848 10.4611 14.1093 8.41167ZM11.5235 12.9126C11.4766 13.2089 11.3869 13.296 10.8475 13.1853C9.25035 12.8817 8.55115 12.8216 6.42493 12.6621C6.24817 12.6594 6.27945 12.4619 6.31855 12.215C6.46736 10.7958 6.71761 9.21546 7.01601 7.49091C8.81855 7.77635 10.3417 8.06816 12.373 8.18735L12.2557 8.92812C11.9793 10.8333 11.6459 12.2992 11.5235 12.9126ZM19.1399 3.81693C19.2572 3.07616 18.8259 2.60288 18.3814 2.5325C17.8629 2.45039 17.3598 2.75039 17.2671 3.49507C16.7677 7.28863 15.7377 11.555 15.421 13.5551C15.3506 13.9996 15.1321 14.4206 15.0499 14.9391C14.9522 15.5564 15.0532 16.3571 15.9174 16.4939C16.5347 16.5917 16.9002 16.0421 17.0253 15.2519C17.2756 13.6716 17.695 11.6625 18.1769 9.2583C18.7942 9.35605 19.383 9.47458 20.2433 9.63613C19.5998 12.9007 18.8822 16.1535 18.4154 19.4207C18.2876 20.3876 18.6656 20.8777 19.192 20.9105C19.6274 20.8782 20.085 20.5456 20.1867 19.9036C21.0068 14.0853 22.8263 8.3493 23.3137 2.55421C23.3621 1.92908 23.0777 1.3272 22.3915 1.34509C21.7546 1.37079 21.5334 1.96855 21.4474 2.51178C21.2191 4.27276 20.9376 6.0506 20.6106 7.79594C19.7958 7.6669 19.1992 7.59775 18.5 7.53765C18.685 6.52918 18.9874 4.77993 19.1399 3.81693ZM32.2236 11.4067C29.9661 11.277 28.7353 11.0568 26.6754 10.9584C26.6657 9.26103 26.8158 7.9939 26.85 7.13872C26.8893 6.41091 27.0053 5.51808 27.0718 5.09831C28.7978 5.06789 31.0852 5.32886 32.9774 5.52726C32.7893 7.67426 32.552 9.33256 32.2236 11.4067ZM33.5318 3.94449C32.0593 3.81256 28.5009 3.42625 27.1688 3.36717C26.5776 2.94451 26.0226 2.93256 25.7041 3.18585C25.5247 3.35993 25.4401 3.57434 25.3475 4.31902C25.217 5.46269 24.9488 9.39413 24.9628 10.1051C24.9638 10.738 24.7631 11.8453 24.9605 12.3574C25.0656 12.6525 25.2683 12.8112 25.6101 12.8906C26.0012 12.9778 26.5264 12.8585 26.5109 12.4764C27.9419 12.5511 31.4548 12.9049 32.6114 13.1134C33.5952 13.2945 33.8384 12.8774 33.9325 11.8039C33.9938 11.2567 34.7487 6.01024 34.8855 5.14601C35.0067 4.38055 34.4532 4.03978 33.5318 3.94449ZM37.1484 13.5534C37.1247 14.1824 37.4235 14.5335 37.8927 14.6078C38.3124 14.6743 38.7427 14.5146 38.8326 13.9467C38.989 12.959 39.0337 11.8777 39.1979 10.8406C39.499 8.93927 39.8065 7.3174 40.1347 5.72413C40.2572 5.11073 39.9207 4.67778 39.4269 4.59958C38.933 4.52138 38.5365 4.78763 38.3972 5.34774C37.7996 7.68301 37.2742 11.3206 37.1484 13.5534ZM27.8378 21.5202C29.331 21.6807 33.3495 22.0387 35.6185 22.5752C35.8784 22.6922 36.2045 22.8704 36.4515 22.9096C36.97 22.9917 37.4939 22.7203 37.6215 22.2342C37.753 21.7235 37.5102 21.1788 36.8591 20.9745C36.4966 20.8665 36.1678 20.865 35.8013 20.7817C33.7012 20.2972 30.6379 20.1412 29.3253 19.9587C28.3831 19.8348 28.387 19.8101 28.594 18.9823C28.6815 18.1102 28.8132 17.1186 28.9112 16.0204C28.9908 15.1978 28.5674 14.6751 27.8564 14.6891C27.1663 14.7316 26.8451 15.1617 26.8967 15.9545C26.9485 16.2665 27.0133 16.6564 26.9469 17.0762C26.8178 17.891 26.7565 18.4382 26.5468 19.4427C26.2628 20.9165 26.39 21.3922 27.8378 21.5202ZM46.2532 13.3753C47.8088 13.6216 50.7303 14.0336 52.0546 14.1421C53.379 14.2505 53.5376 14.0479 53.8358 12.8042C54.0194 12.1245 54.5343 8.71309 54.6244 7.66428C54.6742 6.71034 54.3716 6.38398 53.0719 6.27942C50.049 6.02852 48.6936 5.63671 44.8819 4.93186C44.4127 4.85757 44.1059 5.03679 43.981 5.34606C43.8522 5.68002 43.8261 6.00493 43.6164 7.0095C43.2842 8.62746 43.1938 10.1572 43.2257 11.5543C42.9592 11.6387 42.5432 12.0284 42.6495 12.4756C42.7559 12.9227 43.2302 13.1244 43.5708 13.0517C44.2687 12.9598 45.3149 13.2267 46.2532 13.3753ZM52.4344 7.74778C52.8334 7.78565 52.8385 7.91302 52.7433 8.83446C52.6597 9.68182 52.5307 10.4967 52.3469 11.6572C52.2061 12.5461 52.058 12.5227 51.1365 12.4274C48.7465 12.1755 47.2117 11.9577 44.9647 11.6019C44.9003 10.2502 45.0752 8.50609 45.3566 7.20913C45.4594 6.7192 45.6311 6.5945 46.4875 6.78074C48.4758 7.17154 49.8794 7.41911 52.4344 7.74778ZM52.9176 17.1642C53.1814 17.2566 53.5972 17.3478 53.8195 17.383C54.6629 17.4912 55.1335 17.2367 55.2352 16.5947C55.3056 16.1503 54.9237 15.6848 54.3804 15.5988C53.8866 15.5206 53.4837 15.5074 53.0522 15.515C52.3412 15.529 50.9389 15.4335 48.4047 15.1334C45.7716 14.8177 44.4136 14.6026 43.2244 14.4396C42.8293 14.3771 42.2978 14.217 42.0262 14.174C41.483 14.0879 41.0527 14.2476 40.9745 14.7415C40.865 15.4328 41.4848 15.8347 42.275 15.9598C43.5343 16.1593 45.6903 16.4501 47.5826 16.6485C47.4301 17.6115 47.2502 18.7473 47.0755 20.0105C46.9816 20.6031 47.3428 21.04 47.7625 21.1065C48.3305 21.1964 48.7673 20.8353 48.9196 20.3532C48.9587 20.1063 48.9029 19.819 48.942 19.5721C49.1075 18.6871 49.3055 17.7566 49.3968 16.8598C50.6432 16.9813 51.7622 17.1078 52.9176 17.1642ZM42.8074 19.7903C42.7329 20.7403 42.332 21.993 42.1209 23.3264C41.9332 24.5116 42.4307 25.046 43.447 25.1817L50.4584 26.1401C50.8535 26.2026 51.0965 26.2664 51.541 26.3368C52.2324 26.4463 52.7628 25.9735 52.7826 25.3691C52.7867 24.8635 52.3606 24.5176 51.6445 24.4042C51.2988 24.3495 50.9414 24.3688 50.5216 24.3024C48.5176 24.0103 46.5344 23.7469 44.42 23.5133C44.095 23.4872 44.0691 23.3312 44.1525 22.9647C44.3661 21.9355 44.568 20.9803 44.7087 20.0914C44.783 19.6222 44.5818 19.1347 43.997 18.9915C43.3381 18.8365 42.848 19.2145 42.8074 19.7903ZM64.9105 21.2149C64.6792 21.077 64.5103 21.0249 64.2062 21.0274C61.9863 20.9796 59.9685 22.5331 59.7403 24.2941C59.3999 26.9232 62.0039 28.2215 64.0585 28.6734C65.9935 29.0811 68.4967 29.0978 70.0491 27.9262C70.7681 27.3819 71.1726 26.5854 71.3303 25.7498C71.7289 23.712 70.7365 22.4665 68.8185 21.6312C67.8491 21.1993 65.584 20.6381 64.9105 21.2149ZM65.9461 16.1141C66.1288 14.3206 66.4991 11.8227 66.609 10.1696C66.6899 9.49897 66.5172 8.99072 65.8505 8.88514C65.4061 8.81476 64.9563 9.09789 64.8741 9.61643C64.8272 9.91274 64.827 10.3936 64.7982 10.8953C64.7811 11.3229 64.6794 11.9649 64.6167 12.8408C63.6432 12.9145 61.335 12.6249 60.0978 12.6062C60.3389 10.9232 60.5995 9.59761 60.6314 7.95742C60.6343 7.29978 60.446 6.89029 59.6896 6.87176C59.11 6.8559 58.8472 7.39645 58.7573 7.96438C58.6321 8.75453 58.7488 9.45642 58.6432 10.1231C58.3004 12.4481 57.9159 14.7159 57.7329 16.9903C57.6572 17.7882 58.1301 18.3187 58.9696 18.4517C60.1795 18.6433 63.2858 18.5277 64.6285 18.3606C65.8073 18.2689 65.7975 17.0524 65.9461 16.1141ZM68.8371 26.4687C67.9282 27.4131 65.9917 27.3343 64.4114 27.084C62.8311 26.8338 61.5241 25.8168 61.622 24.7186C61.7486 23.5997 62.6612 23.1114 63.7843 22.7324C64.2107 22.5974 64.6747 22.5443 65.1517 22.5692C65.457 22.7188 65.9704 22.6736 66.563 22.7674C67.0816 22.8495 67.617 22.985 68.038 23.2035C69.5115 23.9684 70.1127 25.1267 68.8371 26.4687ZM75.8434 15.6311C76.4204 15.8237 76.8118 15.4301 76.8743 15.035C76.933 14.6646 76.7772 14.2097 76.3939 14.073C75.4297 13.7685 73.6699 13.6923 72.5925 13.6229C72.8271 12.1414 72.9405 11.4253 73.0319 10.5286C73.101 9.93205 72.749 9.59787 72.2798 9.52358C71.8107 9.44928 71.2946 9.6713 71.2086 10.2145C70.8136 12.7085 70.1707 17.5677 69.8853 19.3702C69.8188 19.79 70.1019 20.2398 70.7686 20.3454C71.2872 20.4275 71.7475 19.9182 71.8491 19.2762C71.9039 18.9306 71.9197 18.3509 71.9667 18.0546C72.0918 17.2644 72.3369 15.5568 72.3955 15.1864C73.0415 15.2633 75.2339 15.484 75.8434 15.6311ZM64.1343 16.2068C64.1042 16.5564 64.0314 16.6968 63.7233 16.7239C63.0046 16.7873 60.5429 16.8278 59.8477 16.743C59.5513 16.696 59.4682 16.5816 59.4865 16.3061C59.5921 15.6394 59.7395 14.549 59.7786 14.3021C60.5103 14.3167 63.3318 14.561 64.3351 14.6187L64.1343 16.2068ZM88.7321 25.7971C88.992 25.9142 89.4079 26.0054 89.6262 26.0652C90.4618 26.2229 90.9571 25.9723 91.0835 25.3342C91.1786 24.8936 90.837 24.3333 90.2977 24.2226C89.8116 24.095 89.4087 24.0818 88.9812 24.0647C88.2533 24.0254 85.8829 23.65 84.6028 23.422C81.9893 22.9828 80.1452 22.6402 78.9717 22.3784C78.5805 22.2912 78.0855 22.0609 77.8139 22.0179C77.2784 21.8825 76.7961 22.2111 76.6932 22.701C76.559 23.3885 77.1502 23.8112 77.9325 23.9857C79.0112 24.2071 81.0814 24.5603 82.8801 24.8704C82.721 26.0348 82.33 28.5041 82.3011 29.0057C82.275 29.3307 81.9342 29.8842 81.8145 30.3208C81.64 31.1031 81.9698 31.7375 82.6208 31.9419C82.7898 31.9939 82.9704 31.9719 83.2161 31.859C83.4943 31.7005 83.6867 31.6044 83.9028 30.8793C84.0174 30.3153 84.1841 29.5823 84.3014 28.8416C84.3757 28.3724 84.7772 25.6771 84.8021 25.2001C86.0082 25.4164 87.4364 25.6678 88.7321 25.7971ZM82.948 12.4532C82.5737 12.4192 82.2852 12.3229 81.985 12.3007C81.6134 12.09 80.9883 12.0416 80.5866 12.1805C80.1888 12.2947 79.9104 12.934 80.074 13.3396C80.2168 13.7166 80.5312 13.9689 81.107 14.0094C82.1103 14.067 84.0637 14.1992 85.002 14.3478C85.6687 14.4533 87.9611 14.8417 88.4264 14.9407L88.4303 14.916C88.4634 16.4652 87.9864 19.4777 87.3252 21.5751C87.1247 22.2014 87.4533 22.6838 88.0095 22.8478C88.5203 22.9793 89.0065 22.626 89.1588 22.1439C89.1666 22.0945 89.4281 21.4019 89.652 20.6274C90.213 18.8431 90.5257 14.3113 90.3699 13.8563C90.2609 13.5859 89.7866 13.3843 89.1732 13.2618C86.7897 12.8084 83.9227 12.5316 82.948 12.4532ZM97.455 14.6492C98.1659 14.6352 98.7416 14.6758 99.2355 14.754C101.606 15.1294 102.669 16.4113 102.422 18.4478C102.123 20.6533 100.687 21.4129 97.8719 20.9672C97.0077 20.8303 96.6657 21.2318 96.5797 21.775C96.5484 21.9725 96.5418 22.174 96.5768 22.4326C96.5729 22.4573 96.5897 22.5106 96.5897 22.5106C96.6259 22.9213 96.7128 23.4919 96.5876 24.2821C96.5681 24.4056 96.529 24.6525 96.4574 24.9449C96.4456 25.019 96.3936 25.1879 96.3819 25.262C96.2594 25.8754 96.1331 26.5135 96.09 26.7851C95.9571 27.6246 95.8735 28.472 96.9211 28.4101C97.7425 28.3376 97.9131 27.58 98.007 26.9874C98.0265 26.8639 98.063 26.7938 98.0786 26.695L98.106 26.5221C98.2245 25.9334 98.3391 25.3694 98.4252 24.8262C98.5503 24.036 98.648 23.4187 98.5404 22.8195C101.679 23.1394 103.762 21.9758 104.245 18.7619C104.725 15.5726 103.016 13.5808 99.682 13.0529C99.0154 12.9473 98.1927 12.8677 97.4778 12.9063C96.75 12.867 96.0897 13.0409 96.0127 13.6868C95.9123 14.4809 96.6453 14.6475 97.455 14.6492ZM94.7831 31.362C94.7294 32.3406 95.4504 33.0623 96.4173 33.1901C97.2815 33.3269 98.1176 32.5228 98.2505 31.6833C98.3874 30.819 97.5586 29.9791 96.7684 29.8539C95.7313 29.6897 94.8329 30.408 94.7831 31.362ZM109.029 16.4821C109.74 16.4681 110.316 16.5087 110.81 16.5869C113.18 16.9622 114.243 18.2442 113.996 20.2807C113.698 22.4861 112.261 23.2458 109.446 22.8001C108.582 22.6632 108.24 23.0647 108.154 23.6079C108.123 23.8054 108.116 24.0069 108.151 24.2655C108.147 24.2902 108.164 24.3435 108.164 24.3435C108.2 24.7542 108.287 25.3248 108.162 26.115C108.143 26.2384 108.104 26.4854 108.032 26.7778C108.02 26.8518 107.968 27.0208 107.956 27.0949C107.834 27.7083 107.708 28.3463 107.665 28.618C107.532 29.4575 107.448 30.3049 108.496 30.2429C109.317 30.1705 109.488 29.4129 109.582 28.8203C109.601 28.6968 109.637 28.6266 109.653 28.5279L109.68 28.355C109.799 27.7663 109.914 27.2023 110 26.6591C110.125 25.8689 110.223 25.2516 110.115 24.6524C113.254 24.9722 115.336 23.8087 115.82 20.5948C116.3 17.4055 114.59 15.4136 111.257 14.8858C110.59 14.7802 109.767 14.7005 109.052 14.7392C108.325 14.6999 107.664 14.8738 107.587 15.5197C107.487 16.3137 108.22 16.4804 109.029 16.4821ZM106.358 33.1949C106.304 34.1735 107.025 34.8952 107.992 35.023C108.856 35.1598 109.692 34.3557 109.825 33.5162C109.962 32.6519 109.133 31.812 108.343 31.6868C107.306 31.5226 106.407 32.2409 106.358 33.1949ZM8.79669 39.0832C9.82537 37.7021 10.3248 36.9459 10.9738 35.8844C11.7568 34.6162 11.6831 33.6427 10.1263 33.2443C8.27705 32.7743 5.87017 32.4691 3.97791 32.2707C3.60361 32.2367 2.81346 32.1116 2.44307 32.053C1.60354 31.92 1.13931 32.454 1.19239 32.918C1.23641 33.2793 1.55988 33.6343 2.15249 33.7281C4.46452 33.993 7.38994 34.3803 9.31718 34.8374C7.41827 37.8778 4.22442 41.9028 1.61726 44.7804C0.885323 45.2467 0.306469 46.3447 0.898869 46.9194C1.42501 47.433 2.13863 47.2423 2.74196 46.6291C3.19446 46.1692 3.37143 45.691 3.64449 45.4052C4.60155 44.3165 5.96954 42.7107 7.47418 40.7215C8.50916 42.6572 9.47788 44.5318 9.99454 45.9045C9.97746 46.3321 9.94987 46.9859 10.1797 47.4525C10.4342 47.9231 11.0606 48.1236 11.7119 47.847C12.3463 47.5172 12.3687 46.7361 12.1584 46.1459C11.6041 44.6913 10.05 41.0788 8.79669 39.0832ZM12.5116 41.0383C13.0302 41.1204 14.8613 41.3851 15.7671 41.5792C15.3137 43.9626 14.682 47.153 14.4319 48.2525C14.3486 48.6189 14.1951 48.949 14.1702 49.426C14.0634 49.9406 14.3594 50.4684 15.0755 50.5818C15.6799 50.6016 16.0608 50.4341 16.2001 49.874C16.2184 49.5984 16.2875 49.0019 16.3306 48.7303C16.9736 46.4275 18.4434 38.105 18.7719 36.0308C18.8293 35.5084 18.8919 35.1133 18.9089 34.6857C18.9651 34.0112 18.6859 33.5367 18.0153 33.4558C17.3161 33.3957 17.0404 33.8583 17.0362 34.3639C16.9827 34.8616 16.9214 35.4088 16.8354 35.952L16.1305 39.7637C15.1753 39.5618 13.6119 39.3648 12.7971 39.2358C12.0069 39.1107 11.4128 39.3456 11.3567 40.0202C11.3083 40.6453 11.7215 40.9132 12.5116 41.0383ZM24.1627 49.11C22.5992 48.913 21.1554 48.7603 19.6829 48.6284C19.2345 48.5827 18.8145 48.9971 18.8065 49.5274C18.8608 50.1434 19.2948 50.44 20.0602 50.5612C20.3565 50.6081 20.8699 50.5628 21.421 50.5995C23.4939 50.7759 26.2257 51.1072 28.2101 51.5227C28.9925 51.6972 29.5902 51.9184 30.331 52.0357C31.0224 52.1452 31.3917 51.5709 31.4167 51.0939C31.4533 50.5429 30.9856 50.1398 30.315 50.0589C29.8419 50.0093 29.2246 49.9115 28.4631 49.7656C27.0179 49.4609 25.5819 49.2588 24.1627 49.11ZM20.9853 42.4814C20.889 42.7699 20.8135 43.087 20.7666 43.3833C20.399 45.7044 22.1307 47.3961 24.587 47.7091C27.2408 48.0534 30.0146 47.4802 30.7532 43.7751C31.0697 42.2559 30.4244 40.7363 29.1888 39.9078C28.569 39.5059 27.7894 39.1547 27.1149 39.0985C26.6665 39.0528 26.1245 39.1188 26.0815 39.3905C23.6978 39.418 21.6282 40.6596 20.9853 42.4814ZM22.7331 43.1126C23.091 42.1315 24.0947 41.2273 25.6765 41.1488C26.1691 41.0749 27.258 41.5511 27.6039 41.1249C28.433 41.484 29.1097 42.3252 28.8766 43.4779C28.3621 45.9276 26.6178 46.2336 24.9517 46.0457C23.3596 45.8695 22.1619 44.642 22.7331 43.1126ZM22.781 37.8553C24.9072 38.0149 27.5013 38.0966 29.5078 38.6928C29.7469 38.7812 30.0302 38.7502 30.2811 38.7646C30.7788 38.8181 31.1299 38.5193 31.1924 38.1243C31.3525 37.5928 31.0447 37.139 30.3364 36.9762C28.0843 36.493 25.1758 36.159 22.9429 36.0333C22.4413 36.0044 22.0213 36.4188 21.9717 36.8919C21.9468 37.3689 22.2832 37.8018 22.781 37.8553ZM23.2516 34.5634C24.5356 34.7668 25.4453 34.9361 26.2978 35.1471C27.5129 35.466 28.5187 35.8278 28.7656 35.8669C29.3543 35.9854 29.7677 35.7725 29.907 35.2124C30.0268 34.7757 29.9204 34.3286 29.3928 34.1438C28.5196 33.9043 27.4903 33.6907 26.5598 33.4927C25.6787 33.3025 24.1842 32.9899 23.3447 32.857C22.8508 32.7788 22.4543 33.045 22.3722 33.5636C22.2901 34.0821 22.6343 34.4657 23.2516 34.5634ZM34.6449 45.7329C34.1613 48.9468 33.6756 50.8948 33.4488 52.327C33.355 52.9196 33.6212 53.3161 34.2385 53.4139C34.9052 53.5194 35.2876 53.0231 35.3931 52.3564C35.4635 51.912 35.5222 51.5416 35.495 51.2335C35.9017 48.6655 36.3431 46.8371 36.76 44.5238C37.1625 42.4614 37.5367 39.9389 37.9808 37.9336C38.1748 37.0279 38.0685 36.5807 37.2536 36.4517C36.5129 36.3344 36.189 36.9412 36.0795 37.6326C35.6897 40.2539 35.304 42.3696 34.6449 45.7329ZM57.7405 47.4918C58.4397 47.5519 58.8272 47.183 58.8937 46.7632C58.968 46.2941 58.603 45.8819 58.0064 45.8127C56.7146 45.6588 55.4306 45.4555 54.274 45.247C54.4709 43.6836 54.7992 42.0903 55.0299 40.6335C55.1433 39.9174 54.7367 39.448 54.2922 39.3776C53.7984 39.2994 53.3199 39.6033 53.2065 40.3194L52.0882 47.3814C51.8497 48.8876 51.2671 52.5668 51.0494 54.1016C50.8673 54.4525 50.7631 54.7903 50.7292 55.1646C50.6796 55.6377 50.9705 56.0381 51.5878 56.1359C52.2545 56.2415 52.6875 55.905 52.8412 55.0941C53.0145 54.1597 53.0616 53.3825 53.2024 52.4936C53.4956 50.6417 53.8788 48.2218 54.1108 46.917C55.1114 47.1514 56.5436 47.3782 57.7405 47.4918ZM40.4186 49.7858C39.5735 50.4873 39.2339 51.1928 39.7366 51.8546C40.2055 52.4098 41.0152 52.4114 41.7499 51.7684C42.1906 51.3826 42.3598 50.9538 42.5211 50.5744C44.2947 48.805 47.1228 45.8105 49.6767 42.9497C50.6663 41.8155 50.5408 40.5301 48.9644 40.2551C46.824 39.8656 44.4445 39.3875 42.1833 38.8016C41.8571 38.6234 41.5024 38.466 41.1073 38.4034C40.6628 38.3331 40.1793 38.5096 40.027 38.9917C39.8266 39.6181 40.1058 40.0926 40.905 40.3204C43.5002 41.0351 46.2007 41.564 48.0863 41.9638C45.7588 44.3542 42.4456 47.8541 40.4433 49.7897L40.4186 49.7858ZM67.802 41.6942C67.6847 42.4349 67.661 43.064 67.6322 43.5656C67.4834 44.9848 67.1403 47.7907 67.0152 48.5808C66.9175 49.1982 66.9446 49.5062 67.1446 49.8416C67.3446 50.177 67.8346 50.2799 68.4272 50.3737C69.3161 50.5145 72.6131 51.1126 74.1194 51.3511C75.2799 51.5348 76.0404 51.0478 76.3296 49.7015C76.452 49.0881 76.7231 47.5364 76.9694 45.9807C77.1532 44.8202 77.281 43.8533 77.354 43.2321C77.5456 42.0221 76.7868 41.6995 75.9563 41.6692C75.4793 41.6443 75.2492 41.6585 74.8217 41.6414C73.8508 41.5383 71.6195 41.0837 70.8046 40.9547C70.0886 40.8413 69.6636 40.6474 69.071 40.5536C68.3303 40.4363 67.9389 40.8299 67.802 41.6942ZM74.3167 60.4945C74.0704 62.0501 75.198 63.2411 77.2968 63.5735C79.1487 63.8667 80.4618 63.0875 80.7328 61.5358C80.9816 60.2843 80.3765 59.1507 79.2382 58.6667C78.9289 58.5418 78.5416 58.4299 78.114 58.4128C78.9927 58.2988 79.4555 58.0937 80.2886 57.9472C80.8631 57.8356 81.144 57.5005 81.2066 57.1054C81.277 56.6609 80.9977 56.1864 80.4831 56.0796C78.7911 55.7357 77.1289 55.5231 75.4874 55.3391C74.9897 55.2856 74.6751 55.5142 74.6086 55.934C74.5382 56.3785 74.8773 56.6346 75.3958 56.7168C76.4329 56.881 77.8027 57.022 79.1024 57.1265C77.8663 57.2598 76.4638 57.6452 75.3977 58.4635L75.3405 58.5051C75.1793 58.4037 74.961 58.3438 74.718 58.28C73.4704 58.0065 72.2982 57.8968 70.9609 57.7103C71.1055 56.7967 71.3103 55.1839 71.433 54.0896C71.4865 53.5919 71.3632 53.0914 70.7953 53.0015C70.2768 52.9194 69.9062 53.3416 69.8774 53.8433C69.7286 55.2625 69.4081 56.8063 69.318 57.8552C69.2423 58.6531 69.5657 59.0081 70.4793 59.1528C70.9485 59.2271 72.4547 59.4656 74.278 59.7796C74.3274 59.7874 74.4015 59.7992 74.4548 59.7823C74.3949 60.0006 74.3558 60.2475 74.3167 60.4945ZM74.5441 48.9884C74.4803 49.2314 74.3672 49.4666 74.2488 49.5745C74.0239 49.716 73.7939 49.7302 72.9296 49.5934C71.4481 49.3587 69.8964 49.0877 68.7891 48.8871C68.9052 47.9942 69.2057 44.4982 69.508 42.749C69.555 42.4527 69.7513 42.3319 70.097 42.3866C71.5538 42.6173 73.702 42.9575 75.4097 43.2026C75.3387 45.0897 75.0102 47.1639 74.5441 48.9884ZM78.9216 51.5547C78.8082 52.2708 78.9471 52.6724 79.5891 52.7741C80.1817 52.8679 80.5328 52.5692 80.6266 51.9765C80.8417 50.6185 81.2454 48.7081 81.5187 47.9414L84.062 48.3442C84.6793 48.4419 85.1304 48.3108 85.2321 47.6688C85.3024 47.2244 84.8802 46.8538 84.2382 46.7521C83.4727 46.6309 82.5215 46.4043 81.8795 46.3027C82.0787 45.5242 82.4664 44.6744 82.8357 44.1001C83.1765 43.5466 83.1481 43.0865 82.6193 42.7497C82.1814 42.4778 81.5952 42.6634 81.3077 43.2001C80.2749 45.0867 79.2371 49.4025 78.9216 51.5547ZM77.5327 62.244C76.3474 62.0563 75.7225 61.5271 75.8594 60.6628C75.9806 59.8974 76.6255 59.3414 77.6872 59.5095C78.8972 59.7011 79.3595 60.4577 79.2344 61.2479C79.1249 61.9393 78.4463 62.3887 77.5327 62.244ZM74.8541 53.2645C74.7344 53.7012 74.9591 54.0405 75.536 54.2331C76.4223 54.5506 78.1625 54.7503 79.3971 54.9458C79.7675 55.0044 80.099 54.8291 80.1654 54.4094C80.2397 53.9402 80.0072 53.6503 79.5667 53.5552C78.3893 53.3181 76.9869 53.2226 75.8824 52.8452C75.3548 52.6604 74.9986 52.8318 74.8541 53.2645ZM85.916 51.1183C85.644 52.037 85.4956 52.4945 85.3626 53.334C84.6275 57.9761 87.1908 60.331 90.4555 60.4937C94.4935 60.7281 96.7677 58.3546 97.764 53.9816C98.2863 51.4825 97.7921 49.3287 96.7801 48.2066C96.7091 47.0564 95.133 46.3006 93.8113 46.0153C90.7521 45.3537 87.3828 46.4907 85.916 51.1183ZM87.6924 51.7286C88.8273 48.2382 91.2737 47.3347 93.5271 47.9699C93.7999 48.165 94.2833 48.4694 94.5067 48.6566C95.9165 49.6645 96.3901 51.3088 95.7871 53.9976C94.9732 57.5389 93.1129 58.7377 90.6253 58.6222C88.438 58.5289 86.7231 56.8905 87.2275 53.7052C87.3448 52.9645 87.4243 52.6227 87.6924 51.7286ZM99.7585 63.764C100.293 63.7473 100.788 63.4967 100.903 62.9327C100.978 62.6156 100.945 62.0281 100.954 61.6499C101.243 59.8227 101.557 57.9993 101.847 56.1721C102.331 53.1103 102.686 50.7112 103.028 47.7533C103.097 47.1567 102.784 46.5756 102.102 46.5688C101.518 46.5777 101.181 47.1065 101.095 47.6497C100.592 51.468 100.206 54.0646 99.6117 57.8178C99.3497 59.4722 99.1386 60.8056 98.9091 62.4145C98.7891 63.332 99.2529 63.7598 99.7585 63.764ZM114.114 53.3561C113.655 54.0175 111.936 56.4029 111.214 57.6048C110.751 58.2909 110.825 58.7835 111.337 59.067C111.778 59.3142 112.344 59.1 112.612 58.6868C113.497 57.4096 114.681 55.8505 115.664 54.4369C115.661 54.6136 115.704 54.8229 115.829 54.9945C116.263 55.7719 116.959 56.4897 117.551 57.0644C117.903 57.3986 118.118 57.4832 118.547 57.6523C118.238 58.1603 117.669 58.8801 117.345 59.4869C117.057 60.0236 117.165 60.6228 117.807 60.7244C118.054 60.7635 118.497 60.6819 118.79 60.2726C119.489 59.3709 120.033 58.4952 120.659 57.5818C121.664 58.4244 122.645 59.2632 123.515 60.1603C123.966 60.5102 124.578 60.4805 124.974 60.0622C125.344 59.64 125.168 59.1564 124.894 58.8093L123.2 57.1995C122.541 56.5637 122.115 56.2178 121.729 55.777C122.238 55.1235 122.731 54.0878 123.051 53.5057C123.359 52.9977 123.62 52.3051 122.985 52.002C122.613 51.7912 122.121 51.8651 121.84 52.2003C121.262 52.9695 120.304 54.8679 119.405 56.0671C119.183 56.0319 117.925 54.5419 117.62 53.9114C117.424 53.5513 117.064 53.2665 116.661 53.2533L116.431 53.2675C117.093 52.2839 117.685 51.264 118.402 50.4156C118.759 49.9154 118.793 50.022 118.848 49.6763C118.946 49.059 118.436 48.5986 118.14 48.5517C117.646 48.4735 117.069 48.7618 116.928 49.1698C116.869 49.3881 116.772 49.6766 116.487 50.0365C115.629 51.1409 115.203 51.7567 114.114 53.3561ZM119.98 63.625C118.89 63.4777 115.231 62.9237 114.819 62.8078C114.472 62.601 114.118 62.4436 113.574 62.3575C113.031 62.2715 112.589 62.5053 112.495 63.0979C112.382 63.814 113.015 64.2938 113.78 64.415C114.768 64.5715 118.599 65.1528 119.623 65.2391L124.099 65.7454C124.745 65.8223 125.217 65.7199 125.299 65.2013C125.369 64.7569 124.729 64.3264 124.391 64.2223C123.859 64.0622 121.692 63.8454 119.98 63.625ZM137.236 56.9924C137.24 56.9677 138.801 55.7467 139.702 54.8516C140.089 54.4827 140.336 54.0409 140.188 53.5366C140.07 53.1635 139.782 53.0672 139.337 52.9968C135.263 52.3516 133.465 51.5606 131.38 50.9774C130.779 50.7809 130.365 50.9939 130.217 51.4513C130.057 51.9828 130.38 52.3377 130.797 52.581C131.903 53.1104 134.298 53.9706 136.891 54.3812L137.36 54.4555C134.854 56.6911 131.431 58.8068 128.748 60.4068C128.102 60.8107 127.888 61.3591 128.263 61.8739C128.657 62.4173 129.416 62.2591 129.916 61.9838C131.421 61.1085 134.597 58.9537 135.705 58.1926C137.115 59.2005 138.341 59.9263 139.639 60.8406C139.843 61.1513 140.484 61.5818 140.78 61.6287C141.224 61.6991 141.56 61.4991 141.702 61.2431C142.035 60.739 141.966 60.3737 141.481 59.9173C140.749 59.2697 138.084 57.5568 137.236 56.9924ZM132.758 61.7758C132.598 62.7882 132.649 64.5428 132.672 65.8373C131.034 65.6286 130.32 65.6673 129.123 65.5537C128.448 65.4975 128.131 65.9029 128.06 66.3473C127.978 66.8659 128.232 67.1844 129.071 67.3174C129.367 67.3643 129.742 67.3982 130.219 67.4231C133.04 67.6675 136.621 68.2344 139.682 68.7193C140.374 68.8288 140.939 68.6146 141.037 67.9973C141.131 67.4046 140.72 66.96 140.152 66.87L137.98 66.5259C138.139 65.3615 138.35 64.0281 138.626 63.0847C138.917 62.0424 138.705 61.1482 137.992 61.0101C137.35 60.9084 136.819 61.2292 136.755 61.9531C136.68 62.4222 136.73 62.911 136.667 63.306C136.481 64.1624 136.305 65.2736 136.148 66.2613C135.63 66.1792 135.107 66.1218 134.663 66.0514L134.605 64.4982C134.586 63.6599 134.672 62.6358 134.704 61.9574C134.713 61.0983 134.476 60.681 133.912 60.5663C133.224 60.4322 132.872 61.0598 132.758 61.7758ZM143.202 70.4157C143.148 71.3943 143.869 72.116 144.836 72.2438C145.701 72.3806 146.537 71.5765 146.67 70.737C146.806 69.8727 145.978 69.0328 145.188 68.9076C144.15 68.7434 143.252 69.4617 143.202 70.4157ZM149.616 71.4314C149.563 72.41 150.284 73.1317 151.251 73.2595C152.115 73.3964 152.951 72.5922 153.084 71.7527C153.221 70.8884 152.392 70.0485 151.602 69.9234C150.565 69.7591 149.666 70.4775 149.616 71.4314ZM156.031 72.4471C155.977 73.4258 156.698 74.1474 157.665 74.2752C158.529 74.4121 159.365 73.6079 159.498 72.7684C159.635 71.9042 158.806 71.0642 158.016 70.9391C156.979 70.7748 156.08 71.4932 156.031 72.4471Z" fill="black"/>
</svg>
