<svg width="162" height="162" viewBox="0 0 162 162" fill="none" xmlns="http://www.w3.org/2000/svg">
<g clip-path="url(#clip0)">
<path d="M119.21 47.8255C119.105 47.4148 118.984 47.0136 118.831 46.6293C116.485 40.7192 112.965 36.0877 107.376 32.9571C106.738 32.5998 106.103 32.791 105.65 33.2196C105.131 32.9727 104.6 32.7491 104.049 32.5677C99.5234 31.0794 96.1071 35.3348 94.7992 39.1529C93.519 42.889 94.014 46.1586 93.7588 50.0138C93.5852 52.6307 91.7938 58.1994 88.4151 54.8604C87.2269 53.6861 86.2007 52.3944 85.2464 51.0291C80.4643 44.1841 77.844 27.4821 67.5164 26.368C54.9135 25.0086 58.7657 40.4003 57.619 48.4473C51.9014 45.0539 45.5761 34.8232 38.978 38.5669C32.5189 42.2318 36.3815 55.8003 41.4694 59.4733C40.4623 69.9618 36.5799 80.8237 39.075 91.1278C38.9862 91.2987 38.9228 91.4932 38.9109 91.7267C38.7117 95.6544 41.3825 99.7217 43.1867 103.04C45.5486 107.385 48.1822 111.627 50.2221 116.138C53.4105 123.191 56.8139 130.103 59.5483 137.35C61.3866 142.221 62.8207 147.783 66.372 151.742C67.3575 152.841 68.8818 152.327 69.4129 151.354C76.1845 149.056 83.1221 147.349 89.462 143.948C92.1151 142.525 94.7335 141.027 97.4203 139.668C98.1068 139.32 100.79 137.87 100.386 138.066C100.97 137.783 101.32 137.146 101.288 136.538C101.689 136.362 102.018 136.003 102.116 135.482C103.093 130.256 99.2282 123.68 96.877 119.255C93.5689 113.028 89.7083 107.101 86.4749 100.836C83.8207 95.6935 80.6675 90.8921 77.8371 85.8499C76.5418 83.5422 75.176 81.1664 74.2929 78.6601C73.8481 77.3976 73.7064 76.2587 73.0213 75.2719C71.7384 70.7825 65.0399 66.3229 61.9509 64.0842C56.5224 60.1511 50.6256 56.2729 44.2408 54.0856C44.1017 54.0379 43.9519 54.0101 43.799 53.9952C42.2185 51.2065 40.2469 47.953 40.7293 45.2827C41.467 41.201 50.2157 50.9975 51.1511 51.9405C54.38 55.1921 60.9635 58.9638 63.5146 52.8019C64.8144 49.663 63.3937 45.4334 62.8691 42.2902C62.2273 38.4477 62.6713 29.3781 68.4594 34.1961C74.68 39.3751 75.7674 48.6751 79.8487 55.38C82.6464 59.9764 88.8247 66.3176 94.8067 62.6478C100.901 58.9095 98.1776 49.5848 98.7617 43.7777C99.4324 37.1114 103.207 36.8658 106.879 38.8931C108.852 41.0155 110.526 43.8668 111.33 45.344C114.524 51.2181 116.094 57.2887 116.943 63.9088C117.03 64.5971 117.396 65.0344 117.861 65.261C118.229 65.9839 118.684 66.6646 119.265 67.2798C120.132 68.1999 121.894 68.2851 122.392 66.8741C124.569 60.6955 122.191 53.5966 119.21 47.8255ZM83.2116 117.9C76.3117 104.586 68.9344 91.8363 63.344 77.89C63.3244 77.8403 63.2891 77.8095 63.2628 77.767C65.4437 78.0382 68.1932 78.0036 69.7281 76.8443C69.9651 77.134 70.2056 77.4193 70.4738 77.6743C70.6986 80.5681 72.8657 84.1579 73.8598 85.9765C76.6341 91.0517 79.8254 95.8828 82.485 101.018C85.6848 107.196 89.4893 113.034 92.7614 119.173C94.2844 122.03 95.8211 124.925 96.9665 127.961C97.8421 130.283 98.2402 132.777 99.1419 135.065C97.1717 135.037 94.5744 136.476 92.3846 137.842C92.3755 137.822 92.3747 137.801 92.3637 137.781C88.902 131.406 86.5615 124.364 83.2116 117.9ZM42.2151 91.6266C47.0958 91.5342 50.0911 88.3885 51.002 84.0274C57.8649 92.445 61.2045 102.736 65.6851 112.474C70.4741 122.882 75.7474 133.249 81.0044 143.424C76.7555 145.027 72.4526 146.494 68.4912 148.657C65.4295 144.493 64.2457 138.825 62.4173 134.093C59.8573 127.468 56.695 121.106 53.7524 114.648C50.2353 106.928 45.8907 99.5173 42.2001 91.8728C42.2153 91.7939 42.2109 91.7091 42.2151 91.6266ZM44.0131 69.0106C44.1687 69.0748 44.3371 69.1277 44.5176 69.1685C45.8993 69.4811 47.3896 69.0551 48.6691 68.5277C50.9725 67.5792 53.6789 65.9704 54.9792 63.682C56.597 64.7469 58.1725 65.8625 59.6919 67.0034C62.2884 68.9521 64.9709 70.9717 67.1458 73.4004C67.3423 73.6195 67.5181 73.8595 67.6986 74.0949C65.6665 74.649 63.8908 74.9038 61.5023 74.2856C60.7305 74.0863 59.7874 74.8541 59.7577 75.6288C59.5291 81.5187 54.2629 80.8688 50.3546 78.9562C49.2257 78.4035 48.1657 79.4994 48.2359 80.5873C48.5442 85.3543 46.4379 88.4114 42.0824 89.312C41.7381 82.4396 42.9588 75.7425 44.0131 69.0106Z" fill="black"/>
</g>
<defs>
<clipPath id="clip0">
<rect width="117" height="116.907" fill="white" transform="translate(0 64.0511) rotate(-33.1919)"/>
</clipPath>
</defs>
</svg>
