<svg width="69" height="74" viewBox="0 0 69 74" fill="none"
  xmlns="http://www.w3.org/2000/svg">
  <g clip-path="url(#clip0)">
    <path d="M63.5703 46.2208C63.3872 45.2451 62.8674 44.489 62.0622 44.0106C61.9291 43.9315 61.7898 43.8732 61.6485 43.8196C61.0629 43.3415 60.3869 43.0024 59.757 42.8766C59.5652 42.8387 59.3715 42.8186 59.1772 42.8158C57.844 40.7569 55.8961 39.2685 53.8183 38.1373C53.7698 38.111 53.7107 38.0833 53.6596 38.0564C53.9574 37.5464 53.5922 37.0187 53.0711 37.0251C52.774 37.0292 52.4968 37.1936 52.2343 37.4032C50.6439 36.7808 48.7263 36.3968 47.4771 37.3002C47.469 37.3068 47.4674 37.3188 47.4595 37.3251C47.0151 36.7323 46.5316 36.2151 45.9996 35.8232C46.0938 35.5805 46.1939 35.3471 46.2645 35.0633C46.8205 32.8297 47.0943 29.2192 46.7606 25.6546C46.8832 25.7986 47.0604 25.8946 47.3004 25.8723C48.3045 25.7796 49.3284 25.6021 50.3413 25.564C51.1192 26.4506 52.3253 26.7825 53.448 26.4994C54.8289 26.1511 56.0395 25.0656 56.2201 23.4848C56.4722 21.2778 54.5695 19.5122 53.0495 18.4252C52.4958 18.0295 51.9118 18.2863 51.6118 18.7366C51.4191 18.7198 51.221 18.789 51.0782 19.005C50.7343 19.525 50.392 20.1421 50.1121 20.7982C49.9785 20.7127 49.8208 20.6653 49.6229 20.722C48.5143 21.039 47.429 20.75 46.3155 20.5832C46.0873 20.5488 45.9308 20.6443 45.8347 20.7876C44.873 17.6858 43.1936 15.2467 40.4593 14.7834C38.9151 14.5218 37.1604 15.0083 35.576 15.3381C35.4878 14.8847 35.064 14.5612 34.6537 14.6057C34.6128 14.4981 34.5646 14.3936 34.5301 14.28C34.2831 13.4636 34.1498 12.6106 33.9295 11.7858C33.9142 11.7291 33.8662 11.7088 33.8362 11.6669C34.348 11.3423 34.8091 10.9466 35.1148 10.4219C35.915 9.0493 35.6519 7.3867 34.8069 6.11898C33.9232 4.79348 32.2863 4.22365 30.838 4.57039C30.3615 4.68457 29.7684 4.92861 29.2961 5.28729C27.8738 5.65063 26.7877 7.11184 26.8476 8.75145C26.9157 10.6087 28.2084 11.8545 29.7707 12.3064C29.7673 12.3258 29.757 12.3381 29.7548 12.359C29.6955 12.8724 29.5746 14.3722 29.7127 15.6746C29.1883 15.6674 28.6658 15.6633 28.15 15.6767C25.2849 15.7508 20.8505 16.08 20.1112 19.7413C20.0466 20.0613 20.1051 20.3211 20.2333 20.5212C20.0121 22.055 19.8919 23.9779 19.9184 26.0099C19.1525 26.0832 18.3398 26.3576 17.6183 26.5039C17.5498 26.5177 17.5005 26.5518 17.4433 26.5777C16.7116 25.2944 15.4889 24.306 14.1944 25.3039C13.7861 25.6188 13.8199 26.3225 14.2112 26.6325C14.561 26.9097 15.0712 27.0143 15.3789 27.338C15.759 27.7375 15.9313 28.2686 16.0242 28.8186C16.183 29.7579 16.1032 31.1217 15.3385 31.7447C15.0613 31.9704 14.5711 31.6835 14.3111 31.5483C13.5779 31.1667 13.3239 30.6308 13.374 29.7766C13.4398 28.6534 14.1308 27.56 13.7922 26.4342C13.7162 26.1821 13.4782 26.1984 13.3259 26.3303C13.3226 26.322 13.3193 26.3138 13.316 26.3055C13.3393 26.2872 12.9574 26.4786 12.8697 26.5458C12.4809 26.8446 12.2794 27.3235 12.0677 27.7695C11.5939 28.7682 11.3327 30.0068 11.5237 31.1203C11.8989 33.3111 14.7569 34.7665 16.5176 33.5796C17.3372 33.027 17.8032 32.087 18.0251 31.0616C18.7542 31.1811 19.6546 31.1621 20.299 30.8753C20.9268 34.8781 22.3769 38.567 25.2206 40.0337C24.4609 40.2262 23.8245 40.6681 23.5922 41.7046C23.5596 41.8503 23.542 42.0082 23.5147 42.1582C21.6495 41.8884 19.2062 44.7692 18.2071 45.9148C16.3425 48.053 14.7012 50.9206 14.4166 53.9091C12.7643 53.7518 10.9173 53.9759 9.67464 55.1127C7.66552 56.9506 9.08308 59.8443 10.6776 61.3568C11.1873 61.8403 12.0305 61.1943 11.8511 60.5389C12.7729 60.9178 13.6254 59.9022 13.0371 58.9177C13.0034 58.8616 12.9831 58.8074 12.9565 58.7556C13.0262 58.6965 13.0871 58.632 13.0618 58.6318C13.7386 58.2525 14.5089 58.1822 15.2211 58.2416C15.7927 58.2888 15.9088 58.327 16.3236 58.5021C16.6879 58.6558 16.8195 58.7614 17.0347 59.0735C16.9817 58.9967 17.1573 59.4324 17.1106 59.2351C17.1381 59.3511 17.1497 59.4713 17.1614 59.5904C17.1783 59.7633 17.1744 59.5685 17.1413 59.8921C17.0638 60.6478 16.6042 61.3049 16.7738 62.1695C16.792 62.2624 16.8389 62.3374 16.8749 62.4205C16.5381 62.7889 16.4764 63.2933 16.6265 63.7844C16.6906 63.9942 16.8242 64.1648 16.9944 64.2855C17.4323 64.5954 17.986 64.6345 18.4121 64.2673C20.2207 62.7081 22.1562 60.2129 20.9485 57.5907C20.6263 56.8911 20.1471 56.3261 19.586 55.8561C19.986 54.1072 20.8991 52.6403 22.0405 51.2751C22.4157 50.8261 22.9517 50.3732 23.4925 49.8993C23.5137 49.8937 23.532 49.8809 23.5526 49.8737C23.6389 50.6499 23.7304 51.4088 23.8222 52.1112C24.1457 54.5933 25.4146 55.834 27.0653 56.4226C26.8297 57.0969 26.7923 57.9239 26.7503 58.5607C26.6656 59.836 26.7088 61.2219 27.0056 62.4638C27.0076 62.4719 27.0131 62.4775 27.015 62.4853C25.0787 64.2899 23.9477 67.1002 25.9003 69.4523C25.9312 69.4897 25.9654 69.5094 25.9979 69.5378C26.0067 69.5476 26.0105 69.5598 26.0196 69.5692C26.0334 69.5836 26.0471 69.5973 26.0608 69.6114C26.0724 69.6231 26.0866 69.6169 26.0985 69.6266C26.1032 69.6292 26.1076 69.6292 26.1123 69.6319C26.1696 69.6703 26.2283 69.7021 26.2902 69.7022C26.9081 69.7045 27.5782 69.9209 28.2743 69.8781C29.5843 69.7972 30.8853 69.6352 32.185 69.4484C33.8868 69.2042 36.227 69.3089 37.7518 68.3851C37.9797 68.2471 38.14 68.0624 38.2362 67.8582C38.6049 67.6224 38.8777 67.2051 38.8217 66.6785C38.6036 64.6194 37.7289 63.0586 36.4944 62.0117C36.5281 61.9409 36.5782 61.8841 36.5951 61.8017C36.7529 61.0339 36.386 59.9966 36.2204 59.2523C36.0225 58.3623 35.8161 57.4629 35.6862 56.5583C36.6886 56.5329 37.7952 56.5432 38.9552 56.5366C38.2892 58.4266 38.5475 60.919 39.3921 62.6559C39.448 62.771 39.5225 62.8584 39.6052 62.9306C39.4442 63.1999 39.2802 63.468 39.163 63.7666C38.8941 64.4534 38.8926 65.1904 39.1357 65.8808C39.4073 66.6511 39.8471 66.5792 40.2962 66.7016C40.2279 67.3097 40.5732 67.9573 41.2551 67.753C43.3015 67.1402 45.3906 67.1618 47.4896 66.9778C48.8647 66.8577 50.5543 66.8474 51.2053 65.317C51.4071 64.8428 51.1918 64.3859 50.841 64.1297C50.9138 63.9378 50.9556 63.7315 50.9209 63.5027C50.7214 62.1813 50.2426 61.1943 49.5901 60.4853C49.6632 60.3334 49.7114 60.1591 49.691 59.9413C49.6184 59.1832 49.32 55.9651 48.4868 54.3141C49.5163 53.4316 50.2591 52.2044 50.5404 50.4799C50.8391 48.6528 50.678 46.082 50.0985 43.5562C50.4955 43.8451 50.8991 44.1252 51.2893 44.4104C51.8427 44.8152 52.3912 45.2282 52.9327 45.6517C53.2955 45.9354 53.6733 46.3719 54.1125 46.5497C53.7779 47.3289 53.6195 48.1824 53.7643 49.0487C54.0932 51.0172 55.8797 52.1021 57.6365 52.0374C57.8351 52.0302 57.9623 51.9024 58.0534 51.7444C58.1044 51.7545 58.1565 51.7725 58.2074 51.781C59.0889 51.9201 59.7481 50.4793 58.8963 49.9538C58.6008 49.7718 58.3035 49.5866 58.0147 49.3917C57.7032 49.1815 57.5876 49.0569 57.4615 48.8916C57.4475 48.8731 57.4225 48.8305 57.4004 48.7911C57.3787 48.7432 57.3608 48.6934 57.3427 48.6439C57.3793 48.7074 57.3555 48.5373 57.3342 48.5277C57.3361 48.5136 57.337 48.4993 57.3386 48.4853C57.3463 48.5787 57.4906 48.1668 57.4577 48.1665C57.5588 47.9945 57.676 47.8336 57.8023 47.682C57.8485 47.637 57.9582 47.5203 57.9854 47.4942C58.0885 47.3971 58.1974 47.3081 58.3074 47.2197C58.675 46.9237 58.4882 47.0599 58.8354 46.864C59.0532 46.7403 59.2807 46.6377 59.5107 46.5438C59.5481 46.5287 59.717 46.4727 59.7685 46.4531C59.8665 46.4278 59.9648 46.4024 60.0642 46.3812C60.1281 46.3675 60.3243 46.3515 60.4548 46.3383C60.7068 46.7294 60.9337 47.1744 61.2133 47.4983C61.2083 47.9803 61.3265 48.5227 61.6375 48.8782C61.9025 49.1807 62.2611 49.3148 62.6323 49.1472C63.6718 48.6774 63.7649 47.2577 63.5703 46.2208ZM51.4117 22.6413C51.4631 21.832 51.7112 21.0521 51.9823 20.294C52.6437 20.7915 53.2676 21.3278 53.7529 22.0302C53.8926 22.2326 53.9848 22.4115 54.1023 22.7533C54.1119 22.7812 54.1128 22.7807 54.1167 22.7892C54.1176 22.8052 54.1218 22.8393 54.1344 22.9134C54.1436 22.9706 54.1509 23.0281 54.156 23.0859C54.1591 23.1114 54.1596 23.1032 54.1617 23.1171C54.1598 23.1877 54.1471 23.257 54.1364 23.327C54.1256 23.3475 54.0808 23.5284 54.0579 23.5844C54.0498 23.6038 54.0536 23.5989 54.0514 23.6063C54.0409 23.6217 54.037 23.6253 54.0138 23.6625C53.9885 23.7024 53.8882 23.8237 53.8603 23.863C53.8101 23.9114 53.7605 23.9596 53.7079 24.0043C53.6699 24.036 53.6314 24.0661 53.5918 24.0954C53.577 24.1067 53.5837 24.1027 53.5746 24.1098C53.5735 24.1106 53.5743 24.1098 53.5731 24.1107C53.4851 24.1638 53.1499 24.2966 53.0971 24.3275C52.9312 24.3709 52.7617 24.395 52.5913 24.4067C52.6293 24.375 51.9802 24.3097 52.2689 24.3931C52.2133 24.377 52.1601 24.3531 52.1065 24.3309C52.08 24.2295 52.054 24.1254 51.9931 24.0484C51.9165 23.952 51.831 23.8656 51.7426 23.7817C51.6707 23.7132 51.578 23.7054 51.4926 23.6746C51.4445 23.5708 51.4955 23.7314 51.4483 23.4796C51.3866 23.1529 51.3951 22.9052 51.4117 22.6413ZM46.1778 21.7443C47.3308 22.0456 48.4296 22.3537 49.6212 22.3949C49.5228 22.9365 49.5109 23.4791 49.598 24.0043C48.775 24.189 47.9315 24.3118 47.1158 24.4853C46.8946 24.5324 46.751 24.6613 46.667 24.8206C46.5375 23.7583 46.3616 22.7067 46.108 21.7105C46.1328 21.7205 46.151 21.7373 46.1778 21.7443ZM20.0562 28.9109C19.8912 28.935 19.7294 29.0047 19.5924 29.1373C19.2391 29.4802 18.6991 29.5539 18.1831 29.5421C18.1835 29.1177 18.1561 28.701 18.0948 28.3163C18.0877 28.2719 18.0692 28.2218 18.0603 28.1764C18.6818 28.1294 19.3684 28.1305 20.0035 28.0238C20.0231 28.3206 20.0291 28.6136 20.0562 28.9109ZM18.2184 54.9709C17.4488 54.5884 16.6232 54.3193 15.8322 54.1391C16.0643 53.1741 16.4666 52.2589 16.9286 51.3724C17.2486 51.4457 17.5565 51.5626 17.8525 51.755C18.2437 52.0101 18.5596 52.3571 18.948 52.5954C18.6027 53.351 18.3487 54.1456 18.2184 54.9709ZM20.2627 50.4192C20.0523 50.696 19.8609 50.986 19.6749 51.2793C19.2776 50.9097 18.7482 50.6507 18.2943 50.4139C18.0713 50.2976 17.8317 50.2505 17.5954 50.1898C18.1512 49.2982 18.7592 48.4467 19.3754 47.6587C20.0524 47.8117 20.7059 48.0306 21.3057 48.4173C21.4387 48.5028 21.5599 48.6134 21.6798 48.7272C21.1868 49.2712 20.7097 49.8323 20.2627 50.4192ZM23.3144 47.0129C23.1378 47.1838 22.9739 47.3586 22.8062 47.5346C22.6099 47.4126 22.4074 47.3006 22.2101 47.1918C21.637 46.8765 21.0016 46.6882 20.3587 46.569C20.9499 45.9586 21.5725 45.3844 22.2503 44.8867C22.5606 44.6587 22.9243 44.5166 23.2748 44.3603C23.2391 45.2241 23.2665 46.1177 23.3144 47.0129ZM28.7578 8.85074C28.6473 8.26037 28.82 7.75325 29.1034 7.29531C29.467 7.40134 29.926 7.35078 30.2669 7.16696C31.3951 6.55906 32.6937 6.36674 33.3896 7.78812C34.1282 9.29596 32.6902 10.1005 31.4994 10.3158C30.4197 10.5112 29.007 10.1821 28.7578 8.85074ZM32.9206 12.1206C32.9323 13.2853 33.0226 14.5122 33.2332 15.6557C32.6453 15.6895 32.0536 15.7013 31.4599 15.6976C31.4298 15.5294 31.4114 15.3575 31.3862 15.2094C31.2381 14.3419 31.1917 13.4438 31.2353 12.5646C31.2369 12.5344 31.2258 12.5115 31.2248 12.4827C31.7931 12.4644 32.3689 12.3237 32.9206 12.1206ZM22.0049 20.6038C22.0125 20.5949 22.0232 20.591 22.0307 20.5817C25.1831 16.7745 33.804 18.4893 38.2889 17.6934C44.9883 16.5045 44.5986 29.7447 43.8533 34.3764C43.3332 37.6077 30.3627 38.1156 27.8127 38.1253C21.8435 38.1476 22.0094 25.7106 22.0049 20.6038ZM31.8475 66.9007C30.3896 67.1347 28.3198 67.2072 26.8483 67.9474C26.6246 65.5316 28.4665 63.8881 30.5889 63.1157C33.4331 62.0806 35.2049 63.7085 36.2312 66.1442C34.7762 66.1734 33.1575 66.6905 31.8475 66.9007ZM34.2683 59.5755C34.3873 59.9757 34.4986 60.4568 34.6412 60.9218C33.1302 60.3489 31.3828 60.3101 29.6768 60.8594C29.2223 61.0055 28.7644 61.2263 28.3185 61.4958C28.32 60.7117 28.3328 59.9301 28.4141 59.1419C28.4924 58.3851 28.8493 57.5948 28.9643 56.8341C30.4849 56.9879 32.1304 56.8364 33.5979 56.6939C33.5999 56.7444 33.5844 56.7852 33.5924 56.8385C33.734 57.773 34.0002 58.6751 34.2683 59.5755ZM40.9646 65.8006C40.9325 65.6317 40.893 65.4515 40.8739 65.352C40.818 65.0554 41.0234 64.7103 41.1619 64.4788C41.6951 63.5882 42.6228 62.8882 43.47 62.3857C45.4995 61.1831 48.0594 60.8752 48.5647 63.8588C48.5766 63.9297 48.6016 64.003 48.6248 64.0763C46.0406 64.3189 43.1852 64.5915 40.9646 65.8006ZM40.7941 61.4572C40.6273 59.9382 40.6257 58.5706 41.015 57.0149C41.0622 56.8256 41.0642 56.6501 41.0425 56.4857C42.9955 56.396 44.9469 56.1456 46.5792 55.4644C46.6532 55.6646 46.7321 55.8584 46.7986 56.0322C47.2003 57.0867 47.5037 58.1984 47.7537 59.3141C46.1842 58.8259 44.2775 59.1706 42.5655 60.1474C41.9386 60.505 41.3375 60.9486 40.7941 61.4572ZM37.5471 53.6509C34.3729 53.7363 30.6964 55.0507 27.5804 54.0336C26.216 53.588 25.5532 50.4499 25.509 47.312C25.5195 47.2707 25.5419 47.232 25.55 47.1893C25.5795 47.039 25.5585 46.9014 25.5099 46.7778C25.5338 43.9513 26.0553 41.2491 27.0327 40.6601C27.0486 40.6506 27.0549 40.6291 27.0692 40.6171C27.2179 40.6393 27.352 40.688 27.5068 40.7001C31.6288 41.0347 35.9002 39.7838 39.9652 39.1925C41.6214 38.9512 43.1656 38.7192 44.349 37.9406C46.7262 40.2194 47.6303 44.7022 48.0395 47.8812C48.8761 54.3799 41.4012 53.547 37.5471 53.6509ZM49.3657 41.0676C49.1068 40.3428 48.8235 39.6377 48.4904 38.9905C49.2312 39.1719 49.9778 39.2881 50.725 39.4544C50.4319 40.1101 50.2628 40.8278 50.2316 41.5509C50.219 41.543 50.2061 41.5355 50.1932 41.5277C49.9256 41.3637 49.6465 41.2064 49.3657 41.0676ZM52.5711 42.939C52.4265 42.8603 52.2912 42.7855 52.1795 42.7187C51.7983 42.49 51.4174 42.261 51.0363 42.0327C51.0847 41.9688 51.1437 41.9204 51.1657 41.8224C51.331 41.0942 51.6094 40.4383 51.9879 39.8255C52.1644 39.8899 52.341 39.9415 52.5168 40.0219C53.1114 40.2939 53.6586 40.631 54.1845 40.9962C54.1926 41.0145 54.2076 41.0291 54.2169 41.0468C54.2147 41.0492 54.209 41.0558 54.2074 41.0577C54.0199 41.2785 53.7996 41.4736 53.595 41.6761C53.2175 42.049 52.8096 42.4424 52.5711 42.939ZM55.4762 44.5496C55.3811 44.6462 55.2909 44.7515 55.1995 44.8549C54.8668 44.3408 54.2523 43.9015 53.6352 43.5326C54.2566 43.0556 54.9208 42.5832 55.4763 42.034C55.9628 42.4841 56.4286 42.9598 56.8535 43.4852C56.3422 43.7801 55.8712 44.1484 55.4762 44.5496Z" fill="#2AC1BC"/>
    <path d="M35.4928 69.2769C34.8895 69.3686 34.2719 69.4183 33.6744 69.4664C33.1514 69.5085 32.6576 69.5482 32.2061 69.6128C31.1347 69.7668 29.7208 69.9548 28.2836 70.0436C27.8782 70.0688 27.4883 70.0099 27.1115 69.9534C26.8233 69.9099 26.5511 69.8688 26.2902 69.868C26.1951 69.8677 26.1142 69.8264 26.0468 69.7828L26.0122 69.7759L25.8765 69.647C25.8505 69.6271 25.8177 69.6018 25.7853 69.5626C25.0244 68.6461 24.6717 67.6154 24.7371 66.4992C24.8189 65.1075 25.5832 63.6295 26.8388 62.4301C26.5847 61.3245 26.501 59.9845 26.5966 58.5482L26.6058 58.403C26.6423 57.8334 26.6869 57.136 26.8686 56.5251C25.0081 55.8088 23.9609 54.3704 23.6693 52.1339C23.588 51.5129 23.5078 50.8532 23.4303 50.169L23.4115 50.1853C22.9333 50.6025 22.4817 50.9967 22.1562 51.3867C20.8825 52.9097 20.1193 54.3131 19.7614 55.7923C20.3565 56.3073 20.791 56.872 21.0878 57.5165C22.4237 60.4173 20.046 63.0726 18.5096 64.3975C18.0621 64.7827 17.425 64.7893 16.9101 64.4244C16.7009 64.276 16.5523 64.0727 16.48 63.8362C16.3155 63.2978 16.3922 62.779 16.6892 62.3934C16.6631 62.3384 16.6371 62.2767 16.6227 62.2035C16.5079 61.6175 16.6567 61.1308 16.8011 60.66C16.8831 60.3916 16.9608 60.1377 16.988 59.8732C17.0004 59.7518 17.0096 59.6962 17.0149 59.6681L17.0078 59.6072C16.9993 59.522 16.9916 59.4447 16.9796 59.3711C16.9224 59.2935 16.8913 59.1814 16.8788 59.1268C16.7005 58.8767 16.5864 58.7917 16.2677 58.6573C15.8735 58.4909 15.7705 58.454 15.2098 58.4076C14.4196 58.3414 13.7377 58.4565 13.1857 58.7509C13.1754 58.7659 13.1637 58.7808 13.15 58.7954C13.1554 58.8057 13.1608 58.816 13.1672 58.8268C13.4091 59.2315 13.4523 59.6873 13.2864 60.0782C13.0736 60.5796 12.5472 60.8674 12.0296 60.7652C12.0222 60.9152 11.9766 61.0642 11.8942 61.202C11.7416 61.4573 11.4783 61.6417 11.2073 61.6829C10.974 61.7184 10.7497 61.6471 10.5755 61.4816C9.62446 60.5795 8.51799 58.9458 8.53034 57.311C8.53721 56.395 8.88858 55.6126 9.57445 54.985C10.2606 54.3571 11.1706 53.9534 12.2782 53.7851C12.8987 53.6908 13.5714 53.672 14.2795 53.7291C14.6728 50.1897 16.8302 47.2493 18.0942 45.8001L18.1865 45.6942C19.1547 44.5819 21.1695 42.2673 22.9334 41.9992C23.0892 41.9756 23.2414 41.9682 23.3871 41.9774C23.3887 41.9684 23.39 41.9591 23.3913 41.9502C23.4061 41.8536 23.4211 41.7567 23.4417 41.665C23.6281 40.8339 24.0771 40.2834 24.8097 39.9916C21.9267 38.2574 20.6993 34.273 20.1783 31.1006C19.6293 31.2952 18.8715 31.3467 18.1421 31.2471C17.8719 32.3681 17.3407 33.2213 16.6 33.7205C16.2793 33.9369 15.9157 34.077 15.5193 34.1373C13.6978 34.4141 11.6822 32.9623 11.3714 31.1501C11.1889 30.0861 11.3926 28.826 11.9299 27.6933L11.9846 27.5773C12.1856 27.1493 12.3937 26.7069 12.7797 26.4098C12.8478 26.3577 13.2302 26.1491 13.2945 26.1393L13.3209 26.1353C13.4702 26.0509 13.6415 26.0508 13.7626 26.1314C13.7525 26.069 13.7474 26.0051 13.7479 25.9404C13.7497 25.6232 13.8794 25.3419 14.1042 25.1686C14.4044 24.9374 14.7165 24.7957 15.0319 24.7478C15.9075 24.6147 16.8026 25.2033 17.5025 26.3672C17.5283 26.3565 17.5574 26.347 17.59 26.3404C17.8443 26.2886 18.1102 26.2209 18.3818 26.1517C18.8338 26.0365 19.3047 25.9181 19.762 25.8597C19.7442 23.9736 19.8537 22.0995 20.0717 20.5581C19.9351 20.3132 19.8966 20.02 19.96 19.7059C20.4042 17.5061 22.1371 16.2062 25.2579 15.7319C26.2855 15.5757 27.2945 15.5321 28.1463 15.5101C28.5898 15.4986 29.0312 15.4999 29.5411 15.5059C29.443 14.3708 29.5209 13.0894 29.5918 12.425C27.8624 11.8706 26.7562 10.4772 26.6929 8.75799C26.632 7.08721 27.721 5.53463 29.2311 5.1327C29.6632 4.81077 30.2485 4.54064 30.8041 4.4077C32.3766 4.03233 34.046 4.69184 34.9328 6.02192C35.8968 7.46821 36.0168 9.18826 35.2463 10.5106C34.9868 10.9555 34.6009 11.3492 34.0689 11.7099C34.0726 11.7191 34.0757 11.7287 34.0787 11.739C34.1755 12.1018 34.2566 12.473 34.3348 12.8319C34.4355 13.2945 34.5398 13.7729 34.6777 14.2285C34.6993 14.2993 34.7266 14.3662 34.7536 14.4328L34.7545 14.435C35.159 14.4459 35.5379 14.7372 35.6842 15.1454C35.8695 15.1061 36.0569 15.0648 36.246 15.0236C36.8444 14.8926 37.4632 14.7571 38.0785 14.6636C39.0386 14.5177 39.8026 14.5036 40.4837 14.6189C42.9509 15.037 44.7743 17.0141 45.9065 20.497C46.0288 20.4215 46.1768 20.3936 46.337 20.4181C46.5297 20.4468 46.7213 20.4793 46.9126 20.5118C47.6849 20.6426 48.4143 20.7665 49.1568 20.6536C49.3024 20.6315 49.4456 20.6003 49.583 20.5609C49.7478 20.5139 49.8929 20.5208 50.0376 20.5763C50.2926 20.0038 50.6069 19.43 50.952 18.9078C51.0937 18.6933 51.3013 18.5746 51.5368 18.5674C51.9288 18.0492 52.6086 17.9095 53.1348 18.2861C55.4876 19.9682 56.5771 21.7241 56.3737 23.5047C56.2005 25.0232 55.0658 26.2621 53.4837 26.6612C52.3006 26.9606 51.0739 26.5981 50.2785 25.7327C49.6725 25.7594 49.0521 25.8356 48.452 25.9092C48.0711 25.956 47.6911 26.003 47.3141 26.0374C47.1816 26.0498 47.058 26.0326 46.9456 25.987C47.2085 29.1896 47.0049 32.7328 46.4142 35.1061C46.353 35.3521 46.271 35.5616 46.1911 35.7636C46.6351 36.1076 47.0606 36.5454 47.486 37.096C48.5665 36.3856 50.1872 36.4386 52.21 37.2158C52.4222 37.0539 52.7331 36.8629 53.0692 36.8576C53.3929 36.8535 53.6842 37.0244 53.8294 37.3034C53.9383 37.5118 53.9508 37.7503 53.8693 37.9779C53.8757 37.9813 53.8818 37.9844 53.8881 37.9875C56.3023 39.3019 58.0603 40.8276 59.2594 42.6503C59.4373 42.6573 59.6138 42.6776 59.785 42.7115C60.4304 42.8404 61.1175 43.1805 61.7231 43.6704C61.8506 43.719 61.9969 43.78 62.1375 43.864C62.9834 44.3668 63.5317 45.1701 63.7225 46.1874C63.9438 47.3674 63.7893 48.8049 62.6924 49.2996C62.6095 49.3371 62.5247 49.3625 62.4395 49.3754C62.1105 49.4254 61.7857 49.2889 61.5248 48.9908C61.233 48.658 61.0646 48.1397 61.0579 47.5609C60.8741 47.3369 60.7126 47.0668 60.5562 46.805C60.4972 46.7066 60.4382 46.6078 60.3782 46.5115L60.3591 46.5134C60.2676 46.5219 60.171 46.5312 60.1146 46.5398C59.9974 46.5643 59.9009 46.5888 59.8051 46.6138C59.7951 46.6186 59.7418 46.6368 59.6889 46.655C59.6362 46.6728 59.5838 46.6908 59.5655 46.6983C59.302 46.8057 59.0927 46.9045 58.9078 47.0098C58.8114 47.0641 58.7553 47.0939 58.7173 47.1138C58.6512 47.1481 58.6512 47.1481 58.5341 47.2437L58.4002 47.3519C58.2937 47.4378 58.1878 47.524 58.0877 47.6183C58.076 47.6292 58.0466 47.6599 58.0139 47.6939C57.9746 47.7348 57.9314 47.7795 57.9062 47.8038C57.7968 47.9366 57.6972 48.0747 57.6114 48.2157C57.5991 48.2947 57.5653 48.4389 57.5058 48.5422C57.5159 48.5922 57.5154 48.6384 57.5149 48.6577C57.5229 48.678 57.5308 48.6977 57.5396 48.7169C57.55 48.7342 57.5692 48.7683 57.5811 48.7844C57.6882 48.9253 57.7883 49.0408 58.0967 49.2492C58.367 49.4313 58.6426 49.6043 58.9729 49.808C59.3383 50.0333 59.5083 50.4402 59.4274 50.8967C59.3128 51.5401 58.7423 52.0329 58.1852 51.9448C58.1634 51.9411 58.1415 51.9363 58.1202 51.9311C57.9924 52.1045 57.8359 52.1949 57.6418 52.2032C55.9096 52.2671 53.9687 51.2138 53.6119 49.0771C53.4798 48.2853 53.5793 47.4644 53.9078 46.6342C53.6417 46.4928 53.4048 46.2793 53.1743 46.0718C53.0614 45.9701 52.951 45.8707 52.8421 45.7856C52.3265 45.3821 51.7903 44.9773 51.2029 44.5473C50.999 44.3982 50.7915 44.2509 50.583 44.1024C50.5021 44.0447 50.421 43.9873 50.3402 43.9295C50.8464 46.327 50.9791 48.7594 50.6935 50.5077C50.4335 52.1003 49.7571 53.3942 48.6827 54.3562C49.2077 55.4722 49.5974 57.3328 49.8421 59.8902C49.862 60.0994 49.8393 60.2776 49.7752 60.4503C50.4502 61.2209 50.8871 62.2378 51.0737 63.4746C51.1032 63.6685 51.0872 63.8642 51.0256 64.0699C51.3566 64.3658 51.5687 64.8616 51.3463 65.3853C50.8439 66.5669 49.7712 66.8717 48.8932 67.0051C48.537 67.0593 48.1762 67.0882 47.8271 67.116L47.5026 67.1427C46.9898 67.1877 46.4775 67.2207 45.9667 67.2533C45.0153 67.314 44.0317 67.377 43.0761 67.5222C42.4265 67.6209 41.8449 67.7484 41.2971 67.9125C40.9495 68.0175 40.6563 67.9408 40.4371 67.7091C40.24 67.5013 40.1289 67.1751 40.1333 66.8323C40.0979 66.8249 40.0626 66.8181 40.0276 66.8113C39.6607 66.7398 39.2449 66.6585 38.991 65.9387C38.729 65.1936 38.7391 64.4196 39.0207 63.7006C39.1254 63.4335 39.2652 63.1906 39.4047 62.9569C39.3443 62.8883 39.2947 62.8137 39.2548 62.7322C38.3733 60.9195 38.1735 58.5306 38.7357 56.7035C38.4394 56.7045 38.1464 56.7049 37.8581 56.7049C37.1589 56.7058 36.4948 56.7067 35.8674 56.7199C35.9861 57.4865 36.1584 58.2584 36.3251 59.0069L36.3712 59.2127C36.4063 59.372 36.4511 59.5447 36.4979 59.7255C36.6761 60.4144 36.8783 61.1948 36.7464 61.8372C36.7352 61.8901 36.7164 61.9344 36.6968 61.9727C37.9844 63.1139 38.7712 64.7309 38.9757 66.659C39.0314 67.1836 38.7995 67.6728 38.3533 67.976C38.2374 68.2007 38.0566 68.3915 37.8281 68.5296C37.239 68.8869 36.4968 69.1243 35.4928 69.2769ZM26.1573 69.4714C26.1655 69.4745 26.1763 69.4786 26.1879 69.4859C26.2126 69.5023 26.2617 69.5353 26.2905 69.535C26.5727 69.5362 26.8551 69.5788 27.1537 69.6233C27.5159 69.6777 27.8902 69.7343 28.2656 69.7113C29.6921 69.6231 31.0987 69.4359 32.1645 69.2827C32.6249 69.2167 33.1231 69.1764 33.6503 69.134C34.2429 69.0863 34.8553 69.037 35.4488 68.9468C36.4135 68.8002 37.1211 68.5751 37.6758 68.2393C37.8655 68.1246 38.0112 67.9667 38.0981 67.7821L38.1184 67.7393L38.157 67.7145C38.3311 67.6029 38.73 67.2806 38.6677 66.6967C38.4675 64.806 37.6828 63.2311 36.3983 62.142L36.2979 62.0569L36.3562 61.9346C36.3699 61.9059 36.3854 61.8793 36.4012 61.8523C36.422 61.8178 36.4381 61.7904 36.4434 61.7647C36.5586 61.2037 36.3676 60.4656 36.1989 59.8147C36.1509 59.6301 36.1053 59.4532 36.069 59.2903L36.0233 59.0844C35.8414 58.2682 35.6533 57.4246 35.5324 56.5829L35.5057 56.3957L35.6815 56.3909C36.3641 56.3737 37.0889 56.3729 37.8562 56.3722C38.2152 56.3718 38.5814 56.3714 38.9532 56.3694L39.1792 56.3681L39.0989 56.5955C38.4856 58.3371 38.662 60.7971 39.5284 62.5785C39.5693 62.6629 39.6243 62.7333 39.7017 62.8007L39.8099 62.895L39.7105 63.0607C39.5563 63.3178 39.4112 63.5608 39.305 63.8311C39.0549 64.4692 39.0461 65.1575 39.2797 65.8211C39.4711 66.3642 39.7273 66.4141 40.0814 66.4832C40.1642 66.4996 40.2487 66.5161 40.333 66.5389L40.4651 66.5751L40.449 66.7207C40.4159 67.0163 40.4938 67.3042 40.6523 67.4713C40.7925 67.6187 40.9807 67.6602 41.2123 67.591C41.773 67.4233 42.3677 67.2928 43.0308 67.192C43.9986 67.0449 44.9891 66.9816 45.9464 66.9203C46.4553 66.888 46.9648 66.8554 47.4755 66.8105L47.8025 66.7833C48.1463 66.756 48.5018 66.7275 48.8482 66.6749C49.6484 66.5533 50.6233 66.2808 51.0632 65.2458C51.2435 64.8221 51.0085 64.453 50.7529 64.2659L50.6488 64.1901L50.6963 64.0647C50.7702 63.87 50.7929 63.6991 50.7668 63.5277C50.584 62.3155 50.1505 61.3308 49.4791 60.6014L49.3998 60.5151L49.4515 60.4073C49.5238 60.2568 49.5505 60.1137 49.5356 59.9564C49.2217 56.6733 48.7178 55.1214 48.3494 54.3921L48.2874 54.2688L48.3888 54.182C49.4751 53.2508 50.1289 52.0297 50.3867 50.4489C50.682 48.6432 50.5176 46.0803 49.947 43.5939L49.8504 43.1739L50.1837 43.4162C50.3723 43.5535 50.5625 43.6886 50.7521 43.8235C50.9614 43.9725 51.1702 44.1206 51.3752 44.2706C51.9653 44.7025 52.5043 45.1096 53.0224 45.5147C53.1368 45.6041 53.2525 45.7084 53.3711 45.815C53.6243 46.0429 53.8863 46.2785 54.1655 46.3916L54.3215 46.4548L54.2518 46.6176C53.8994 47.4376 53.7862 48.2448 53.9154 49.0172C54.2413 50.9673 56.0304 51.9278 57.6298 51.869C57.7485 51.8637 57.8375 51.7987 57.9206 51.6544L57.9761 51.5584L58.0794 51.5784C58.1061 51.5834 58.1327 51.5908 58.1595 51.5975C58.1829 51.6037 58.2063 51.6106 58.2293 51.6142C58.62 51.6764 59.0383 51.3023 59.1218 50.8327C59.1545 50.6479 59.1587 50.3064 58.8181 50.0962C58.4844 49.8907 58.2058 49.7161 57.931 49.5306C57.6135 49.3169 57.4831 49.1825 57.3403 48.995C57.324 48.9736 57.2935 48.9227 57.2667 48.8756C57.2377 48.8126 57.2192 48.7626 57.2006 48.7122L57.2642 48.6753L57.163 48.629L57.1791 48.5023L57.1831 48.5024L57.1828 48.4974L57.2804 48.4883L57.1835 48.4602L57.1999 48.3291L57.1755 48.3288L57.2068 48.2752L57.3686 47.0036L57.4424 47.8888C57.5143 47.7826 57.5947 47.6764 57.6845 47.5681C57.7193 47.5332 57.7594 47.4914 57.7965 47.4528C57.833 47.4146 57.8669 47.3798 57.8805 47.3669C57.9873 47.2662 58.099 47.1745 58.2124 47.0838L58.3448 46.9765C58.4755 46.8704 58.4863 46.8617 58.5789 46.8129C58.6152 46.7939 58.669 46.7655 58.761 46.7139C58.9576 46.6025 59.1777 46.498 59.4534 46.3857C59.4741 46.3768 59.5333 46.3567 59.5922 46.3363C59.6413 46.3194 59.6909 46.3024 59.7145 46.2935C59.8302 46.2628 59.9303 46.2371 60.0315 46.2153L60.0688 46.2086C60.1289 46.1995 60.232 46.1896 60.3296 46.1801L60.5281 46.1604L60.58 46.2407C60.6596 46.365 60.7374 46.4943 60.8147 46.624C60.9754 46.8929 61.1416 47.1707 61.3245 47.3823L61.3666 47.4311L61.366 47.4975C61.3607 48.0169 61.5002 48.4776 61.7483 48.7612C61.9874 49.034 62.2857 49.1186 62.5705 48.9908C63.4954 48.5738 63.6143 47.302 63.4172 46.251C63.2449 45.3329 62.7501 44.6077 61.9861 44.154C61.8567 44.077 61.7162 44.0199 61.5957 43.9743L61.5534 43.9501C60.9811 43.4827 60.3328 43.159 59.7272 43.0379C59.5474 43.0022 59.3613 42.9831 59.1735 42.9799L59.0939 42.9786L59.0487 42.9083C57.8786 41.1014 56.1445 39.5886 53.7469 38.2834L53.4353 38.122L53.5267 37.965C53.6262 37.795 53.637 37.6172 53.5577 37.4642C53.4676 37.2921 53.2813 37.1867 53.0715 37.1893C52.8453 37.191 52.6186 37.2999 52.3251 37.5344L52.2583 37.5876L52.1802 37.5571C50.8487 37.0361 49.662 36.834 48.7487 36.9728C48.3021 37.0406 47.9119 37.1902 47.5886 37.4171L47.5866 37.4211L47.4317 37.5524L47.3375 37.427C46.8672 36.7994 46.4004 36.3188 45.9107 35.9581L45.8064 35.8814L45.9008 35.64C45.9812 35.4369 46.0567 35.2446 46.1132 35.0174C46.7165 32.5931 46.9096 28.9235 46.6047 25.6684L46.5732 25.3311L46.5724 25.3325L46.5123 24.8389C46.3696 23.6668 46.1882 22.6569 45.9575 21.751L45.8771 21.4346L46.1619 21.5516C46.1788 21.5585 46.1943 21.5669 46.2092 21.5757L46.4431 21.6395C47.5159 21.921 48.5287 22.187 49.6248 22.2248L49.8071 22.2311L49.7722 22.4236C49.6753 22.9573 49.6677 23.478 49.7493 23.9718L49.7757 24.1311L49.6288 24.1642C49.1808 24.2646 48.7218 24.3478 48.2778 24.4285C47.8975 24.4974 47.5185 24.5661 47.145 24.6454C46.9878 24.6791 46.8718 24.7644 46.8006 24.8998L46.6202 25.2421L46.8731 25.539C46.979 25.6634 47.1177 25.7187 47.2854 25.703C47.6596 25.6687 48.0368 25.6221 48.4147 25.5758C49.0437 25.4984 49.6939 25.4184 50.3343 25.3945L50.4043 25.3916L50.4526 25.4466C51.1712 26.2654 52.3101 26.6116 53.4113 26.3341C54.866 25.9672 55.9075 24.8394 56.0652 23.4614C56.2532 21.8161 55.2092 20.1678 52.9626 18.5611C52.5436 18.2615 52.025 18.3976 51.7365 18.831L51.6857 18.9074L51.5986 18.8998C51.4351 18.8859 51.2995 18.953 51.2031 19.0986C50.8384 19.6504 50.5093 20.2611 50.2515 20.8647L50.18 21.0329L50.0317 20.9382C49.9094 20.8598 49.7971 20.8408 49.6615 20.88C49.5121 20.9226 49.3564 20.9563 49.1991 20.9802C48.411 21.1 47.6243 20.9667 46.8636 20.8378C46.6742 20.8057 46.4842 20.7736 46.2934 20.745C46.1475 20.723 46.0353 20.7684 45.9594 20.882L45.7825 21.1452L45.6866 20.8369C44.6008 17.3337 42.8336 15.3512 40.4343 14.9447C39.7849 14.8346 39.0494 14.8491 38.1208 14.9902C37.5147 15.0823 36.9008 15.2167 36.307 15.3467C36.0702 15.3985 35.8356 15.45 35.6046 15.4982L35.4549 15.5294L35.4236 15.3685C35.3534 15.0064 35.0073 14.7313 34.6688 14.768L34.5535 14.7804L34.4689 14.5623C34.4379 14.4858 34.4067 14.4088 34.3822 14.3276C34.24 13.8589 34.1341 13.3736 34.0319 12.9039C33.9542 12.549 33.8743 12.1819 33.7796 11.8279C33.7503 11.8098 33.7298 11.7894 33.7125 11.7651L33.6051 11.6154L33.7563 11.5197C34.3246 11.1592 34.7255 10.7699 34.9824 10.3294C35.6852 9.12383 35.5691 7.5463 34.6797 6.21226C33.8643 4.98886 32.3255 4.38324 30.8702 4.72935C30.3422 4.85574 29.7866 5.11395 29.3839 5.41962L29.3325 5.44933C27.9486 5.80278 26.947 7.21984 27.0027 8.74492C27.0733 10.6735 28.4996 11.7657 29.8111 12.1452L29.95 12.1854L29.9055 12.3969C29.8336 13.0325 29.74 14.4577 29.8671 15.6557L29.887 15.8433L29.7116 15.841C29.1304 15.833 28.6428 15.8303 28.1544 15.8429C27.3117 15.8649 26.3138 15.9078 25.3022 16.0616C22.3249 16.5141 20.6764 17.7294 20.2631 19.7767C20.2124 20.0272 20.2454 20.2454 20.3613 20.4262L20.3964 20.4808L20.3869 20.5462C20.1595 22.1227 20.0483 24.0621 20.0739 26.007L20.076 26.1616L19.933 26.1752C19.449 26.2212 18.9424 26.351 18.4541 26.4751C18.1779 26.5454 17.9071 26.6145 17.6479 26.667C17.619 26.6727 17.5926 26.6862 17.5596 26.7033L17.3816 26.7859L17.3123 26.6638C17.0081 26.1308 16.1819 24.9087 15.0765 25.0767C14.8107 25.1171 14.5447 25.2391 14.2854 25.4388C14.1421 25.5494 14.0591 25.7328 14.0583 25.9417C14.0572 26.1671 14.1489 26.3751 14.3036 26.4974C14.4442 26.6091 14.6171 26.6916 14.8001 26.7793C15.0438 26.8958 15.2959 27.0164 15.4878 27.2182C15.8398 27.5884 16.0588 28.0871 16.1774 28.7884C16.3476 29.7947 16.2546 31.2076 15.4329 31.8771C15.3609 31.9358 15.2757 31.9727 15.1795 31.9873C14.8797 32.0329 14.5316 31.849 14.3013 31.7274L14.2448 31.6976C13.4709 31.295 13.1645 30.7172 13.2201 29.7652C13.246 29.3211 13.3652 28.8841 13.4802 28.4615C13.6657 27.7794 13.8411 27.1348 13.6455 26.4846C13.6126 26.3751 13.51 26.3847 13.4236 26.4594L13.2632 26.5986L13.2343 26.5246C13.1367 26.5764 13.0004 26.65 12.96 26.6807C12.6362 26.9297 12.4457 27.3351 12.2615 27.7271L12.2061 27.8446C11.699 28.9131 11.506 30.0958 11.6764 31.0892C11.9592 32.7397 13.8057 34.0603 15.4761 33.8064C15.8296 33.7527 16.1525 33.6285 16.4361 33.4373C17.3229 32.8395 17.7079 31.7939 17.875 31.0226L17.9074 30.8726L18.0487 30.8959C18.8453 31.0267 19.6974 30.9622 20.2402 30.7204L20.4198 30.6406L20.4521 30.8471C20.9614 34.0941 22.2138 38.2973 25.2878 39.8829L25.6842 40.087L25.257 40.1954C24.4131 40.4092 23.9322 40.9008 23.7435 41.7431C23.7247 41.8274 23.7111 41.916 23.6975 42.0047C23.688 42.0671 23.6783 42.1288 23.6674 42.1901L23.6392 42.3435L23.4948 42.3227C23.3328 42.2992 23.1589 42.3014 22.9774 42.3289C21.3214 42.5806 19.3568 44.8374 18.4128 45.9221L18.3205 46.0277C17.0641 47.4687 14.906 50.4112 14.5713 53.9255L14.5558 54.0888L14.4041 54.0745C13.6641 54.0038 12.9636 54.0177 12.3226 54.1151C11.2738 54.2745 10.417 54.6526 9.77572 55.239C9.16124 55.8011 8.84681 56.4988 8.84061 57.3137C8.82903 58.8362 9.87854 60.3752 10.7806 61.2309C10.9151 61.3586 11.0636 61.3674 11.1641 61.3521C11.3487 61.324 11.5289 61.197 11.6343 61.0206C11.6932 60.9221 11.753 60.7665 11.7033 60.5848L11.6149 60.2622L11.9069 60.3822C12.3484 60.5636 12.8265 60.3599 13.0052 59.9384C13.1282 59.6486 13.0934 59.3179 12.9077 59.0066C12.8833 58.9659 12.8645 58.9257 12.8465 58.8866L12.8006 58.7929L12.448 58.7869L12.9912 58.4824C13.6037 58.1391 14.361 58.0011 15.2338 58.0742C15.8099 58.1217 15.9457 58.162 16.3809 58.3457C16.7735 58.5114 16.9265 58.6346 17.1598 58.9726L17.1599 58.9729C17.1599 58.9729 17.1599 58.9729 17.1599 58.9732L17.0527 59.0589L17.1773 59.0359C17.1844 59.0635 17.2235 59.1602 17.2368 59.1831L17.1966 59.2105L17.2612 59.1926C17.2615 59.1949 17.2621 59.1971 17.2627 59.1994C17.2635 59.203 17.2643 59.2062 17.2651 59.2098C17.2918 59.329 17.3038 59.4477 17.3149 59.5622L17.3234 59.6364L17.3278 59.6694L17.3199 59.7278C17.3168 59.7418 17.3092 59.7766 17.2958 59.9093C17.2651 60.2086 17.1786 60.4908 17.095 60.7635C16.9577 61.2124 16.8281 61.6358 16.9256 62.1339C16.9343 62.1783 16.9558 62.2222 16.9804 62.2734C16.9924 62.2981 17.0045 62.3229 17.0154 62.3485L17.0612 62.4534L16.9858 62.5359C16.7069 62.8409 16.6318 63.2655 16.7738 63.7309C16.8241 63.8953 16.9299 64.0382 17.0798 64.1447C17.4836 64.4309 17.9705 64.4333 18.3154 64.1354C19.7791 62.8734 22.0495 60.3543 20.8101 57.6631C20.5213 57.0362 20.0899 56.4876 19.4912 55.9862L19.4117 55.9198L19.4357 55.8148C19.7955 54.2418 20.5866 52.7634 21.9253 51.1621C22.2671 50.7532 22.7279 50.3508 23.216 49.9251L23.5054 49.7137L23.6843 49.6522L23.7065 49.8529C23.7933 50.6331 23.8838 51.3851 23.9755 52.0867C24.2566 54.2443 25.2832 55.6103 27.1138 56.2626L27.267 56.3171L27.2104 56.4796C27.0004 57.0802 26.9525 57.826 26.9143 58.4252L26.9048 58.5711C26.81 59.9964 26.8954 61.3207 27.1512 62.4022L27.1648 62.4408L27.1897 62.5418L27.1165 62.6098C25.8786 63.7634 25.1239 65.1884 25.0459 66.5193C24.9858 67.5431 25.312 68.4923 26.016 69.3396C26.0256 69.3513 26.0385 69.3611 26.0563 69.3749L26.1573 69.4714ZM14.0045 26.6564C14.1168 27.3081 13.9445 27.9414 13.777 28.5562C13.6668 28.9612 13.5528 29.3799 13.5292 29.7869C13.4812 30.6031 13.7196 31.0548 14.379 31.3978L14.4371 31.4283C14.6752 31.5541 15.076 31.7488 15.2454 31.6112C15.9098 31.0698 16.039 29.8331 15.8722 28.8476C15.7659 28.2179 15.5748 27.7758 15.271 27.4566C15.1188 27.2969 14.9028 27.1933 14.6741 27.084C14.4841 26.9933 14.2875 26.8993 14.1197 26.7661C14.0785 26.7333 14.0398 26.6965 14.0045 26.6564ZM46.3289 21.9552C46.5081 22.7083 46.6556 23.5314 46.7773 24.4548C46.8668 24.3914 46.9703 24.3463 47.0862 24.3216C47.4621 24.2416 47.8441 24.1721 48.2274 24.1027C48.6208 24.0315 49.0257 23.9578 49.4225 23.8726C49.3676 23.4462 49.3731 23.0039 49.4385 22.5531C48.3795 22.4935 47.4027 22.2372 46.3717 21.9666L46.3289 21.9552ZM26.7162 68.1977L26.6946 67.9632C26.4921 65.7786 27.9295 63.9073 30.5394 62.9574C33.0911 62.0281 35.1291 63.1249 36.3724 66.0751L36.4696 66.3058L36.2347 66.3105C35.8917 66.3175 35.5188 66.3523 35.0942 66.4169C34.5038 66.5066 33.9057 66.6399 33.3277 66.7692C32.8134 66.8837 32.3277 66.9922 31.8711 67.0657L31.7556 67.0836C31.4328 67.1326 31.0832 67.1753 30.7185 67.2196C30.3243 67.2678 29.9127 67.3175 29.4989 67.3804C28.3529 67.5546 27.5561 67.7761 26.9146 68.0988L26.7162 68.1977ZM31.6381 63.012C31.318 63.0606 30.9816 63.1485 30.6388 63.2733C28.2699 64.1354 26.9221 65.7785 26.9879 67.6984C27.6209 67.4136 28.3944 67.2112 29.4548 67.05C29.8714 66.9867 30.286 66.9365 30.683 66.8883C31.0446 66.8441 31.3915 66.8018 31.7115 66.7532L31.8246 66.7357C32.2726 66.6635 32.7541 66.5563 33.2641 66.4425C33.847 66.3124 34.4499 66.1777 35.0501 66.0865C35.3922 66.0345 35.7024 66.0011 35.9919 65.9858C34.9756 63.7278 33.5121 62.7271 31.6381 63.012ZM40.854 66.0479L40.8131 65.8339C40.7949 65.7387 40.7746 65.6397 40.7568 65.5545L40.7225 65.3853C40.6541 65.0206 40.8814 64.6402 41.032 64.3886C41.4921 63.62 42.2873 62.897 43.3952 62.24C44.1469 61.7951 44.9086 61.5042 45.5993 61.3992C47.3007 61.1406 48.408 62.0034 48.7171 63.8294C48.7262 63.8839 48.7445 63.9394 48.7622 63.9953L48.8264 64.1967L48.6383 64.2428C47.682 64.3326 46.5984 64.434 45.5524 64.593C43.6349 64.8844 42.1993 65.3157 41.0346 65.9497L40.854 66.0479ZM45.6433 61.7286C44.9894 61.828 44.264 62.1056 43.5452 62.5317C42.4825 63.1616 41.7246 63.8473 41.2926 64.5689C41.1693 64.7756 40.9825 65.0872 41.026 65.3186L41.0592 65.4816C41.0642 65.5054 41.0694 65.5306 41.0747 65.5564C42.2375 64.957 43.6539 64.5441 45.5095 64.2621C46.4942 64.1124 47.5087 64.0134 48.4205 63.9277C48.4178 63.914 48.4151 63.9009 48.4127 63.8875C48.0604 61.8091 46.7122 61.5661 45.6433 61.7286ZM40.6749 61.79L40.6403 61.4767C40.4475 59.7192 40.5148 58.3721 40.8653 56.9715C40.9028 56.8224 40.9103 56.6714 40.8889 56.5096L40.8647 56.3274L41.0354 56.3197C43.4233 56.2106 45.1263 55.8925 46.5229 55.3095L46.6658 55.2501L46.7227 55.4034C46.7675 55.5249 46.8139 55.6438 46.8587 55.7572L46.9412 55.9696C47.3032 56.9198 47.6182 58.0013 47.904 59.2756L47.9662 59.5541L47.7105 59.4744C46.9873 59.2496 46.1851 59.2015 45.3264 59.332C44.434 59.4676 43.5043 59.8005 42.6378 60.2949C42.0162 60.6493 41.4303 61.0829 40.8958 61.583L40.6749 61.79ZM41.2101 56.6447C41.2138 56.7859 41.1987 56.9222 41.1648 57.0583C40.8455 58.3326 40.7692 59.565 40.9166 61.1283C41.4069 60.6965 41.936 60.318 42.4927 60.0001C43.3906 59.4881 44.355 59.1429 45.283 59.0018C46.0862 58.8797 46.8447 58.9069 47.5416 59.0825C47.2762 57.9412 46.9855 56.962 46.6558 56.0955L46.5743 55.886C46.5475 55.8183 46.5204 55.7487 46.4932 55.678C45.1208 56.2247 43.4692 56.5306 41.2101 56.6447ZM34.887 61.1914L34.59 61.0786C33.099 60.5132 31.3592 60.491 29.7213 61.0188C29.2992 61.1547 28.8529 61.364 28.3945 61.6411L28.1632 61.7813L28.1638 61.4953C28.1655 60.6158 28.1829 59.8757 28.2602 59.1231C28.3038 58.7019 28.4298 58.2719 28.5521 57.8563C28.6542 57.5084 28.7597 57.1482 28.8114 56.8067L28.8346 56.6533L28.9785 56.6678C30.5269 56.8241 32.222 56.6594 33.5836 56.5275L33.7451 56.5117L33.7522 56.6861C33.7537 56.7182 33.751 56.7473 33.7473 56.7764C33.7454 56.7926 33.7439 56.8049 33.7451 56.8115C33.8874 57.7509 34.156 58.6526 34.4157 59.5247C34.4698 59.7061 34.5223 59.9042 34.5767 60.1098C34.642 60.3575 34.7104 60.6158 34.7884 60.87L34.887 61.1914ZM30.9327 60.3925C32.1237 60.2115 33.3169 60.3046 34.4034 60.6621C34.36 60.5067 34.3188 60.3514 34.2788 60.2005C34.2255 59.9985 34.174 59.8039 34.1211 59.6261C33.8714 58.7868 33.588 57.8355 33.4415 56.8761C32.1394 57.002 30.5636 57.1435 29.0911 57.013C29.0316 57.3288 28.9381 57.6475 28.8472 57.957C28.7298 58.3573 28.6082 58.7715 28.5681 59.1601C28.5003 59.817 28.4795 60.4674 28.4744 61.2151C28.8721 60.992 29.2607 60.8187 29.6323 60.6993C30.0598 60.5619 30.4971 60.4588 30.9327 60.3925ZM43.3308 53.588C41.885 53.8077 40.3407 53.807 38.978 53.8064C38.4676 53.8062 37.9863 53.8059 37.5513 53.8178C36.4837 53.8467 35.378 54.0128 34.2072 54.1883C31.9557 54.5265 29.6274 54.8763 27.5357 54.1931C25.9899 53.6882 25.3944 50.1722 25.3542 47.3146L25.3597 47.2686C25.3662 47.2427 25.3756 47.217 25.3855 47.192C25.3902 47.1801 25.3958 47.1688 25.3982 47.156C25.4189 47.0505 25.4088 46.9483 25.3674 46.8428L25.355 46.8107L25.3554 46.7759C25.3761 44.3358 25.8027 41.2459 26.9356 40.5275C26.9449 40.5147 26.9573 40.4996 26.9738 40.4853L27.0256 40.4421L27.0908 40.4521C27.1571 40.4622 27.2213 40.4767 27.2849 40.4916C27.3604 40.5094 27.4363 40.5275 27.5185 40.5339C29.1102 40.6631 30.88 40.5668 33.0891 40.2311C34.2022 40.0619 35.331 39.8486 36.4223 39.6423C37.4947 39.4396 38.6034 39.23 39.6779 39.0667L39.9445 39.0272C40.1436 38.9982 40.3415 38.9692 40.537 38.9395C41.851 38.7398 43.2211 38.4874 44.2684 37.7982L44.3662 37.7338L44.4522 37.816C46.3053 39.5926 47.5641 42.9715 48.1931 47.8584C48.6169 51.1517 47.0267 53.0262 43.3308 53.588ZM25.6644 47.3381C25.7096 50.2923 26.3326 53.4516 27.6251 53.8738C29.6517 54.5352 31.9456 54.191 34.164 53.8575C35.3437 53.6805 36.4577 53.5133 37.543 53.4837C37.9802 53.4721 38.4644 53.4723 38.9776 53.4724C40.3299 53.4729 41.863 53.474 43.287 53.2575C46.8256 52.7197 48.2874 51.0179 47.8863 47.903C47.2773 43.172 46.0811 39.8903 44.3301 38.1461C43.248 38.8204 41.8861 39.0708 40.5807 39.2692C40.3845 39.299 40.1864 39.3282 39.9863 39.3572L39.7216 39.3964C38.6523 39.559 37.5461 39.7682 36.4761 39.9702C35.3823 40.1768 34.2511 40.3909 33.1328 40.5608C30.901 40.9 29.1097 40.9969 27.4958 40.8657C27.3988 40.8582 27.3091 40.8375 27.2197 40.8164C27.1868 40.8089 27.1542 40.8011 27.1211 40.7943L27.1096 40.8045C26.2747 41.3079 25.6953 43.6932 25.6657 46.7459C25.7213 46.9035 25.7335 47.064 25.7021 47.2236C25.6958 47.2566 25.6839 47.2897 25.6713 47.3216C25.6686 47.3274 25.6665 47.3328 25.6644 47.3381ZM18.3375 55.2136L18.154 55.1223C17.454 54.7744 16.6622 54.4988 15.8006 54.3024L15.6419 54.2662L15.6827 54.0974C15.8882 53.2431 16.2413 52.351 16.7939 51.2911L16.8498 51.1843L16.9611 51.2098C17.3271 51.2936 17.6451 51.4254 17.933 51.6127C18.1281 51.7399 18.3037 51.8877 18.474 52.0308C18.6582 52.186 18.8324 52.3326 19.025 52.4509L19.1517 52.5286L19.0875 52.6693C18.7345 53.4423 18.4937 54.2258 18.3716 54.9993L18.3375 55.2136ZM16.0244 54.0135C16.7742 54.1945 17.4716 54.4353 18.1019 54.7315C18.2288 54.0418 18.4456 53.3461 18.7474 52.6591C18.5833 52.5463 18.4309 52.4179 18.2827 52.2929C18.12 52.156 17.9514 52.0139 17.7724 51.8977C17.5441 51.7489 17.2929 51.6392 17.0076 51.563C16.5359 52.481 16.2203 53.2667 16.0244 54.0135ZM19.7055 51.5274L19.5739 51.4053C19.2265 51.082 18.7594 50.8398 18.3473 50.626L18.2271 50.5638C18.0565 50.4745 17.8722 50.4291 17.6772 50.381L17.3426 50.2961L17.4669 50.0967C17.9892 49.2587 18.5913 48.4024 19.2569 47.551L19.3165 47.4749L19.4072 47.4958C20.216 47.6783 20.8449 47.9259 21.3855 48.2744C21.5332 48.3695 21.6625 48.4886 21.7823 48.602L21.9046 48.7181L21.7908 48.8432C21.2533 49.4367 20.7926 49.9866 20.3826 50.5247C20.1619 50.8152 19.9657 51.1165 19.803 51.3732L19.7055 51.5274ZM17.8503 50.0822C18.0206 50.1257 18.194 50.1765 18.3619 50.2641L18.4815 50.3261C18.862 50.5235 19.2874 50.7437 19.6427 51.0366C19.7887 50.81 19.9568 50.5588 20.1433 50.3136C20.5296 49.8067 20.9593 49.2901 21.4544 48.738C21.3817 48.673 21.306 48.6114 21.2266 48.5602C20.7366 48.2444 20.1649 48.0151 19.4347 47.8428C18.8524 48.5914 18.3203 49.3434 17.8503 50.0822ZM55.1818 45.1182L55.0732 44.9501C54.8085 44.5408 54.3278 44.1367 53.5606 43.6781L53.3459 43.5498L53.8989 43.128C54.4046 42.7457 54.9276 42.35 55.372 41.911L55.4733 41.8111L55.5776 41.9074C56.1272 42.4159 56.583 42.8962 56.9709 43.3757L57.0984 43.5331L56.9272 43.6318C56.4399 43.9123 55.9753 44.2719 55.5831 44.6706C55.506 44.749 55.4318 44.8337 55.3579 44.918L55.1818 45.1182ZM53.924 43.5178C54.5217 43.8937 54.9389 44.2432 55.2123 44.5983C55.2641 44.5403 55.3165 44.4828 55.3699 44.4282C55.7357 44.0564 56.1615 43.7176 56.61 43.4399C56.2856 43.0538 55.9134 42.6642 55.4791 42.2564C55.0444 42.6697 54.5532 43.041 54.0771 43.4013L53.924 43.5178ZM22.8307 47.7419L22.7292 47.6789C22.5353 47.5581 22.3352 47.4478 22.1402 47.3404C21.6389 47.0643 21.0478 46.8659 20.3332 46.7337L20.0306 46.6774L20.252 46.4487C20.9197 45.7593 21.545 45.2036 22.1635 44.7493C22.4396 44.546 22.7521 44.4096 23.0545 44.2778L23.4412 44.1062L23.4302 44.3682C23.3997 45.1083 23.4117 45.921 23.4697 47.0033L23.474 47.0831L23.4189 47.1366C23.2697 47.2805 23.1303 47.4276 22.9892 47.5757L22.8307 47.7419ZM20.6859 46.466C21.2997 46.6023 21.8236 46.7921 22.2804 47.0436C22.446 47.1349 22.6151 47.2285 22.7809 47.3282C22.9042 47.1983 23.0269 47.0696 23.1555 46.9426C23.1071 46.0111 23.0927 45.2768 23.1111 44.613C22.8427 44.7306 22.5693 44.8546 22.3376 45.0249C21.8018 45.4185 21.259 45.8916 20.6859 46.466ZM52.6384 43.162L52.5016 43.0875C52.355 43.0077 52.218 42.9319 52.1045 42.8639L50.7996 42.0813L50.9162 41.9272C50.9292 41.9101 50.9427 41.8939 50.9563 41.878C50.9908 41.8367 51.0077 41.8153 51.0152 41.7825C51.1803 41.055 51.4561 40.3844 51.8586 39.7329L51.9246 39.6265L52.0373 39.6677C52.0912 39.6874 52.1449 39.7058 52.1989 39.7242C52.3251 39.7677 52.4512 39.8108 52.5768 39.8685C53.1134 40.1143 53.6507 40.428 54.2678 40.8561L54.3053 40.8821L54.4094 41.0747L54.3259 41.1645C54.1814 41.3346 54.0252 41.4843 53.8742 41.6292C53.8154 41.6856 53.7566 41.7417 53.6991 41.7989L53.6593 41.8383C53.2984 42.1949 52.9259 42.563 52.7079 43.0157L52.6384 43.162ZM51.271 41.9827L52.2548 42.5727C52.3302 42.6178 52.4167 42.6666 52.5089 42.7176C52.7535 42.2811 53.1075 41.9316 53.4506 41.5922L53.4904 41.5528C53.549 41.4947 53.609 41.4375 53.6692 41.3795C53.7774 41.2758 53.8879 41.1701 53.9905 41.0596C53.4349 40.6803 52.9446 40.3979 52.4569 40.175C52.3401 40.1214 52.2231 40.0816 52.1059 40.0415C52.0882 40.0354 52.0708 40.0293 52.0531 40.0232C51.7057 40.6088 51.464 41.2115 51.3165 41.8613C51.3053 41.9088 51.2893 41.9486 51.271 41.9827ZM50.3745 41.8328L50.1542 41.6942L50.1886 41.5479L50.1826 41.5474L50.1168 41.6719C49.8357 41.4998 49.5612 41.3472 49.3012 41.2187L49.244 41.1903L49.2212 41.1271C48.9227 40.2929 48.6476 39.6393 48.3552 39.0709L48.1876 38.7451L48.5247 38.8276C48.9439 38.9299 49.3743 39.0137 49.7903 39.0939C50.1119 39.1561 50.4341 39.2186 50.7567 39.2905L50.951 39.3337L50.8655 39.5262C50.5825 40.1592 50.4173 40.8618 50.3869 41.5581L50.3745 41.8328ZM49.4875 40.9445C49.6839 41.0433 49.8869 41.1549 50.0948 41.2772C50.1466 40.6952 50.2861 40.115 50.5031 39.5759C50.2469 39.5215 49.9911 39.4718 49.7356 39.4224C49.4233 39.3618 49.103 39.3 48.7843 39.2289C49.0191 39.7199 49.2465 40.2747 49.4875 40.9445ZM36.8468 37.5893C33.1485 38.1514 29.0721 38.2867 27.8134 38.2918C26.671 38.2961 25.6773 37.8537 24.8603 36.9771C21.8499 33.7473 21.85 25.4764 21.8499 21.033L21.8497 20.5401L21.9314 20.4539C22.9388 19.2336 24.6167 18.453 27.0437 18.0841C28.979 17.7899 31.1038 17.7859 33.1589 17.7823C35.0721 17.7791 36.8737 17.7767 38.2632 17.5288L38.3951 17.5071C39.8255 17.2897 41.0294 17.7115 41.974 18.7604C43.6098 20.5774 44.1559 23.9699 44.3257 26.4957C44.5328 29.5771 44.2827 32.6822 44.0056 34.405C43.7763 35.8306 41.3677 36.9022 36.8468 37.5893ZM22.1598 20.6765L22.1599 21.0337C22.16 25.1158 22.1597 33.6096 25.079 36.7415C25.8354 37.5532 26.755 37.9627 27.8122 37.9589C29.0647 37.9541 33.122 37.819 36.8031 37.2595C41.1143 36.6043 43.4996 35.5975 43.7009 34.3476C44.2886 30.6965 44.5854 22.1394 41.752 18.9921C40.8804 18.0241 39.7659 17.6355 38.4392 17.8372L38.3146 17.8578C36.9005 18.106 35.0868 18.1123 33.1603 18.1159C31.1158 18.1195 29.0019 18.1235 27.0881 18.4144C24.7472 18.7699 23.1349 19.5099 22.1598 20.6765ZM52.8655 24.5441C52.7778 24.5574 52.69 24.5667 52.6016 24.5727L52.0987 24.6074L52.1811 24.5383C52.1746 24.5359 52.1686 24.5338 52.1637 24.5319L52.048 24.4892L52.0477 24.4848L51.9786 24.4563L51.9575 24.3756C51.933 24.2824 51.9122 24.203 51.875 24.1562C51.7992 24.0606 51.7139 23.9762 51.6399 23.9067C51.6163 23.884 51.5805 23.8733 51.5243 23.8576C51.497 23.8499 51.4697 23.8423 51.4431 23.8325L51.3823 23.8104L51.3609 23.7645L51.258 23.7169L51.3114 23.6007C51.3085 23.5816 51.3035 23.5534 51.2959 23.5121C51.2305 23.1647 51.24 22.8966 51.2568 22.6297C51.3118 21.763 51.5857 20.9384 51.8376 20.2337L51.9086 20.0353L52.0708 20.1572C52.6689 20.6071 53.351 21.1695 53.8769 21.9308C54.0348 22.1593 54.1317 22.3598 54.2468 22.6955L54.2708 22.7794C54.2716 22.7931 54.2758 22.8218 54.2864 22.8835C54.2963 22.9463 54.3041 23.0077 54.3096 23.0699L54.3123 23.086L54.3161 23.1217C54.3142 23.1877 54.3044 23.2528 54.2943 23.3184L54.2707 23.4092C54.2722 23.4089 54.2639 23.4402 54.2541 23.475C54.2368 23.5359 54.2167 23.6056 54.2026 23.6431L54.176 23.7044L54.1423 23.755C54.125 23.7822 54.0799 23.8406 54.0383 23.8927C54.015 23.9225 53.9933 23.9494 53.9827 23.9644L53.9577 23.9925C53.9069 24.0413 53.8568 24.09 53.8036 24.1351C53.7626 24.1697 53.7214 24.2015 53.6796 24.2328L53.6613 24.248C53.6607 24.2481 53.6601 24.2485 53.6595 24.249L53.6384 24.2616C53.57 24.2999 53.4677 24.3445 53.334 24.4022C53.2594 24.4344 53.1936 24.4619 53.1709 24.4744L53.1339 24.4898C53.0452 24.5124 52.9556 24.5304 52.8655 24.5441ZM52.6219 24.237C52.7642 24.2258 52.9068 24.2041 53.0457 24.1692C53.0818 24.1512 53.1468 24.1228 53.2191 24.092C53.3099 24.0529 53.4448 23.995 53.4923 23.9683C53.5436 23.9285 53.5788 23.9013 53.6134 23.8724C53.6601 23.8327 53.7058 23.7883 53.7516 23.7443C53.7502 23.7439 53.7757 23.7117 53.8032 23.6765C53.8359 23.6352 53.873 23.5892 53.8865 23.5682C53.8983 23.5489 53.9058 23.5374 53.9119 23.529C53.9138 23.524 53.9157 23.5197 53.9173 23.5154C53.928 23.4899 53.9438 23.4299 53.9583 23.3785C53.9716 23.3304 53.9803 23.3014 53.9869 23.2809L53.9901 23.2626C53.9969 23.2188 54.0042 23.1752 54.0065 23.1311L54.0031 23.1074C53.9977 23.0482 53.9909 22.9947 53.9824 22.9418C53.974 22.8929 53.9692 22.8593 53.9664 22.8358C53.9637 22.8295 53.9608 22.8215 53.9572 22.8109C53.839 22.4666 53.7508 22.3059 53.629 22.1297C53.1759 21.4739 52.5924 20.9672 52.0568 20.5543C51.8345 21.1899 51.6136 21.9117 51.5667 22.653C51.5508 22.9056 51.5424 23.1396 51.6003 23.447C51.6072 23.483 51.6125 23.5135 51.6166 23.5395C51.6864 23.5591 51.7704 23.5861 51.8455 23.6575C51.9221 23.7301 52.0217 23.8284 52.111 23.9405C52.1707 24.0159 52.2041 24.1028 52.2287 24.1873C52.3106 24.1839 52.497 24.1842 52.6219 24.237ZM18.7777 29.6755C18.598 29.7028 18.4028 29.7136 18.1801 29.7088L18.0282 29.7052L18.0282 29.5419C18.0286 29.1081 17.9996 28.7051 17.9421 28.3444C17.9394 28.3266 17.9335 28.308 17.9282 28.2889C17.9206 28.2625 17.9137 28.2359 17.9084 28.2108L17.8718 28.0237L18.0489 28.0106C18.2474 27.9956 18.4524 27.9853 18.6603 27.9749C19.0707 27.9547 19.4948 27.9336 19.8955 27.8727L20.1458 27.8313L20.1576 28.0124C20.1656 28.1294 20.171 28.2454 20.1767 28.3617C20.1852 28.5392 20.1936 28.7164 20.2101 28.8951L20.2247 29.0545L20.0771 29.0763C19.9263 29.0992 19.7994 29.1613 19.6961 29.2615C19.4735 29.4775 19.1646 29.6167 18.7777 29.6755ZM18.3368 29.3761C18.8703 29.3691 19.2438 29.2514 19.4887 29.0135C19.6045 28.9013 19.7389 28.8223 19.8899 28.7774C19.8804 28.6442 19.8741 28.5114 19.8677 28.3784C19.8651 28.3235 19.8623 28.2691 19.8594 28.2143C19.4691 28.2686 19.0658 28.2884 18.675 28.3078C18.5327 28.3149 18.3919 28.3218 18.2539 28.3304C18.303 28.6516 18.3308 29.0026 18.3368 29.3761ZM33.4198 15.8114L33.2419 15.8216C32.682 15.8539 32.0987 15.8678 31.4593 15.8639L31.3319 15.8631L31.3078 15.7283C31.291 15.6343 31.2778 15.5393 31.265 15.4476C31.2547 15.3747 31.2451 15.3042 31.2339 15.2385C31.0867 14.3756 31.035 13.4729 31.0807 12.5547C31.0747 12.533 31.0709 12.5117 31.07 12.4883L31.064 12.3205L31.2197 12.3153C31.7229 12.2991 32.2779 12.1801 32.8704 11.9621L33.0732 11.8875L33.0756 12.1185C33.0884 13.3972 33.1926 14.5761 33.3851 15.6228L33.4198 15.8114ZM31.5901 15.5312C32.1066 15.5325 32.5864 15.5216 33.0478 15.4986C32.8837 14.5432 32.7902 13.4856 32.7688 12.3493C32.2811 12.5133 31.8205 12.6106 31.3864 12.6412C31.3479 13.5095 31.3987 14.3632 31.5382 15.1795C31.5498 15.2484 31.5602 15.3226 31.571 15.3991C31.5771 15.4426 31.5832 15.4868 31.5901 15.5312ZM31.433 10.4955C30.2506 10.6752 28.8614 10.2475 28.6063 8.8834C28.5013 8.32283 28.6221 7.77277 28.9747 7.2026L29.0365 7.10296L29.1439 7.13445C29.4627 7.22743 29.8985 7.17905 30.1976 7.01773C31.7006 6.20774 32.911 6.45211 33.5268 7.71056C33.7875 8.24307 33.8173 8.7366 33.6151 9.17714C33.1853 10.1133 31.9072 10.4113 31.5255 10.4804L31.433 10.4955ZM29.1751 7.48363C28.9105 7.94579 28.8262 8.37212 28.9094 8.8178C29.1251 9.96968 30.3461 10.3239 31.389 10.1654L31.4731 10.1513C32.1838 10.0227 33.0468 9.66021 33.3368 9.02884C33.4926 8.68929 33.4642 8.29793 33.2524 7.86541C32.8794 7.10347 32.2872 6.77827 31.492 6.89914C31.1385 6.95286 30.7496 7.09313 30.3362 7.31557C30.002 7.49568 29.5465 7.56053 29.1751 7.48363Z" fill="#2AC1BC"/>
    <path d="M28.5203 20.31C28.1589 20.1665 27.854 20.2775 27.6548 20.5001C27.3083 20.2756 26.948 20.1145 26.4494 20.1425C25.5234 20.1943 24.5906 20.7638 24.0031 21.5128C22.4912 23.4404 24.2132 26.8997 25.9608 27.9367C27.7634 29.006 29.6313 27.6266 30.4047 25.8446C31.2754 23.8386 30.5336 21.1095 28.5203 20.31ZM28.6821 24.9355C28.5445 25.3056 28.3136 25.5909 28.0435 25.8391C28.011 25.6723 27.9439 25.5383 27.8575 25.4245C27.7897 25.2597 27.7318 25.0897 27.6741 24.9207C27.566 24.6054 27.4616 24.2916 27.4152 24.0262C27.2101 22.8535 25.7016 22.9606 25.5304 23.9561C25.3754 23.5149 25.3477 23.0605 25.6122 22.6492C25.9224 22.1673 26.4019 21.9907 26.8763 21.7644C27.0342 21.6888 27.2512 21.535 27.4659 21.4131C27.5114 21.5655 27.5833 21.7142 27.7145 21.8404C28.6222 22.7147 29.1715 23.6182 28.6821 24.9355Z" fill="#2AC1BC"/>
    <path d="M27.659 28.4487C27.6587 28.4488 27.6587 28.4488 27.659 28.4487C27.0487 28.5415 26.4522 28.4183 25.8864 28.0824C24.7036 27.3806 23.6073 25.6678 23.3362 24.0983C23.1517 23.0293 23.3414 22.098 23.8847 21.4048C24.5311 20.5806 25.5031 20.0291 26.4412 19.9757C26.9546 19.9469 27.3322 20.1107 27.6345 20.2941C27.8909 20.0719 28.2331 20.0183 28.5737 20.153C29.4864 20.5154 30.2068 21.2841 30.6021 22.3178C31.0432 23.4711 31.0221 24.8156 30.5447 25.9146C29.9538 27.2776 28.8209 28.2722 27.659 28.4487ZM26.2261 20.3331C25.4594 20.4496 24.6526 20.943 24.1215 21.6204C23.5131 22.3961 23.5243 23.3633 23.6406 24.0383C23.8962 25.5192 24.9259 27.1326 26.0354 27.7907C26.5415 28.0909 27.0727 28.2014 27.615 28.119C28.676 27.9578 29.7162 27.0373 30.2644 25.774C30.7052 24.758 30.7246 23.5139 30.3156 22.4452C29.9535 21.4991 29.2969 20.7964 28.4667 20.4667C28.1983 20.36 27.9444 20.4164 27.7659 20.6159L27.6804 20.7114L27.5747 20.643C27.2822 20.4534 26.9442 20.2818 26.4572 20.3091C26.3805 20.3133 26.3034 20.3213 26.2261 20.3331ZM27.9453 26.1484L27.892 25.8729C27.8674 25.7463 27.8169 25.6341 27.7377 25.53L27.7161 25.4919C27.6488 25.3287 27.5912 25.1606 27.534 24.9935C27.4162 24.6494 27.3109 24.3314 27.2633 24.0571C27.1646 23.4936 26.7171 23.2982 26.3428 23.3551C26.0694 23.3967 25.7524 23.5846 25.6832 23.9874L25.5823 24.5739L25.3861 24.0158C25.189 23.4554 25.2224 22.9637 25.4853 22.555C25.7836 22.0915 26.2217 21.8885 26.6453 21.6918L26.8138 21.613C26.9003 21.5719 27.0053 21.505 27.1179 21.4344C27.2071 21.3784 27.3006 21.3197 27.394 21.2665L27.5574 21.1736L27.6138 21.3631C27.6587 21.5135 27.7237 21.6259 27.8179 21.7166C28.6292 22.4981 29.3835 23.4991 28.8266 24.9984C28.6943 25.3529 28.4777 25.6606 28.1445 25.9665L27.9453 26.1484ZM27.9911 25.3372C28.0393 25.4033 28.0799 25.4719 28.1126 25.5441C28.312 25.3302 28.4493 25.113 28.5385 24.8732C28.9961 23.6412 28.4988 22.8193 27.6115 21.9642C27.5194 21.8758 27.4456 21.7718 27.3887 21.6495C27.35 21.6732 27.3116 21.6972 27.2741 21.7211C27.1528 21.7975 27.0382 21.8691 26.9394 21.9165L26.7677 21.9968C26.3664 22.183 25.9875 22.3588 25.7396 22.744C25.6045 22.9538 25.5497 23.1898 25.5743 23.4578C25.7418 23.2279 25.9973 23.0702 26.2987 23.0244C26.8306 22.9436 27.437 23.2511 27.5675 23.9954C27.6109 24.2444 27.7114 24.548 27.8195 24.8633C27.8768 25.0317 27.9299 25.1869 27.9911 25.3372Z" fill="#2AC1BC"/>
    <path d="M36.8787 18.5098C36.1804 18.6398 36.0714 19.4714 36.4693 19.9096C35.1508 20.6976 34.3159 22.3927 34.8165 24.0048C35.5369 26.3242 38.1937 26.3491 39.9847 25.6947C44.368 24.0927 40.3356 17.8652 36.8787 18.5098ZM39.6598 23.7808C39.4998 23.9045 39.293 24.0009 39.0717 24.0797C39.0392 23.7846 38.9866 23.4888 38.948 23.1977C38.9352 21.8331 36.7613 22.078 36.9499 23.5014C36.9717 23.6664 36.9887 23.8342 37.008 24.0017C36.7736 23.8706 36.5753 23.691 36.4521 23.441C35.9491 22.4203 36.7235 21.2829 37.4566 20.7145C37.588 20.6128 37.6534 20.4839 37.6709 20.3513C38.4062 20.5621 39.0371 20.8747 39.6042 21.5789C40.1604 22.2695 40.4306 23.1852 39.6598 23.7808Z" fill="#2AC1BC"/>
    <path d="M38.8209 26.1626C36.7298 26.4804 35.1779 25.6933 34.6694 24.0575C34.1315 22.3246 35.0326 20.6709 36.2378 19.8627C36.0855 19.606 36.0417 19.2823 36.1289 18.9913C36.2319 18.6473 36.4953 18.4119 36.8517 18.3453L36.9463 18.3296C39.1514 17.9944 41.4962 20.2818 41.9672 22.3991C42.3265 24.0138 41.6219 25.2722 40.0341 25.8526C39.6446 25.9953 39.2359 26.0995 38.8209 26.1626ZM36.9903 18.6596L36.9056 18.6739C36.6626 18.7192 36.4916 18.8684 36.4239 19.0939C36.352 19.3348 36.4131 19.6091 36.58 19.7929L36.7221 19.9491L36.5447 20.0548C35.3748 20.7539 34.456 22.317 34.9637 23.9515C35.6406 26.1311 38.0539 25.9418 38.7773 25.8318C39.1734 25.7716 39.5628 25.6724 39.9347 25.5364C41.876 24.8268 41.8529 23.3143 41.6665 22.4758C41.2249 20.4928 39.0409 18.348 36.9903 18.6596ZM38.9406 24.3021L38.9181 24.0991C38.8991 23.9252 38.8725 23.7507 38.8461 23.5773C38.8281 23.4581 38.8102 23.3389 38.7945 23.2208C38.7909 22.9694 38.7183 22.7872 38.5782 22.6573C38.1344 22.2465 36.9741 22.503 37.1032 23.4778C37.1188 23.5957 37.1318 23.7149 37.1452 23.8345L37.1974 24.2953L36.937 24.1496C36.6523 23.9905 36.4435 23.7785 36.3153 23.5191C35.7947 22.4624 36.495 21.2545 37.366 20.5792C37.4536 20.5114 37.5043 20.4269 37.5174 20.3276L37.542 20.142L37.7106 20.1901C38.3407 20.3708 39.0726 20.6644 39.7212 21.4699C40.1356 21.9841 40.3356 22.5286 40.284 23.0031C40.2448 23.3657 40.0653 23.6732 39.7501 23.9164C39.5927 24.0383 39.3868 24.1434 39.1207 24.238L38.9406 24.3021ZM37.8279 22.1423C38.193 22.0868 38.5403 22.1822 38.7802 22.4046C38.9884 22.5973 39.1 22.8709 39.103 23.1961C39.1168 23.2903 39.1344 23.4072 39.1522 23.5244C39.1688 23.6336 39.1852 23.7433 39.2 23.8528C39.3516 23.7884 39.4733 23.72 39.5701 23.6454C39.8112 23.4592 39.9482 23.23 39.9768 22.9643C40.0175 22.5894 39.8392 22.1245 39.4881 21.6882C39.0378 21.129 38.5347 20.7943 37.7766 20.5559C37.7291 20.6695 37.652 20.7695 37.5482 20.8502C36.9986 21.2766 36.0907 22.3501 36.5899 23.3632C36.6451 23.4757 36.7196 23.5755 36.8149 23.6641C36.8096 23.6174 36.8038 23.5712 36.7977 23.5249C36.6873 22.6992 37.2546 22.2294 37.8279 22.1423Z" fill="#2AC1BC"/>
    <path d="M41.3506 29.5777C37.0546 29.8515 32.7793 30.6403 28.4611 30.4022C28.2381 30.39 27.9888 30.4585 27.859 30.6753C27.8589 30.6884 27.8584 30.7016 27.8582 30.7144C27.6608 30.631 27.4878 30.9351 27.6718 31.0684C27.693 31.1103 27.7145 31.1518 27.7356 31.1934C27.75 31.3323 27.8182 31.4418 27.8985 31.5377C27.0038 32.489 27.9955 35.1403 28.4308 36.0298C28.6993 36.579 29.4495 36.272 29.3227 35.7117C29.9155 35.4671 31.8854 35.2829 33.9899 35.1539C34.1583 35.5072 34.5939 35.4666 34.7019 35.1131C35.2101 35.085 35.7138 35.061 36.2044 35.0389C36.3659 35.144 36.5606 35.1451 36.7112 35.0168C38.3957 34.947 39.7927 34.9141 40.1346 34.9171C40.5801 34.9207 40.8983 34.6858 40.9925 34.2045C41.2098 33.0945 41.1273 32.0662 40.961 30.964C41.1464 30.9261 41.3355 30.899 41.52 30.8562C42.2795 30.6808 42.1219 29.5288 41.3506 29.5777ZM29.0697 34.8194C28.9317 34.2898 28.8302 33.7523 28.7987 33.1914C28.773 32.7333 28.8979 32.2785 28.8193 31.85C29.2191 31.9054 29.6273 31.9272 30.0364 31.9422C30.0178 32.7172 30.2109 33.5751 30.3659 34.2658C29.8352 34.4246 29.3846 34.6066 29.0697 34.8194ZM31.2304 34.0405C31.201 33.5398 31.1665 33.0389 31.1658 32.538C31.1657 32.3366 31.1928 32.1392 31.215 31.9412C31.7747 31.9241 32.3354 31.8881 32.8903 31.8468C32.9351 32.0929 33.0369 32.3351 33.129 32.5794C33.2649 32.9389 33.398 33.2995 33.5234 33.663C32.7141 33.7628 31.9283 33.8859 31.2304 34.0405ZM34.3213 32.446C34.2664 32.2041 34.2245 31.97 34.1641 31.7475C34.3064 31.7363 34.4537 31.7241 34.5945 31.7134C34.9949 31.6832 35.4002 31.6476 35.8029 31.616C35.8313 31.8353 35.8839 32.0627 35.93 32.3207C35.9958 32.6875 36.0468 33.0559 36.0684 33.4244C35.5728 33.4583 35.0631 33.499 34.5512 33.5489C34.4818 33.1803 34.4043 32.8129 34.3213 32.446ZM39.5797 33.2803C38.9836 33.287 38.1057 33.3124 37.1165 33.3637C37.1326 33.1151 37.1534 32.8682 37.1528 32.6133C37.1509 32.2476 37.1794 31.861 37.135 31.5065C37.9434 31.4307 38.7521 31.3415 39.554 31.221C39.6149 31.9169 39.6479 32.5954 39.5797 33.2803Z" fill="#2AC1BC"/>
    <path d="M40.3331 35.0701C40.2696 35.0797 40.203 35.0841 40.1335 35.0839C39.7922 35.0809 38.4003 35.1143 36.7636 35.1816C36.5894 35.3043 36.3611 35.3131 36.1679 35.2078C35.7218 35.2278 35.2653 35.2497 34.8042 35.2746C34.723 35.4294 34.5826 35.5356 34.4183 35.5606C34.2206 35.5906 34.0294 35.5001 33.9078 35.326C31.6032 35.4695 30.0774 35.6442 29.4915 35.8272C29.4929 35.9559 29.4596 36.0795 29.3926 36.1857C29.2932 36.3439 29.1306 36.4505 28.9473 36.4783C28.676 36.5196 28.4254 36.3775 28.2934 36.1076C27.8418 35.1845 26.892 32.6305 27.6962 31.5314C27.6476 31.4553 27.6035 31.3606 27.5859 31.2468L27.5513 31.179C27.4593 31.0936 27.4196 30.966 27.4471 30.8365C27.4814 30.675 27.614 30.5475 27.7615 30.5348C27.911 30.3272 28.1896 30.2206 28.4687 30.236C31.333 30.3941 34.2318 30.0926 37.0354 29.8015C38.4454 29.6549 39.9033 29.5033 41.341 29.4118C41.8404 29.3803 42.1173 29.7548 42.1633 30.1159C42.209 30.4729 42.0374 30.9078 41.5528 31.0195C41.4414 31.0455 41.3284 31.0657 41.2154 31.086C41.1897 31.0905 41.1637 31.0952 41.1381 31.1001C41.2777 32.0685 41.3639 33.1162 41.1441 34.2397C41.0521 34.7092 40.7641 35.0046 40.3331 35.0701ZM36.6546 34.852L36.705 34.85C38.3665 34.7814 39.7881 34.7475 40.1356 34.7502C40.5197 34.7531 40.7657 34.5561 40.8412 34.1699C41.0626 33.0371 40.9566 31.9722 40.8083 30.9902L40.7843 30.8302L40.932 30.8C41.009 30.7843 41.0863 30.7705 41.1639 30.7567C41.2721 30.7372 41.3805 30.718 41.4874 30.6934C41.8008 30.6208 41.8821 30.361 41.8565 30.1605C41.8284 29.9394 41.6637 29.7251 41.3597 29.7443C39.928 29.8356 38.4728 29.9868 37.0655 30.133C34.2509 30.4254 31.3404 30.728 28.4531 30.5688C28.4046 30.566 28.3548 30.5679 28.3054 30.5754C28.2134 30.5894 28.0922 30.628 28.0127 30.731L28.0093 30.9178L27.8015 30.8695C27.7707 30.8685 27.7532 30.8903 27.7488 30.9109L27.7803 30.934L27.8858 31.1426L27.8892 31.1754C27.8979 31.2576 27.9347 31.3325 28.0135 31.4266L28.1124 31.5449L28.0074 31.6565C27.2415 32.471 28.054 34.9027 28.5677 35.9524C28.669 36.1596 28.8364 36.1584 28.9039 36.1482C28.9995 36.1336 29.0866 36.0776 29.1364 35.9983C29.1811 35.9272 29.1935 35.8438 29.1725 35.7511L29.1401 35.6085L29.2673 35.5562C29.8025 35.3351 31.3925 35.1463 33.9809 34.9876L34.0817 34.9814L34.1277 35.0781C34.19 35.2087 34.2961 35.2424 34.3746 35.2305C34.4601 35.2175 34.526 35.1556 34.5548 35.061L34.5876 34.9526L34.6935 34.9466C35.2023 34.9185 35.7067 34.8943 36.1976 34.8723L36.2442 34.8702L36.2843 34.8965C36.3942 34.9683 36.5214 34.9655 36.615 34.8859L36.6546 34.852ZM28.9765 35.0794L28.9205 34.8643C28.7613 34.2527 28.6732 33.7243 28.6439 33.2014C28.6322 32.9924 28.6496 32.7884 28.6662 32.5909C28.6875 32.3405 28.7077 32.1034 28.6671 31.8822L28.6255 31.6552L28.8386 31.6848C29.2429 31.7408 29.6553 31.7617 30.0412 31.7754L30.1948 31.781L30.1908 31.9466C30.1729 32.6963 30.3619 33.54 30.5139 34.2177L30.549 34.374L30.407 34.4259C29.8532 34.5916 29.4308 34.7713 29.1518 34.9602L28.9765 35.0794ZM28.9967 32.0399C29.0075 32.2352 28.9909 32.4307 28.9749 32.6214C28.9593 32.8063 28.9428 32.9977 28.9534 33.1813C28.9781 33.6204 29.0461 34.0653 29.167 34.5672C29.4294 34.4186 29.7639 34.2809 30.1805 34.1492C30.0411 33.5241 29.8885 32.792 29.8807 32.1029C29.5942 32.0912 29.2957 32.0736 28.9967 32.0399ZM39.7188 33.4454L39.5817 33.4467C38.8881 33.4544 37.9924 33.4848 37.124 33.5303L36.9495 33.5393L36.9705 33.2209C36.9839 33.0225 36.998 32.8173 36.9976 32.6133C36.997 32.5053 36.9994 32.3955 37.001 32.2848C37.006 32.0298 37.011 31.7661 36.9811 31.5281L36.9594 31.355L37.1206 31.3399C38.0588 31.2522 38.8249 31.1617 39.532 31.0556L39.6924 31.0315L39.7076 31.2053C39.7619 31.8234 39.8073 32.5557 39.733 33.2981L39.7188 33.4454ZM37.2833 33.1885C38.0426 33.1509 38.8113 33.125 39.4387 33.1155C39.4854 32.5194 39.4564 31.9298 39.4144 31.4099C38.7872 31.5008 38.1088 31.5803 37.3047 31.6578C37.3191 31.8681 37.3151 32.0832 37.311 32.2929C37.309 32.4003 37.3069 32.5077 37.3074 32.613C37.3078 32.8093 37.2961 33.0017 37.2833 33.1885ZM36.2325 33.5802L36.0785 33.5908C35.5841 33.6246 35.076 33.6651 34.5651 33.7151L34.4271 33.7287L34.3995 33.582C34.334 33.234 34.2593 32.8753 34.1708 32.4857C34.1515 32.3993 34.1333 32.3142 34.1156 32.23C34.0843 32.0806 34.0537 31.935 34.0154 31.7944L33.9617 31.5968L34.5835 31.5477C34.8098 31.5305 35.0384 31.5116 35.2667 31.493L35.936 31.4391L35.9562 31.594C35.9741 31.7314 36.0015 31.8717 36.0313 32.0214C36.0484 32.1077 36.0655 32.197 36.0822 32.2901C36.1569 32.7078 36.2032 33.0759 36.2231 33.415L36.2325 33.5802ZM34.6747 33.3695C35.088 33.3306 35.4992 33.2974 35.902 33.2688C35.8791 32.9898 35.8381 32.6879 35.778 32.3518C35.7615 32.2607 35.7446 32.1734 35.7278 32.0887C35.7077 31.9867 35.6889 31.8892 35.6725 31.7937L35.2906 31.8245C35.0614 31.8435 34.8328 31.8624 34.6052 31.8795L34.3616 31.8987C34.3807 31.9833 34.3992 32.0691 34.4173 32.1562C34.4348 32.2384 34.4521 32.322 34.4715 32.4066C34.5484 32.7465 34.6153 33.063 34.6747 33.3695ZM31.0873 34.2424L31.0644 33.8599C31.0384 33.4275 31.0114 32.9803 31.0109 32.5376C31.0108 32.3551 31.0315 32.1785 31.0514 32.0074L31.0773 31.7782L31.2103 31.7742C31.8171 31.7557 32.4211 31.7144 32.8795 31.6804L33.016 31.6701L33.0423 31.8146C33.0772 32.0067 33.1511 32.1992 33.2295 32.4034L33.2726 32.5168C33.4089 32.8776 33.5426 33.2398 33.6685 33.6049L33.7372 33.8043L33.5412 33.8283C32.7131 33.9303 31.9079 34.0604 31.2619 34.2034L31.0873 34.2424ZM31.3524 32.1035C31.3352 32.2519 31.3206 32.3942 31.3206 32.538C31.3212 32.9699 31.3478 33.4117 31.3734 33.8389L31.3735 33.8392C31.9401 33.7208 32.614 33.6116 33.3085 33.5219C33.2045 33.2272 33.0959 32.9342 32.9853 32.6419L32.9429 32.5302C32.8798 32.3653 32.8149 32.1964 32.77 32.0227C32.363 32.0522 31.8629 32.0851 31.3524 32.1035Z" fill="#2AC1BC"/>
    <path d="M44.6738 41.1609C44.4856 40.8238 44.0238 40.6903 43.6875 40.7363C42.5625 40.8918 41.4214 40.9464 40.2899 41.0167C39.7526 41.0498 39.2 41.0399 38.6681 41.1305C38.3333 41.1878 38.0929 41.3331 37.8634 41.5952C37.7547 41.7192 37.9951 41.4867 38.1792 41.4789C38.187 41.4932 38.1941 41.5066 38.2022 41.5205C37.8266 41.5651 37.5042 41.8721 37.5608 42.3659C37.6107 42.8035 37.8599 43.0492 38.1944 43.1896C37.821 44.6506 37.747 46.3658 38.1006 47.8304C38.2164 48.3105 38.4595 48.5736 38.909 48.6899C39.977 48.9663 41.0164 48.7359 42.0745 48.461C43.0075 48.2185 44.3224 47.9533 45.0941 47.2938C45.829 46.6659 45.617 45.0986 45.5392 44.2328C45.4416 43.1607 45.1912 42.0871 44.6738 41.1609ZM39.6324 46.6601C39.3724 46.0221 39.1387 45.3646 39.024 44.688C38.9436 44.2136 38.8717 43.7652 38.7159 43.3252C39.1072 43.3775 39.5356 43.3609 39.9032 43.3407C41.0013 43.2799 42.1062 43.2117 43.2023 43.0912C43.4623 43.8403 43.5849 44.8511 43.5027 45.6041C42.3118 46.1613 40.9241 46.6045 39.6324 46.6601Z" fill="#2AC1BC"/>
    <path d="M40.7941 48.9108C40.066 49.0215 39.4556 49.0028 38.8727 48.8519C38.3737 48.723 38.0804 48.4117 37.9504 47.8721C37.6168 46.4896 37.639 44.8254 38.0103 43.2842C37.6559 43.0946 37.4533 42.7931 37.4069 42.3859C37.3665 42.0321 37.4914 41.7562 37.6895 41.5782C37.704 41.5342 37.7339 41.5004 37.7508 41.481C38.0085 41.1862 38.2839 41.0275 38.6433 40.9662L38.7247 40.9531C39.0791 40.8993 39.4426 40.8858 39.7939 40.8724C39.9567 40.8666 40.1194 40.8604 40.2804 40.8504L40.755 40.8213C41.7138 40.7638 42.7047 40.7042 43.6672 40.571C44.0631 40.5169 44.5813 40.6725 44.8064 41.0754C45.2828 41.929 45.5811 42.9859 45.6929 44.2172L45.7115 44.4164C45.8018 45.3601 45.9379 46.7861 45.1903 47.4247C44.4843 48.0277 43.3634 48.3082 42.4626 48.5336L42.1107 48.6228C41.6221 48.7499 41.2116 48.8473 40.7941 48.9108ZM38.2186 41.686C37.924 41.7308 37.669 41.9497 37.7142 42.3453C37.7516 42.6773 37.9222 42.8959 38.2501 43.034L38.3806 43.0885L38.3435 43.2336C37.9533 44.7591 37.9196 46.419 38.2501 47.7882C38.3523 48.2124 38.5536 48.4263 38.9445 48.5275C39.4885 48.6681 40.0621 48.685 40.7503 48.5804C41.1553 48.5188 41.5576 48.4233 42.0374 48.2985L42.3917 48.209C43.2622 47.9908 44.3459 47.7197 44.9971 47.1631C45.612 46.6376 45.4864 45.3211 45.4032 44.4498L45.3844 44.2489C45.277 43.0675 44.9933 42.0572 44.5404 41.2465C44.3915 40.9795 43.9996 40.8613 43.7066 40.9018C42.7334 41.0362 41.7365 41.0961 40.7726 41.1544L40.2985 41.183C40.1351 41.1934 39.9698 41.1993 39.8046 41.2056C39.461 41.2187 39.1063 41.2319 38.7678 41.2833L38.6919 41.2955C38.5552 41.319 38.4353 41.3584 38.3248 41.419L38.4609 41.6576L38.2183 41.6867C38.2189 41.686 38.2186 41.686 38.2186 41.686ZM40.4429 46.7467C40.1673 46.7886 39.897 46.8155 39.6389 46.8265L39.5331 46.8311L39.4905 46.7268C39.2685 46.1817 38.9972 45.4605 38.8713 44.7179L38.8609 44.6555C38.7857 44.211 38.7148 43.7911 38.5709 43.3849L38.4788 43.1262L38.7341 43.1604C39.1152 43.2113 39.533 43.1946 39.8947 43.1746C40.8946 43.1193 42.0563 43.0498 43.186 42.9256L43.3051 42.9129L43.347 43.0335C43.6162 43.8102 43.7404 44.851 43.6561 45.6242L43.6458 45.7191L43.5643 45.7574C42.4977 46.2563 41.4181 46.5985 40.4429 46.7467ZM39.7313 46.4881C40.8195 46.4234 42.0926 46.0713 43.3578 45.4898C43.4142 44.8158 43.3128 43.9533 43.0969 43.2705C41.9984 43.3873 40.8793 43.454 39.9113 43.5075C39.6104 43.5239 39.2717 43.5384 38.9403 43.5153C39.043 43.8681 39.103 44.2237 39.1658 44.5964L39.1765 44.6584C39.2881 45.3193 39.5148 45.9492 39.7313 46.4881Z" fill="#2AC1BC"/>
  </g>
  <defs>
    <clipPath id="clip0">
      <rect width="60.4011" height="64.8627" fill="white" transform="matrix(0.988646 -0.150263 0.131331 0.991339 0 9.07605)"/>
    </clipPath>
  </defs>
</svg>
