<svg width="41" height="38" viewBox="0 0 41 38" fill="none"
  xmlns="http://www.w3.org/2000/svg">
  <g clip-path="url(#clip0)">
    <path d="M23.3895 10.9805C22.7348 6.69971 18.8476 5.17468 15.4284 5.17468C15.0232 5.17468 14.6094 5.19525 14.2137 5.2344C11.9408 5.30757 9.74444 6.25755 8.33872 7.77585C7.15109 9.05883 6.64266 10.606 6.86763 12.2509C7.3524 15.7886 10.6555 18.2592 14.8997 18.2592C14.8997 18.2592 14.8997 18.2592 14.9002 18.2592C15.3643 18.2592 15.8336 18.2276 16.2943 18.1659C20.092 17.6561 23.9397 14.5791 23.3895 10.9805ZM16.7558 16.536C16.0912 16.7128 15.4133 16.8022 14.7402 16.8022C12.1735 16.8022 9.91005 15.488 8.83382 13.3725C8.2841 12.2924 8.23721 11.1656 8.69962 10.114C9.26612 8.8251 10.5712 7.71376 12.1928 7.13594C12.2561 7.13198 12.3154 7.1221 12.3744 7.10588C13.0037 6.93186 13.6437 6.80728 14.258 6.73689C14.3337 6.73451 14.4098 6.73214 14.4851 6.73214H14.5225C14.6197 6.73214 14.7135 6.71751 14.8025 6.68903C15.0413 6.67321 15.2791 6.66491 15.5148 6.66491C18.8235 6.66491 21.09 8.21722 21.7335 10.924C22.1193 12.5455 21.1106 15.3776 16.7558 16.536Z" fill="black"/>
    <path d="M20.7932 19.3709C24.4507 17.6648 26.3124 15.3365 26.6444 12.0646C26.9344 9.20198 25.4981 6.2156 22.7985 4.04829C23.1598 3.23792 23.411 2.49795 23.5646 1.79042C23.6175 1.54719 23.5551 1.31029 23.3874 1.12282C23.2132 0.927447 22.9374 0.80603 22.669 0.80603C22.4105 0.80603 22.1933 0.914791 22.0638 1.10621C21.2792 1.69036 20.3656 2.19382 19.1973 2.68661C18.1611 2.47937 17.0806 2.37377 15.9841 2.37377C11.136 2.37377 6.6547 4.39395 4.28847 7.64571C2.79758 9.69318 2.56401 12.4905 3.67809 14.9465C5.3277 18.5839 8.63983 19.9911 11.6625 20.8873C11.8087 20.93 11.9567 20.9383 12.0965 20.9102C13.5177 21.1819 14.8296 21.2448 16.1265 21.1036C18.8644 23.1218 22.4062 27.1511 21.8285 29.9243C21.5653 31.1911 20.462 32.1007 18.5504 32.6283C16.4805 33.1994 13.9366 32.9162 12.0401 31.9081C10.8839 31.2935 10.2365 30.5124 10.1165 29.5846C9.84854 27.509 12.2204 25.0906 13.6575 23.8333C14.0068 23.5284 13.968 23.1277 13.7723 22.8552C13.6549 22.5784 13.4037 22.4008 13.0781 22.366C12.0612 22.2572 11.0512 22.0366 9.99135 21.6925C9.89413 21.6616 9.79692 21.6454 9.70229 21.6454C9.27988 21.6454 9.00158 21.9496 8.92759 22.2679C6.36737 25.0352 2.78296 30.2605 7.16185 34.4673C9.92811 37.1255 14.1986 37.5225 16.4982 37.5229H16.4986C17.1378 37.5229 17.7873 37.4937 18.4282 37.4363C21.9176 37.1239 26.1033 35.4648 27.3826 31.7452C28.9728 27.1254 24.4602 22.5056 20.7932 19.3709ZM25.9657 30.355C25.8594 33.4236 22.4372 35.1591 19.27 35.7614C18.3654 35.9334 17.426 36.0201 16.4767 36.0201C13.9852 36.0201 11.5515 35.4157 9.62357 34.3178C8.26603 33.5447 7.28014 32.376 6.84741 31.0273C5.97163 28.2957 8.11032 25.5003 10.1161 23.35C10.5583 23.4742 11.0065 23.5822 11.4534 23.6707C9.28849 25.7495 6.94978 28.7726 9.52378 31.9267C10.8232 33.5186 13.2553 34.4317 16.1971 34.4317C16.8487 34.4317 17.4983 34.3871 18.1284 34.2965C20.8783 33.9049 23.6674 32.1169 23.6992 29.0048C23.7379 25.1657 19.4537 21.528 16.8965 19.702C16.687 19.5521 16.4392 19.5066 16.2125 19.5734C16.1394 19.5643 16.0633 19.5623 15.9803 19.573C14.7905 19.7217 13.5426 19.6494 12.1662 19.3515C12.0771 19.3322 11.9842 19.3266 11.896 19.3326C9.34914 18.5515 6.80396 17.4476 5.3905 14.7251C4.2704 12.5664 4.46913 10.1725 5.93679 8.15629C7.81696 5.57371 11.7601 3.90512 15.9828 3.90512C17.0221 3.90512 18.0213 4.00756 18.9526 4.20965C19.1298 4.24762 19.3053 4.23655 19.4662 4.17762C19.5987 4.18237 19.7294 4.15903 19.8542 4.10683C20.3342 3.9071 20.8026 3.688 21.2526 3.45347C21.1954 3.58556 21.1381 3.71291 21.0809 3.8367C21.0388 3.92529 21.0164 4.01586 21.0125 4.10722C20.9317 4.41966 21.047 4.72142 21.3227 4.91878C23.7754 6.67438 25.0701 9.18576 24.9682 11.989C24.8662 14.7931 22.9775 16.841 19.0257 18.4328C18.8407 18.5072 18.7035 18.6266 18.6265 18.7793C18.3723 19.0834 18.4102 19.4568 18.725 19.7174C21.3098 21.8578 26.1231 25.842 25.9657 30.355Z" fill="black"/>
    <path d="M37.4294 18.8093C37.2815 18.3921 37.1769 17.5635 37.1692 17.1237C37.1619 16.712 36.7803 16.5265 36.4358 16.5641C36.3786 16.5491 36.3184 16.5384 36.2491 16.5384C35.5028 16.5384 34.7591 16.5269 34.0175 16.4664C33.8885 15.1676 33.7603 15.0798 33.6321 13.781C33.5938 13.3938 33.2312 13.2071 32.9021 13.2222C32.8441 13.2068 32.783 13.1957 32.7133 13.1957C31.7188 13.1961 31.1747 13.206 30.1879 13.3258C29.7251 13.382 29.5276 13.7956 29.5978 14.1168C29.5569 14.2157 29.5431 14.3296 29.5737 14.4573C29.8167 15.4737 29.5965 15.2827 29.8189 16.3031C28.9465 16.3604 28.1039 16.5281 27.2978 16.8785C27.007 17.0051 26.9309 17.2364 26.9889 17.4524C26.9868 17.4729 26.982 17.4923 26.982 17.5141C26.9825 18.2675 27.0005 19.0367 27.2879 19.751C27.3967 20.0227 27.647 20.1425 27.8974 20.1481C27.992 20.173 28.0966 20.1813 28.2123 20.1603C28.7444 20.0638 29.2764 19.9879 29.8137 19.9487C29.8176 20.8734 29.8378 21.8178 29.9535 22.7378C30.0004 23.1159 30.3552 23.3017 30.6791 23.295C30.7385 23.3112 30.8013 23.3235 30.8731 23.3235H33.8446C34.1853 23.3235 34.3823 23.121 34.4403 22.8857C34.4769 22.8086 34.495 22.7172 34.4812 22.608C34.3633 21.6644 34.3448 21.1068 34.3414 20.158C35.2112 20.0876 36.0826 20.0713 36.9576 20.071C37.5537 20.071 37.7146 19.456 37.4458 19.1174C37.4699 19.0257 37.4699 18.9236 37.4294 18.8093ZM33.8437 19.03C33.8054 19.034 33.7706 19.0427 33.7362 19.0518C33.4063 19.0379 33.0652 19.2246 33.0652 19.6161C33.0652 20.5926 33.072 21.1795 33.1632 22.1528H31.1691C31.0925 21.2661 31.0848 20.3561 31.0848 19.4658C31.0848 19.4089 31.0757 19.3583 31.062 19.3096C31.0529 19.0233 30.8495 18.746 30.4473 18.7504C29.747 18.7579 29.0541 18.8378 28.3645 18.9485C28.2785 18.561 28.26 18.1666 28.2561 17.7668C28.9547 17.5252 29.7001 17.4559 30.4473 17.4492C30.483 17.4488 30.5157 17.4437 30.548 17.4393C30.9136 17.4255 31.2968 17.1407 31.2026 16.7085C30.9493 15.5441 31.1398 15.5912 30.8654 14.4312C31.5291 14.3814 31.7485 14.3707 32.4156 14.3687C32.5378 15.6042 32.66 15.6288 32.7826 16.8643C32.7886 16.9232 32.8041 16.9758 32.8239 17.0256C32.8673 17.2851 33.0656 17.5366 33.4196 17.5797C34.2605 17.6826 35.1041 17.7043 35.9497 17.7079C35.9906 17.9744 36.0568 18.6472 36.1373 18.9062C35.3707 18.9165 34.6064 18.9477 33.8437 19.03Z" fill="black"/>
  </g>
  <defs>
    <clipPath id="clip0">
      <rect width="39.9335" height="36.7165" fill="white" transform="translate(0.309204 0.80603)"/>
    </clipPath>
  </defs>
</svg>
