<svg width="800" height="688" viewBox="0 0 800 688" fill="none"
  xmlns="http://www.w3.org/2000/svg">
  <path d="M281.79 0.000244141L283.734 23.9965L278.873 0.000244141H281.79ZM483.046 13.0891L484.99 6.54466C485.506 9.98049 485.01 10.4931 483.046 13.0891ZM475.268 16.3613L476.24 8.72614L475.268 16.3613ZM167.19 11.1039C171.303 8.50799 174.755 11.3221 178.731 11.8675C185.809 12.4456 181.308 8.94429 194.287 11.8675C189.854 20.1352 184.954 16.1104 179.703 18.041C173.189 20.4297 171.935 25.2399 169.981 31.6316C162.913 29.7774 163.399 27.9995 158.314 22.9057V20.7242C165.003 16.0668 163.496 13.4381 167.19 11.1039ZM315.819 34.9038C312.698 25.0217 310.987 25.4144 310.957 14.1798C314.253 19.2845 317.851 28.6866 315.819 34.9038ZM479.157 30.5409L482.074 15.2706C483.756 20.0153 484.008 28.3485 479.157 30.5409ZM657.079 29.4501L656.107 30.5409V29.4501H657.079ZM475.268 44.7205L478.185 32.7223C479.614 37.0962 478.778 42.0154 475.268 44.7205ZM649.301 37.0853L650.273 32.7223L649.301 37.0853ZM471.379 44.7205L473.323 37.0853C474.519 40.772 474.286 42.4408 471.379 44.7205ZM184.565 47.9927L183.592 49.0834V47.9927H184.565ZM466.518 64.3537L469.434 51.2649C471.194 56.3913 469.911 60.6125 466.518 64.3537ZM295.401 54.5371V58.9L292.485 54.5371H295.401ZM294.429 71.9889L293.457 73.0796V71.9889H294.429ZM296.024 93.8036L294.818 86.1684C294.254 82.5799 292.903 79.0241 294.818 75.5119C296.694 71.738 300.613 71.6835 301.974 76.4173C303.432 81.4674 301.497 84.9032 301.439 88.3499C301.39 91.3713 302.577 92.6038 302.207 95.9851L299.29 92.7129C302.917 98.6138 303.753 101.962 302.207 109.074L296.024 93.8036ZM327.486 74.1703L328.458 86.1684C326.27 81.0311 324.861 79.9949 325.541 74.1703H327.486ZM331.375 91.6221L329.43 87.2592L331.375 91.6221ZM169.009 93.8036C165.975 92.6038 165.372 92.8547 164.147 89.4407L169.009 93.8036ZM211.788 101.439C213.46 90.1387 225.302 93.9127 226.303 95.5488C227.84 98.0684 225.341 101.21 225.72 104.078C226.294 108.452 231.204 115.04 234.149 117.8C232.137 120.778 233.255 120.439 235.122 124.344C224.942 121.912 229.065 115.542 223.416 109.576C220.577 106.576 217.223 108.867 213.897 107.329C210.047 105.551 205.478 95.9305 204.01 91.6221L211.788 101.439ZM221.51 99.2573L222.482 100.348V99.2573H221.51ZM437.35 107.983L439.295 102.529C439.995 105.693 439.703 106.162 437.35 107.983ZM217.621 113.437L214.704 109.074L217.621 113.437ZM336.236 115.618L335.264 110.165L336.236 115.618ZM443.184 135.252C443.203 127.845 443.096 127.769 446.1 121.072C446.742 124.999 445.128 131.903 443.184 135.252ZM384.848 147.25C381.125 144.534 380.833 140.967 379.987 136.342C384.333 139.189 384.586 141.905 384.848 147.25ZM570.549 137.433L567.632 140.705L570.549 137.433ZM309.985 155.976C307.321 148.624 305.309 146.672 305.124 138.524C308.984 142.45 311.443 150.195 309.985 155.976ZM361.514 138.524L357.625 142.887L361.514 138.524ZM566.66 141.796L565.687 142.887V141.796H566.66ZM560.826 149.431C563.558 152.616 560.175 154.71 557.89 156.783C550.462 163.534 548.644 168.312 540.409 174.518C543.228 170.101 546.641 167.832 547.215 162.52H545.27C542.538 167.963 538.095 172.009 533.603 175.609L553.213 152.016L563.743 142.887L560.826 149.431ZM230.26 155.976C226.333 152.256 226.119 150.62 225.399 145.068C230.892 146.988 231.631 150.009 230.26 155.976ZM328.38 172.337C329.615 177.409 331.034 178.794 330.402 184.335L334.291 187.607L332.347 189.788C335.108 193.988 333.698 195.242 334.972 199.605L338.229 207.24C340.543 213.381 339.911 217.231 346.931 218.148C347.203 231.705 356.42 213.425 357.625 210.512C360.105 210.163 364.402 208.593 366.376 209.105C370.955 210.294 378.821 222.216 383.273 213.621L384.848 209.422C391.343 208.342 401.066 202.583 398.46 215.966C390.74 215.246 393.813 220.133 392.626 226.873L406.238 225.783C405.616 227.648 404.488 229.982 405.353 231.989C406.782 235.294 411.381 235.141 413.404 232.862L422.689 219.238C425.703 213.37 424.234 211.44 429.572 206.149C431.507 214.025 428.464 216.708 430.719 221.354C432.401 224.812 435.104 225.761 437.379 222.347L440.267 217.057C439.275 228.03 439.421 223.35 441.239 234.509C450.485 235.13 445.741 242.111 451.107 244.238C457.855 246.921 460.023 239.548 467.49 236.69C461.938 244.598 456.902 243.693 455.823 254.142C460.82 253.509 469.998 248.143 474.296 244.925C478.486 241.773 482.501 237.77 487.907 238.872C483.007 242.013 477.951 244.533 476.24 250.87L492.768 241.053C491.028 243.747 489.696 244.227 487.509 246.278C482.657 250.826 481.208 254.949 474.296 251.96C469.736 259.356 466.838 258.93 466.129 261.908C465.526 264.46 467.451 266.98 469.959 265.638C471.787 264.657 472.526 262.584 473.323 260.686L485.963 256.323L482.074 262.868L489.852 260.686C487.314 264.351 487.032 264.809 483.046 266.14L481.656 274.659L469.269 286.679L465.545 287.955L467.49 290.136V291.227C464.009 294.248 462.677 295.012 461.656 299.953C466.129 299.058 469.201 299.713 469.434 305.407L478.185 306.552C482.064 307.806 483.289 310.064 488.879 309.922C496.706 310.108 508.14 304.698 515.13 309.922C510.697 311.646 505.369 312.496 501.538 315.06C500.119 316.009 497.241 317.928 498.514 320.219L504.435 323.949C501.694 324.473 500.527 324.134 499.574 327.221L491.796 325.04L492.768 321.768C480.022 319.881 485.632 322.008 478.992 323.655L472.351 324.56C468.676 325.825 469.036 327.036 463.445 328.312C463.329 330.952 462.434 334.562 463.445 336.994C464.738 341.052 468.268 342.023 471.379 343.779L482.074 350.705C485.467 352.341 491.582 353.617 494.023 355.799C498.524 359.802 496.424 364.154 504.435 371.2C506.341 372.88 511.591 376.643 513.75 377.799C515.14 378.53 517.357 378.966 518.28 380.253C519.262 381.616 518.951 382.489 519.019 383.94L520.964 386.121L512.379 385.401C510.094 384.572 508.568 382.26 506.351 381.278C504.747 380.569 502.666 380.34 501.645 382.271C500.235 384.932 502.627 387.594 504.542 388.772C507.877 390.833 516.044 392.447 519.992 393.385L548.187 397.923C554.098 398.403 556.218 396.625 562.751 400.093C567.301 402.515 567.671 405.591 570.753 408.263C575.468 412.353 576.1 408.743 580.271 417.752L566.66 419.934L567.632 416.662L559.854 415.996C556.665 416.236 554.983 418.08 552.076 418.45C545.455 419.301 539.689 414.666 540.409 406.845C530.472 404.271 530.754 411.164 520.964 414.906C514.119 417.523 497.562 415.396 490.824 412.299L488.879 406.845C500.556 411.982 497.114 409.419 508.324 411.208C505.32 405.263 503.385 407.107 498.874 404.173C491.65 399.461 486.809 395.36 478.185 393.593C473.586 392.644 473.498 394.52 467.49 392.665L463.513 402.438L470.407 410.117C472.682 407.314 474.13 408.219 477.212 409.027V411.208L459.712 414.284L446.1 413.389C442.377 413.4 436.31 413.051 435.931 418.854C435.814 420.687 436.582 422.453 437.768 423.664C444.292 430.307 450.631 418.745 455.609 419.814C458.098 420.359 460.47 428.202 461.656 430.841C459.274 435.226 457.495 440.734 451.934 440.123L445.128 438.313C441.395 437.953 441.395 439.567 436.378 438.313L440.267 434.113C435.979 425.562 424.847 428.474 420.822 427.744C414.891 426.664 413.997 424.166 407.21 425.813C404.546 426.456 399.909 427.471 398.295 430.078C395.864 434.004 401.455 446.908 394.435 449.776C388.611 452.154 382.846 442.687 373.181 442.839C373.123 449.744 369.536 449.536 367.455 454.837C366.716 456.724 366.424 466.421 366.376 469.017C362.817 466.203 364.305 464.447 363.119 460.291C361.087 453.212 358.16 450.9 351.792 450.475C351.403 453.779 351.228 461.48 347.038 461.251C344.86 461.131 343.178 458.361 340.164 460.095C336.586 462.156 336.071 467.337 333.796 468.952C331.025 470.926 328.37 467.883 324.404 469.672C322.216 470.653 317.141 474.056 316.616 476.794C316.178 479.128 322.712 491.726 324.413 494.104C328.215 499.427 330.033 499.11 334.291 502.83C326.474 502.154 325.026 498.565 318.735 495.195L315.819 489.741L316.791 497.376L311.93 499.558V501.739H320.68C318.92 506.724 318.444 507.356 319.708 512.647C314.944 510.596 312.902 501.837 307.117 503.746C305.493 504.281 304.288 505.589 303.306 507.313C303.218 508.36 303.189 509.352 303.306 510.465V517.009L299.29 515.919L300.331 525.55L307.068 541.006C302.625 533.381 300.185 527.066 292.494 522.932C287.983 520.511 281.683 517.784 282.762 526.826C276.588 528.866 273.088 533.043 270.969 539.915C269.17 545.761 271.776 549.666 266.195 551.913C266.487 540.526 272.446 535.748 266.195 531.08C265.009 530.229 263.745 529.695 262.345 529.771C258.942 529.978 257.95 533.087 252.622 533.37L257.483 526.826C265.534 529.946 264.688 521.732 264.289 515.919L256.511 521.372C253.876 516.933 249.249 516.9 244.844 517.009C246.235 511.152 246.235 509.778 244.844 503.921L240.955 505.011C239.176 493.101 233.624 504.39 229.288 497.376C236.755 497.551 236.901 495.686 238.038 487.56L226.371 484.287L237.066 475.561L230.26 470.108V464.654C233.323 464.447 238.563 463.781 238.904 459.255C238.972 458.339 238.69 457.51 238.087 456.899L230.26 454.837C229.881 447.29 224.563 446.581 220.538 441.749C226.896 443.45 236.026 451.522 242.754 448.653C247.703 446.537 246.147 434.342 241.879 434.332C239.234 434.321 238.437 438.455 236.094 440.658C236.483 436.622 236.531 425.846 230.941 426.009C229.765 426.053 225.098 428.987 223.455 429.751L225.399 418.843L215.968 417.054L208.871 412.299L214.704 403.573L209.843 400.301C214.724 394.443 210.154 395.654 210.815 387.212L207.899 386.121L208.871 382.849H204.01C201.21 375.923 200.14 373.948 205.954 368.92C206.829 368.898 207.189 369.553 208.832 368.92C210.952 368.669 218.642 360.063 219.323 357.751C220.314 354.402 217.855 352.112 217.368 349.036C216.96 346.451 217.767 344.782 218.593 342.492C223.007 345.098 223.562 347.945 225.594 348.851C228.608 350.203 231.242 346.604 231.66 343.582C232.117 340.354 230.105 336.34 228.063 334.224L219.566 328.552L208.958 319.728C204.817 316.085 203.562 312.529 200.928 310.424C198.234 308.264 195.93 309.017 193.451 306.934C190.943 304.828 190.67 302.145 189.465 300.247C186.684 295.895 185.508 298.753 182.62 291.227C189.037 290.703 188.123 294.75 194.287 297.837C203.222 302.309 212.604 306.399 222.482 306.497C222.638 303.836 223.678 298.775 223.037 296.681C221.578 291.903 216.649 289.754 212.76 288.326C204.671 285.381 198.098 285.119 192.343 277.047C194.88 276.251 195.25 276.142 197.904 276.131C217.991 276 210.232 287.737 231.233 287.955C231.204 285.784 231.31 283.537 230.669 281.454C229.813 278.662 218.273 260.61 229.288 256.323L228.316 258.33C230.192 258.156 232.273 257.556 234.149 258.33C237.076 259.105 244.261 265.344 245.816 268.103H252.603C255.87 267.143 258.64 263.544 257.639 259.694C256.472 255.287 250.843 253.378 248.14 250.357C245.185 247.052 245.136 243.235 244.844 238.872L252.457 241.271L258.456 246.507C258.777 249.594 259.768 251.611 261.829 253.804C263.745 255.854 265.855 256.509 268.178 257.567C273.292 260.468 281.158 265.649 284.648 257.567C287.244 251.251 279.233 240.78 284.055 238.206C286.855 236.701 289.889 240.061 291.921 241.718C297.112 245.929 300.272 245.95 306.096 247.597L307.068 246.507C306.135 241.217 307.204 238.337 305.863 234.509C304.006 229.208 299.388 226.306 300.263 220.329C303.393 224.288 306.952 228.401 311.988 226.034C313.437 225.357 314.652 224.561 315.459 223.001L316.791 218.148C317.637 219.729 319.183 224.059 320.194 224.79C322.051 226.11 323.674 223.558 323.12 220.329C322.313 215.617 318.667 214.701 317.909 209.378C316.363 198.58 320.972 198.874 317.16 187.618C315.644 183.135 312.309 179.459 311.793 174.529C311.337 170.188 313.699 169.195 316.791 167.974C318.405 172.391 318.59 172.991 315.819 176.7C323.033 179.459 320.233 188.73 329.43 189.788L322.79 167.974L321.604 159.248L319.708 146.159C324.54 153.172 326.358 164.025 328.38 172.337ZM437.35 155.976V151.613V155.976ZM327.486 157.066L326.513 158.157V157.066H327.486ZM97.062 161.429L93.173 158.157L97.062 161.429ZM131.091 167.374C134.202 168.323 136.71 167.886 139.734 170.166C142.194 172.009 145.305 177.234 141.474 179.317C137.673 181.379 128.174 176.623 124.285 175.162C122.282 174.409 120.328 174.049 118.558 172.631C115.476 170.166 114.037 167.156 116.828 163.905C124.139 161.56 124.927 165.487 131.091 167.374ZM175.814 166.883L170.953 162.52L175.814 166.883ZM626.939 165.792L623.05 167.974L626.939 165.792ZM222.482 165.792L221.51 166.883V165.792H222.482ZM134.008 173.427H138.869L134.98 172.337L134.008 173.427ZM535.567 179.906L524.542 193.301L520.964 194.151L515.13 200.696C517.959 192.766 530.365 182.339 536.52 176.7L535.567 179.906ZM548.187 181.063L547.215 182.153V181.063H548.187ZM392.626 185.425C392.247 189.069 392.451 189.832 389.71 191.97L390.682 185.425H392.626ZM427.628 195.242L429.572 187.607C431.954 191.403 431.624 193.617 427.628 195.242ZM360.542 188.698L361.514 195.242C358.267 193.17 358.131 192.842 358.598 188.698H360.542ZM506.38 193.061L502.491 198.514L504.435 193.061H506.38ZM254.567 195.242L253.594 196.333V195.242H254.567ZM405.266 195.242L402.349 201.787C401.882 197.642 402.018 197.315 405.266 195.242ZM800 196.333C796.646 197.707 794.75 198.722 791.25 197.424L800 196.333ZM548.187 201.787L550.131 198.514L548.187 201.787ZM784.444 198.514L780.555 200.696L784.444 198.514ZM790.278 199.605L785.416 198.514L790.278 199.605ZM502.491 199.605L501.519 200.696V199.605H502.491ZM273.04 207.24L269.151 200.696C272.427 202.114 273.953 203.041 273.04 207.24ZM489.852 211.603C492.749 205.571 494.091 204.535 499.574 201.787C501.072 208.887 494.441 210.098 489.852 211.603ZM544.298 205.059V203.968L546.242 201.787L544.298 205.059ZM319.708 203.968L320.68 205.059V203.968H319.708ZM292.485 210.512L289.568 203.968C291.891 206.335 292.815 206.869 292.485 210.512ZM497.63 205.059L498.602 206.149V205.059H497.63ZM441.239 205.059L440.267 206.149V205.059H441.239ZM507.352 205.059L506.38 206.149V205.059H507.352ZM767.916 207.24L755.276 209.422C759.253 207.971 763.774 205.931 767.916 207.24ZM538.464 210.512V209.422L540.409 207.24L538.464 210.512ZM537.492 210.512L536.52 211.603V210.512H537.492ZM750.415 210.512L749.443 211.603V210.512H750.415ZM408.183 211.603L407.21 212.694V211.603H408.183ZM744.582 211.603L743.609 212.694V211.603H744.582ZM725.137 214.875H729.026C724.339 223.765 717.573 225.946 709.581 220.329C713.246 218.082 721.627 210.905 725.137 214.875ZM297.346 219.238L295.401 214.875L297.346 219.238ZM485.963 217.057L484.99 218.148V217.057H485.963ZM7.61479 233.189C4.45497 233.189 -1.91328 229.48 0.556243 225.139C2.41324 221.9 8.3537 221.311 11.4552 221.267C19.7193 224.136 14.0219 233.189 7.61479 233.189ZM483.046 220.329L482.074 221.42V220.329H483.046ZM426.655 224.692L427.628 225.783V224.692H426.655ZM429.572 226.873L430.544 227.964V226.873H429.572ZM23.1708 231.236L18.3096 226.873L23.1708 231.236ZM503.463 226.873L502.491 227.964V226.873H503.463ZM32.8933 230.146L29.0043 229.055L32.8933 230.146ZM280.818 230.146V233.418L277.901 231.236L280.818 230.146ZM429.533 239.93C431.935 239.581 433.393 234.509 427.929 234.225C424.584 237.29 427.618 240.213 429.533 239.93ZM495.977 241.795C494.295 241.686 491.932 238.37 499.574 234.378L504.435 232.327L505.408 233.418C503.969 236.483 499.419 242.002 495.977 241.795ZM492.768 233.418L493.741 236.69L489.852 234.509L492.768 233.418ZM453.878 247.597L454.851 248.688V247.597H453.878ZM596.799 255.233L597.772 259.596H591.938V257.414L596.799 255.233ZM227.344 258.505L228.316 259.596V258.505H227.344ZM226.371 259.596L227.344 260.686V259.596H226.371ZM108.729 261.777L104.84 259.596L108.729 261.777ZM247.761 268.321L248.733 269.412V268.321H247.761ZM249.705 269.412L250.678 270.503V269.412H249.705ZM500.546 268.321L499.574 269.412V268.321H500.546ZM529.714 273.775C525.397 275.793 521.567 276.862 517.075 274.866C522.5 272.194 524.551 268.474 529.714 273.775ZM228.316 272.684L229.288 273.775V272.684H228.316ZM513.186 277.047H509.297H513.186ZM747.703 284.65C746.128 286.133 742.384 284.639 739.72 284.65C733.527 284.704 731.34 290.049 724.164 286.864L733.887 284.683C734.247 279.731 734.383 278.607 738.748 277.047V278.138L740.693 280.32L741.665 279.229L739.72 277.047V275.957C741.762 276.578 752 280.57 747.703 284.65ZM532.631 279.229L528.742 285.773L519.019 290.136C520.478 282.49 525.465 277.146 532.631 279.229ZM743.609 280.32L744.582 281.41V280.32H743.609ZM146.647 284.683C143.215 284.017 143.088 283.952 141.786 280.32C145.227 280.996 145.48 280.952 146.647 284.683ZM496.657 282.501L495.685 283.592V282.501H496.657ZM492.768 285.773L486.935 284.683L492.768 285.773ZM481.101 290.136L473.323 291.227C475.657 286.766 478.36 284.901 481.101 290.136ZM696.941 290.136L704.719 287.955C704.719 292.209 699.362 291.205 696.941 290.136ZM169.981 299.953C165.897 299.582 164.196 299.56 164.147 294.499L169.981 299.953ZM196.232 303.225L197.204 304.316V303.225H196.232ZM547.215 308.679L543.326 306.497L547.215 308.679ZM524.853 308.679L519.992 307.588L524.853 308.679ZM490.824 314.132V316.314C494.431 316.63 494.8 316.728 497.63 314.132H490.824ZM545.202 316.488C551.249 318.561 545.523 324.494 543.053 319.27C542.587 318.255 542.567 317.339 542.353 316.488H545.202ZM407.21 322.858L408.183 323.949V322.858H407.21ZM657.079 337.038L644.44 334.856C649.165 334.856 652.976 334.06 657.079 337.038ZM530.686 335.947L529.714 337.038V335.947H530.686ZM777.784 343.408C771.834 341.226 779.524 333.308 781.381 339.481C781.547 340.561 781.498 342.437 781.381 343.408C780.419 343.539 778.844 343.593 777.784 343.408ZM771.805 342.492L764.027 341.401L771.805 342.492ZM646.384 345.764L645.412 346.855V345.764H646.384ZM651.245 346.855L650.273 347.945V346.855H651.245ZM220.538 367.579C224.894 366.76 225.778 366.117 225.399 361.034C221.491 362.288 221.112 363.128 220.538 367.579ZM528.742 364.895C531.075 365.364 535.314 365.43 537.171 366.826C539.427 368.527 538.843 370.513 538.464 373.032C533.447 372.64 527.322 371.996 522.947 369.007L518.611 365.637C515.052 363.532 513.789 364.634 509.297 361.034L528.742 364.895ZM227.344 366.488L228.316 367.579V366.488H227.344ZM230.26 366.488L231.233 367.579V366.488H230.26ZM724.164 368.669L720.275 367.579L724.164 368.669ZM88.3117 368.669L83.4504 367.579L88.3117 368.669ZM104.84 368.669L103.868 369.76V368.669H104.84ZM551.745 374.668C553.155 370.556 558.405 374.276 560.826 374.668C566.028 376.152 572.688 371.32 578.327 379.577V377.395H579.299C579.007 384.725 582.002 392.676 577.082 397.41C570.733 403.529 560.661 393.985 558.852 387.026C558.279 384.954 558.609 383.765 558.852 381.758C556.023 381.147 549.995 379.271 551.745 374.668ZM193.315 385.03L190.398 381.758L193.315 385.03ZM518.047 383.94L519.019 385.03V383.94H518.047ZM461.656 398.119L462.629 399.21V398.119H461.656ZM449.775 402.013C441.715 394.28 432.547 406.561 444.156 408.579C445.507 408.754 446.684 408.841 448.045 408.579C449.892 408.339 451.224 407.63 452.906 406.845C451.905 404.86 451.399 403.573 449.775 402.013ZM554.02 401.391L553.048 405.754H558.882L554.02 401.391ZM609.497 406.965C611.091 402.198 618.228 400.988 621.31 404.38C623.604 406.889 623.614 412.222 624.586 415.571C625.743 419.541 628.067 422.857 629.856 426.478C623.4 432.117 623.099 430.361 615.272 431.932C614.251 424.951 614.096 423.806 608.466 419.934C611.704 410.106 607.698 412.31 609.497 406.965ZM554.02 409.027L554.993 410.117V409.027H554.02ZM519.019 411.208L519.992 412.299V411.208H519.019ZM604.577 416.662C595.759 415.593 593.134 420.316 590.966 414.48C597.84 413.826 601.67 407.892 604.577 416.662ZM485.963 412.299L484.99 413.389V412.299H485.963ZM56.2274 416.662H52.3384L53.3106 413.389L56.2274 416.662ZM703.747 414.48L702.775 415.571V414.48H703.747ZM65.9499 418.843L60.1164 416.662L65.9499 418.843ZM67.8944 418.843L66.9221 419.934V418.843H67.8944ZM254.654 431.125C258.125 432.685 261.567 430.71 260.235 428.136C259.214 426.151 250.921 421.559 248.733 421.025C249.851 424.995 250.824 429.401 254.654 431.125ZM430.544 421.025L431.517 422.115V421.025H430.544ZM750.415 430.841H744.582V428.66C748.053 428.169 747.878 428.136 750.415 430.841ZM513.186 434.113V441.749L518.047 442.839V452.656L513.186 455.928L515.13 457.019V458.11L506.292 466.268L492.768 467.926L486.663 458.066C483.785 451.413 484.874 437.298 490.989 433.11C494.334 430.83 495.909 434.462 503.463 428.66C507.479 433.775 505.855 435.302 513.186 434.113ZM509.297 437.386L510.269 438.476V437.386H509.297ZM547.215 440.658V442.839L546.242 443.93L535.548 438.476L547.215 440.658ZM395.543 443.93L396.516 445.021V443.93H395.543ZM385.821 445.021L386.793 446.112V445.021H385.821ZM387.765 446.112L388.737 447.202V446.112H387.765ZM298.318 450.475L299.29 451.565V450.475H298.318ZM623.342 459.528C620.824 456.975 620.59 452.503 623.342 451.391C628.398 449.351 635.067 460.324 636.662 464.654C632.666 464.403 626.385 462.593 623.342 459.528ZM38.7268 452.656V454.837C33.3017 457.532 28.3432 459.179 23.1708 454.837C28.946 451.554 32.3975 451.02 38.7268 452.656ZM33.8656 453.747L34.8378 454.837V453.747H33.8656ZM285.679 453.747L286.651 454.837V453.747H285.679ZM512.214 457.019L513.186 458.11V457.019H512.214ZM593.883 462.473C589.556 462.298 588.331 462.549 586.105 458.11L587.077 457.019C590.849 458.284 591.86 458.579 593.883 462.473ZM336.236 460.291L337.208 461.382V460.291H336.236ZM371.237 465.745L368.32 461.382L371.237 465.745ZM599.716 462.473L597.772 465.745L596.799 462.473H599.716ZM308.041 466.836L309.013 467.926V466.836H308.041ZM727.081 466.836L728.053 469.017L727.081 470.108L723.192 466.836H727.081ZM556.937 473.38C552.251 474.743 550.277 474.122 546.242 471.199C551.211 470.206 553.068 469.104 556.937 473.38ZM644.44 470.108L641.523 474.471L642.495 470.108H644.44ZM526.797 472.289L519.019 471.199L526.797 472.289ZM541.381 472.289L535.548 471.199L541.381 472.289ZM650.273 472.289C649.233 475.638 649.369 475.485 646.384 476.652C647.425 473.304 647.288 473.456 650.273 472.289ZM201.093 475.681C202.726 475.878 204.437 475.965 205.954 476.75C207.86 477.754 209.289 479.444 210.815 481.015C214.889 478.103 217.699 481.059 219.566 485.422C221.51 489.937 220.159 495.751 219.566 500.648L222.482 501.739C219.118 505.044 218.73 505.349 218.593 510.465L211.622 514.686L204.01 517.009L187.511 509.822L177.759 512.647V510.465C182.115 509.407 185.547 507.771 181.648 502.83V500.648L184.565 499.558L179.703 493.013C181.434 488.454 181.92 488.072 180.676 483.197L188.454 482.106C190.505 475.016 195.289 474.994 201.093 475.681ZM433.461 476.652L429.572 477.743C431.157 475.747 431.186 475.823 433.461 476.652ZM152.48 481.015H146.647C149.389 479.248 149.739 479.248 152.48 481.015ZM206.926 479.924L207.899 481.015V479.924H206.926ZM156.369 479.924L155.397 481.015V479.924H156.369ZM352.764 485.378L345.958 483.197C349.517 482.608 350.586 481.844 352.764 485.378ZM602.633 485.378L596.799 487.56L597.772 483.197L602.633 485.378ZM660.968 490.832C656.36 489.305 654.668 488.519 653.19 483.197C658.353 483.524 662.339 483.873 660.968 490.832ZM114.562 485.378L106.784 486.469C109.779 484.298 111.189 483.927 114.562 485.378ZM227.344 486.469L223.455 487.56L227.344 486.469ZM739.72 485.378L734.859 488.65L739.72 485.378ZM332.347 488.65L331.375 489.741V488.65H332.347ZM177.759 493.013C174.638 492.708 174.132 493.079 172.898 489.741L177.759 493.013ZM702.775 491.923L697.914 489.741L702.775 491.923ZM160.258 495.195L152.48 494.104V491.923C156.428 491.486 157.983 491.279 160.258 495.195ZM339.153 493.013L338.18 498.467H336.236C335.779 494.606 335.857 494.322 339.153 493.013ZM165.12 501.739L164.147 502.83V501.739H165.12ZM355.681 512.647C349.935 512.505 345.978 512.276 343.042 506.102C347.971 506.724 351.986 508.949 355.681 512.647ZM348.875 509.374L349.847 510.465V509.374H348.875ZM778.61 513.737C774.595 512.963 774.196 512.57 772.777 508.284C776.384 509.516 777.327 509.636 778.61 513.737ZM709.581 517.009C705.157 515.537 704.087 514.337 702.775 509.374C707.296 510.77 708.793 511.687 709.581 517.009ZM706.664 512.647L707.636 513.737V512.647H706.664ZM359.57 512.647L358.598 513.737V512.647H359.57ZM368.077 515.93C374.066 517.097 379.307 515.122 382.904 522.463L375.136 524.906L368.155 519.507L360.542 513.737L368.077 515.93ZM737.776 523.554C732.74 523.096 726.235 523.248 727.081 515.919C732.341 518.035 733.838 519.038 737.776 523.554ZM243.872 517.009L242.9 518.1V517.009H243.872ZM229.288 523.554C229.93 526.51 230.96 531.113 229.288 533.85C225.905 539.446 216.795 536.425 219.332 529.149C221.053 524.197 224.466 526.935 229.288 518.1C230.338 520.151 231.816 522.452 229.288 523.554ZM273.04 519.191L274.012 520.282V519.191H273.04ZM507.352 521.372L504.435 518.1L507.352 521.372ZM243.872 521.372L244.844 524.645H240.955L243.872 521.372ZM313.874 536.643L310.957 522.463C314.039 526.204 315.469 531.756 313.874 536.643ZM435.406 532.28L432.489 531.189V524.645C435.474 527.077 435.619 528.233 435.406 532.28ZM266.234 527.917L267.206 529.008V527.917H266.234ZM239.011 533.37H244.844C239.458 538.715 237.241 540.875 241.927 547.55L238.038 549.732C233.508 539.25 236.444 537.69 239.983 527.917L239.011 533.37ZM294.429 539.915L291.512 541.006L290.54 535.552L294.429 539.915ZM116.507 544.278L110.673 546.459C112.53 543.351 113.328 543.013 116.507 544.278ZM238.038 545.369L239.011 546.459V545.369H238.038ZM765.971 549.732L764.999 550.822V549.732H765.971ZM789.305 558.457L788.333 559.548V558.457H789.305ZM74.7002 562.82L73.7279 563.911V562.82H74.7002ZM246.935 573.51C244.047 573.51 242.462 567.489 247.819 564.675C249.394 563.846 252.768 563.202 254.567 562.82L255.539 563.911C254.207 567.063 250.483 573.51 246.935 573.51ZM249.705 566.093L250.678 567.183V566.093H249.705ZM238.038 579.181L239.983 570.456C242.569 574.666 241.198 576.149 238.038 579.181ZM458.74 577L457.767 581.363L456.795 577H458.74ZM375.126 597.724V593.361V597.724ZM173.87 605.359C173.17 599.109 176.641 598.193 180.676 594.452C179.937 598.935 177.224 602.872 173.87 605.359ZM167.064 603.178L171.925 596.633C171.643 600.614 170.078 601.487 167.064 603.178ZM20.2541 600.996L19.2818 602.087V600.996H20.2541ZM232.205 600.996C230.465 605.141 230.338 606.079 226.371 607.541C227.276 603.036 228.19 602.011 232.205 600.996ZM374.173 609.766C377.343 619.375 362.428 621.786 365.073 611.947C365.491 610.366 366.415 609.264 367.494 608.206L371.237 605.359C372.374 606.712 373.57 607.966 374.173 609.766ZM403.321 615.176L401.377 610.813L403.321 615.176ZM243.872 617.357L246.789 612.994L243.872 617.357ZM336.236 624.992V620.629V624.992ZM342.069 635.9C340.417 638.234 340.504 638.605 338.18 636.99L342.069 635.9ZM193.315 653.352L187.481 650.079C189.474 641.757 191.934 644.582 199.148 639.172L193.315 653.352ZM314.846 656.624C309.664 654.584 311.541 651.159 311.93 645.716L314.846 656.624ZM342.069 662.077C343.188 662.95 343.635 662.896 344.286 664.553C348.477 675.286 332.707 678.406 334.982 667.542C335.828 663.474 338.822 662.241 341.097 657.714L342.069 662.077ZM337.208 663.168L338.18 664.259V663.168H337.208ZM704.719 670.803L700.83 676.257V671.894L704.719 670.803ZM513.186 687.164L510.269 681.711L513.186 687.164Z" fill="#EDEDED"/>
</svg>
