<svg width="720" height="619" viewBox="0 0 720 619" fill="none" xmlns="http://www.w3.org/2000/svg">
<path d="M253.611 0L255.361 21.5966L250.986 0H253.611V0ZM434.741 11.78L436.491 5.88998C436.955 8.98222 436.509 9.4436 434.741 11.78ZM427.741 14.7249L428.616 7.8533L427.741 14.7249ZM150.471 9.99333C154.173 7.65697 157.279 10.1897 160.858 10.6805C167.228 11.2008 163.177 8.04964 174.858 10.6805C170.868 18.1215 166.458 14.4992 161.733 16.2367C155.87 18.3866 154.742 22.7157 152.983 28.4682C146.621 26.7994 147.059 25.1993 142.482 20.6149V18.6516C148.503 14.4599 147.146 12.0941 150.471 9.99333ZM284.237 31.4132C281.428 22.5194 279.888 22.8728 279.862 12.7616C282.828 17.3558 286.066 25.8177 284.237 31.4132ZM431.241 27.4866L433.866 13.7433C435.38 18.0135 435.608 25.5134 431.241 27.4866ZM591.371 26.5049L590.496 27.4866V26.5049H591.371ZM427.741 40.2482L430.366 29.4499C431.652 33.3864 430.9 37.8137 427.741 40.2482ZM584.371 33.3765L585.246 29.4499L584.371 33.3765ZM424.241 40.2482L425.991 33.3765C427.067 36.6946 426.857 38.1965 424.241 40.2482ZM166.108 43.1932L165.233 44.1748V43.1932H166.108ZM419.866 57.9181L422.491 46.1382C424.075 50.752 422.92 54.551 419.866 57.9181ZM265.861 49.0832V53.0098L263.236 49.0832H265.861ZM264.986 64.7898L264.111 65.7714V64.7898H264.986ZM266.421 84.423L265.336 77.5514C264.829 74.3217 263.612 71.1215 265.336 67.9605C267.025 64.564 270.551 64.5149 271.776 68.7753C273.089 73.3204 271.348 76.4127 271.295 79.5147C271.251 82.2339 272.319 83.3432 271.986 86.3864L269.361 83.4414C272.625 88.7522 273.378 91.7659 271.986 98.1663L266.421 84.423ZM294.737 66.7531L295.612 77.5514C293.643 72.9278 292.374 71.9952 292.987 66.7531H294.737ZM298.237 82.4597L296.487 78.533L298.237 82.4597ZM152.108 84.423C149.378 83.3432 148.835 83.569 147.733 80.4964L152.108 84.423ZM190.609 91.2947C192.114 81.1246 202.772 84.5212 203.673 85.9937C205.056 88.2613 202.807 91.0885 203.148 93.6703C203.664 97.6068 208.083 103.536 210.735 106.02C208.923 108.7 209.929 108.395 211.61 111.91C202.448 109.72 206.158 103.988 201.074 98.6179C198.519 95.9183 195.5 97.9798 192.508 96.5956C189.043 94.9955 184.93 86.3373 183.609 82.4597L190.609 91.2947V91.2947ZM199.359 89.3313L200.234 90.313V89.3313H199.359ZM393.615 97.1846L395.365 92.2763C395.995 95.1232 395.733 95.5453 393.615 97.1846ZM195.859 102.093L193.234 98.1663L195.859 102.093ZM302.612 104.056L301.737 99.148L302.612 104.056ZM398.865 121.726C398.883 115.061 398.786 114.992 401.49 108.965C402.068 112.499 400.615 118.713 398.865 121.726ZM346.364 132.525C343.012 130.08 342.75 126.87 341.988 122.708C345.9 125.27 346.127 127.714 346.364 132.525ZM513.494 123.69L510.869 126.635L513.494 123.69ZM278.987 140.378C276.589 133.761 274.778 132.004 274.611 124.671C278.085 128.205 280.299 135.175 278.987 140.378ZM325.363 124.671L321.863 128.598L325.363 124.671ZM509.994 127.616L509.119 128.598V127.616H509.994ZM504.743 134.488C507.202 137.354 504.157 139.239 502.101 141.104C495.416 147.181 493.779 151.48 486.368 157.066C488.905 153.09 491.977 151.049 492.493 146.268H490.743C488.284 151.166 484.285 154.808 480.243 158.048L497.892 136.814L507.369 128.598L504.743 134.488ZM207.234 140.378C203.699 137.03 203.507 135.558 202.859 130.561C207.803 132.289 208.468 135.008 207.234 140.378ZM295.542 155.103C296.653 159.668 297.931 160.914 297.362 165.901L300.862 168.846L299.112 170.809C301.597 174.589 300.328 175.718 301.475 179.644L304.406 186.516C306.489 192.043 305.92 195.508 312.238 196.333C312.483 208.535 320.778 192.082 321.863 189.461C324.094 189.147 327.962 187.733 329.738 188.195C333.86 189.265 340.938 199.994 344.946 192.259L346.364 188.479C352.209 187.507 360.959 182.324 358.614 194.369C351.666 193.721 354.431 198.119 353.364 204.186L365.614 203.204C365.054 204.883 364.039 206.984 364.818 208.79C366.104 211.764 370.243 211.627 372.063 209.575L380.42 197.314C383.132 192.033 381.811 190.295 386.615 185.534C388.356 192.622 385.617 195.037 387.647 199.219C389.161 202.331 391.594 203.185 393.641 200.112L396.24 195.351C395.348 205.226 395.479 201.015 397.115 211.058C405.437 211.617 401.167 217.9 405.997 219.814C412.069 222.229 414.021 215.593 420.741 213.021C415.744 220.138 411.212 219.323 410.241 228.728C414.738 228.158 422.998 223.328 426.866 220.432C430.637 217.595 434.251 213.993 439.116 214.984C434.706 217.811 430.156 220.079 428.616 225.783L443.492 216.948C441.925 219.372 440.726 219.804 438.758 221.65C434.391 225.743 433.088 229.454 426.866 226.764C422.762 233.42 420.155 233.037 419.516 235.717C418.973 238.014 420.706 240.282 422.963 239.074C424.609 238.191 425.274 236.326 425.991 234.617L437.366 230.691L433.866 236.581L440.867 234.617C438.583 237.916 438.329 238.328 434.741 239.526L433.49 247.193L422.342 258.011L418.991 259.159L420.741 261.122V262.104C417.608 264.823 416.41 265.51 415.491 269.957C419.516 269.152 422.281 269.741 422.491 274.866L430.366 275.896C433.858 277.025 434.96 279.057 439.992 278.93C447.035 279.097 457.326 274.228 463.617 278.93C459.627 280.481 454.832 281.246 451.384 283.553C450.107 284.407 447.517 286.135 448.663 288.197L453.992 291.554C451.524 292.025 450.474 291.721 449.617 294.499L442.617 292.536L443.492 289.591C432.02 287.892 437.069 289.807 431.092 291.289L425.116 292.104C421.808 293.242 422.132 294.332 417.101 295.481C416.996 297.856 416.191 301.106 417.101 303.295C418.265 306.946 421.441 307.82 424.241 309.401L433.866 315.634C436.92 317.107 442.424 318.255 444.62 320.218C448.672 323.821 446.782 327.738 453.992 334.08C455.707 335.591 460.432 338.978 462.375 340.019C463.626 340.676 465.621 341.069 466.452 342.227C467.336 343.454 467.056 344.24 467.117 345.545L468.867 347.509L461.141 346.861C459.085 346.115 457.711 344.034 455.716 343.15C454.272 342.512 452.399 342.306 451.481 344.043C450.212 346.439 452.364 348.834 454.088 349.894C457.09 351.75 464.44 353.202 467.992 354.047L493.368 358.13C498.688 358.562 500.596 356.962 506.476 360.084C510.571 362.263 510.904 365.031 513.677 367.436C517.921 371.118 518.49 367.868 522.244 375.977L509.994 377.94L510.869 374.995L503.868 374.396C500.998 374.612 499.485 376.271 496.868 376.605C490.909 377.371 485.72 373.199 486.368 366.16C477.425 363.844 477.679 370.048 468.867 373.415C462.707 375.771 447.805 373.857 441.742 371.069L439.992 366.16C450.501 370.784 447.403 368.477 457.492 370.087C454.788 364.737 453.047 366.396 448.987 363.755C442.485 359.514 438.128 355.823 430.366 354.233C426.227 353.379 426.149 355.068 420.741 353.399L417.162 362.194L423.366 369.105C425.414 366.582 426.717 367.397 429.491 368.124V370.087L413.741 372.855L401.49 372.05C398.139 372.06 392.679 371.746 392.338 376.968C392.233 378.618 392.924 380.208 393.991 381.298C399.863 387.276 405.568 376.87 410.048 377.832C412.288 378.323 414.423 385.381 415.491 387.757C413.347 391.703 411.746 396.661 406.74 396.111L400.615 394.481C397.255 394.157 397.255 395.61 392.74 394.481L396.24 390.702C392.381 383.006 382.362 385.627 378.74 384.969C373.402 383.997 372.597 381.749 366.489 383.231C364.092 383.811 359.918 384.724 358.465 387.07C356.278 390.604 361.309 402.217 354.991 404.799C349.75 406.939 344.561 398.418 335.863 398.555C335.811 404.769 332.582 404.583 330.709 409.354C330.044 411.052 329.782 419.779 329.738 422.115C326.536 419.582 327.874 418.002 326.807 414.262C324.978 407.891 322.344 405.81 316.613 405.427C316.263 408.401 316.105 415.332 312.334 415.126C310.374 415.018 308.86 412.524 306.147 414.085C302.927 415.94 302.464 420.603 300.416 422.056C297.922 423.833 295.533 421.094 291.963 422.704C289.994 423.588 285.427 426.65 284.954 429.114C284.561 431.215 290.441 442.553 291.972 444.693C295.393 449.484 297.03 449.199 300.862 452.547C293.827 451.938 292.523 448.708 286.862 445.675L284.237 440.767L285.112 447.638L280.737 449.602V451.565H288.612C287.028 456.051 286.599 456.621 287.737 461.382C283.449 459.536 281.612 451.653 276.405 453.371C274.944 453.852 273.859 455.03 272.975 456.581C272.896 457.524 272.87 458.417 272.975 459.418V465.308L269.361 464.327L270.298 472.995L276.362 486.905C272.363 480.043 270.166 474.359 263.245 470.639C259.185 468.459 253.515 466.005 254.486 474.143C248.929 475.979 245.779 479.739 243.872 485.923C242.253 491.185 244.598 494.699 239.575 496.722C239.838 486.473 245.202 482.173 239.575 477.972C238.508 477.206 237.37 476.725 236.11 476.794C233.048 476.98 232.155 479.778 227.36 480.033L231.735 474.143C238.98 476.951 238.219 469.559 237.86 464.327L230.86 469.235C228.489 465.24 224.324 465.21 220.36 465.308C221.611 460.037 221.611 458.8 220.36 453.528L216.86 454.51C215.258 443.79 210.262 453.95 206.359 447.638C213.08 447.795 213.211 446.117 214.235 438.803L203.734 435.858L213.36 428.005L207.234 423.097V418.188C209.991 418.002 214.707 417.403 215.013 413.329C215.075 412.505 214.821 411.759 214.278 411.209L207.234 409.354C206.893 402.56 202.107 401.922 198.484 397.574C204.207 399.105 212.423 406.369 218.479 403.787C222.932 401.883 221.532 390.908 217.691 390.898C215.311 390.888 214.593 394.609 212.485 396.592C212.835 392.96 212.878 383.261 207.847 383.408C206.788 383.447 202.588 386.088 201.109 386.775L202.859 376.959L194.372 375.349L187.984 371.069L193.234 363.215L188.859 360.27C193.251 354.999 189.139 356.088 189.734 348.49L187.109 347.509L187.984 344.564H183.609C181.089 338.33 180.126 336.553 185.359 332.028C186.146 332.008 186.47 332.597 187.949 332.028C189.856 331.802 196.778 324.057 197.39 321.976C198.283 318.962 196.069 316.9 195.632 314.132C195.264 311.806 195.99 310.304 196.734 308.242C200.707 310.588 201.205 313.151 203.034 313.965C205.747 315.183 208.118 311.943 208.494 309.224C208.906 306.318 207.094 302.706 205.257 300.801L197.609 295.697L188.063 287.755C184.335 284.476 183.206 281.276 180.835 279.381C178.411 277.438 176.337 278.115 174.106 276.24C171.848 274.345 171.603 271.93 170.518 270.222C168.016 266.306 166.957 268.878 164.358 262.104C170.133 261.633 169.311 265.275 174.858 268.053C182.9 272.078 191.344 275.759 200.234 275.847C200.374 273.452 201.31 268.897 200.733 267.012C199.42 262.713 194.984 260.779 191.484 259.493C184.204 256.842 178.289 256.607 173.108 249.342C175.392 248.626 175.725 248.528 178.114 248.518C196.192 248.4 189.209 258.963 208.109 259.159C208.083 257.206 208.179 255.183 207.602 253.308C206.832 250.795 196.445 234.549 206.359 230.691L205.484 232.497C207.173 232.34 209.046 231.8 210.735 232.497C213.368 233.194 219.835 238.809 221.235 241.293H227.343C230.283 240.429 232.776 237.189 231.875 233.724C230.825 229.758 225.759 228.04 223.326 225.321C220.666 222.347 220.622 218.911 220.36 214.984L227.211 217.144L232.61 221.856C232.899 224.634 233.791 226.45 235.647 228.423C237.37 230.269 239.269 230.858 241.36 231.81C245.963 234.421 253.042 239.084 256.183 231.81C258.52 226.126 251.31 216.702 255.65 214.385C258.17 213.031 260.9 216.054 262.729 217.546C267.401 221.336 270.245 221.355 275.486 222.838L276.362 221.856C275.521 217.095 276.484 214.503 275.276 211.058C273.605 206.287 269.449 203.675 270.236 198.296C273.054 201.859 276.256 205.56 280.789 203.43C282.093 202.821 283.187 202.105 283.913 200.701L285.112 196.333C285.873 197.756 287.264 201.653 288.174 202.311C289.846 203.499 291.307 201.202 290.808 198.296C290.082 194.055 286.801 193.231 286.118 188.44C284.727 178.722 288.874 178.987 285.444 168.856C284.079 164.821 281.078 161.513 280.614 157.076C280.203 153.169 282.329 152.276 285.112 151.176C286.564 155.152 286.731 155.692 284.237 159.029C290.729 161.513 288.209 169.857 296.487 170.809L290.511 151.176L289.443 143.323L287.737 131.543C292.086 137.855 293.722 147.622 295.542 155.103V155.103ZM393.615 140.378V136.451V140.378ZM294.737 141.359L293.862 142.341V141.359H294.737ZM87.3558 145.286L83.8557 142.341L87.3558 145.286ZM117.982 150.636C120.782 151.49 123.039 151.098 125.761 153.149C127.974 154.808 130.775 159.51 127.327 161.385C123.906 163.241 115.357 158.961 111.856 157.645C110.054 156.968 108.295 156.644 106.703 155.368C103.929 153.149 102.634 150.44 105.145 147.515C111.725 145.404 112.434 148.938 117.982 150.636V150.636ZM158.233 150.194L153.858 146.268L158.233 150.194ZM564.245 149.213L560.745 151.176L564.245 149.213ZM200.234 149.213L199.359 150.194V149.213H200.234ZM120.607 156.084H124.982L121.482 155.103L120.607 156.084ZM482.01 161.916L472.087 173.97L468.867 174.736L463.617 180.626C466.164 173.489 477.329 164.105 482.868 159.029L482.01 161.916ZM493.368 162.956L492.493 163.938V162.956H493.368ZM353.364 166.883C353.023 170.161 353.206 170.849 350.739 172.773L351.614 166.883H353.364ZM384.865 175.718L386.615 168.846C388.759 172.262 388.461 174.255 384.865 175.718ZM324.488 169.828L325.363 175.718C322.44 173.853 322.318 173.558 322.738 169.828H324.488ZM455.742 173.754L452.242 178.663L453.992 173.754H455.742ZM229.11 175.718L228.235 176.699V175.718H229.11ZM364.739 175.718L362.114 181.608C361.694 177.877 361.817 177.583 364.739 175.718ZM720 176.699C716.981 177.936 715.275 178.849 712.125 177.681L720 176.699ZM493.368 181.608L495.118 178.663L493.368 181.608ZM706 178.663L702.499 180.626L706 178.663ZM711.25 179.644L706.875 178.663L711.25 179.644ZM452.242 179.644L451.367 180.626V179.644H452.242ZM245.736 186.516L242.235 180.626C245.184 181.902 246.558 182.737 245.736 186.516ZM440.867 190.443C443.474 185.014 444.682 184.081 449.617 181.608C450.964 187.998 444.997 189.088 440.867 190.443ZM489.868 184.553V183.571L491.618 181.608L489.868 184.553ZM287.737 183.571L288.612 184.553V183.571H287.737ZM263.236 189.461L260.611 183.571C262.702 185.701 263.534 186.182 263.236 189.461ZM447.867 184.553L448.742 185.534V184.553H447.867ZM397.115 184.553L396.24 185.534V184.553H397.115ZM456.617 184.553L455.742 185.534V184.553H456.617ZM691.124 186.516L679.749 188.479C683.328 187.174 687.397 185.338 691.124 186.516ZM484.618 189.461V188.479L486.368 186.516L484.618 189.461ZM483.743 189.461L482.868 190.443V189.461H483.743ZM675.374 189.461L674.499 190.443V189.461H675.374ZM367.364 190.443L366.489 191.424V190.443H367.364ZM670.123 190.443L669.248 191.424V190.443H670.123ZM652.623 193.388H656.123C651.905 201.388 645.815 203.352 638.623 198.296C641.921 196.274 649.464 189.814 652.623 193.388ZM267.611 197.314L265.861 193.388L267.611 197.314ZM437.366 195.351L436.491 196.333V195.351H437.366ZM6.85331 209.87C4.00948 209.87 -1.72195 206.532 0.500618 202.625C2.17192 199.71 7.51833 199.179 10.3097 199.14C17.7474 201.722 12.6197 209.87 6.85331 209.87V209.87ZM434.741 198.296L433.866 199.278V198.296H434.741ZM383.99 202.223L384.865 203.204V202.223H383.99ZM386.615 204.186L387.49 205.168V204.186H386.615ZM20.8537 208.113L16.4786 204.186L20.8537 208.113ZM453.117 204.186L452.242 205.168V204.186H453.117ZM29.604 207.131L26.1039 206.149L29.604 207.131ZM252.736 207.131V210.076L250.111 208.113L252.736 207.131ZM386.58 215.936C388.741 215.622 390.054 211.058 385.136 210.802C382.126 213.561 384.856 216.192 386.58 215.936ZM446.379 217.615C444.865 217.517 442.739 214.533 449.617 210.94L453.992 209.094L454.867 210.076C453.572 212.834 449.477 217.802 446.379 217.615ZM443.492 210.076L444.367 213.021L440.867 211.058L443.492 210.076ZM408.491 222.838L409.366 223.819V222.838H408.491ZM537.119 229.709L537.994 233.636H532.744V231.672L537.119 229.709ZM204.609 232.654L205.484 233.636V232.654H204.609ZM203.734 233.636L204.609 234.617V233.636H203.734ZM97.8561 235.599L94.356 233.636L97.8561 235.599ZM222.985 241.489L223.86 242.471V241.489H222.985ZM224.735 242.471L225.61 243.452V242.471H224.735ZM450.492 241.489L449.617 242.471V241.489H450.492ZM476.743 246.397C472.857 248.214 469.41 249.176 465.367 247.379C470.25 244.974 472.096 241.627 476.743 246.397ZM205.484 245.416L206.359 246.397V245.416H205.484ZM461.867 249.342H458.367H461.867ZM672.932 256.185C671.515 257.52 668.146 256.175 665.748 256.185C660.174 256.234 658.206 261.044 651.748 258.177L660.498 256.214C660.822 251.757 660.944 250.746 664.873 249.342V250.324L666.623 252.287L667.498 251.306L665.748 249.342V248.361C667.586 248.92 676.8 252.513 672.932 256.185ZM479.368 251.306L475.868 257.196L467.117 261.122C468.43 254.241 472.919 249.431 479.368 251.306ZM669.248 252.287L670.123 253.269V252.287H669.248ZM131.982 256.214C128.893 255.615 128.78 255.556 127.607 252.287C130.705 252.896 130.932 252.857 131.982 256.214ZM446.992 254.251L446.117 255.232V254.251H446.992ZM443.492 257.196L438.241 256.214L443.492 257.196ZM432.991 261.122L425.991 262.104C428.091 258.089 430.524 256.41 432.991 261.122ZM627.247 261.122L634.247 259.159C634.247 262.988 629.426 262.084 627.247 261.122ZM152.983 269.957C149.308 269.624 147.776 269.604 147.733 265.049L152.983 269.957ZM176.608 272.902L177.483 273.884V272.902H176.608ZM492.493 277.811L488.993 275.847L492.493 277.811ZM472.367 277.811L467.992 276.829L472.367 277.811ZM441.742 282.719V284.682C444.988 284.967 445.32 285.055 447.867 282.719H441.742ZM490.682 284.839C496.124 286.705 490.971 292.045 488.748 287.343C488.328 286.43 488.31 285.605 488.118 284.839H490.682V284.839ZM366.489 290.572L367.364 291.554V290.572H366.489ZM591.371 303.334L579.996 301.371C584.248 301.371 587.678 300.654 591.371 303.334ZM477.618 302.352L476.743 303.334V302.352H477.618ZM700.006 309.067C694.65 307.103 701.572 299.977 703.243 305.533C703.392 306.505 703.348 308.193 703.243 309.067C702.377 309.185 700.959 309.234 700.006 309.067ZM694.624 308.242L687.624 307.261L694.624 308.242ZM581.746 311.187L580.871 312.169V311.187H581.746ZM586.121 312.169L585.246 313.151V312.169H586.121ZM198.484 330.82C202.404 330.084 203.201 329.505 202.859 324.93C199.342 326.059 199 326.815 198.484 330.82ZM475.868 328.406C477.968 328.828 481.783 328.887 483.454 330.143C485.484 331.675 484.959 333.461 484.618 335.729C480.103 335.375 474.59 334.796 470.652 332.106L466.75 329.073C463.547 327.178 462.41 328.17 458.367 324.93L475.868 328.406V328.406ZM204.609 329.839L205.484 330.82V329.839H204.609ZM207.234 329.839L208.109 330.82V329.839H207.234ZM651.748 331.802L648.248 330.82L651.748 331.802ZM79.4805 331.802L75.1054 330.82L79.4805 331.802ZM94.356 331.802L93.4809 332.784V331.802H94.356ZM496.571 337.201C497.839 333.5 502.565 336.848 504.743 337.201C509.425 338.536 515.419 334.188 520.494 341.619V339.655H521.369C521.106 346.252 523.802 353.409 519.374 357.669C513.66 363.176 504.595 354.587 502.967 348.324C502.451 346.458 502.748 345.388 502.967 343.582C500.421 343.032 494.996 341.344 496.571 337.201V337.201ZM173.983 346.527L171.358 343.582L173.983 346.527ZM466.242 345.545L467.117 346.527V345.545H466.242ZM415.491 358.307L416.366 359.289V358.307H415.491ZM404.798 361.812C397.544 354.852 389.292 365.905 399.74 367.721C400.957 367.878 402.015 367.957 403.24 367.721C404.903 367.505 406.102 366.867 407.615 366.16C406.714 364.374 406.259 363.215 404.798 361.812ZM498.618 361.252L497.743 365.179H502.993L498.618 361.252ZM548.547 366.268C549.982 361.978 556.405 360.889 559.179 363.942C561.244 366.2 561.253 371 562.128 374.014C563.169 377.587 565.26 380.571 566.87 383.83C561.06 388.905 560.789 387.325 553.745 388.739C552.826 382.456 552.686 381.425 547.62 377.94C550.534 369.096 546.928 371.078 548.547 366.268V366.268ZM498.618 368.124L499.493 369.105V368.124H498.618ZM467.117 370.087L467.992 371.069V370.087H467.117ZM544.12 374.995C536.183 374.033 533.821 378.284 531.869 373.032C538.056 372.443 541.503 367.103 544.12 374.995ZM437.366 371.069L436.491 372.05V371.069H437.366ZM50.6046 374.995H47.1045L47.9796 372.05L50.6046 374.995ZM633.372 373.032L632.497 374.014V373.032H633.372ZM59.3549 376.959L54.1047 374.995L59.3549 376.959ZM61.105 376.959L60.2299 377.94V376.959H61.105ZM229.189 388.012C232.313 389.416 235.41 387.639 234.211 385.322C233.293 383.536 225.829 379.403 223.86 378.922C224.866 382.495 225.741 386.461 229.189 388.012ZM387.49 378.922L388.365 379.904V378.922H387.49ZM675.374 387.757H670.123V385.794C673.247 385.352 673.09 385.322 675.374 387.757ZM461.867 390.702V397.574L466.242 398.555V407.39L461.867 410.335L463.617 411.317V412.299L455.663 419.641L443.492 421.133L437.996 412.259C435.406 406.271 436.386 393.568 441.89 389.799C444.9 387.747 446.318 391.016 453.117 385.794C456.731 390.398 455.269 391.772 461.867 390.702V390.702ZM458.367 393.647L459.242 394.629V393.647H458.367ZM492.493 396.592V398.555L491.618 399.537L481.993 394.629L492.493 396.592ZM355.989 399.537L356.864 400.519V399.537H355.989ZM347.239 400.519L348.114 401.5V400.519H347.239ZM348.989 401.5L349.864 402.482V401.5H348.989ZM268.486 405.427L269.361 406.409V405.427H268.486ZM561.008 413.575C558.741 411.278 558.531 407.253 561.008 406.251C565.558 404.416 571.56 414.291 572.996 418.188C569.399 417.963 563.747 416.333 561.008 413.575V413.575ZM34.8542 407.39V409.354C29.9715 411.778 25.5089 413.261 20.8537 409.354C26.0514 406.399 29.1577 405.918 34.8542 407.39ZM30.479 408.372L31.3541 409.354V408.372H30.479ZM257.111 408.372L257.986 409.354V408.372H257.111ZM460.992 411.317L461.867 412.299V411.317H460.992ZM534.494 416.225C530.601 416.068 529.498 416.294 527.494 412.299L528.369 411.317C531.764 412.456 532.674 412.721 534.494 416.225ZM302.612 414.262L303.487 415.243V414.262H302.612ZM334.113 419.17L331.488 415.243L334.113 419.17ZM539.745 416.225L537.994 419.17L537.119 416.225H539.745ZM277.237 420.152L278.112 421.133V420.152H277.237ZM654.373 420.152L655.248 422.115L654.373 423.097L650.873 420.152H654.373ZM501.243 426.042C497.026 427.269 495.249 426.709 491.618 424.078C496.089 423.185 497.761 422.194 501.243 426.042ZM579.996 423.097L577.371 427.023L578.246 423.097H579.996ZM474.118 425.06L467.117 424.078L474.118 425.06ZM487.243 425.06L481.993 424.078L487.243 425.06ZM585.246 425.06C584.31 428.074 584.432 427.936 581.746 428.987C582.682 425.973 582.56 426.111 585.246 425.06ZM180.984 428.113C182.454 428.29 183.994 428.368 185.359 429.075C187.074 429.978 188.36 431.5 189.734 432.913C193.4 430.292 195.929 432.953 197.609 436.879C199.359 440.943 198.143 446.176 197.609 450.583L200.234 451.565C197.207 454.539 196.857 454.814 196.734 459.418L190.46 463.217L183.609 465.308L168.759 458.839L159.983 461.382V459.418C163.903 458.466 166.992 456.994 163.483 452.547V450.583L166.108 449.602L161.733 443.712C163.291 439.608 163.728 439.265 162.608 434.877L169.608 433.895C171.455 427.514 175.76 427.495 180.984 428.113V428.113ZM390.115 428.987L386.615 429.968C388.041 428.172 388.067 428.241 390.115 428.987ZM137.232 432.913H131.982C134.45 431.323 134.765 431.323 137.232 432.913ZM186.234 431.932L187.109 432.913V431.932H186.234ZM140.732 431.932L139.857 432.913V431.932H140.732ZM317.488 436.84L311.363 434.877C314.565 434.347 315.528 433.659 317.488 436.84ZM542.37 436.84L537.119 438.803L537.994 434.877L542.37 436.84ZM594.871 441.748C590.724 440.374 589.201 439.667 587.871 434.877C592.517 435.171 596.105 435.485 594.871 441.748ZM103.106 436.84L96.106 437.822C98.8011 435.868 100.07 435.534 103.106 436.84ZM204.609 437.822L201.109 438.803L204.609 437.822ZM665.748 436.84L661.373 439.785L665.748 436.84ZM299.112 439.785L298.237 440.767V439.785H299.112ZM159.983 443.712C157.174 443.437 156.719 443.771 155.608 440.767L159.983 443.712ZM632.497 442.73L628.122 440.767L632.497 442.73ZM144.232 445.675L137.232 444.693V442.73C140.785 442.337 142.185 442.151 144.232 445.675ZM305.237 443.712L304.362 448.62H302.612C302.201 445.145 302.271 444.89 305.237 443.712ZM148.608 451.565L147.733 452.547V451.565H148.608ZM320.113 461.382C314.941 461.254 311.38 461.048 308.737 455.492C313.174 456.051 316.788 458.054 320.113 461.382ZM313.988 458.437L314.863 459.418V458.437H313.988ZM700.749 462.363C697.136 461.666 696.777 461.313 695.499 457.455C698.746 458.564 699.594 458.672 700.749 462.363ZM638.623 465.308C634.641 463.983 633.679 462.903 632.497 458.437C636.566 459.693 637.914 460.518 638.623 465.308ZM635.997 461.382L636.872 462.363V461.382H635.997ZM323.613 461.382L322.738 462.363V461.382H323.613ZM331.269 464.336C336.66 465.387 341.376 463.61 344.614 470.217L337.622 472.416L331.339 467.556L324.488 462.363L331.269 464.336ZM663.998 471.198C659.466 470.786 653.612 470.923 654.373 464.327C659.107 466.231 660.454 467.134 663.998 471.198ZM219.485 465.308L218.61 466.29V465.308H219.485ZM206.359 471.198C206.937 473.859 207.864 478.001 206.359 480.465C203.314 485.501 195.115 482.782 197.399 476.234C198.948 471.777 202.019 474.241 206.359 466.29C207.304 468.136 208.634 470.207 206.359 471.198ZM245.736 467.272L246.611 468.253V467.272H245.736ZM456.617 469.235L453.992 466.29L456.617 469.235ZM219.485 469.235L220.36 472.18H216.86L219.485 469.235ZM282.487 482.978L279.862 470.217C282.635 473.584 283.922 478.58 282.487 482.978ZM391.865 479.052L389.24 478.07V472.18C391.926 474.369 392.058 475.41 391.865 479.052ZM239.61 475.125L240.485 476.107V475.125H239.61ZM215.11 480.033H220.36C215.512 484.843 213.517 486.787 217.735 492.795L214.235 494.758C210.157 485.324 212.8 483.921 215.985 475.125L215.11 480.033V480.033ZM264.986 485.923L262.361 486.905L261.486 481.997L264.986 485.923ZM104.856 489.85L99.6061 491.813C101.277 489.015 101.995 488.711 104.856 489.85V489.85ZM214.235 490.832L215.11 491.813V490.832H214.235V490.832ZM689.374 494.758L688.499 495.74V494.758H689.374ZM710.375 502.611L709.5 503.593V502.611H710.375ZM67.2301 506.538L66.3551 507.52V506.538H67.2301ZM222.241 516.159C219.642 516.159 218.216 510.74 223.037 508.207C224.455 507.461 227.491 506.882 229.11 506.538L229.985 507.52C228.786 510.357 225.435 516.159 222.241 516.159V516.159ZM224.735 509.483L225.61 510.465V509.483H224.735ZM214.235 521.263L215.985 513.41C218.312 517.199 217.078 518.534 214.235 521.263ZM412.866 519.3L411.991 523.226L411.116 519.3H412.866ZM337.613 537.951V534.025V537.951ZM156.483 544.823C155.853 539.198 158.977 538.373 162.608 535.006C161.943 539.041 159.502 542.585 156.483 544.823ZM150.358 542.86L154.733 536.97C154.479 540.553 153.07 541.338 150.358 542.86ZM18.2287 540.896L17.3536 541.878V540.896H18.2287ZM208.984 540.896C207.418 544.627 207.304 545.471 203.734 546.786C204.548 542.732 205.371 541.809 208.984 540.896ZM336.756 548.789C339.608 557.437 326.186 559.607 328.566 550.752C328.942 549.329 329.773 548.337 330.744 547.385L334.113 544.823C335.137 546.04 336.213 547.169 336.756 548.789ZM362.989 553.658L361.239 549.731L362.989 553.658ZM219.485 555.621L222.11 551.695L219.485 555.621ZM302.612 562.493V558.566V562.493ZM307.862 572.31C306.375 574.41 306.454 574.744 304.362 573.291L307.862 572.31ZM173.983 588.016L168.733 585.071C170.527 577.581 172.741 580.124 179.234 575.255L173.983 588.016ZM283.362 590.961C278.698 589.125 280.387 586.043 280.737 581.145L283.362 590.961ZM307.862 595.87C308.869 596.655 309.271 596.606 309.858 598.098C313.629 607.757 299.436 610.565 301.484 600.788C302.245 597.126 304.94 596.017 306.987 591.943L307.862 595.87ZM303.487 596.851L304.362 597.833V596.851H303.487ZM634.247 603.723L630.747 608.631V604.704L634.247 603.723ZM461.867 618.448L459.242 613.539L461.867 618.448Z" fill="#EDEDED"/>
</svg>
