<svg width="135" height="135" viewBox="0 0 135 135" fill="none" xmlns="http://www.w3.org/2000/svg">
<g clip-path="url(#clip0)">
<path d="M109.375 62.0506C108.685 58.4125 106.7 54.9294 103.586 52.542C103.395 52.3688 103.201 52.2003 103.002 52.0342C114.328 45.4588 108.853 27.7579 95.4015 28.2531C95.4456 24.1343 93.8953 20.6877 91.3763 17.9473C86.3961 10.0362 73.8949 6.90094 65.4844 10.8892C60.8988 12.0391 57.4282 14.6237 56.6345 18.7194C53.2237 17.575 48.9292 18.5565 46.0803 20.4397C42.011 23.1292 39.9992 28.0291 40.5635 32.7174C38.8513 32.7882 37.3462 33.3614 36.0712 34.3457C30.6461 36.5 27.2782 43.2738 27.1941 49.2465C27.1067 55.4321 30.9576 65.6606 38.1851 64.8825C32.3574 68.3943 36.767 75.5192 42.5585 81.4636C43.0685 82.0084 43.6079 82.5427 44.1769 83.0627C47.7485 86.4687 51.5009 89.2866 53.5071 90.4696C55.8579 91.8555 58.3363 92.9562 60.8738 93.7879C59.6836 98.5972 58.2959 103.241 56.6717 108.013C54.8377 113.401 54.1095 119.876 58.7764 124.19C63.7365 128.775 68.288 118.449 69.3683 115.447C70.7793 111.524 71.3023 107.581 71.501 103.422C71.606 101.239 72.0673 98.182 71.7658 95.6294C78.9699 95.7325 85.9403 93.6166 91.2808 89.1794C95.8094 86.6328 99.1965 83.0682 100.17 78.4166C108.723 75.9901 111.128 68.8316 109.375 62.0506ZM94.8953 75.3481C93.7954 79.0723 91.9036 82.0773 89.4926 84.4259C82.466 88.9445 73.4524 90.5677 64.8085 89.6208C63.888 89.5196 62.8499 89.3184 61.7362 89.0291C60.8701 88.7271 60.0156 88.3883 59.1783 88.0131C54.0919 85.7326 42.9065 78.8439 40.9856 72.0941C41.0109 69.7333 42.2286 67.3224 45.1545 64.9921C46.3982 64.0015 45.604 62.2254 44.0989 62.2523C36.7574 62.3816 34.6508 54.0751 34.2924 48.2242C34.0158 43.7031 35.2976 40.2329 37.9943 37.8283C39.4341 37.3655 41.0283 37.2257 42.697 37.0207C43.3899 36.9353 43.8709 36.3183 43.9815 35.6739C44.4723 35.6136 44.9252 35.2339 44.8033 34.6655C44.2977 32.3116 44.5144 29.7917 45.3259 27.6435C45.9938 26.4032 46.8998 25.2691 48.0486 24.2898C49.353 23.1779 50.9037 22.569 52.5794 22.367C54.151 22.4939 55.9005 23.1285 57.8135 24.5054C58.0784 24.6961 58.3914 24.7807 58.7008 24.7855C60.3325 25.4322 61.47 23.3345 60.6944 21.9862C60.632 21.878 60.5573 21.7881 60.4909 21.685C61.0491 19.5137 62.0272 17.762 63.3044 16.378C66.9411 14.367 72.5585 14.5194 76.1758 15.1468C83.9038 16.4869 89.3948 21.0765 90.476 28.4305C90.4905 28.5848 90.5099 28.7354 90.5209 28.891C90.5248 28.9416 90.5545 28.9698 90.5629 29.0161C90.5876 29.236 90.5992 29.4632 90.6163 29.6875C90.4485 30.0574 90.481 30.4892 90.697 30.8183C90.7923 32.6542 92.8454 33.0971 94.1397 32.2951C103.356 33.7068 110.627 46.4642 97.905 49.3361C95.8209 49.806 95.042 52.6051 97.2135 53.6343C105.782 57.6966 108.957 69.2748 99.9655 73.5349C99.6633 73.4223 99.2876 73.5068 99.1154 73.8494C99.1107 73.8588 99.105 73.8668 99.1003 73.8761C99.072 73.8868 99.0412 73.8976 99.0123 73.9082C97.7761 73.0459 95.4763 73.3811 94.8953 75.3481Z" fill="black"/>
</g>
<defs>
<clipPath id="clip0">
<rect width="117" height="117" fill="white" transform="translate(18.583) rotate(9.13892)"/>
</clipPath>
</defs>
</svg>
